<svg width="19" height="20" viewBox="0 0 19 20" fill="none" xmlns="http://www.w3.org/2000/svg">
<g filter="url(#filter0_d_2394_10952)">
<path fill-rule="evenodd" clip-rule="evenodd" d="M9.00033 1.29297C6.95595 1.29297 4.9953 2.10509 3.54971 3.55069C2.10412 4.99628 1.29199 6.95692 1.29199 9.0013C1.29199 11.0457 2.10412 13.0063 3.54971 14.4519C4.9953 15.8975 6.95595 16.7096 9.00033 16.7096C11.0447 16.7096 13.0053 15.8975 14.4509 14.4519C15.8965 13.0063 16.7087 11.0457 16.7087 9.0013C16.7087 6.95692 15.8965 4.99628 14.4509 3.55069C13.0053 2.10509 11.0447 1.29297 9.00033 1.29297ZM0.0419922 9.0013C0.0419922 4.0538 4.05283 0.0429688 9.00033 0.0429688C13.9478 0.0429688 17.9587 4.0538 17.9587 9.0013C17.9587 13.9488 13.9478 17.9596 9.00033 17.9596C4.05283 17.9596 0.0419922 13.9488 0.0419922 9.0013ZM9.00033 5.04297C9.16609 5.04297 9.32506 5.10882 9.44227 5.22603C9.55948 5.34324 9.62533 5.50221 9.62533 5.66797V8.74297L11.5253 10.643C11.5867 10.7002 11.636 10.7692 11.6701 10.8459C11.7043 10.9225 11.7227 11.0053 11.7242 11.0892C11.7256 11.1731 11.7102 11.2565 11.6788 11.3343C11.6473 11.4121 11.6005 11.4828 11.5412 11.5422C11.4818 11.6015 11.4111 11.6483 11.3333 11.6797C11.2555 11.7112 11.1721 11.7266 11.0882 11.7251C11.0043 11.7236 10.9215 11.7053 10.8449 11.6711C10.7682 11.637 10.6992 11.5877 10.642 11.5263L8.55866 9.44297C8.44141 9.32587 8.37547 9.16701 8.37533 9.0013V5.66797C8.37533 5.50221 8.44117 5.34324 8.55838 5.22603C8.67559 5.10882 8.83457 5.04297 9.00033 5.04297Z" fill="black"/>
</g>
<defs>
<filter id="filter0_d_2394_10952" x="0.0419922" y="0.0429688" width="18.917" height="19.918" filterUnits="userSpaceOnUse" color-interpolation-filters="sRGB">
<feFlood flood-opacity="0" result="BackgroundImageFix"/>
<feColorMatrix in="SourceAlpha" type="matrix" values="0 0 0 0 0 0 0 0 0 0 0 0 0 0 0 0 0 0 127 0" result="hardAlpha"/>
<feOffset dx="1" dy="2"/>
<feComposite in2="hardAlpha" operator="out"/>
<feColorMatrix type="matrix" values="0 0 0 0 1 0 0 0 0 0.831373 0 0 0 0 0.227451 0 0 0 1 0"/>
<feBlend mode="normal" in2="BackgroundImageFix" result="effect1_dropShadow_2394_10952"/>
<feBlend mode="normal" in="SourceGraphic" in2="effect1_dropShadow_2394_10952" result="shape"/>
</filter>
</defs>
</svg>
