<svg width="19" height="14" viewBox="0 0 19 14" fill="none" xmlns="http://www.w3.org/2000/svg">
<path d="M7.70898 8.66536C8.37203 8.66536 9.00791 8.92876 9.47675 9.3976C9.94559 9.86644 10.209 10.5023 10.209 11.1654C10.209 11.8284 9.94559 12.4643 9.47675 12.9331C9.00791 13.402 8.37203 13.6654 7.70898 13.6654C7.04594 13.6654 6.41006 13.402 5.94122 12.9331C5.47238 12.4643 5.20898 11.8284 5.20898 11.1654C5.20898 10.5023 5.47238 9.86644 5.94122 9.3976C6.41006 8.92876 7.04594 8.66536 7.70898 8.66536ZM11.8757 0.332031C11.5473 0.332031 11.2223 0.396696 10.9189 0.522333C10.6156 0.647969 10.34 0.832118 10.1079 1.06426C9.87574 1.29641 9.69159 1.57201 9.56595 1.87532C9.44032 2.17864 9.37565 2.50373 9.37565 2.83203C9.37565 3.16034 9.44032 3.48543 9.56595 3.78874C9.69159 4.09205 9.87574 4.36765 10.1079 4.5998C10.34 4.83194 10.6156 5.01609 10.9189 5.14173C11.2223 5.26737 11.5473 5.33203 11.8757 5.33203C12.5387 5.33203 13.1746 5.06864 13.6434 4.5998C14.1123 4.13096 14.3757 3.49507 14.3757 2.83203C14.3757 2.16899 14.1123 1.53311 13.6434 1.06426C13.1746 0.595423 12.5387 0.332031 11.8757 0.332031ZM7.29232 2.17286C7.45808 2.17286 7.61705 2.23871 7.73426 2.35592C7.85147 2.47313 7.91732 2.6321 7.91732 2.79786C7.91732 2.96362 7.85147 3.1226 7.73426 3.23981C7.61705 3.35702 7.45808 3.42286 7.29232 3.42286H1.45898C1.29322 3.42286 1.13425 3.35702 1.01704 3.23981C0.899832 3.1226 0.833984 2.96362 0.833984 2.79786C0.833984 2.6321 0.899832 2.47313 1.01704 2.35592C1.13425 2.23871 1.29322 2.17286 1.45898 2.17286H7.29232ZM12.2923 10.5062C12.1266 10.5062 11.9676 10.572 11.8504 10.6893C11.7332 10.8065 11.6673 10.9654 11.6673 11.1312C11.6673 11.297 11.7332 11.4559 11.8504 11.5731C11.9676 11.6903 12.1266 11.7562 12.2923 11.7562H18.1257C18.2914 11.7562 18.4504 11.6903 18.5676 11.5731C18.6848 11.4559 18.7507 11.297 18.7507 11.1312C18.7507 10.9654 18.6848 10.8065 18.5676 10.6893C18.4504 10.572 18.2914 10.5062 18.1257 10.5062H12.2923ZM0.833984 11.1312C0.833984 10.9654 0.899832 10.8065 1.01704 10.6893C1.13425 10.572 1.29322 10.5062 1.45898 10.5062H3.12565C3.29141 10.5062 3.45038 10.572 3.56759 10.6893C3.6848 10.8065 3.75065 10.9654 3.75065 11.1312C3.75065 11.297 3.6848 11.4559 3.56759 11.5731C3.45038 11.6903 3.29141 11.7562 3.12565 11.7562H1.45898C1.29322 11.7562 1.13425 11.6903 1.01704 11.5731C0.899832 11.4559 0.833984 11.297 0.833984 11.1312ZM18.1257 2.17286C18.2914 2.17286 18.4504 2.23871 18.5676 2.35592C18.6848 2.47313 18.7507 2.6321 18.7507 2.79786C18.7507 2.96362 18.6848 3.1226 18.5676 3.23981C18.4504 3.35702 18.2914 3.42286 18.1257 3.42286H16.459C16.2932 3.42286 16.1343 3.35702 16.017 3.23981C15.8998 3.1226 15.834 2.96362 15.834 2.79786C15.834 2.6321 15.8998 2.47313 16.017 2.35592C16.1343 2.23871 16.2932 2.17286 16.459 2.17286H18.1257Z" fill="#222222"/>
</svg>
