<svg width="19" height="19" viewBox="0 0 19 19" fill="none" xmlns="http://www.w3.org/2000/svg">
<g filter="url(#filter0_d_2202_10460)">
<path fill-rule="evenodd" clip-rule="evenodd" d="M6.88699 1.35058C7.5475 1.03744 8.26935 0.875 9.00033 0.875C9.7313 0.875 10.4531 1.03744 11.1137 1.35058L16.6887 3.96558C17.567 4.37558 17.9587 5.26891 17.9587 6.08391C17.9587 6.89891 17.567 7.79224 16.6895 8.20308L15.4587 8.77974V12.8547C15.4587 13.8989 14.9353 14.9072 13.982 15.4356C13.3553 15.7822 12.532 16.1997 11.6653 16.5322C10.8095 16.8606 9.86199 17.1256 9.00033 17.1256C8.13866 17.1256 7.19116 16.8606 6.33449 16.5322C5.46782 16.1997 4.64533 15.7822 4.01866 15.4356C3.06533 14.9072 2.54199 13.8989 2.54199 12.8547V8.77974L1.31116 8.20224L1.29199 8.19391V10.6672C1.29199 10.833 1.22614 10.992 1.10893 11.1092C0.991724 11.2264 0.832752 11.2922 0.666992 11.2922C0.501232 11.2922 0.342261 11.2264 0.22505 11.1092C0.10784 10.992 0.0419922 10.833 0.0419922 10.6672V6.08391C0.0419922 5.26891 0.434492 4.37558 1.31116 3.96558L6.88699 1.35058ZM3.79199 9.36641V12.8556C3.79199 13.4914 4.10783 14.0564 4.62449 14.3431C5.31981 14.7327 6.04094 15.0743 6.78282 15.3656C7.58533 15.6739 8.36532 15.8764 9.00033 15.8764C9.63533 15.8764 10.4153 15.6739 11.2187 15.3656C11.9605 15.0743 12.6817 14.7327 13.377 14.3431C13.8937 14.0564 14.2087 13.4914 14.2087 12.8556V9.36641L11.1137 10.8172C10.4531 11.1304 9.7313 11.2928 9.00033 11.2928C8.26935 11.2928 7.5475 11.1304 6.88699 10.8172L3.79199 9.36641ZM1.84199 7.07058C1.50616 6.91308 1.29199 6.53724 1.29199 6.08391C1.29199 5.63058 1.50616 5.25474 1.84199 5.09724L7.41783 2.48308C7.91222 2.24785 8.45283 2.1258 9.00033 2.1258C9.54782 2.1258 10.0884 2.24785 10.5828 2.48308L16.1587 5.09724C16.4945 5.25474 16.7087 5.63058 16.7087 6.08391C16.7087 6.53724 16.4945 6.91308 16.1587 7.07058L10.5828 9.68474C10.0884 9.91997 9.54782 10.042 9.00033 10.042C8.45283 10.042 7.91222 9.91997 7.41783 9.68474L1.84199 7.07058Z" fill="black"/>
</g>
<defs>
<filter id="filter0_d_2202_10460" x="0.0419922" y="0.875" width="18.917" height="18.25" filterUnits="userSpaceOnUse" color-interpolation-filters="sRGB">
<feFlood flood-opacity="0" result="BackgroundImageFix"/>
<feColorMatrix in="SourceAlpha" type="matrix" values="0 0 0 0 0 0 0 0 0 0 0 0 0 0 0 0 0 0 127 0" result="hardAlpha"/>
<feOffset dx="1" dy="2"/>
<feComposite in2="hardAlpha" operator="out"/>
<feColorMatrix type="matrix" values="0 0 0 0 1 0 0 0 0 0.831373 0 0 0 0 0.227451 0 0 0 1 0"/>
<feBlend mode="normal" in2="BackgroundImageFix" result="effect1_dropShadow_2202_10460"/>
<feBlend mode="normal" in="SourceGraphic" in2="effect1_dropShadow_2202_10460" result="shape"/>
</filter>
</defs>
</svg>
