<svg width="19" height="19" viewBox="0 0 19 19" fill="none" xmlns="http://www.w3.org/2000/svg">
<g filter="url(#filter0_d_2491_10175)">
<path fill-rule="evenodd" clip-rule="evenodd" d="M11.2979 1.18585C12.0297 0.454077 13.0222 0.0429688 14.0571 0.0429688C15.092 0.0429688 16.0845 0.454077 16.8163 1.18585C17.5481 1.91763 17.9592 2.91013 17.9592 3.94502C17.9592 4.97991 17.5481 5.97241 16.8163 6.70419L8.91127 14.6092C8.45961 15.0609 8.19461 15.3259 7.89794 15.5567C7.54961 15.8292 7.17294 16.0625 6.77294 16.2525C6.43461 16.4134 6.07794 16.5325 5.47294 16.7342L2.69627 17.6592L2.02794 17.8825C1.76213 17.9713 1.47686 17.9842 1.20411 17.9199C0.931362 17.8555 0.681925 17.7165 0.483773 17.5184C0.28562 17.3202 0.146587 17.0708 0.0822644 16.798C0.0179416 16.5253 0.030873 16.24 0.119608 15.9742L1.26794 12.53C1.46961 11.9242 1.58877 11.5675 1.74961 11.2284C1.94044 10.8292 2.17294 10.4525 2.44544 10.1034C2.67544 9.80835 2.94127 9.54252 3.39294 9.09085L11.2979 1.18585ZM2.66711 16.3525L5.03461 15.5625C5.69378 15.3425 5.97377 15.2484 6.23461 15.1242C6.55127 14.9725 6.85127 14.7875 7.12878 14.5717C7.35628 14.3934 7.56628 14.1859 8.05794 13.6942L14.3663 7.38585C13.5014 7.07937 12.7163 6.58273 12.0688 5.93252C11.4191 5.28491 10.9231 4.4998 10.6171 3.63502L4.30877 9.94335C3.81711 10.4342 3.60877 10.6434 3.43127 10.8717C3.21548 11.149 3.03024 11.4488 2.87877 11.7659C2.75461 12.0267 2.66044 12.3067 2.44044 12.9659L1.65044 15.335L2.66711 16.3525ZM11.6296 2.62085C11.6588 2.76669 11.7063 2.96502 11.7871 3.19585C12.0308 3.89343 12.4297 4.52657 12.9538 5.04752C13.4745 5.57145 14.1073 5.97036 14.8046 6.21419C15.0363 6.29502 15.2346 6.34252 15.3804 6.37169L15.9321 5.82002C16.4265 5.32214 16.7034 4.6486 16.7022 3.94694C16.701 3.24528 16.4217 2.57272 15.9256 2.07657C15.4294 1.58042 14.7568 1.30115 14.0552 1.29992C13.3535 1.29869 12.68 1.57561 12.1821 2.07002L11.6296 2.62085Z" fill="#222222"/>
</g>
<defs>
<filter id="filter0_d_2491_10175" x="0.0419922" y="0.0429688" width="18.917" height="19.918" filterUnits="userSpaceOnUse" color-interpolation-filters="sRGB">
<feFlood flood-opacity="0" result="BackgroundImageFix"/>
<feColorMatrix in="SourceAlpha" type="matrix" values="0 0 0 0 0 0 0 0 0 0 0 0 0 0 0 0 0 0 127 0" result="hardAlpha"/>
<feOffset dx="1" dy="2"/>
<feComposite in2="hardAlpha" operator="out"/>
<feColorMatrix type="matrix" values="0 0 0 0 1 0 0 0 0 0.831373 0 0 0 0 0.227451 0 0 0 1 0"/>
<feBlend mode="normal" in2="BackgroundImageFix" result="effect1_dropShadow_2491_10175"/>
<feBlend mode="normal" in="SourceGraphic" in2="effect1_dropShadow_2491_10175" result="shape"/>
</filter>
</defs>
</svg>
