<svg width="19" height="19" viewBox="0 0 19 19" fill="none" xmlns="http://www.w3.org/2000/svg">
<g filter="url(#filter0_d_2394_10945)">
<path fill-rule="evenodd" clip-rule="evenodd" d="M6.05866 1.05778C6.17585 0.940741 6.3347 0.875 6.50033 0.875C6.66595 0.875 6.8248 0.940741 6.94199 1.05778L8.60866 2.72445C8.69596 2.81186 8.75539 2.92317 8.77946 3.04434C8.80353 3.1655 8.79116 3.29108 8.7439 3.40522C8.69664 3.51936 8.61662 3.61693 8.51394 3.68561C8.41126 3.75429 8.29053 3.79101 8.16699 3.79112H6.50033C5.11899 3.79112 3.79423 4.33985 2.81748 5.3166C1.84073 6.29335 1.29199 7.61811 1.29199 8.99945C1.29199 10.3808 1.84073 11.7055 2.81748 12.6823C3.79423 13.659 5.11899 14.2078 6.50033 14.2078H6.91699C7.08275 14.2078 7.24172 14.2736 7.35893 14.3908C7.47614 14.5081 7.54199 14.667 7.54199 14.8328C7.54199 14.9985 7.47614 15.1575 7.35893 15.2747C7.24172 15.3919 7.08275 15.4578 6.91699 15.4578H6.50033C4.78747 15.4578 3.14477 14.7774 1.93359 13.5662C0.722422 12.355 0.0419922 10.7123 0.0419922 8.99945C0.0419922 7.28659 0.722422 5.64389 1.93359 4.43272C3.14477 3.22155 4.78747 2.54112 6.50033 2.54112H6.65866L6.05866 1.94112C5.94162 1.82393 5.87588 1.66508 5.87588 1.49945C5.87588 1.33382 5.94162 1.17497 6.05866 1.05778ZM10.4587 3.16612C10.4587 3.00036 10.5245 2.84139 10.6417 2.72417C10.7589 2.60696 10.9179 2.54112 11.0837 2.54112H11.5003C13.2132 2.54112 14.8559 3.22155 16.0671 4.43272C17.2782 5.64389 17.9587 7.28659 17.9587 8.99945C17.9587 10.7123 17.2782 12.355 16.0671 13.5662C14.8559 14.7774 13.2132 15.4578 11.5003 15.4578H11.342L11.942 16.0578C12.0034 16.115 12.0526 16.184 12.0868 16.2607C12.121 16.3373 12.1393 16.4201 12.1408 16.504C12.1423 16.5879 12.1269 16.6713 12.0954 16.7491C12.064 16.8269 12.0172 16.8976 11.9579 16.957C11.8985 17.0163 11.8278 17.0631 11.75 17.0946C11.6722 17.126 11.5888 17.1414 11.5049 17.1399C11.421 17.1385 11.3382 17.1201 11.2615 17.0859C11.1849 17.0518 11.1159 17.0025 11.0587 16.9411L9.39199 15.2745C9.3047 15.187 9.24526 15.0757 9.22119 14.9546C9.19712 14.8334 9.20949 14.7078 9.25675 14.5937C9.30401 14.4795 9.38404 14.382 9.48672 14.3133C9.58939 14.2446 9.71012 14.2079 9.83366 14.2078H11.5003C12.8817 14.2078 14.2064 13.659 15.1832 12.6823C16.1599 11.7055 16.7087 10.3808 16.7087 8.99945C16.7087 7.61811 16.1599 6.29335 15.1832 5.3166C14.2064 4.33985 12.8817 3.79112 11.5003 3.79112H11.0837C10.9179 3.79112 10.7589 3.72527 10.6417 3.60806C10.5245 3.49085 10.4587 3.33188 10.4587 3.16612Z" fill="black"/>
</g>
<defs>
<filter id="filter0_d_2394_10945" x="0.0419922" y="0.875" width="18.917" height="18.2656" filterUnits="userSpaceOnUse" color-interpolation-filters="sRGB">
<feFlood flood-opacity="0" result="BackgroundImageFix"/>
<feColorMatrix in="SourceAlpha" type="matrix" values="0 0 0 0 0 0 0 0 0 0 0 0 0 0 0 0 0 0 127 0" result="hardAlpha"/>
<feOffset dx="1" dy="2"/>
<feComposite in2="hardAlpha" operator="out"/>
<feColorMatrix type="matrix" values="0 0 0 0 1 0 0 0 0 0.831373 0 0 0 0 0.227451 0 0 0 1 0"/>
<feBlend mode="normal" in2="BackgroundImageFix" result="effect1_dropShadow_2394_10945"/>
<feBlend mode="normal" in="SourceGraphic" in2="effect1_dropShadow_2394_10945" result="shape"/>
</filter>
</defs>
</svg>
