<svg width="16" height="16" viewBox="0 0 16 16" fill="none" xmlns="http://www.w3.org/2000/svg">
<path fill-rule="evenodd" clip-rule="evenodd" d="M7.66732 1.83203C6.90127 1.83203 6.14273 1.98291 5.435 2.27607C4.72727 2.56922 4.0842 2.9989 3.54253 3.54058C3.00085 4.08225 2.57117 4.72531 2.27802 5.43304C1.98487 6.14078 1.83398 6.89932 1.83398 7.66536C1.83398 8.43141 1.98487 9.18995 2.27802 9.89769C2.57117 10.6054 3.00085 11.2485 3.54253 11.7902C4.0842 12.3318 4.72727 12.7615 5.435 13.0547C6.14273 13.3478 6.90127 13.4987 7.66732 13.4987C9.21441 13.4987 10.6981 12.8841 11.7921 11.7902C12.8861 10.6962 13.5007 9.21246 13.5007 7.66536C13.5007 6.11827 12.8861 4.63454 11.7921 3.54058C10.6981 2.44661 9.21441 1.83203 7.66732 1.83203ZM0.833984 7.66536C0.833984 3.89203 3.89398 0.832031 7.66732 0.832031C11.4407 0.832031 14.5007 3.89203 14.5007 7.66536C14.5007 9.37203 13.8747 10.9334 12.84 12.1307L15.0207 14.312C15.0698 14.3578 15.1092 14.413 15.1365 14.4743C15.1638 14.5357 15.1785 14.6019 15.1797 14.669C15.1809 14.7362 15.1685 14.8028 15.1434 14.8651C15.1183 14.9274 15.0808 14.9839 15.0333 15.0314C14.9859 15.0789 14.9293 15.1163 14.867 15.1414C14.8048 15.1666 14.7381 15.1789 14.671 15.1778C14.6038 15.1766 14.5376 15.1619 14.4763 15.1346C14.415 15.1072 14.3598 15.0678 14.314 15.0187L12.1327 12.838C10.8929 13.9114 9.30721 14.5011 7.66732 14.4987C3.89398 14.4987 0.833984 11.4387 0.833984 7.66536Z" fill="#A020F0"/>
</svg>
