<svg width="21" height="20" viewBox="0 0 21 20" fill="none" xmlns="http://www.w3.org/2000/svg">
<g filter="url(#filter0_d_2204_10634)">
<path fill-rule="evenodd" clip-rule="evenodd" d="M7.87602 2.70703H7.95768C9.29268 2.70703 10.351 2.70703 11.1877 2.8062C12.046 2.90786 12.7543 3.12036 13.3443 3.6062C13.5443 3.77036 13.7285 3.9537 13.8935 4.15453C14.3785 4.74536 14.591 5.45203 14.6935 6.3112C14.716 6.50453 14.7335 6.70953 14.7468 6.92703C15.4018 6.60036 15.9568 6.33203 16.4193 6.18036C16.9627 6.00286 17.5385 5.9312 18.0693 6.25953C18.6002 6.58786 18.7943 7.13453 18.8777 7.69953C18.9585 8.24536 18.9585 8.96286 18.9585 9.82536V10.172C18.9585 11.0345 18.9585 11.752 18.8777 12.297C18.7943 12.8629 18.6002 13.4095 18.0693 13.7379C17.5385 14.0662 16.9627 13.9945 16.4193 13.817C15.9568 13.6654 15.4018 13.397 14.7468 13.0704C14.7335 13.2879 14.716 13.4929 14.6927 13.6862C14.591 14.5445 14.3785 15.2529 13.8927 15.8429C13.7285 16.0429 13.5452 16.227 13.3443 16.392C12.7535 16.877 12.0468 17.0895 11.1877 17.192C10.3502 17.2904 9.29268 17.2904 7.95768 17.2904H7.87518C6.54018 17.2904 5.48185 17.2904 4.64518 17.1912C3.78685 17.0895 3.07852 16.877 2.48852 16.3912C2.28795 16.2268 2.10401 16.0432 1.93935 15.8429C1.45435 15.252 1.24185 14.5454 1.13935 13.6862C1.04102 12.8487 1.04102 11.7912 1.04102 10.4562V9.54036C1.04102 8.20536 1.04102 7.14703 1.14018 6.31036C1.24185 5.45203 1.45435 4.7437 1.94018 4.1537C2.10453 3.95312 2.28819 3.76918 2.48852 3.60453C3.07935 3.11953 3.78602 2.90703 4.64518 2.80453C5.48352 2.70703 6.54185 2.70703 7.87602 2.70703ZM13.5418 10.4154V9.58203C13.5418 8.19703 13.541 7.21286 13.4518 6.45786C13.3643 5.71703 13.1985 5.2787 12.9268 4.94703C12.8144 4.81009 12.6888 4.68449 12.5518 4.57203C12.2202 4.30036 11.7818 4.13453 11.041 4.04703C10.286 3.95786 9.30185 3.95703 7.91685 3.95703C6.53185 3.95703 5.54768 3.95786 4.79268 4.04703C4.05185 4.13453 3.61352 4.30036 3.28185 4.57203C3.14488 4.68446 3.01928 4.81006 2.90685 4.94703C2.63518 5.2787 2.46935 5.71703 2.38185 6.45786C2.29268 7.21286 2.29185 8.19703 2.29185 9.58203V10.4154C2.29185 11.8004 2.29268 12.7845 2.38185 13.5395C2.46935 14.2804 2.63518 14.7187 2.90685 15.0504C3.01948 15.1872 3.14506 15.3127 3.28185 15.4254C3.61352 15.697 4.05185 15.8629 4.79268 15.9504C5.54768 16.0395 6.53185 16.0404 7.91685 16.0404C9.30185 16.0404 10.286 16.0395 11.041 15.9504C11.7818 15.8629 12.2202 15.697 12.5518 15.4254C12.6886 15.3127 12.8142 15.1872 12.9268 15.0504C13.1985 14.7187 13.3643 14.2804 13.4518 13.5395C13.541 12.7845 13.5418 11.8004 13.5418 10.4154ZM14.7918 11.6962L14.9952 11.797C15.8243 12.212 16.3835 12.4895 16.8085 12.6287C17.2243 12.7645 17.3502 12.712 17.4118 12.6745C17.4735 12.6362 17.5768 12.547 17.641 12.1137C17.7068 11.672 17.7085 11.047 17.7085 10.1204V9.87703C17.7085 8.94953 17.7068 8.32536 17.6418 7.8837C17.5768 7.45036 17.4735 7.3612 17.4118 7.32286C17.3502 7.28453 17.2243 7.23286 16.8085 7.3687C16.3835 7.50786 15.8252 7.78536 14.9952 8.20036L14.7918 8.30203V10.527V11.6962Z" fill="black"/>
</g>
<defs>
<filter id="filter0_d_2204_10634" x="1.04102" y="2.70703" width="19.918" height="16.582" filterUnits="userSpaceOnUse" color-interpolation-filters="sRGB">
<feFlood flood-opacity="0" result="BackgroundImageFix"/>
<feColorMatrix in="SourceAlpha" type="matrix" values="0 0 0 0 0 0 0 0 0 0 0 0 0 0 0 0 0 0 127 0" result="hardAlpha"/>
<feOffset dx="2" dy="2"/>
<feComposite in2="hardAlpha" operator="out"/>
<feColorMatrix type="matrix" values="0 0 0 0 1 0 0 0 0 0.831373 0 0 0 0 0.227451 0 0 0 1 0"/>
<feBlend mode="normal" in2="BackgroundImageFix" result="effect1_dropShadow_2204_10634"/>
<feBlend mode="normal" in="SourceGraphic" in2="effect1_dropShadow_2204_10634" result="shape"/>
</filter>
</defs>
</svg>
