<svg width="20" height="20" viewBox="0 0 20 20" fill="none" xmlns="http://www.w3.org/2000/svg">
<path d="M14.1667 11.6667C14.3877 11.6667 14.5996 11.5789 14.7559 11.4226C14.9122 11.2663 15 11.0543 15 10.8333C15 10.6123 14.9122 10.4004 14.7559 10.2441C14.5996 10.0878 14.3877 10 14.1667 10C13.9457 10 13.7337 10.0878 13.5774 10.2441C13.4211 10.4004 13.3333 10.6123 13.3333 10.8333C13.3333 11.0543 13.4211 11.2663 13.5774 11.4226C13.7337 11.5789 13.9457 11.6667 14.1667 11.6667ZM14.1667 15C14.3877 15 14.5996 14.9122 14.7559 14.7559C14.9122 14.5996 15 14.3877 15 14.1667C15 13.9457 14.9122 13.7337 14.7559 13.5774C14.5996 13.4211 14.3877 13.3333 14.1667 13.3333C13.9457 13.3333 13.7337 13.4211 13.5774 13.5774C13.4211 13.7337 13.3333 13.9457 13.3333 14.1667C13.3333 14.3877 13.4211 14.5996 13.5774 14.7559C13.7337 14.9122 13.9457 15 14.1667 15ZM10.8333 10.8333C10.8333 11.0543 10.7455 11.2663 10.5893 11.4226C10.433 11.5789 10.221 11.6667 10 11.6667C9.77899 11.6667 9.56702 11.5789 9.41074 11.4226C9.25446 11.2663 9.16667 11.0543 9.16667 10.8333C9.16667 10.6123 9.25446 10.4004 9.41074 10.2441C9.56702 10.0878 9.77899 10 10 10C10.221 10 10.433 10.0878 10.5893 10.2441C10.7455 10.4004 10.8333 10.6123 10.8333 10.8333ZM10.8333 14.1667C10.8333 14.3877 10.7455 14.5996 10.5893 14.7559C10.433 14.9122 10.221 15 10 15C9.77899 15 9.56702 14.9122 9.41074 14.7559C9.25446 14.5996 9.16667 14.3877 9.16667 14.1667C9.16667 13.9457 9.25446 13.7337 9.41074 13.5774C9.56702 13.4211 9.77899 13.3333 10 13.3333C10.221 13.3333 10.433 13.4211 10.5893 13.5774C10.7455 13.7337 10.8333 13.9457 10.8333 14.1667ZM5.83333 11.6667C6.05435 11.6667 6.26631 11.5789 6.42259 11.4226C6.57887 11.2663 6.66667 11.0543 6.66667 10.8333C6.66667 10.6123 6.57887 10.4004 6.42259 10.2441C6.26631 10.0878 6.05435 10 5.83333 10C5.61232 10 5.40036 10.0878 5.24408 10.2441C5.0878 10.4004 5 10.6123 5 10.8333C5 11.0543 5.0878 11.2663 5.24408 11.4226C5.40036 11.5789 5.61232 11.6667 5.83333 11.6667ZM5.83333 15C6.05435 15 6.26631 14.9122 6.42259 14.7559C6.57887 14.5996 6.66667 14.3877 6.66667 14.1667C6.66667 13.9457 6.57887 13.7337 6.42259 13.5774C6.26631 13.4211 6.05435 13.3333 5.83333 13.3333C5.61232 13.3333 5.40036 13.4211 5.24408 13.5774C5.0878 13.7337 5 13.9457 5 14.1667C5 14.3877 5.0878 14.5996 5.24408 14.7559C5.40036 14.9122 5.61232 15 5.83333 15Z" fill="black"/>
<path fill-rule="evenodd" clip-rule="evenodd" d="M5.8338 1.45703C5.99956 1.45703 6.15853 1.52288 6.27574 1.64009C6.39295 1.7573 6.4588 1.91627 6.4588 2.08203V2.71786C7.01047 2.70703 7.61797 2.70703 8.2863 2.70703H11.7138C12.383 2.70703 12.9905 2.70703 13.5421 2.71786V2.08203C13.5421 1.91627 13.608 1.7573 13.7252 1.64009C13.8424 1.52288 14.0014 1.45703 14.1671 1.45703C14.3329 1.45703 14.4919 1.52288 14.6091 1.64009C14.7263 1.7573 14.7921 1.91627 14.7921 2.08203V2.7712C15.0088 2.78786 15.2138 2.8087 15.408 2.83453C16.3846 2.9662 17.1755 3.24286 17.7996 3.8662C18.423 4.49036 18.6996 5.2812 18.8313 6.25786C18.9588 7.20786 18.9588 8.42036 18.9588 9.95203V11.712C18.9588 13.2437 18.9588 14.457 18.8313 15.4062C18.6996 16.3829 18.423 17.1737 17.7996 17.7979C17.1755 18.4212 16.3846 18.6979 15.408 18.8295C14.458 18.957 13.2455 18.957 11.7138 18.957H8.28797C6.7563 18.957 5.54297 18.957 4.5938 18.8295C3.61714 18.6979 2.8263 18.4212 2.20214 17.7979C1.5788 17.1737 1.30214 16.3829 1.17047 15.4062C1.04297 14.4562 1.04297 13.2437 1.04297 11.712V9.95203C1.04297 8.42036 1.04297 7.20703 1.17047 6.25786C1.30214 5.2812 1.5788 4.49036 2.20214 3.8662C2.8263 3.24286 3.61714 2.9662 4.5938 2.83453C4.78797 2.8087 4.9938 2.78786 5.20964 2.7712V2.08203C5.20964 1.91642 5.27537 1.75757 5.3924 1.64038C5.50943 1.5232 5.66819 1.45725 5.8338 1.45703ZM4.7588 4.0737C3.9213 4.1862 3.43797 4.39786 3.08547 4.75036C2.73297 5.10286 2.5213 5.5862 2.4088 6.42453C2.38964 6.5662 2.3738 6.7162 2.36047 6.8737H17.6405C17.6271 6.71536 17.6113 6.5662 17.5921 6.4237C17.4796 5.5862 17.268 5.10286 16.9155 4.75036C16.563 4.39786 16.0796 4.1862 15.2413 4.0737C14.3855 3.9587 13.2563 3.95703 11.6671 3.95703H8.3338C6.74464 3.95703 5.6163 3.9587 4.7588 4.0737ZM2.29214 9.9987C2.29214 9.28703 2.29214 8.66786 2.30297 8.1237H17.698C17.7088 8.66786 17.7088 9.28703 17.7088 9.9987V11.6654C17.7088 13.2545 17.7071 14.3837 17.5921 15.2404C17.4796 16.0779 17.268 16.5612 16.9155 16.9137C16.563 17.2662 16.0796 17.4779 15.2413 17.5904C14.3855 17.7054 13.2563 17.707 11.6671 17.707H8.3338C6.74464 17.707 5.6163 17.7054 4.7588 17.5904C3.9213 17.4779 3.43797 17.2662 3.08547 16.9137C2.73297 16.5612 2.5213 16.0779 2.4088 15.2395C2.2938 14.3837 2.29214 13.2545 2.29214 11.6654V9.9987Z" fill="black"/>
</svg>
