<svg width="1351" height="667" viewBox="0 0 1351 667" fill="none" xmlns="http://www.w3.org/2000/svg">
<g opacity="0.4">
<path fill-rule="evenodd" clip-rule="evenodd" d="M1314.3 41.25H1321.7C1322.6 41.25 1323.35 41.25 1323.94 41.33C1324.57 41.414 1325.14 41.6 1325.59 42.055C1326.05 42.511 1326.23 43.078 1326.32 43.705C1326.4 44.3 1326.4 45.05 1326.4 45.948V53.232L1327.91 54.793L1327.91 54.797L1327.92 54.804L1327.93 54.812L1327.93 54.818L1327.94 54.828L1327.95 54.839L1327.96 54.844L1327.97 54.853L1327.98 54.863L1327.98 54.873L1328 54.888C1328.37 55.318 1328.7 55.962 1328.74 56.605V56.609L1328.75 56.632V56.645L1328.75 56.659V56.774C1328.75 56.904 1328.75 57.093 1328.74 57.174C1328.7 57.8417 1328.42 58.471 1327.94 58.9441C1327.47 59.4172 1326.84 59.7016 1326.17 59.744C1326.09 59.75 1325.99 59.75 1325.86 59.75H1310.14C1310.01 59.75 1309.91 59.75 1309.83 59.744C1309.16 59.702 1308.53 59.4178 1308.06 58.9447C1307.58 58.4716 1307.3 57.842 1307.25 57.174C1307.25 57.0414 1307.25 56.9087 1307.25 56.776V56.659L1307.25 56.645V56.633L1307.25 56.609V56.605C1307.3 55.962 1307.63 55.319 1308 54.888C1308.01 54.8829 1308.01 54.8779 1308.02 54.873L1308.02 54.863L1308.03 54.853L1308.04 54.844L1308.04 54.839L1308.06 54.829L1308.07 54.818L1308.07 54.812L1308.08 54.804L1308.09 54.797L1308.09 54.793L1309.6 53.232V45.948C1309.6 45.05 1309.6 44.3 1309.68 43.706C1309.77 43.078 1309.95 42.511 1310.41 42.056C1310.86 41.6 1311.43 41.414 1312.06 41.33C1312.65 41.25 1313.4 41.25 1314.3 41.25ZM1310.67 54.286L1309.16 55.849C1308.93 56.102 1308.76 56.475 1308.75 56.726V56.949C1308.75 56.9923 1308.75 57.0357 1308.75 57.079C1308.77 57.3828 1308.9 57.669 1309.12 57.884C1309.33 58.0991 1309.62 58.2281 1309.92 58.247C1309.95 58.25 1310 58.25 1310.16 58.25H1325.84C1326 58.25 1326.04 58.25 1326.08 58.247C1326.38 58.2277 1326.67 58.0984 1326.88 57.8834C1327.1 57.6684 1327.23 57.3824 1327.25 57.079L1327.25 57.044C1327.25 56.9583 1327.25 56.8727 1327.25 56.787V56.727C1327.24 56.475 1327.07 56.102 1326.84 55.849L1325.33 54.286H1310.67ZM1324.9 52.786V46C1324.9 45.036 1324.89 44.388 1324.83 43.905C1324.77 43.444 1324.66 43.246 1324.53 43.116C1324.4 42.986 1324.2 42.879 1323.74 42.816C1323.26 42.752 1322.61 42.75 1321.65 42.75H1314.35C1313.39 42.75 1312.74 42.752 1312.26 42.817C1311.8 42.879 1311.6 42.986 1311.47 43.117C1311.34 43.247 1311.23 43.444 1311.17 43.905C1311.1 44.388 1311.1 45.036 1311.1 46V52.786H1324.9ZM1308.33 56.024C1308.32 56.0201 1308.31 56.0161 1308.3 56.012L1308.31 56.017C1308.32 56.0195 1308.32 56.0219 1308.33 56.024ZM1314.75 56.5C1314.75 56.3011 1314.83 56.1103 1314.97 55.9697C1315.11 55.829 1315.3 55.75 1315.5 55.75H1320.5C1320.7 55.75 1320.89 55.829 1321.03 55.9697C1321.17 56.1103 1321.25 56.3011 1321.25 56.5C1321.25 56.6989 1321.17 56.8897 1321.03 57.0303C1320.89 57.171 1320.7 57.25 1320.5 57.25H1315.5C1315.3 57.25 1315.11 57.171 1314.97 57.0303C1314.83 56.8897 1314.75 56.6989 1314.75 56.5Z" fill="#A020F0"/>
<path d="M1318.75 44.75C1318.75 44.9489 1318.67 45.1397 1318.53 45.2803C1318.39 45.421 1318.2 45.5 1318 45.5C1317.8 45.5 1317.61 45.421 1317.47 45.2803C1317.33 45.1397 1317.25 44.9489 1317.25 44.75C1317.25 44.5511 1317.33 44.3603 1317.47 44.2197C1317.61 44.079 1317.8 44 1318 44C1318.2 44 1318.39 44.079 1318.53 44.2197C1318.67 44.3603 1318.75 44.5511 1318.75 44.75Z" fill="#A020F0"/>
<path fill-rule="evenodd" clip-rule="evenodd" d="M304.3 321.25H311.7C312.599 321.25 313.348 321.25 313.943 321.33C314.57 321.414 315.137 321.6 315.593 322.055C316.048 322.511 316.233 323.078 316.318 323.705C316.398 324.3 316.398 325.05 316.398 325.948V333.232L317.911 334.793L317.914 334.797L317.922 334.804L317.929 334.812L317.935 334.818L317.945 334.828L317.955 334.839L317.96 334.844L317.968 334.853L317.977 334.863L317.985 334.873L317.997 334.888C318.369 335.318 318.7 335.962 318.745 336.605V336.609L318.748 336.632V336.645L318.75 336.659V336.774C318.75 336.904 318.75 337.093 318.745 337.174C318.702 337.842 318.418 338.471 317.945 338.944C317.472 339.417 316.842 339.702 316.175 339.744C316.087 339.75 315.99 339.75 315.864 339.75H300.137C300.011 339.75 299.914 339.75 299.827 339.744C299.159 339.702 298.529 339.418 298.055 338.945C297.582 338.472 297.297 337.842 297.255 337.174C297.25 337.041 297.249 336.909 297.251 336.776V336.659L297.252 336.645V336.633L297.255 336.609V336.605C297.301 335.962 297.632 335.319 298.004 334.888C298.008 334.883 298.012 334.878 298.016 334.873L298.024 334.863L298.034 334.853L298.041 334.844L298.045 334.839L298.056 334.829L298.066 334.818L298.071 334.812L298.079 334.804L298.086 334.797L298.09 334.793L299.603 333.232V325.948C299.603 325.05 299.603 324.3 299.683 323.706C299.767 323.078 299.953 322.511 300.408 322.056C300.864 321.6 301.431 321.414 302.058 321.33C302.653 321.25 303.401 321.25 304.3 321.25ZM300.67 334.286L299.156 335.849C298.929 336.102 298.762 336.475 298.751 336.726V336.949C298.751 336.992 298.751 337.036 298.752 337.079C298.771 337.383 298.901 337.669 299.116 337.884C299.331 338.099 299.618 338.228 299.922 338.247C299.955 338.25 300 338.25 300.161 338.25H315.839C315.999 338.25 316.045 338.25 316.079 338.247C316.382 338.228 316.668 338.098 316.883 337.883C317.098 337.668 317.227 337.382 317.247 337.079L317.248 337.044C317.249 336.958 317.249 336.873 317.249 336.787V336.727C317.238 336.475 317.071 336.102 316.843 335.849L315.329 334.286H300.67ZM314.897 332.786V326C314.897 325.036 314.895 324.388 314.83 323.905C314.768 323.444 314.661 323.246 314.53 323.116C314.4 322.986 314.203 322.879 313.742 322.816C313.259 322.752 312.611 322.75 311.647 322.75H304.353C303.389 322.75 302.741 322.752 302.258 322.817C301.797 322.879 301.599 322.986 301.469 323.117C301.339 323.247 301.231 323.444 301.169 323.905C301.104 324.388 301.103 325.036 301.103 326V332.786H314.897ZM298.331 336.024C298.32 336.02 298.31 336.016 298.3 336.012L298.309 336.017C298.316 336.02 298.323 336.022 298.331 336.024ZM304.75 336.5C304.75 336.301 304.829 336.11 304.969 335.97C305.11 335.829 305.301 335.75 305.5 335.75H310.5C310.699 335.75 310.889 335.829 311.03 335.97C311.171 336.11 311.25 336.301 311.25 336.5C311.25 336.699 311.171 336.89 311.03 337.03C310.889 337.171 310.699 337.25 310.5 337.25H305.5C305.301 337.25 305.11 337.171 304.969 337.03C304.829 336.89 304.75 336.699 304.75 336.5Z" fill="#A020F0"/>
<path d="M308.75 324.75C308.75 324.949 308.671 325.14 308.53 325.28C308.39 325.421 308.199 325.5 308 325.5C307.801 325.5 307.61 325.421 307.47 325.28C307.329 325.14 307.25 324.949 307.25 324.75C307.25 324.551 307.329 324.36 307.47 324.22C307.61 324.079 307.801 324 308 324C308.199 324 308.39 324.079 308.53 324.22C308.671 324.36 308.75 324.551 308.75 324.75Z" fill="#A020F0"/>
<path d="M338.18 4.2762C338.372 4.32754 338.536 4.4531 338.636 4.62525C338.735 4.7974 338.763 5.00205 338.711 5.1942L334.738 20.0242C334.687 20.2165 334.561 20.3804 334.388 20.4799C334.216 20.5794 334.011 20.6063 333.819 20.5547C333.626 20.5031 333.463 20.3773 333.363 20.2048C333.264 20.0324 333.237 19.8275 333.288 19.6352L337.262 4.8052C337.288 4.71005 337.332 4.62085 337.392 4.54272C337.452 4.46458 337.527 4.39903 337.612 4.34981C337.697 4.3006 337.791 4.26867 337.889 4.25587C337.987 4.24307 338.086 4.24964 338.181 4.2752M340.443 7.3282C340.576 7.18037 340.763 7.09143 340.961 7.08093C341.16 7.07043 341.354 7.13923 341.502 7.2722L343.239 8.8362C343.976 9.4982 344.586 10.0482 345.006 10.5462C345.446 11.0712 345.76 11.6342 345.76 12.3302C345.76 13.0252 345.447 13.5882 345.006 14.1122C344.586 14.6112 343.976 15.1612 343.239 15.8232L341.502 17.3872C341.354 17.5203 341.16 17.5893 340.961 17.5789C340.762 17.5685 340.576 17.4796 340.443 17.3317C340.31 17.1838 340.241 16.9892 340.251 16.7905C340.261 16.5918 340.35 16.4053 340.498 16.2722L342.195 14.7452C342.983 14.0362 343.514 13.5552 343.858 13.1472C344.188 12.7542 344.26 12.5252 344.26 12.3292C344.26 12.1342 344.188 11.9052 343.858 11.5122C343.514 11.1032 342.983 10.6222 342.195 9.9142L340.498 8.3872C340.425 8.32132 340.365 8.24162 340.323 8.15267C340.28 8.06372 340.256 7.96726 340.25 7.86881C340.245 7.77036 340.26 7.67185 340.292 7.57891C340.325 7.48598 340.376 7.40044 340.442 7.3272M331.502 8.3872C331.65 8.25406 331.739 8.06764 331.749 7.86894C331.76 7.67025 331.691 7.47556 331.558 7.3277C331.425 7.17984 331.238 7.09093 331.039 7.08052C330.841 7.07011 330.646 7.13906 330.498 7.2722L328.761 8.8362C328.024 9.4982 327.414 10.0482 326.994 10.5462C326.554 11.0712 326.24 11.6342 326.24 12.3302C326.24 13.0252 326.553 13.5882 326.994 14.1122C327.414 14.6112 328.024 15.1612 328.761 15.8232L330.498 17.3872C330.646 17.5203 330.841 17.5893 331.039 17.5789C331.238 17.5685 331.425 17.4796 331.558 17.3317C331.691 17.1838 331.76 16.9892 331.749 16.7905C331.739 16.5918 331.65 16.4053 331.502 16.2722L329.805 14.7452C329.017 14.0362 328.486 13.5552 328.142 13.1472C327.812 12.7542 327.74 12.5252 327.74 12.3292C327.74 12.1342 327.812 11.9052 328.142 11.5122C328.486 11.1032 329.017 10.6222 329.805 9.9142L331.502 8.3872Z" fill="#A020F0"/>
<path fill-rule="evenodd" clip-rule="evenodd" d="M329.386 534.643C329.471 534.593 329.546 534.526 329.606 534.447C329.665 534.368 329.709 534.277 329.733 534.181C329.758 534.085 329.763 533.985 329.748 533.887C329.734 533.789 329.7 533.695 329.649 533.61C329.598 533.525 329.531 533.451 329.451 533.392C329.371 533.333 329.281 533.291 329.184 533.268C329.088 533.244 328.988 533.24 328.89 533.255C328.792 533.27 328.698 533.305 328.614 533.357L326.27 534.764C325.562 534.424 324.786 534.249 324 534.25C323.215 534.249 322.439 534.424 321.731 534.764L319.386 533.357C319.216 533.257 319.013 533.228 318.821 533.277C318.63 533.326 318.465 533.448 318.363 533.618C318.262 533.787 318.231 533.99 318.278 534.182C318.325 534.374 318.446 534.54 318.614 534.643L320.377 535.701C319.862 536.191 319.452 536.78 319.173 537.433C318.893 538.086 318.749 538.789 318.75 539.5V539.79C318.493 539.925 318.25 540.084 318.025 540.263C317.954 540.194 317.871 540.139 317.779 540.103L315.779 539.303C315.595 539.234 315.392 539.239 315.212 539.318C315.033 539.397 314.891 539.544 314.818 539.726C314.745 539.908 314.747 540.111 314.822 540.292C314.897 540.474 315.04 540.618 315.221 540.695L316.993 541.404C316.523 542.134 316.25 543.004 316.25 543.937V545.249H314C313.801 545.249 313.61 545.328 313.47 545.469C313.329 545.609 313.25 545.8 313.25 545.999C313.25 546.198 313.329 546.389 313.47 546.529C313.61 546.67 313.801 546.749 314 546.749H316.25V547C316.25 548.28 316.56 549.486 317.109 550.55L315.221 551.304C315.13 551.341 315.046 551.395 314.976 551.464C314.905 551.533 314.849 551.615 314.81 551.705C314.771 551.796 314.751 551.893 314.75 551.992C314.749 552.09 314.767 552.188 314.803 552.279C314.84 552.371 314.894 552.454 314.963 552.525C315.032 552.595 315.114 552.651 315.205 552.69C315.295 552.729 315.393 552.75 315.491 552.751C315.59 552.752 315.688 552.734 315.779 552.697L317.779 551.897C317.832 551.876 317.882 551.849 317.928 551.817C318.653 552.732 319.576 553.472 320.628 553.98C321.679 554.488 322.832 554.751 324 554.75C325.168 554.751 326.321 554.488 327.373 553.979C328.424 553.471 329.347 552.732 330.072 551.816C330.119 551.848 330.169 551.875 330.222 551.896L332.222 552.696C332.405 552.761 332.606 552.753 332.782 552.673C332.959 552.593 333.098 552.448 333.17 552.268C333.242 552.087 333.242 551.886 333.168 551.707C333.095 551.527 332.955 551.383 332.778 551.304L330.892 550.549C331.458 549.452 331.752 548.235 331.75 547V546.75H334C334.199 546.75 334.39 546.671 334.53 546.53C334.671 546.39 334.75 546.199 334.75 546C334.75 545.801 334.671 545.61 334.53 545.47C334.39 545.329 334.199 545.25 334 545.25H331.75V543.938C331.75 543.004 331.477 542.135 331.007 541.405L332.778 540.696C332.955 540.617 333.095 540.473 333.168 540.293C333.242 540.113 333.242 539.912 333.17 539.732C333.098 539.552 332.959 539.407 332.782 539.327C332.606 539.247 332.405 539.239 332.222 539.304L330.222 540.104C330.13 540.14 330.046 540.195 329.975 540.264C329.748 540.084 329.506 539.926 329.25 539.791V539.5C329.251 538.789 329.107 538.086 328.827 537.433C328.548 536.779 328.138 536.19 327.623 535.7L329.386 534.643ZM317.75 547V543.938C317.75 543.519 317.832 543.105 317.992 542.718C318.153 542.331 318.387 541.979 318.683 541.683C318.98 541.387 319.331 541.152 319.718 540.992C320.105 540.832 320.519 540.75 320.938 540.75H327.062C327.908 540.75 328.718 541.086 329.316 541.684C329.914 542.282 330.25 543.092 330.25 543.938V547C330.25 548.528 329.691 550.003 328.677 551.146C327.664 552.29 326.267 553.022 324.75 553.206V547C324.75 546.801 324.671 546.61 324.53 546.47C324.39 546.329 324.199 546.25 324 546.25C323.801 546.25 323.61 546.329 323.47 546.47C323.329 546.61 323.25 546.801 323.25 547V553.206C321.733 553.022 320.336 552.29 319.323 551.146C318.309 550.003 317.75 548.528 317.75 547ZM324 535.75C324.96 535.75 325.883 536.118 326.58 536.778C327.277 537.439 327.694 538.341 327.745 539.3C327.519 539.267 327.291 539.25 327.063 539.25H320.936C320.708 539.25 320.48 539.267 320.254 539.3C320.305 538.341 320.722 537.438 321.419 536.778C322.116 536.118 323.04 535.75 324 535.75Z" fill="#FFD43A"/>
<path d="M653.75 187C653.75 187.199 653.671 187.389 653.53 187.53C653.39 187.671 653.199 187.75 653 187.75H648C647.801 187.75 647.61 187.671 647.47 187.53C647.329 187.389 647.25 187.199 647.25 187C647.25 186.801 647.329 186.61 647.47 186.469C647.61 186.329 647.801 186.25 648 186.25H653C653.199 186.25 653.39 186.329 653.53 186.469C653.671 186.61 653.75 186.801 653.75 187ZM643.48 181.424C643.405 181.358 643.317 181.308 643.222 181.276C643.127 181.245 643.027 181.233 642.927 181.241C642.828 181.248 642.731 181.276 642.642 181.322C642.553 181.368 642.474 181.431 642.41 181.508C642.346 181.585 642.298 181.674 642.269 181.769C642.24 181.865 642.23 181.966 642.24 182.065C642.251 182.165 642.281 182.261 642.329 182.349C642.377 182.436 642.442 182.514 642.52 182.576L642.754 182.771C643.413 183.321 643.844 183.681 644.12 183.987C644.382 184.277 644.407 184.414 644.407 184.5C644.407 184.586 644.382 184.722 644.12 185.013C643.843 185.319 643.413 185.68 642.754 186.229L642.52 186.424C642.373 186.553 642.282 186.734 642.266 186.929C642.251 187.125 642.312 187.318 642.438 187.468C642.563 187.619 642.742 187.714 642.937 187.734C643.132 187.754 643.327 187.698 643.48 187.576L643.757 187.346C644.362 186.842 644.877 186.413 645.233 186.018C645.611 185.598 645.907 185.117 645.907 184.5C645.907 183.883 645.611 183.401 645.233 182.982C644.877 182.587 644.362 182.158 643.757 181.654L643.48 181.424Z" fill="#FFD43A"/>
<path fill-rule="evenodd" clip-rule="evenodd" d="M647.943 173.25H648.057C650.366 173.25 652.175 173.25 653.587 173.44C655.031 173.634 656.171 174.04 657.066 174.934C657.961 175.829 658.366 176.969 658.56 178.414C658.75 179.825 658.75 181.634 658.75 183.943V184.057C658.75 186.366 658.75 188.175 658.56 189.587C658.366 191.031 657.96 192.171 657.066 193.066C656.171 193.961 655.031 194.366 653.586 194.56C652.175 194.75 650.366 194.75 648.057 194.75H647.943C645.634 194.75 643.825 194.75 642.413 194.56C640.969 194.366 639.829 193.96 638.934 193.066C638.039 192.171 637.634 191.031 637.44 189.586C637.25 188.175 637.25 186.366 637.25 184.057V183.943C637.25 181.634 637.25 179.825 637.44 178.413C637.634 176.969 638.04 175.829 638.934 174.934C639.829 174.039 640.969 173.634 642.414 173.44C643.825 173.25 645.634 173.25 647.943 173.25ZM642.613 174.926C641.335 175.098 640.564 175.426 639.995 175.995C639.425 176.565 639.098 177.335 638.926 178.614C638.752 179.914 638.75 181.622 638.75 184C638.75 186.378 638.752 188.086 638.926 189.386C639.098 190.665 639.426 191.436 639.995 192.006C640.565 192.575 641.335 192.902 642.614 193.074C643.914 193.248 645.622 193.25 648 193.25C650.378 193.25 652.086 193.248 653.386 193.074C654.665 192.902 655.436 192.574 656.006 192.005C656.575 191.435 656.902 190.665 657.074 189.386C657.248 188.086 657.25 186.378 657.25 184C657.25 181.622 657.248 179.914 657.074 178.614C656.902 177.335 656.574 176.564 656.005 175.994C655.435 175.425 654.665 175.098 653.386 174.926C652.086 174.752 650.378 174.75 648 174.75C645.622 174.75 643.913 174.752 642.613 174.926Z" fill="#FFD43A"/>
<path d="M1333.45 355.25C1333.03 355.25 1332.77 355.25 1332.53 355.273C1331.44 355.381 1330.42 355.864 1329.64 356.641C1328.86 357.418 1328.38 358.441 1328.27 359.534C1328.25 359.767 1328.25 360.034 1328.25 360.452V360.5C1328.25 360.699 1328.33 360.89 1328.47 361.03C1328.61 361.171 1328.8 361.25 1329 361.25C1329.2 361.25 1329.39 361.171 1329.53 361.03C1329.67 360.89 1329.75 360.699 1329.75 360.5C1329.75 360.018 1329.75 359.831 1329.77 359.681C1329.84 358.933 1330.17 358.234 1330.7 357.702C1331.23 357.171 1331.93 356.84 1332.68 356.766C1332.83 356.751 1333.02 356.75 1333.5 356.75H1341C1342.91 356.75 1344.26 356.752 1345.29 356.89C1346.3 357.025 1346.88 357.279 1347.3 357.702C1347.72 358.125 1347.98 358.705 1348.11 359.711C1348.25 360.739 1348.25 362.093 1348.25 364C1348.25 365.907 1348.25 367.262 1348.11 368.29C1347.98 369.295 1347.72 369.875 1347.3 370.298C1346.88 370.721 1346.3 370.975 1345.29 371.11C1344.26 371.248 1342.91 371.25 1341 371.25C1340.8 371.25 1340.61 371.329 1340.47 371.47C1340.33 371.61 1340.25 371.801 1340.25 372C1340.25 372.199 1340.33 372.39 1340.47 372.53C1340.61 372.671 1340.8 372.75 1341 372.75H1341.06C1342.89 372.75 1344.35 372.75 1345.49 372.597C1346.66 372.439 1347.61 372.107 1348.36 371.359C1349.11 370.61 1349.44 369.661 1349.6 368.489C1349.75 367.349 1349.75 365.894 1349.75 364.056V363.944C1349.75 362.106 1349.75 360.65 1349.6 359.511C1349.44 358.339 1349.11 357.39 1348.36 356.641C1347.61 355.893 1346.66 355.561 1345.49 355.403C1344.35 355.25 1342.89 355.25 1341.06 355.25H1333.45Z" fill="#FFD43A"/>
<path d="M1329 362.25C1328.8 362.25 1328.61 362.329 1328.47 362.47C1328.33 362.61 1328.25 362.801 1328.25 363C1328.25 363.199 1328.33 363.39 1328.47 363.53C1328.61 363.671 1328.8 363.75 1329 363.75C1331.19 363.75 1333.29 364.619 1334.83 366.166C1336.38 367.714 1337.25 369.812 1337.25 372C1337.25 372.199 1337.33 372.39 1337.47 372.53C1337.61 372.671 1337.8 372.75 1338 372.75C1338.2 372.75 1338.39 372.671 1338.53 372.53C1338.67 372.39 1338.75 372.199 1338.75 372C1338.75 369.414 1337.72 366.934 1335.89 365.106C1334.07 363.277 1331.59 362.25 1329 362.25Z" fill="#FFD43A"/>
<path d="M1328.25 366C1328.25 365.801 1328.33 365.61 1328.47 365.47C1328.61 365.329 1328.8 365.25 1329 365.25C1330.79 365.25 1332.51 365.961 1333.77 367.227C1335.04 368.493 1335.75 370.21 1335.75 372C1335.75 372.199 1335.67 372.39 1335.53 372.53C1335.39 372.671 1335.2 372.75 1335 372.75C1334.8 372.75 1334.61 372.671 1334.47 372.53C1334.33 372.39 1334.25 372.199 1334.25 372C1334.25 369.1 1331.9 366.75 1329 366.75C1328.8 366.75 1328.61 366.671 1328.47 366.53C1328.33 366.39 1328.25 366.199 1328.25 366Z" fill="#FFD43A"/>
<path d="M1329 368.25C1328.8 368.25 1328.61 368.329 1328.47 368.47C1328.33 368.61 1328.25 368.801 1328.25 369C1328.25 369.199 1328.33 369.39 1328.47 369.53C1328.61 369.671 1328.8 369.75 1329 369.75C1329.6 369.75 1330.17 369.987 1330.59 370.409C1331.01 370.831 1331.25 371.403 1331.25 372C1331.25 372.199 1331.33 372.39 1331.47 372.53C1331.61 372.671 1331.8 372.75 1332 372.75C1332.2 372.75 1332.39 372.671 1332.53 372.53C1332.67 372.39 1332.75 372.199 1332.75 372C1332.75 371.005 1332.35 370.052 1331.65 369.348C1330.95 368.645 1329.99 368.25 1329 368.25Z" fill="#FFD43A"/>
<path fill-rule="evenodd" clip-rule="evenodd" d="M704.249 446.675C703.585 446.539 702.97 446.227 702.47 445.77C701.969 445.313 701.602 444.729 701.407 444.08C701.212 443.431 701.196 442.741 701.362 442.084C701.527 441.426 701.867 440.826 702.347 440.347C702.826 439.868 703.426 439.528 704.083 439.362C704.74 439.197 705.43 439.212 706.079 439.407C706.728 439.603 707.312 439.97 707.769 440.47C708.226 440.971 708.539 441.586 708.674 442.25H715.324C715.46 441.586 715.773 440.971 716.23 440.47C716.687 439.97 717.271 439.603 717.92 439.407C718.569 439.212 719.258 439.197 719.916 439.362C720.573 439.528 721.173 439.868 721.652 440.347C722.131 440.826 722.472 441.426 722.637 442.084C722.803 442.741 722.787 443.431 722.592 444.08C722.397 444.729 722.029 445.313 721.529 445.77C721.028 446.227 720.413 446.539 719.749 446.675V453.325C720.413 453.46 721.028 453.773 721.529 454.23C722.029 454.687 722.397 455.271 722.592 455.92C722.787 456.569 722.803 457.259 722.637 457.916C722.472 458.573 722.131 459.173 721.652 459.653C721.173 460.132 720.573 460.472 719.916 460.638C719.258 460.803 718.569 460.787 717.92 460.592C717.271 460.397 716.687 460.03 716.23 459.529C715.773 459.029 715.46 458.414 715.324 457.75H708.674C708.539 458.414 708.226 459.029 707.769 459.529C707.312 460.03 706.728 460.397 706.079 460.592C705.43 460.787 704.74 460.803 704.083 460.638C703.426 460.472 702.826 460.132 702.347 459.653C701.867 459.173 701.527 458.573 701.362 457.916C701.196 457.259 701.212 456.569 701.407 455.92C701.602 455.271 701.969 454.687 702.47 454.23C702.97 453.773 703.585 453.46 704.249 453.325V446.675ZM702.749 443C702.749 442.704 702.808 442.412 702.921 442.139C703.034 441.866 703.199 441.618 703.408 441.409C703.617 441.2 703.865 441.034 704.138 440.921C704.411 440.808 704.704 440.75 704.999 440.75C705.295 440.75 705.587 440.808 705.86 440.921C706.133 441.034 706.381 441.2 706.59 441.409C706.799 441.618 706.965 441.866 707.078 442.139C707.191 442.412 707.249 442.704 707.249 443C707.249 443.597 707.012 444.169 706.59 444.591C706.168 445.013 705.596 445.25 704.999 445.25C704.403 445.25 703.83 445.013 703.408 444.591C702.986 444.169 702.749 443.597 702.749 443ZM705.749 453.325V446.675C706.47 446.527 707.131 446.172 707.651 445.652C708.171 445.132 708.527 444.47 708.674 443.75H715.324C715.472 444.47 715.828 445.131 716.348 445.651C716.868 446.171 717.529 446.527 718.249 446.675V453.325C717.529 453.472 716.868 453.828 716.348 454.348C715.828 454.868 715.472 455.529 715.324 456.25H708.674C708.527 455.529 708.171 454.868 707.651 454.348C707.131 453.828 706.47 453.472 705.749 453.325ZM704.999 454.75C704.403 454.75 703.83 454.987 703.408 455.409C702.986 455.831 702.749 456.403 702.749 457C702.749 457.597 702.986 458.169 703.408 458.591C703.83 459.013 704.403 459.25 704.999 459.25C705.596 459.25 706.168 459.013 706.59 458.591C707.012 458.169 707.249 457.597 707.249 457C707.249 456.403 707.012 455.831 706.59 455.409C706.168 454.987 705.596 454.75 704.999 454.75ZM721.249 443C721.249 443.597 721.012 444.169 720.59 444.591C720.168 445.013 719.596 445.25 718.999 445.25C718.403 445.25 717.83 445.013 717.408 444.591C716.986 444.169 716.749 443.597 716.749 443C716.749 442.403 716.986 441.831 717.408 441.409C717.83 440.987 718.403 440.75 718.999 440.75C719.596 440.75 720.168 440.987 720.59 441.409C721.012 441.831 721.249 442.403 721.249 443ZM716.749 457C716.749 456.403 716.986 455.831 717.408 455.409C717.83 454.987 718.403 454.75 718.999 454.75C719.596 454.75 720.168 454.987 720.59 455.409C721.012 455.831 721.249 456.403 721.249 457C721.249 457.597 721.012 458.169 720.59 458.591C720.168 459.013 719.596 459.25 718.999 459.25C718.403 459.25 717.83 459.013 717.408 458.591C716.986 458.169 716.749 457.597 716.749 457Z" fill="#A020F0"/>
<path fill-rule="evenodd" clip-rule="evenodd" d="M15.25 116C15.25 115.258 15.4699 114.533 15.882 113.917C16.294 113.3 16.8797 112.819 17.5649 112.535C18.2502 112.252 19.0042 112.177 19.7316 112.322C20.459 112.467 21.1272 112.824 21.6517 113.348C22.1761 113.873 22.5333 114.541 22.6779 115.268C22.8226 115.996 22.7484 116.75 22.4646 117.435C22.1807 118.12 21.7001 118.706 21.0834 119.118C20.4667 119.53 19.7417 119.75 19 119.75H16.75V126.25H19C19.7416 126.25 20.4666 126.47 21.0833 126.882C21.6999 127.294 22.1806 127.88 22.4645 128.565C22.7483 129.25 22.8226 130.004 22.678 130.731C22.5334 131.459 22.1764 132.127 21.652 132.651C21.1277 133.176 20.4596 133.533 19.7322 133.678C19.0048 133.823 18.2509 133.749 17.5656 133.465C16.8804 133.181 16.2947 132.701 15.8825 132.084C15.4703 131.468 15.2502 130.743 15.25 130.001V127.75H8.75V130.001C8.75 130.743 8.53004 131.468 8.11794 132.084C7.70584 132.701 7.12011 133.182 6.43483 133.466C5.74955 133.749 4.9955 133.824 4.26805 133.679C3.54059 133.534 2.8724 133.177 2.348 132.652C1.82359 132.128 1.46652 131.459 1.32193 130.732C1.17735 130.004 1.25176 129.25 1.53574 128.565C1.81972 127.88 2.30053 127.294 2.91734 126.883C3.53416 126.471 4.25928 126.251 5.001 126.251H7.25V119.751H5.001C4.25936 119.751 3.53438 119.531 2.91772 119.119C2.30105 118.707 1.82041 118.121 1.53655 117.436C1.25269 116.751 1.17837 115.997 1.32298 115.27C1.4676 114.542 1.82465 113.874 2.349 113.35C2.87334 112.825 3.54144 112.468 4.2688 112.323C4.99616 112.178 5.75013 112.252 6.43537 112.536C7.12061 112.82 7.70635 113.3 8.11853 113.917C8.5307 114.533 8.7508 115.258 8.751 116V118.25H15.251L15.25 116ZM7.25 118.25V116C7.25 115.555 7.11804 115.12 6.87081 114.75C6.62358 114.38 6.27217 114.092 5.86104 113.921C5.44991 113.751 4.99751 113.706 4.56105 113.793C4.12459 113.88 3.72368 114.094 3.40901 114.409C3.09434 114.724 2.88005 115.125 2.79323 115.561C2.70642 115.998 2.75098 116.45 2.92127 116.861C3.09157 117.272 3.37996 117.624 3.74997 117.871C4.11998 118.118 4.55499 118.25 5 118.25H7.25ZM19 113.75C18.4033 113.75 17.831 113.987 17.409 114.409C16.9871 114.831 16.75 115.403 16.75 116V118.25H19C19.2955 118.25 19.5881 118.192 19.861 118.079C20.134 117.966 20.3821 117.8 20.591 117.591C20.7999 117.382 20.9657 117.134 21.0787 116.861C21.1918 116.588 21.25 116.295 21.25 116C21.25 115.705 21.1918 115.412 21.0787 115.139C20.9657 114.866 20.7999 114.618 20.591 114.409C20.3821 114.2 20.134 114.034 19.861 113.921C19.5881 113.808 19.2955 113.75 19 113.75ZM8.75 119.75V126.25H15.25V119.75H8.75ZM21.25 130C21.25 129.403 21.0129 128.831 20.591 128.409C20.169 127.987 19.5967 127.75 19 127.75H16.75V130C16.75 130.597 16.9871 131.169 17.409 131.591C17.831 132.013 18.4033 132.25 19 132.25C19.5967 132.25 20.169 132.013 20.591 131.591C21.0129 131.169 21.25 130.597 21.25 130ZM2.75 130C2.75 129.403 2.98705 128.831 3.40901 128.409C3.83097 127.987 4.40326 127.75 5 127.75H7.25V130C7.25 130.295 7.1918 130.588 7.07873 130.861C6.96566 131.134 6.79992 131.382 6.59099 131.591C6.38206 131.8 6.13402 131.966 5.86104 132.079C5.58806 132.192 5.29548 132.25 5 132.25C4.70453 132.25 4.41195 132.192 4.13896 132.079C3.86598 131.966 3.61794 131.8 3.40901 131.591C3.20008 131.382 3.03435 131.134 2.92127 130.861C2.8082 130.588 2.75 130.295 2.75 130Z" fill="#FFD43A"/>
</g>
</svg>
