<svg width="14" height="7" viewBox="0 0 14 7" fill="none" xmlns="http://www.w3.org/2000/svg">
<path fill-rule="evenodd" clip-rule="evenodd" d="M13.3085 6.40672C13.255 6.46907 13.1898 6.52028 13.1166 6.55742C13.0433 6.59456 12.9635 6.61691 12.8816 6.62318C12.7997 6.62945 12.7174 6.61952 12.6394 6.59396C12.5614 6.5684 12.4891 6.52771 12.4268 6.47422L7.00014 1.82339L1.57347 6.47422C1.44695 6.57578 1.28589 6.62416 1.12435 6.60914C0.962808 6.59411 0.813438 6.51685 0.707818 6.3937C0.602198 6.27055 0.548604 6.11115 0.558368 5.94921C0.568131 5.78726 0.640487 5.63546 0.760139 5.52589L6.59347 0.525887C6.70674 0.428834 6.85098 0.37549 7.00014 0.37549C7.1493 0.37549 7.29354 0.428834 7.40681 0.525887L13.2401 5.52589C13.3658 5.63379 13.4435 5.78717 13.4562 5.95233C13.4688 6.1175 13.4154 6.28093 13.3076 6.40672" fill="#222222"/>
</svg>
