<svg width="14" height="7" viewBox="0 0 14 7" fill="none" xmlns="http://www.w3.org/2000/svg">
<path fill-rule="evenodd" clip-rule="evenodd" d="M0.691527 0.593279C0.744967 0.530927 0.810171 0.479717 0.883411 0.442576C0.956652 0.405436 1.03649 0.383092 1.11837 0.376824C1.20025 0.370555 1.28257 0.380484 1.36061 0.406043C1.43865 0.431601 1.51089 0.472288 1.57319 0.525779L6.99986 5.17661L12.4265 0.525779C12.553 0.42422 12.7141 0.375839 12.8756 0.390865C13.0372 0.405891 13.1866 0.483145 13.2922 0.606297C13.3978 0.729448 13.4514 0.888846 13.4416 1.05079C13.4319 1.21274 13.3595 1.36454 13.2399 1.47411L7.40653 6.47411C7.29326 6.57117 7.14902 6.62451 6.99986 6.62451C6.8507 6.62451 6.70646 6.57117 6.59319 6.47411L0.759861 1.47411C0.634182 1.36621 0.556477 1.21283 0.543821 1.04767C0.531164 0.882504 0.58459 0.719073 0.692361 0.593279" fill="#222222"/>
</svg>
