<svg width="1440" height="268" viewBox="0 0 1440 268" fill="none" xmlns="http://www.w3.org/2000/svg">
<g clip-path="url(#clip0_346_3229)">
<path d="M902.28 655.969C909.599 635.38 916.488 614.627 918.19 592.673C919.658 573.6 915.824 555.577 905.555 539.164C901.3 532.375 896.125 526.414 890.018 521.223C870.727 504.787 848.278 494.918 823.941 488.689C799.242 482.366 774.065 479.065 748.854 475.822C719.866 472.089 690.878 468.275 662.671 460.191C646.096 455.443 630.209 449.132 615.639 439.776C605.033 432.964 595.778 424.705 587.957 414.766C576.044 399.636 571.464 382.348 572.093 363.38C572.664 346.092 577.641 330.029 585.392 314.736C596.827 292.164 612.422 272.986 632.61 257.693C665.165 233.033 701.333 216.468 741.79 209.912C758.493 207.206 775.336 205.946 791.934 210.309C797.983 211.895 804.033 214.427 809.313 217.763C821.062 225.182 825.095 237.372 821.12 250.717C817.262 263.654 809.149 273.698 799.324 282.563C798.065 283.695 796.853 284.931 795.431 285.818C794.568 286.355 793.204 286.728 792.353 286.413C791.712 286.18 791.048 284.64 791.199 283.823C791.945 279.787 792.656 275.704 793.95 271.831C796.27 264.914 799.417 258.253 801.48 251.266C805.268 238.375 802.086 232.916 789.16 228.927C780.534 226.267 771.641 225.824 762.736 226.36C710.296 229.521 665.515 250.356 627.843 286.401C610.522 302.966 598.214 323.112 591.978 346.559C589.134 357.245 588.691 368.093 590.311 379.024C591.698 388.391 595.743 396.545 601.373 404.034C612.189 418.417 626.281 428.706 642.261 436.568C662.589 446.577 684.304 452.34 706.485 456.061C734.354 460.75 762.386 464.53 790.325 468.823C813.928 472.451 837.182 477.502 859.328 486.717C873.501 492.608 886.509 500.529 898.433 510.176C918.866 526.706 929.006 548.637 931.582 574.429C933.529 593.933 929.799 612.854 925.533 631.705C923.901 638.926 921.791 646.053 919.915 653.227C919.682 654.126 919.6 655.071 919.449 655.992C913.726 655.969 908.003 655.969 902.28 655.969Z" fill="#A020F0" fill-opacity="0.08"/>
<path d="M-30 355.191C-27.8087 353.931 -25.5591 352.777 -23.4378 351.412C-2.04933 337.705 19.3624 324.045 40.6576 310.198C50.7399 303.642 59.2137 295.197 67.466 286.46C80.1009 273.08 87.0128 257.215 89.3207 239.134C89.5771 237.151 89.9268 235.132 90.5912 233.254C91.9782 229.346 94.7057 226.838 98.995 226.558C103.249 226.278 106.769 228.168 108.226 231.983C109.742 235.961 110.919 240.37 110.837 244.57C110.721 250.321 109.742 256.177 108.308 261.764C104.998 274.643 98.9717 286.261 90.5212 296.573C80.8119 308.425 70.1352 319.286 57.4304 327.941C44.0495 337.063 30.587 346.069 17.0662 354.993C1.43577 365.317 -14.3113 375.489 -30 385.719C-30 375.547 -30 365.363 -30 355.191Z" fill="#A020F0" fill-opacity="0.08"/>
<path d="M-30 135.173C-21.7127 133.131 -13.507 130.483 -5.0915 129.258C0.410051 128.465 6.37783 129.013 11.8561 130.227C26.0762 133.388 33.2795 144.925 30.7851 159.273C29.5496 166.389 26.6706 172.84 22.7543 178.801C9.51325 198.958 -8.5999 213.505 -30 224.202C-30 217.844 -30 211.487 -30 205.129C-29.6969 205.094 -29.3356 205.153 -29.0908 205.013C-13.0408 195.914 1.15602 184.668 11.1684 168.92C13.6044 165.082 15.2712 160.533 16.3669 156.088C17.7306 150.547 15.0731 146.628 9.45497 145.601C5.56192 144.89 1.43576 144.82 -2.51556 145.181C-12.2249 146.068 -21.1299 149.848 -30 153.615C-30 147.468 -30 141.32 -30 135.173Z" fill="#A020F0" fill-opacity="0.08"/>
<path d="M265.778 -37.9051C265.778 -39.4215 265.79 -40.6464 265.778 -41.8829C265.696 -47.4939 265.358 -53.1166 265.568 -58.7276C265.778 -64.4202 269.415 -68.4331 274.415 -69.2847C279.357 -70.1246 284.357 -67.4998 286.257 -62.2505C287.644 -58.4243 288.402 -54.2714 288.833 -50.2003C290.617 -33.2623 288.647 -16.5576 284.975 -0.0279236C284.322 2.91173 282.982 5.79305 281.478 8.44106C279.637 11.6957 276.653 13.5738 272.737 13.0139C268.855 12.4539 266.046 9.88753 265.615 6.24797C264.916 0.205353 264.752 -5.96556 265.137 -12.0432C265.358 -15.4961 264.647 -17.0942 261.372 -18.3191C247.385 -23.5451 233.037 -26.3798 218.106 -25.1316C196.053 -23.2885 178.697 -12.9764 166.167 5.18646C155.001 21.3662 160.503 40.8472 178.429 49.2695C187.94 53.7373 198.139 55.0672 208.501 54.6006C240.45 53.1541 269.298 42.7136 294.521 23.1393C310.909 10.4242 324.197 -5.04399 330.456 -25.3999C334.606 -38.8966 336.774 -52.7316 334.116 -66.8C331.004 -83.353 322.775 -96.733 308.508 -106.147C288.822 -119.142 267.631 -123.645 244.588 -117.661C237.839 -115.899 231.137 -113.881 224.516 -111.665C222.348 -110.941 220.612 -109.028 218.502 -108.025C217.092 -107.36 215.25 -106.858 213.816 -107.185C210.121 -108.025 207.942 -112.225 209.142 -115.992C209.702 -117.766 210.681 -119.527 211.893 -120.927C213.467 -122.747 215.262 -124.566 217.325 -125.745C243.912 -140.944 271.431 -147.372 301.06 -134.634C324.244 -124.66 341.984 -109.39 350.982 -85.1144C357.533 -67.4415 356.67 -49.6287 352.94 -31.5708C347.136 -3.51584 331.132 18.0999 309.697 35.8544C280.453 60.0715 246.371 73.02 208.676 76.4379C196.624 77.5345 184.7 76.2863 173.429 71.5969C153.474 63.3029 141.912 48.208 138.73 26.9072C137.308 17.4 139.767 8.38272 143.986 -0.15625C160.001 -32.5041 194.666 -51.3201 230.461 -47.144C241.989 -45.8025 253.236 -43.4227 263.832 -38.4883C264.309 -38.255 264.834 -38.1734 265.778 -37.9051Z" fill="#A020F0" fill-opacity="0.08"/>
<path d="M1270.36 177.506C1264.4 179.547 1259.16 181.472 1253.82 183.129C1247.05 185.217 1240.23 187.165 1233.39 188.996C1229.19 190.116 1225.78 188.541 1224.66 185.322C1223.47 181.892 1225.2 178.392 1229.4 176.864C1244.81 171.23 1260.26 165.724 1275.73 160.253C1277.6 159.588 1279.65 159.238 1281.64 159.156C1288.15 158.911 1291.78 164.522 1288.98 170.367C1281.34 186.29 1278.17 203.508 1274.53 220.586C1274.47 220.866 1274.58 221.181 1274.66 221.986C1286.32 216.958 1299.24 216.188 1310.64 209.084C1307.04 206.576 1303.69 204.383 1300.5 201.98C1298.06 200.148 1295.38 198.398 1293.57 196.03C1288.54 189.486 1292.09 181.11 1300.28 180.177C1314.78 178.509 1328.87 175.383 1342.29 169.492C1343.73 168.862 1345.28 168.454 1346.82 168.057C1353.42 166.401 1358.17 169.888 1357.77 176.759C1357.4 182.755 1356.25 188.728 1355.08 194.642C1351.68 211.988 1348.1 229.3 1344.41 247.591C1356.46 244.266 1367.87 241.117 1379.35 237.955C1375.58 229.381 1372.01 221.274 1368.44 213.178C1367.93 212.012 1367.34 210.869 1366.96 209.667C1365.35 204.558 1367.88 200.09 1373.16 199.25C1381.73 197.873 1390.36 196.847 1398.95 195.564C1402.61 195.015 1406.22 194.152 1409.86 193.464C1414.68 192.542 1418.06 194.479 1419.1 199.297C1419.68 202.038 1419.88 205.024 1419.48 207.789C1416.34 229.486 1413 251.16 1409.7 272.846C1409.11 276.707 1408.35 280.545 1407.69 284.395C1407.03 288.244 1404.47 290.787 1399.85 291.604C1393.19 292.794 1386.43 293.505 1379.8 294.87C1359.06 299.116 1338.34 303.479 1317.66 308.017C1313.67 308.892 1309.88 310.723 1306.04 312.193C1304.27 312.87 1302.6 313.861 1300.82 314.515C1292.57 317.559 1285.99 314.001 1284.65 305.287C1282.88 293.715 1282.59 282.073 1285.23 270.536C1285.51 269.312 1285.78 268.087 1286.2 266.185C1281.86 266.745 1277.9 267.084 1274.04 267.9C1273.31 268.052 1272.71 270.047 1272.48 271.271C1268.33 293.447 1264.36 315.669 1260.06 337.81C1259.01 343.176 1257.13 348.426 1255.15 353.535C1254.19 356.008 1252.4 358.353 1250.45 360.196C1247.07 363.404 1242.31 362.61 1240.44 358.329C1239.26 355.646 1238.59 352.31 1238.97 349.452C1240.16 340.75 1241.98 332.141 1243.53 323.485C1247.15 303.258 1250.91 283.042 1254.32 262.779C1255.42 256.293 1258.8 252.385 1264.78 250.064C1272.97 246.879 1281.41 247.393 1289.87 247.918C1292.61 248.093 1295.35 248.524 1298.03 249.142C1304.46 250.624 1307.2 255.453 1305.49 261.857C1304.39 265.952 1303.24 270.035 1302.41 274.176C1301.17 280.382 1301.64 286.576 1302.9 292.677C1303.3 292.771 1303.54 292.91 1303.71 292.84C1319.32 286.366 1336.05 285.666 1352.49 283.322C1365.9 281.409 1379.26 279.157 1392.62 276.859C1393.65 276.684 1395.05 275.156 1395.25 274.059C1396.44 267.503 1397.34 260.889 1398.3 254.287C1400.48 239.402 1402.65 224.517 1404.82 209.632C1404.96 208.699 1405.02 207.766 1405.19 206.097C1397.38 207.766 1389.95 209.364 1382.27 211.009C1382.65 212.56 1382.79 213.61 1383.15 214.566C1385.98 221.974 1388.79 229.381 1391.77 236.73C1393.11 240.067 1392.13 243.041 1388.58 244.476C1384.76 246.028 1380.86 247.369 1376.97 248.781C1365.74 252.864 1354.49 256.911 1343.27 261.006C1339.21 262.487 1335.11 264.004 1331.23 260.843C1327.22 257.576 1327.9 253.167 1328.78 248.804C1332.89 228.355 1337.01 207.894 1341.1 187.445C1341.3 186.441 1341.4 185.427 1341.6 184.085C1333.81 186.768 1326.46 189.311 1318.78 191.959C1320.51 193.919 1322.26 195.599 1323.66 197.535C1325.76 200.44 1328.04 203.321 1329.48 206.552C1331.59 211.3 1329.54 215.861 1324.73 217.716C1313.5 222.079 1302.18 226.243 1290.91 230.536C1285.97 232.414 1281.02 234.304 1276.16 236.392C1266.58 240.533 1259.24 235.541 1260.92 225.252C1263.26 210.845 1266.47 196.567 1269.32 182.242C1269.54 180.924 1269.88 179.606 1270.36 177.506Z" fill="#A020F0" fill-opacity="0.08"/>
<path d="M376.52 12.5356C379.574 10.6808 382.838 9.10594 385.623 6.91287C391.113 2.58505 396.347 -2.04605 401.65 -6.60718C408.749 -12.7081 416.185 -18.2958 425.055 -21.6204C429.671 -23.3585 434.321 -23.9184 438.926 -21.6087C444.194 -18.9607 446.7 -14.3179 447.924 -8.82356C449.649 -1.12448 448.285 6.44626 446.269 13.7954C442.317 28.1903 437.772 42.422 433.68 56.7819C429.694 70.7802 427.083 85.0702 426.162 99.5935C425.848 104.61 426.186 109.777 427.048 114.735C428.156 121.139 431.99 125.63 438.506 127.438C439.427 127.695 440.266 128.22 441.094 129.06C437.9 131.125 434.508 131.813 430.953 131.218C424.367 130.133 419.88 126.132 416.943 120.358C412.735 112.075 411.021 103.14 410.975 93.9241C410.905 77.0095 414.215 60.6431 419.542 44.6617C422.794 34.9212 426.477 25.309 429.613 15.5335C431.256 10.4125 432.177 5.06976 433.389 -0.191269C433.576 -1.00784 433.587 -1.88272 433.587 -2.72261C433.552 -7.96033 432.375 -8.94022 427.969 -6.26888C421.57 -2.38434 415.427 1.9668 409.366 6.36461C403.457 10.6574 398.025 15.6152 391.941 19.6164C388.036 22.1827 383.49 24.0842 378.968 25.309C371.811 27.2455 366.263 23.7809 363.897 16.7001C361.706 10.1442 362.323 3.50661 363.71 -3.08427C366.496 -16.3827 372.732 -28.1646 380.238 -39.2816C386.218 -48.1472 393.002 -56.4762 398.853 -65.4234C407.35 -78.3952 409.238 -92.9302 407.327 -108.072C406.86 -111.746 405.403 -114.686 401.767 -116.681C397.291 -119.13 395.834 -123.552 397.373 -127.448C398.934 -131.426 403.142 -133.327 408.271 -132.359C408.795 -132.265 409.32 -132.172 409.821 -131.997C440.196 -121.312 466.608 -105.459 482.553 -76.0272C487.775 -66.38 491.54 -56.1612 494.302 -45.5575C494.489 -44.8576 494.722 -44.1693 495.27 -42.3495C496.051 -43.6444 496.4 -44.391 496.902 -45.0092C509.653 -60.4657 524.829 -72.7259 543.455 -80.4483C572.595 -92.5335 601.722 -104.642 630.862 -116.716C641.084 -120.95 651.166 -125.406 658.848 -133.747C661.202 -136.302 663.382 -139.09 665.177 -142.053C667.415 -145.751 666.692 -148.679 662.741 -150.417C659.337 -151.921 655.479 -153.111 651.819 -153.123C641.935 -153.146 632.202 -151.886 623.169 -147.255C621.887 -146.59 619.463 -146.404 618.577 -147.174C617.633 -147.99 617.19 -150.51 617.749 -151.723C618.705 -153.823 620.244 -156.238 622.178 -157.206C635.326 -163.715 649.045 -166.841 663.592 -162.42C665.876 -161.72 668.091 -160.495 670.061 -159.119C677.497 -153.928 679.991 -145.844 675.515 -137.97C672.275 -132.265 667.881 -127.063 663.3 -122.303C656.691 -115.421 648.346 -110.836 639.639 -107.103C616.677 -97.258 593.622 -87.6341 570.636 -77.8353C561.487 -73.9274 552.29 -70.0896 543.373 -65.6684C524.398 -56.2662 509.338 -42.4545 498.65 -24.0934C496.983 -21.2237 496.167 -17.8408 494.99 -14.6912C494.221 -12.6148 493.766 -10.3751 492.706 -8.47362C490.911 -5.24234 487.449 -3.85416 484.045 -4.58907C480.642 -5.31232 478.007 -7.98367 477.669 -11.6349C477.46 -13.9213 477.669 -16.301 478.042 -18.5757C479.348 -26.4615 478.823 -34.1372 476.364 -41.7896C469.988 -61.6906 459.673 -79.0718 443.798 -92.8485C439.846 -96.2781 435.417 -99.1478 431.093 -102.356C424.869 -79.6551 411.464 -61.7489 398.422 -43.6561C388.829 -30.346 380.227 -16.5226 376.485 -0.296249C375.576 3.62328 375.529 7.74112 375.098 11.7656C375.576 12.0689 376.054 12.3022 376.52 12.5356Z" fill="#A020F0" fill-opacity="0.08"/>
<path d="M376.474 265.87C384.761 262.861 393.095 260.481 399.995 255.255C402.338 253.482 404.109 250.391 405.124 247.533C406.953 242.353 406.487 236.917 405.24 231.738C403.771 231.551 402.454 231.598 401.324 231.19C398.526 230.175 396.591 228.203 396.556 225.1C396.522 222.102 398.386 220.248 401.056 219.174C406.709 216.9 412.77 219.571 415.614 225.87C418.959 233.266 419.169 241.058 417.84 248.933C416.301 258.078 411.523 265.322 403.329 269.452C394.004 274.153 384.376 278.364 374.574 281.945C360.062 287.253 345.119 291.371 330.678 296.842C320.024 300.878 309.697 305.906 299.557 311.132C290.29 315.903 282.842 323.054 277.236 331.908C270.044 343.258 273.622 351.202 286.887 353.512C293.111 354.597 298.787 353.465 303.018 348.437C303.893 347.399 304.254 345.311 303.893 343.958C302.715 339.513 303.263 336.434 306.142 334.567C308.998 332.712 313.054 333.214 316.155 335.815C320.968 339.863 322.029 346.361 318.334 352.193C310.56 364.465 299.382 370.461 284.8 368.921C280.243 368.443 275.581 367.172 271.408 365.282C258.202 359.298 252.607 344.879 258.062 331.464C263.051 319.181 272.002 310.035 282.504 302.406C296.957 291.907 313.136 284.827 330.118 279.565C340.329 276.404 350.609 273.476 360.855 270.432C362.044 270.082 363.221 269.673 364.351 269.3C359.421 256.27 360.307 242.575 357.917 228.938C356.146 229.941 354.677 230.7 353.278 231.563C348.604 234.468 344.07 237.617 339.268 240.289C330.083 245.41 320.304 246.693 310.094 244.01C295.675 240.207 290.92 227.643 299.23 215.232C304.172 207.847 311.014 202.528 318.544 198.049C330.701 190.816 344.059 186.722 357.719 183.584C373.536 179.944 389.528 177.436 405.753 176.631C417.758 176.036 429.659 176.969 441.42 179.536C442.329 179.734 443.238 179.874 444.485 180.096C444.73 174.286 444.928 168.71 445.22 163.134C445.383 159.856 445.453 156.555 446.001 153.336C446.851 148.413 450.523 145.357 454.929 145.415C459.416 145.485 462.995 148.868 463.787 153.861C464.009 155.214 464.23 156.602 464.195 157.967C463.706 179.349 463.298 200.743 462.494 222.114C462.377 225.159 460.675 228.39 458.973 231.073C457.248 233.803 454.195 234.923 450.873 234.199C447.527 233.476 445.523 231.201 444.777 227.97C444.252 225.719 443.984 223.362 443.949 221.052C443.867 213.318 443.844 205.584 444.042 197.85C444.112 195.261 443.343 194.491 440.767 194.222C417.898 191.784 395.496 194.736 373.431 200.463C362.288 203.356 351.32 207.042 340.504 210.974C332.216 213.983 324.803 218.813 318.066 224.599C316.971 225.544 315.642 226.209 314.698 227.363C319.966 230.14 324.768 230.198 329.361 228.145C333.394 226.337 337.158 223.922 341.051 221.787C345.784 219.209 350.341 216.211 355.307 214.182C363.326 210.892 369.387 214.03 370.902 222.581C372.394 231.003 372.814 239.612 373.734 248.128C374.259 252.957 374.807 257.798 375.424 262.616C375.541 263.631 376.042 264.587 376.474 265.87Z" fill="#A020F0" fill-opacity="0.08"/>
<path d="M1125.02 15.0669C1117.84 18.6015 1111.34 18.8815 1104.74 17.19C1089.88 13.3638 1080.46 1.1969 1080.19 -14.8545C1079.91 -31.7342 1086.34 -46.0124 1097.96 -58.0627C1104.33 -64.6769 1111.77 -69.8913 1119.79 -74.3357C1120.98 -74.989 1122.22 -76.5054 1122.45 -77.7886C1125.09 -93.4551 1127.74 -109.122 1129.99 -124.835C1131.25 -133.63 1131.85 -142.519 1132.62 -151.385C1132.77 -153.111 1132.33 -154.884 1132.09 -157.532C1128.4 -155.911 1125.02 -154.919 1122.17 -153.088C1111.56 -146.31 1101.15 -139.206 1090.61 -132.324C1082.75 -127.179 1074.87 -122.047 1066.82 -117.171C1064.34 -115.666 1061.39 -114.768 1058.54 -114.068C1050.51 -112.108 1044.1 -115.292 1041.36 -123.132C1039.55 -128.288 1038.9 -133.829 1037.51 -139.148C1037 -141.108 1036.15 -143.079 1034.99 -144.724C1033.36 -147.045 1032.68 -149.238 1034.28 -151.746C1035.75 -154.056 1039.04 -155.293 1041.55 -153.741C1043.87 -152.318 1046.21 -150.23 1047.42 -147.874C1049.22 -144.351 1050.09 -140.326 1051.3 -136.5C1051.91 -134.587 1052.43 -132.639 1052.9 -130.679C1053.51 -128.078 1054.99 -127.296 1057.28 -128.649C1064.47 -132.884 1071.77 -136.943 1078.73 -141.528C1090.47 -149.262 1101.83 -157.626 1113.72 -165.15C1118.54 -168.206 1124.14 -170.493 1129.7 -171.857C1138.94 -174.144 1145.72 -169.279 1147.63 -159.959C1149.39 -151.408 1148.5 -142.811 1147.27 -134.33C1144.97 -118.29 1142.24 -102.321 1139.7 -86.3159C1139.52 -85.1961 1139.43 -84.0529 1139.27 -82.5597C1143.4 -83.4929 1147.17 -84.4262 1150.96 -85.1611C1161.85 -87.2842 1172.8 -87.7858 1183.78 -85.686C1196.36 -83.2713 1206.97 -77.217 1215.83 -68.0598C1231.47 -51.8801 1229.78 -28.3046 1211.9 -14.6679C1202.78 -7.7037 1192.58 -2.65263 1181.18 -0.891174C1156.5 2.92337 1129.31 -11.2849 1123.5 -40.6347C1123.3 -41.6496 1123.04 -42.6412 1122.69 -44.146C1114.47 -36.4586 1108.34 -28.0246 1105.22 -17.6075C1101.33 -4.61238 1102.89 0.263702 1113.68 8.34773C1116.04 10.1092 1118.73 11.4274 1121.27 12.9322C1122.22 13.4804 1123.19 14.0171 1125.02 15.0669ZM1174.38 -67.7215C1163.37 -67.5815 1153.01 -64.3852 1143.24 -59.2409C1136.04 -55.4496 1137.44 -56.7561 1138.2 -49.5703C1139.16 -40.5764 1141.52 -32.0958 1148.39 -25.5282C1166.66 -8.05365 1191.6 -12.6148 1206.83 -28.6195C1213.68 -35.8053 1213.01 -46.6307 1205.96 -53.9682C1197.4 -62.8221 1186.93 -67.5465 1174.38 -67.7215Z" fill="#A020F0" fill-opacity="0.08"/>
<path d="M1230.96 240.242C1230.44 247.929 1229.72 256.387 1229.33 264.844C1229.09 270.233 1229.14 275.658 1229.45 281.035C1229.92 289.423 1227.31 294.205 1219.11 296.025C1210.37 297.962 1201.38 298.941 1192.45 299.933C1160.2 303.514 1127.7 302.453 1095.38 304.506C1066.75 306.326 1038.21 309.242 1009.62 311.703C1002.34 312.333 995.083 313.255 987.798 313.71C983.812 313.955 979.721 313.885 975.793 313.243C966.631 311.727 962.96 304.681 966.969 296.34C970.828 288.326 975.129 280.534 979.173 272.613C980.805 269.405 982.507 266.197 983.742 262.826C984.663 260.318 985.281 257.553 985.339 254.893C985.502 247.626 988.148 243.088 995.246 241.758C1009.58 239.075 1024 236.462 1038.5 235.039C1064.95 232.426 1091.54 231.225 1117.95 228.437C1139.2 226.197 1160.28 222.441 1181.46 219.443C1190.05 218.229 1198.68 217.191 1207.3 216.2C1223.82 214.298 1230.92 220.632 1230.97 237.244C1230.96 237.99 1230.96 238.725 1230.96 240.242ZM1212.58 279.612C1211.78 265.567 1210.9 252.152 1210.3 238.725C1210.17 235.751 1209.29 234.561 1206.29 234.666C1196.24 235.016 1186.15 234.747 1176.14 235.587C1142.39 238.422 1108.66 241.478 1074.95 244.745C1051.99 246.973 1029.07 249.726 1006.12 252.175C1003.93 252.409 1002.9 252.992 1002.53 255.488C1002.01 259.011 1001.04 262.581 999.606 265.835C996.086 273.884 992.193 281.758 988.463 289.714C987.938 290.834 987.425 291.954 986.726 293.494C988.603 293.354 989.955 293.249 991.307 293.144C1006.49 291.954 1021.68 290.554 1036.88 289.633C1065.81 287.859 1094.85 289.434 1123.79 286.611C1146.63 284.383 1169.61 283.508 1192.51 281.875C1199.25 281.397 1205.94 280.382 1212.58 279.612Z" fill="#A020F0" fill-opacity="0.08"/>
<path d="M1032.34 -61.7954C1035.03 -63.1836 1037.6 -64.0352 1039.57 -65.6217C1043.42 -68.7363 1047.07 -72.1309 1050.54 -75.6654C1054.33 -79.5033 1057.54 -83.9711 1061.57 -87.5057C1064.51 -90.0721 1068.21 -91.9852 1071.88 -93.4083C1075.02 -94.6215 1078.18 -93.3617 1080.49 -90.7603C1082.72 -88.229 1083.53 -84.9627 1081.9 -82.1747C1078.47 -76.272 1078.06 -69.6695 1076.83 -63.3003C1071 -33.1572 1068.11 -2.71085 1067.57 27.9805C1067.29 43.8569 1070.26 58.9401 1077.99 72.9618C1080.08 76.753 1081.71 80.7775 1081.41 85.9919C1079.58 85.362 1077.92 85.0937 1076.62 84.2654C1074.76 83.0872 1072.96 81.6757 1071.5 80.0309C1059.67 66.6275 1052.3 51.2877 1050.83 33.2182C1049.26 13.8655 1051.02 -5.32384 1053.2 -24.4899C1054.52 -36.1552 1056.46 -47.7505 1058.2 -59.8707C1057.21 -59.0191 1056.39 -58.3309 1055.6 -57.6193C1049.94 -52.5449 1043.7 -48.4037 1036.29 -46.3506C1027.54 -43.9359 1020.99 -46.9689 1017.43 -55.3212C1015.56 -59.6957 1014.29 -64.3151 1012.67 -68.7946C1011.21 -72.8425 1010.01 -73.3674 1006.41 -71.046C1003.85 -69.4012 1001.58 -67.2898 999.233 -65.3183C993.801 -60.7572 988.568 -55.9511 982.938 -51.6466C979.861 -49.3019 976.306 -47.4005 972.704 -45.9773C961.386 -41.4862 950.744 -46.7473 947.656 -58.5292C946.35 -63.5103 946.339 -68.8063 945.406 -73.904C944.579 -78.4651 943.599 -83.0379 942.107 -87.4124C940.965 -90.772 939.916 -90.7837 936.897 -88.7422C931.139 -84.846 927.946 -79.2933 926.477 -72.6091C924.484 -63.5336 925.02 -54.458 926.803 -45.4641C928.097 -38.9548 929.321 -32.4339 932.631 -26.4263C935.534 -21.142 931.85 -15.2627 925.556 -14.3061C920.381 -13.5246 915.858 -15.2977 912.921 -19.3922C909.436 -24.2566 905.928 -29.366 903.83 -34.907C897.92 -50.4918 897.279 -66.5899 901.743 -82.688C905.52 -96.3013 913.434 -106.858 926.314 -113.146C939.718 -119.69 952.504 -115.829 960.36 -103.16C965.862 -94.2949 967.086 -84.3211 967.855 -74.2306C968.042 -71.7343 968.216 -69.2495 968.461 -65.9133C971.061 -67.8614 973.217 -69.1796 975.023 -70.871C979.196 -74.7789 982.938 -79.1767 987.332 -82.8046C991.528 -86.2692 995.969 -89.8504 1000.92 -91.8919C1012.86 -96.8263 1024.84 -90.7953 1028.68 -78.4768C1029.9 -74.5572 1030.41 -70.4161 1031.26 -66.3682C1031.53 -65.0617 1031.87 -63.7552 1032.34 -61.7954Z" fill="#A020F0" fill-opacity="0.08"/>
<path d="M896.219 131.498C895.228 134.239 894.47 136.899 893.34 139.395C887.768 151.656 875.903 157.978 864.282 154.945C857.778 153.242 853.092 149.101 849.549 143.572C844.84 136.234 842.264 128.092 840.69 119.576C840.539 118.771 840.364 117.978 840.108 116.753C838.872 117.511 837.94 118.13 836.961 118.666C830.83 121.991 824.932 125.934 818.498 128.488C793.438 138.427 769.846 125.024 765.033 98.4737C762.888 86.6568 764.391 75.2715 769.112 64.2711C773.868 53.2008 780.745 43.6236 789.498 35.3996C801.27 24.3409 814.243 14.822 827.764 6.02643C831.692 3.47173 835.061 3.42507 837.788 5.58314C840.306 7.5779 841.343 11.8124 840.224 15.5103C839.198 18.8582 836.436 19.9548 833.592 17.9017C832.275 16.9451 831.389 16.7118 830.002 17.6567C804.219 35.0963 786.771 57.9252 783.25 89.7948C783.029 91.7895 783.041 93.8076 782.982 95.8257C782.481 114.105 800.256 121.758 812.309 117.476C816.633 115.937 820.841 113.709 824.629 111.107C829.058 108.063 833.207 104.505 836.996 100.69C839.606 98.0654 841.401 94.6242 843.511 91.5096C844.164 90.553 844.549 89.4098 845.213 88.4649C848.069 84.3704 852.929 83.0639 856.915 85.2686C860.773 87.3917 862.452 92.1395 860.447 96.5956C855.085 108.471 856.869 120.159 861.076 131.79C861.892 134.029 863.198 136.223 864.736 138.042C868.711 142.755 875.32 142.603 878.432 137.307C880.332 134.076 881.358 130.028 881.696 126.249C882.208 120.579 881.672 114.817 881.789 109.101C881.87 105.006 884.26 101.915 887.675 100.912C891.183 99.8852 894.785 101.133 897.221 104.33C897.99 105.333 898.585 106.464 899.226 107.561C900.45 109.672 901.347 112.04 902.898 113.86C906.791 118.421 910.544 123.286 915.148 127.03C922.421 132.956 930.429 132.081 937.224 125.642C951.689 111.924 955.78 92.4661 947.982 74.1166C934.893 43.3436 907.187 29.357 879.085 31.6434C864.375 32.8332 854.782 41.7688 848.581 54.5539C845.877 60.1183 847.334 64.0495 852.451 67.7007C852.626 67.829 852.812 67.9224 852.976 68.0623C854.794 69.5672 857.521 70.7337 856.437 73.7666C855.435 76.5546 852.766 77.0796 850.155 77.1729C844.828 77.3712 840.679 75.1782 837.905 70.6404C833.953 64.1895 833.021 57.202 835.818 50.2145C841.285 36.5661 849.63 25.1691 863.279 18.6249C870.623 15.102 878.607 14.4954 886.591 15.1486C913.877 17.3767 935.021 29.9986 949.521 53.2941C956.608 64.6794 962.587 76.6946 964.032 90.2614C966.282 111.422 957.26 127.66 940.324 139.419C929.053 147.246 917.083 146.091 905.718 138.812C902.443 136.724 899.529 134.076 896.219 131.498Z" fill="#A020F0" fill-opacity="0.08"/>
<path d="M877.231 337.577C882.383 337.577 886.917 337.682 891.451 337.484C892.302 337.449 893.666 336.247 893.817 335.419C896.125 322.599 898.34 309.767 900.403 296.9C901.359 290.939 903.958 287.428 908.224 287.113C912.525 286.798 915.998 290.099 917.199 296.153C918.784 304.097 917.735 312.018 916.103 319.811C914.681 326.541 912.91 333.202 911.115 339.852C910.543 341.963 909.611 344.074 908.41 345.906C905.881 349.779 901.755 350.654 897.524 348.822C896.055 348.181 894.284 347.877 892.675 347.959C868.594 349.079 844.828 352.217 821.54 358.773C817.483 359.916 812.891 360.254 808.742 359.648C801.666 358.621 799.673 352.193 804.184 346.571C807.098 342.931 811.026 340.645 815.455 339.91C824.931 338.335 834.478 337.075 844.035 336.095C848.826 335.605 853.721 336.014 858.593 336.014C859.048 327.941 859.479 320.161 859.922 312.123C858.78 312.123 857.544 311.995 856.344 312.147C836.051 314.561 815.758 316.964 795.489 319.519C793.635 319.752 791.654 320.662 790.174 321.817C783.029 327.37 775.313 331.581 766.279 333.027C750.952 335.489 741.825 329.26 738.527 314.118C738.399 313.511 738.27 312.893 738.061 311.902C736.452 312.252 734.948 312.543 733.468 312.893C723.351 315.296 713.21 317.559 702.697 315.891C702.067 315.786 701.438 315.739 700.808 315.623C683.022 312.275 675.772 297.145 684.269 281.117C687.567 274.888 692.521 270.432 698.827 267.434C706.17 263.946 713.945 261.764 722.034 261.298C725.391 261.099 729.039 261.846 732.174 263.106C734.296 263.957 736.301 266.174 737.408 268.273C739.308 271.901 736.813 275.308 732.78 274.934C723.607 274.083 715.588 277.186 708.455 282.435C705.692 284.465 703.489 287.614 701.834 290.682C700.004 294.077 700.995 296.037 704.69 297.285C708.28 298.498 712.021 299.828 715.74 299.956C722.791 300.213 729.866 299.77 736.918 299.315C738.212 299.233 739.739 297.973 740.59 296.83C742.641 294.1 744.996 291.977 748.411 291.242C752.024 290.472 755.649 291.861 757.654 294.765C759.694 297.728 759.775 301.485 757.386 304.564C754.32 308.519 754.495 312.8 755.544 317.256C756.29 320.394 758.516 322.284 761.559 321.607C765.195 320.802 769.112 319.741 772.014 317.594C775.942 314.69 779.241 310.817 782.411 307.037C784.649 304.366 786.887 302.534 790.547 302.289C805.956 301.251 821.365 300.155 836.75 298.836C844.233 298.195 851.658 296.865 859.141 296.223C862.02 295.978 862.778 294.835 863.151 292.222C864.351 283.94 865.785 275.693 867.219 267.445C867.487 265.894 867.988 264.342 868.664 262.931C870.587 258.883 874.422 256.643 878.641 256.923C882.966 257.215 886.766 260.061 887.838 264.471C888.526 267.305 888.747 270.35 888.631 273.278C887.791 294.03 883.933 314.293 878.199 334.217C877.954 334.999 877.732 335.792 877.231 337.577Z" fill="#A020F0" fill-opacity="0.08"/>
<path d="M397.932 399.064C397.932 400.686 397.92 401.922 397.932 403.159C398.305 430.094 397.804 456.994 395.205 483.824C394.773 488.245 394.342 492.737 393.176 496.983C392.337 500.039 390.764 503.2 388.677 505.557C384.33 510.433 376.952 509.033 374.819 502.862C373.688 499.596 373.338 495.711 373.839 492.293C379.749 452.316 380.926 412.106 380.402 371.791C380.367 369.248 379.959 366.717 379.947 364.185C379.912 359.064 383.013 355.285 387.523 354.678C391.894 354.095 395.857 356.801 397.151 361.654C398.188 365.539 398.596 369.586 399.68 373.448C400.613 376.784 401.918 380.062 403.41 383.188C404.797 386.104 407.443 387.084 410.614 386.559C416.208 385.626 419.74 382.383 421.209 376.924C423.202 369.54 421.955 362.191 420.882 354.853C420.276 350.665 419.355 346.477 419.251 342.266C419.041 333.016 424.228 327.335 433.459 327.078C457.05 326.402 479.931 322.039 502.24 314.503C510.352 311.762 517.87 307.982 523.943 301.753C533.268 292.211 533.081 281.245 523.069 272.38C511.39 262.033 497.939 260.049 483.299 264.821C482.332 265.136 481.434 265.707 480.176 266.325C480.91 267.55 481.528 268.495 482.052 269.487C483.777 272.765 482.786 274.678 479.092 275.308C469.977 276.871 462.68 267.772 465.932 258.871C467.342 255.022 469.977 252.105 473.473 250.134C503.685 233.138 536.601 252.759 543.082 276.171C545.891 286.308 544.306 295.722 538.058 304.214C531.659 312.916 523.069 318.819 513.197 322.855C495.095 330.251 476.294 335.232 457.062 338.673C450.605 339.828 444.136 340.995 437.655 341.998C435.301 342.36 434.438 343.374 434.613 345.778C435.056 351.692 435.662 357.629 435.545 363.544C435.44 369.015 435.114 374.614 433.797 379.887C429.636 396.743 411.663 403.999 397.932 399.064Z" fill="#A020F0" fill-opacity="0.08"/>
<path d="M661.086 113.743C660.2 105.134 659.384 97.1437 658.545 89.153C657.776 81.8855 656.797 74.6297 656.26 67.3506C655.561 57.8201 659.955 53.2473 669.501 53.434C675.201 53.5506 680.889 54.0756 686.589 54.4255C687.008 54.4488 687.428 54.4838 687.848 54.4488C694.387 53.8889 697.405 55.3471 698.991 61.9263C701.718 73.2183 704.189 84.6386 705.774 96.1405C707.639 109.661 708.537 123.321 709.656 136.934C710.04 141.565 709.97 146.255 709.831 150.897C709.691 155.633 707.243 158.398 702.534 159.005C698.874 159.483 695.156 159.518 691.461 159.623C677.707 160.02 663.942 160.346 650.188 160.766C649.22 160.801 648.02 161.139 647.344 161.781C638.765 170.005 628.473 175.756 618.484 181.915C613.006 185.298 607.411 188.611 601.536 191.236C593.902 194.642 585.964 195.435 578.399 190.688C572.012 186.675 568.9 180.445 567.979 173.26C565.939 157.442 570.415 143.233 579.623 130.483C589.1 117.36 601.501 108.331 617.726 105.671C628.298 103.933 638.59 106.231 648.672 109.404C652.6 110.629 656.435 112.11 661.086 113.743ZM682.579 65.2742C680.458 66.0558 678.919 66.814 677.287 67.1756C674.746 67.7356 674.047 68.9954 674.222 71.6435C674.758 79.7742 674.781 87.9398 675.294 96.0822C675.865 105.158 676.611 114.222 677.567 123.262C677.87 126.109 677.859 128.547 675.481 130.413C673.091 132.291 670.644 131.708 667.998 130.74C658.673 127.322 649.407 123.636 639.872 120.906C625.652 116.823 612.376 119.028 600.93 129.002C592.654 136.211 587.619 145.356 585.16 155.948C583.831 161.641 582.957 167.415 584.682 173.225C585.941 177.459 587.969 178.824 592.247 177.914C594.811 177.366 597.433 176.584 599.706 175.324C609.87 169.667 620.022 163.974 629.942 157.896C632.716 156.205 635.07 153.429 636.888 150.676C639.453 146.814 642.635 144.89 647.192 145.181C649.302 145.321 651.412 145.531 653.521 145.683C667.24 146.64 680.959 147.619 694.678 148.506C696.613 148.634 698.583 148.319 700.867 148.191C700.413 147.048 700.273 146.418 699.935 145.928C696.59 141.11 694.853 135.686 694.177 129.946C693.338 122.796 692.953 115.587 691.951 108.471C689.887 93.9708 689.841 78.9926 682.579 65.2742Z" fill="#A020F0" fill-opacity="0.08"/>
<path d="M617.947 -24.5598C617.994 -36.4234 621.281 -47.3305 627.633 -57.3277C634.51 -68.1764 643.007 -77.5552 653.369 -85.1727C669.349 -96.9313 686.472 -106.543 705.599 -112.178C718.397 -115.946 731.172 -119.865 744.157 -122.875C767.666 -128.334 787.05 -140.478 803.59 -157.672C807.005 -161.23 809.884 -165.068 811.084 -170.003C811.725 -172.651 813.299 -174.622 816.329 -174.715C819.407 -174.809 821.691 -173.129 822.192 -170.352C822.81 -167.005 823.043 -163.4 822.46 -160.064C821.237 -153.006 817.309 -147.185 812.821 -141.703C797.482 -122.956 778.378 -109.926 755.031 -103.219C741.196 -99.241 727.372 -95.2048 713.572 -91.0986C696.729 -86.0825 681.483 -77.8352 667.496 -67.3364C653.836 -57.0827 643.602 -44.2742 639.627 -27.2195C639.196 -25.3648 638.904 -23.475 638.706 -21.5735C637.343 -8.39178 642.075 1.48871 654.104 7.77629C663.964 12.9323 674 16.7002 685.388 14.6471C685.982 14.5421 686.682 14.9621 687.323 15.1371C686.775 15.907 686.402 16.9568 685.656 17.4235C675.865 23.5594 665.351 24.131 654.488 21.098C651.341 20.2231 648.241 19.0683 645.257 17.7384C626.852 9.46773 617.959 -4.36726 617.947 -24.5598Z" fill="#A020F0" fill-opacity="0.08"/>
<path d="M1012.39 130.028C1015.5 129.048 1018.64 128.127 1021.73 127.065C1028.84 124.627 1035.91 122.072 1043.02 119.646C1045.42 118.83 1047.86 118.06 1050.34 117.581C1061 115.528 1068.65 120.684 1069.42 131.51C1069.98 139.36 1068.92 147.339 1068.61 155.26C1068.44 159.39 1068.34 163.519 1068.19 167.637C1067.69 181.297 1082.04 190.851 1094.18 187.748C1099.69 186.336 1104.39 183.817 1108.24 179.606C1110.16 177.494 1112.1 175.371 1114.25 173.516C1116.13 171.906 1118.46 171.195 1120.63 173.015C1122.75 174.788 1122.48 177.133 1121.46 179.407C1121.02 180.364 1120.45 181.274 1119.85 182.137C1111.4 194.106 1091.1 201.793 1076.86 198.433C1060.8 194.642 1052.08 184.318 1051.64 167.824C1051.45 160.754 1052.23 153.65 1052.49 146.57C1052.6 143.537 1052.51 140.48 1052.51 137.004C1050.38 137.599 1048.41 137.949 1046.6 138.684C1039.46 141.612 1032.38 144.738 1025.23 147.631C1020.82 149.404 1016.32 150.967 1011.81 152.46C1010.33 152.95 1008.67 153.02 1007.1 153.044C995.235 153.265 987.833 144.365 991.015 132.956C993.486 124.102 996.727 115.447 999.978 106.826C1004.8 94.0524 1010 81.419 1014.9 68.6688C1016.03 65.7175 1016.65 62.5679 1017.44 59.4999C1018.13 56.8286 1017.18 55.4054 1014.28 55.5804C1003.36 56.2453 994.419 61.0631 986.994 68.8555C986.446 69.4271 986.586 70.9436 986.819 71.9351C987.309 74.0815 988.358 76.1346 988.637 78.2927C989.022 81.3373 987.285 83.0754 984.29 82.5972C978.287 81.6406 973.007 79.1559 970.408 73.2766C967.948 67.7123 969.568 62.4512 973.613 58.345C985.7 46.0848 1000.54 40.6022 1017.65 42.2937C1026.36 43.1569 1031.95 49.4095 1031.97 58.1817C1032 63.9211 1031.23 69.882 1029.56 75.3647C1025.99 87.0999 1021.55 98.5786 1017.58 110.186C1015.4 116.543 1013.43 122.971 1011.37 129.375C1011.73 129.573 1012.05 129.795 1012.39 130.028Z" fill="#A020F0" fill-opacity="0.08"/>
<path d="M1345.83 13.2587C1345.21 20.7245 1344.59 28.1903 1343.97 35.6561C1343.94 35.971 1343.86 36.2977 1343.9 36.601C1344.14 38.7824 1344.99 41.2437 1342.31 42.4686C1339.37 43.8101 1336.2 43.8568 1333.48 42.072C1328.09 38.5374 1322.61 35.0495 1317.63 30.9783C1302.81 18.8347 1288.24 6.39957 1273.52 -5.86063C1268.4 -10.1301 1263.14 -14.2363 1257.92 -18.3892C1249.63 -24.9684 1248.31 -30.4744 1253.76 -39.5499C1261.5 -52.4284 1269.38 -65.2486 1277.75 -77.7187C1280.43 -81.7083 1284.46 -85.1262 1288.57 -87.7509C1295.36 -92.102 1302.83 -91.4254 1309.2 -86.8643C1313.74 -83.6097 1318.01 -79.4452 1321.13 -74.8258C1325.19 -68.8298 1328.57 -62.2039 1331.24 -55.4614C1339.97 -33.449 1345.28 -10.6434 1345.83 13.2587ZM1271.94 -34.9888C1294.06 -19.7423 1311.89 -0.762932 1328.87 19.2314C1329.15 17.7499 1329.15 16.5133 1328.94 15.3002C1327.57 7.05281 1326.23 -1.20619 1324.71 -9.44188C1321.98 -24.1984 1318.04 -38.6167 1310.82 -51.8568C1308.1 -56.8262 1304.62 -61.4457 1300.97 -65.7852C1297.98 -69.3314 1291.26 -68.1415 1288.87 -64.0937C1284.02 -55.8813 1279.21 -47.6573 1274.38 -39.4333C1273.54 -37.9868 1272.77 -36.5053 1271.94 -34.9888Z" fill="#A020F0" fill-opacity="0.08"/>
<path d="M90.556 89.5848C87.2691 92.1628 84.4484 94.5192 81.4645 96.6656C78.2941 98.952 75.1237 101.343 71.6736 103.117C62.8734 107.631 54.5162 104.61 50.3085 95.6158C47.4528 89.5265 46.8933 82.959 46.8467 76.3681C46.7418 58.2869 49.0613 40.439 52.3016 22.6845C54.6911 9.54939 57.1737 -3.56238 59.5982 -16.6858C60.5539 -21.8419 64.074 -25.1898 68.7247 -25.2948C73.352 -25.3998 77.5248 -22.2852 78.3174 -17.2458C78.9002 -13.5362 78.9352 -9.59335 78.364 -5.88379C75.3568 13.4806 71.965 32.7866 68.9345 52.1393C67.594 60.7133 66.7082 69.3689 65.7757 78.0012C65.4843 80.7775 65.7291 83.6122 65.7291 87.1818C67.5008 86.0269 68.5848 85.4203 69.5639 84.6737C74.9372 80.5442 80.2406 76.3214 85.6489 72.2386C88.5978 70.0105 91.5934 67.7824 94.7754 65.9043C102.224 61.5065 110.103 65.5544 110.511 74.1867C110.791 80.1943 110.208 86.2485 109.998 92.2795C108.949 121.606 107.9 150.933 106.839 180.271C106.641 185.8 106.221 191.283 103.564 196.31C101.478 200.253 99.4844 200.417 96.9201 196.754C92.8639 190.956 92.2811 184.12 91.3603 177.413C87.7353 151.014 88.6095 124.557 90.3695 98.1005C90.5211 95.7791 90.6609 93.446 90.7775 91.1246C90.7775 90.8213 90.6842 90.5064 90.556 89.5848Z" fill="#A020F0" fill-opacity="0.08"/>
<path d="M1404.61 59.6867C1401.72 49.2113 1398.37 38.9575 1396.15 28.4704C1393.92 17.9483 1392.83 7.19292 1391.18 -3.79577C1390.48 -3.29416 1389.98 -2.97921 1389.55 -2.60592C1381.92 4.14827 1372.86 3.91498 1365.81 -3.53913C1360.11 -9.57008 1356.08 -16.8026 1354.12 -24.7699C1351.7 -34.6154 1350.38 -44.7292 1348.42 -54.6914C1346.76 -63.102 1344.86 -71.466 1343.09 -79.8534C1342.67 -81.8131 1342.1 -83.7729 1342 -85.756C1341.83 -88.6023 1343.03 -90.947 1345.6 -92.3469C1348.14 -93.735 1351.04 -93.8167 1353.07 -91.9152C1355.46 -89.6522 1358.07 -86.9692 1359.02 -83.9595C1361.66 -75.7239 1363.93 -67.3132 1365.49 -58.8092C1367.62 -47.2606 1368.44 -35.4553 1372.66 -24.35C1373.98 -20.897 1375.59 -17.5491 1377.23 -14.2478C1378.37 -11.9498 1380.05 -11.7515 1381.57 -13.9329C1384.27 -17.8524 1386.92 -21.807 1389.47 -25.8315C1391.8 -29.4944 1394.04 -33.4022 1399.3 -32.0957C1404.44 -30.8125 1405.01 -26.3331 1405.43 -22.0519C1407.23 -3.38747 1408.88 15.2886 1410.75 33.953C1411.76 43.9152 1414.55 53.4691 1418.52 62.6613C1420.33 66.8841 1418.7 70.3837 1413.76 71.3053C1406.38 72.6935 1398.92 73.6967 1391.49 74.7932C1377.44 76.858 1363.38 78.9344 1349.97 83.7871C1344.92 85.6186 1340.01 87.9866 1335.32 90.588C1329.23 93.9476 1324.69 98.9637 1321.81 105.345C1319.34 110.816 1317.03 116.357 1314.46 121.781C1314.18 122.376 1312.25 122.947 1311.87 122.609C1310.3 121.256 1308.68 119.751 1307.75 117.955C1305 112.647 1304.92 106.908 1306.08 101.203C1306.82 97.5872 1307.98 94.0409 1309.16 90.5296C1313.11 78.7944 1321.18 70.827 1333.01 67.8874C1344.15 65.1227 1355.62 63.3846 1367.06 62.1247C1379.04 60.8065 1391.14 60.5849 1403.19 59.8733C1403.89 59.815 1404.59 59.6983 1404.61 59.6867Z" fill="#A020F0" fill-opacity="0.08"/>
<path d="M512.427 94.1576C512.637 72.1685 515.924 50.4945 519.328 28.832C520.983 18.275 522.568 7.69456 524.071 -2.89751C524.654 -7.03868 526.239 -10.4566 530.098 -12.3813C543.548 -19.1122 557.151 -25.5164 571.86 -29.0044C575.567 -29.8793 579.6 -29.436 583.481 -29.576C584.425 -29.611 585.381 -29.4826 586.314 -29.5876C592.142 -30.2875 595.801 -27.3596 595.732 -21.4103C595.685 -16.4526 595.335 -11.4365 594.543 -6.54871C591.419 12.7806 588.062 32.075 584.81 51.381C584.588 52.7225 584.122 54.1807 584.402 55.4405C585.253 59.2551 583.458 61.5065 580.695 63.7929C568.783 73.6267 556.708 83.3089 545.308 93.7143C539.341 99.162 534.678 106.021 529.34 112.169C527.545 114.234 525.75 116.438 523.524 117.931C519.094 120.906 514.933 119.308 514.013 114.047C513.045 108.553 512.905 102.907 512.439 97.3305C512.357 96.2807 512.427 95.2191 512.427 94.1576ZM578.446 -15.6593C566.604 -11.4248 555.344 -7.44694 544.143 -3.30577C543.362 -3.01414 542.628 -1.52098 542.569 -0.541101C542.15 5.88646 542.628 12.454 541.509 18.7416C538.07 38.1176 534.026 57.4003 530.237 76.718C529.235 81.804 528.303 86.9018 527.288 92.3028C528.023 91.9878 528.268 91.9645 528.396 91.8245C540.541 78.2578 555.472 67.8524 569.086 55.9655C569.96 55.1956 570.706 53.7024 570.683 52.5709C570.438 37.0444 572.397 21.7162 574.716 6.42307C575.823 -0.774406 577.14 -7.92525 578.446 -15.6593Z" fill="#A020F0" fill-opacity="0.08"/>
<path d="M305.851 100.013C304.534 100.515 303.473 100.877 302.447 101.32C275.546 112.997 248.656 124.721 221.731 136.351C215.996 138.824 210.145 141.017 204.294 143.222C199.526 145.018 196.146 144.505 194.363 141.973C192.51 139.349 193.209 135.103 196.344 131.486C201.345 125.724 207.371 121.151 214.259 118.025C223.304 113.907 232.512 110.081 241.814 106.581C262.142 98.9286 282.481 91.3462 301.69 81.1157C304.639 79.5409 307.494 77.6162 309.989 75.3881C316.889 69.2405 326.82 71.3869 329.839 80.1475C330.841 83.0638 331.109 86.4001 330.969 89.5147C330.177 106.931 332.018 123.986 336.925 140.749C337.881 144.027 338.429 147.701 337.998 151.037C336.984 158.771 328.417 161.781 322.624 156.567C320.549 154.7 318.94 152.192 317.53 149.743C311.352 138.952 308.963 127.019 307.401 114.875C306.807 110.069 306.399 105.24 305.851 100.013Z" fill="#A020F0" fill-opacity="0.08"/>
<path d="M136.958 183.479C140.653 184.517 143.159 185.205 145.665 185.928C147.588 186.488 149.581 186.908 151.411 187.69C156.19 189.755 158.579 193.826 157.647 198.935C157.029 202.341 156.062 205.783 154.64 208.932C149.826 219.548 148.684 230.688 149.068 242.155C149.301 249.247 149.383 256.352 149.243 263.444C149.197 265.695 148.521 268.075 147.541 270.117C145.968 273.43 143.986 273.558 141.935 270.572C140.758 268.857 139.709 266.897 139.184 264.902C133.671 243.636 133.461 222.791 144.534 202.936C145.455 201.291 146.201 199.553 147.297 197.29C144.872 197.069 142.914 196.929 140.956 196.719C137.902 196.392 134.813 196.252 131.818 195.645C123.985 194.047 119.87 187.678 121.432 179.816C122.645 173.726 125.64 168.5 129.65 163.893C133.892 159.028 138.625 154.56 142.693 149.556C146.341 145.065 149.628 140.235 152.542 135.243C153.637 133.376 153.241 130.623 153.521 128.279C151.388 128.407 149.15 128.185 147.133 128.745C141.55 130.262 135.956 131.685 131.515 136.001C128.379 139.046 123.624 138.894 119.999 136.514C116.164 134.006 114.427 129.165 115.698 124.464C116.747 120.579 119.183 117.651 122.458 115.528C132.342 109.136 143.299 106.523 154.896 108.028C167.088 109.614 174.292 121.069 170.981 133.959C169.513 139.675 166.843 145.368 163.533 150.279C159.057 156.917 153.393 162.749 148.311 168.99C144.697 173.493 141.189 178.101 136.958 183.479Z" fill="#A020F0" fill-opacity="0.08"/>
<path d="M60.5774 -71.5244C76.8256 -70.8129 92.9223 -72.3877 108.937 -74.989C110.709 -75.2807 112.516 -75.5023 114.299 -75.4673C117.749 -75.409 120.255 -73.2859 120.628 -70.3812C120.99 -67.5466 119.311 -64.8636 115.966 -64.1053C109.916 -62.7522 103.809 -61.5273 97.6545 -60.7457C79.4948 -58.4477 61.3117 -56.3362 43.1286 -54.3415C40.3778 -54.0382 39.6901 -53 39.4687 -50.4453C37.2307 -24.4317 31.6709 1.01025 25.8663 26.4056C25.3301 28.727 24.386 31.1067 23.0456 33.0664C20.3414 37.021 15.5392 36.5077 13.8725 32.0282C12.94 29.5202 12.4621 26.6155 12.6719 23.9558C13.8258 8.4527 15.108 -7.05045 16.6232 -22.5186C17.7072 -33.5773 19.1992 -44.601 20.5862 -55.6247C21.8917 -66.0418 27.2184 -71.1045 37.7319 -71.4661C45.3315 -71.7344 52.9545 -71.5244 60.5774 -71.5244Z" fill="#A020F0" fill-opacity="0.08"/>
<path d="M4.89741 -44.3094C4.13978 -27.6047 3.46375 -10.8884 2.51962 5.80463C2.34479 8.98925 1.40067 12.2555 0.211771 15.2418C-0.953812 18.1581 -3.57637 19.8029 -6.86331 19.7563C-10.2785 19.7096 -12.8777 17.9248 -13.9967 14.8335C-15.069 11.9056 -15.9432 8.70927 -15.9549 5.61798C-16.1297 -26.5665 -16.1297 -58.751 -16.1064 -90.9238C-16.1064 -93.8751 -15.815 -96.8614 -15.2555 -99.7544C-14.1715 -105.377 -9.87052 -109.028 -4.74196 -109.052C0.328329 -109.075 4.46615 -105.68 5.70166 -100.116C6.24949 -97.6663 6.42433 -95.0766 6.36605 -92.5569C6.00472 -76.4705 5.51517 -60.3841 5.08391 -44.3094C5.01397 -44.3094 4.95569 -44.3094 4.89741 -44.3094Z" fill="#A020F0" fill-opacity="0.08"/>
<path d="M270.102 162.364C266.804 163.718 263.878 164.861 260.999 166.121C244.098 173.458 227.244 180.889 210.308 188.121C206.438 189.778 202.347 191.003 198.256 192.041C196.053 192.601 193.617 192.624 191.344 192.367C188.115 192.006 185.737 189.463 185.446 186.57C185.12 183.315 186.682 181.087 189.502 179.676C190.54 179.162 191.647 178.766 192.731 178.357C200.062 175.581 207.359 172.723 214.725 170.075C234.517 162.948 253.458 154.105 271.303 142.918C278.564 138.369 285.138 140.515 288.74 148.319C292.12 155.645 293.239 163.531 294.02 171.452C294.475 176.094 294.789 180.749 295.022 185.403C295.116 187.176 295.046 189.043 294.615 190.758C293.577 194.899 290.931 197.664 286.654 198.468C282.388 199.273 278.704 197.78 276.49 194.164C275.044 191.819 274.228 188.926 273.774 186.173C272.713 179.804 272.049 173.365 271.175 166.972C270.953 165.537 270.51 164.149 270.102 162.364Z" fill="#A020F0" fill-opacity="0.08"/>
<path d="M1179.79 135.453C1176.68 135.453 1173.73 135.674 1170.82 135.406C1161.73 134.578 1156.56 128.384 1157.19 119.25C1157.26 118.2 1157.41 117.138 1157.66 116.112C1160.53 104.166 1173.88 86.3885 1189.63 86.2369C1203.22 86.0969 1224.07 94.2743 1226.72 114.257C1227.92 123.356 1225.38 131.51 1219.43 138.427C1214.11 144.622 1207.24 148.576 1199.33 150.443C1189.71 152.717 1182.32 147.783 1180.36 138.112C1180.18 137.202 1179.97 136.293 1179.79 135.453ZM1213.72 120.241C1212.94 117.861 1212.53 115.248 1211.3 113.125C1207.25 106.219 1200.99 102.02 1193.45 99.7336C1192.37 99.407 1190.64 99.8853 1189.69 100.62C1186.32 103.175 1182.75 105.648 1180.04 108.821C1177.36 111.959 1175.53 115.855 1173.52 119.53C1172.59 121.256 1173.49 122.364 1175.43 122.504C1179.56 122.807 1183.71 123.344 1186.98 119.821C1187.68 119.075 1188.7 118.585 1189.64 118.118C1193.2 116.392 1196.75 117.068 1198.45 119.74C1200.14 122.388 1199.36 125.397 1196.04 127.94C1193.09 130.192 1192.73 133.166 1193.24 136.468C1193.55 138.392 1194.79 139.069 1196.68 138.859C1204.88 137.984 1213.23 128.71 1213.72 120.241Z" fill="#A020F0" fill-opacity="0.08"/>
<path d="M1435.87 -17.7708C1434.32 -17.4325 1433 -17.1525 1431.7 -16.8609C1423.44 -15.0411 1417.07 -21.2003 1419.33 -29.3427C1420.56 -33.7638 1422.44 -38.22 1425.01 -41.9995C1430.1 -49.5236 1435.64 -56.7794 1441.42 -63.7903C1449.84 -73.9974 1458.65 -83.8895 1467.28 -93.91C1467.89 -94.6099 1468.55 -95.2748 1469.79 -96.593C1469.79 -91.3786 1469.39 -86.8525 1469.88 -82.4314C1470.57 -76.2255 1468.22 -71.7343 1464.27 -67.1149C1455.8 -57.2344 1447.94 -46.8523 1439.89 -36.6335C1438.74 -35.1637 1437.94 -33.4139 1436.96 -31.7691C1439.9 -30.101 1442.74 -28.6778 1445.37 -26.963C1449.28 -24.4316 1450.44 -20.8854 1450.26 -16.091C1449.88 -6.47879 1450.27 3.15673 1450.5 12.7923C1450.69 20.9463 1451.18 29.0886 1451.35 37.2426C1451.4 39.3074 1451.25 41.7338 1450.2 43.3553C1449.07 45.0934 1446.83 47.0182 1444.99 47.1231C1443.13 47.2281 1440.81 45.5133 1439.36 43.9619C1438.27 42.7953 1437.93 40.6722 1437.8 38.9225C1436.29 20.5613 1433.95 2.23516 1436.06 -16.2426C1436.09 -16.5576 1435.99 -16.8726 1435.87 -17.7708Z" fill="#A020F0" fill-opacity="0.08"/>
<path d="M1373.82 142.545C1368.62 144.435 1363.42 144.913 1358.51 141.6C1352.98 137.867 1349.65 132.746 1350.14 125.852C1350.73 117.768 1354.64 111.399 1361.03 106.558C1369.31 100.27 1378.96 97.4237 1389.05 96.4554C1398.83 95.5222 1408.69 95.5105 1418.52 95.0556C1421.37 94.9273 1424.23 94.8106 1427.06 94.449C1433.9 93.5741 1437.85 89.8296 1438.58 82.9821C1438.9 79.9024 1437.98 76.7178 1437.98 73.5798C1437.98 71.83 1438.16 69.3453 1439.25 68.5288C1440.67 67.4672 1443.27 67.0823 1445.03 67.5956C1448.69 68.6454 1450.31 71.9467 1451.34 75.3996C1455.49 89.4796 1447.4 105.543 1433.33 110.29C1428.59 111.889 1423.44 112.53 1418.42 113.032C1406.22 114.245 1393.98 114.933 1381.79 116.216C1378.18 116.601 1374.67 118.118 1371.18 119.354C1369.73 119.868 1368.38 120.883 1367.18 121.874C1360.84 127.123 1361.22 133.434 1368.14 137.949C1370.11 139.232 1372.18 140.34 1374.21 141.53C1374.07 141.868 1373.94 142.207 1373.82 142.545Z" fill="#A020F0" fill-opacity="0.08"/>
<path d="M694.165 -5.80228C688.978 -18.9957 692.102 -30.9176 698.804 -42.3146C699.62 -43.7027 701.065 -44.8576 702.452 -45.7675C704.737 -47.2723 707.278 -47.4706 709.609 -45.8025C712.022 -44.076 712.103 -41.673 711.392 -38.9666C709.504 -31.8041 707.884 -24.56 705.914 -17.4326C704.224 -11.32 706.264 -6.6655 710.879 -2.8043C711.847 -1.9994 712.884 -1.29948 713.933 -0.517914C709.224 3.59992 702.639 2.3401 696.205 -3.30589C684.91 2.31676 671.937 1.02191 665.736 -12.4631C664.046 -16.126 662.892 -20.3372 662.706 -24.35C662.03 -39.5382 666.214 -53.4666 674.968 -65.9251C676.588 -68.2348 678.639 -70.3345 680.831 -72.1193C683.721 -74.4757 687.276 -74.429 689.642 -72.5159C691.974 -70.6262 692.487 -67.7449 690.913 -64.1403C685.26 -51.1685 682.194 -37.6018 681.752 -23.4752C681.46 -14.2596 685.318 -8.97523 694.165 -5.80228Z" fill="#A020F0" fill-opacity="0.08"/>
<path d="M555.752 213.388C544.399 213.225 536.263 207.626 530.773 198.072C523.943 186.185 523.22 173.341 525.75 160.183C529.736 139.396 539.818 121.793 553.945 106.289C555.554 104.516 556.626 102.242 558.234 100.48C560.204 98.3338 562.221 96.024 564.68 94.5892C568.748 92.2212 573.399 95.1725 573.27 99.8853C573.212 101.81 572.594 103.91 571.627 105.578C569.121 109.871 566.44 114.07 563.549 118.118C552.267 133.901 543.909 150.967 540.389 170.204C538.629 179.804 539.9 188.926 544.131 197.71C546.998 203.66 551.637 207.532 557.523 210.192C558.561 210.659 559.377 211.615 560.297 212.339C559.097 212.688 557.896 213.05 556.684 213.377C556.404 213.447 556.066 213.388 555.752 213.388Z" fill="#A020F0" fill-opacity="0.08"/>
<path d="M1217.08 19.9664C1216.6 20.7946 1215.98 22.731 1214.68 23.9325C1211.66 26.7205 1208.5 29.4386 1205.06 31.6666C1194.14 38.7474 1183.05 45.56 1172.07 52.5591C1155.02 63.4195 1138.03 74.3732 1120.99 85.2219C1118.05 87.0883 1114.99 88.8031 1111.85 90.3313C1110.18 91.1479 1108.18 92.0344 1106.46 91.8128C1104.72 91.5911 1102.47 90.4129 1101.72 88.9781C1101.06 87.7183 1101.62 85.1169 1102.6 83.8571C1104.18 81.8273 1106.41 80.1825 1108.62 78.771C1122.35 69.9871 1135.94 60.9698 1149.98 52.7108C1166.52 42.9819 1182.5 32.4949 1197.79 20.8996C1201.3 18.2399 1205.2 15.9652 1209.21 14.1571C1213.33 12.2906 1217.13 14.8686 1217.08 19.9664Z" fill="#A020F0" fill-opacity="0.08"/>
<path d="M221.486 239.495C222.116 229.848 223.083 222.312 226.871 215.441C230.706 208.489 237.035 205.701 246.068 206.972C252.328 207.859 257.887 212.817 258.96 219.792C261.035 233.266 257.456 245.398 247.724 255.01C239.879 262.756 228.643 260.283 224.26 250.146C222.559 246.261 222.069 241.852 221.486 239.495Z" fill="#A020F0" fill-opacity="0.08"/>
<path d="M8.04472 260.912C7.62511 270.186 7.31041 278.107 6.87914 286.04C6.77424 288.034 6.54112 290.076 5.96999 291.977C4.22161 297.856 -1.90935 299.501 -6.18704 295.08C-7.95873 293.249 -9.56723 290.787 -10.1267 288.349C-11.7585 281.268 -13.5069 274.094 -13.9498 266.885C-14.6025 256.34 -14.2062 245.736 -14.1363 235.156C-14.1247 232.846 -13.7983 230.501 -13.2854 228.238C-12.318 223.957 -9.05437 221.087 -4.97484 220.574C-0.988543 220.084 3.07934 222.149 4.87434 226.103C5.94668 228.471 6.72762 231.131 6.87914 233.697C7.46193 243.205 7.71836 252.723 8.04472 260.912Z" fill="#A020F0" fill-opacity="0.08"/>
<path d="M950.791 11.0774C951.363 8.67434 952.248 4.64983 953.251 0.660311C954.44 -4.05246 955.768 -8.73023 956.981 -13.443C958.006 -17.4325 960.687 -20.2322 964.778 -20.0689C968.147 -19.9406 971.784 -19.2056 974.756 -17.6775C981.225 -14.3412 987.402 -10.41 993.603 -6.57217C996.96 -4.49575 998.953 -1.43946 998.522 2.71337C998.091 6.90121 995.282 9.01263 991.703 10.7041C984.756 14.0054 977.949 17.5866 971.084 21.0629C969.487 21.8794 967.96 22.8826 966.305 23.5359C958.135 26.8138 950.57 21.5295 950.791 11.0774Z" fill="#A020F0" fill-opacity="0.08"/>
<path d="M931.489 195.622C918.61 195.517 907.828 191.236 899.669 181.309C896.603 177.576 894.4 173.353 893.806 168.465C893.247 163.904 895.088 160.043 898.597 158.2C902.07 156.38 906.348 157.068 909.774 160.078C910.882 161.058 911.977 162.096 912.84 163.286C922.841 177.028 936.478 180.667 952.458 177.413C956.13 176.666 959.615 174.986 963.205 173.785C964.219 173.446 965.303 173.306 966.352 173.073C966.387 174.181 966.701 175.371 966.41 176.398C964.802 182.09 961.002 186.138 956.176 189.288C948.6 194.246 940.01 195.26 931.489 195.622Z" fill="#A020F0" fill-opacity="0.08"/>
<path d="M1461.47 201.221C1461.23 202.213 1460.86 204.184 1460.34 206.121C1455.95 222.149 1451.54 238.165 1447.18 254.205C1446.82 255.523 1446.83 256.935 1446.51 258.265C1445.6 262.114 1442.24 264.366 1438.45 263.747C1434.73 263.141 1432.27 259.816 1432.64 255.885C1434.09 240.72 1435.55 225.555 1436.99 210.379C1437.41 205.958 1437.38 201.455 1438.24 197.127C1439.51 190.734 1445.23 186.862 1451.32 187.655C1457.4 188.471 1461.68 193.732 1461.47 201.221Z" fill="#A020F0" fill-opacity="0.08"/>
<path d="M1259.74 111.982C1260.35 101.67 1263.2 91.7078 1269.61 83.0172C1271.21 80.8474 1273.35 78.9926 1275.52 77.3595C1279.29 74.5248 1283.13 76.4379 1286.57 78.0944C1289.49 79.4942 1289.27 82.7722 1288.9 85.4785C1287.57 95.3357 1286.02 105.158 1284.61 115.003C1284.25 117.511 1283.98 120.043 1283.84 122.574C1283.68 125.642 1284.87 127.998 1287.66 129.573C1289.63 130.681 1288.82 132.373 1287.89 133.668C1285.97 136.362 1283.08 136.957 1279.99 136.759C1268.6 136.047 1261.26 128.815 1260.02 117.138C1259.87 115.552 1259.85 113.953 1259.74 111.982Z" fill="#A020F0" fill-opacity="0.08"/>
<path d="M1417.47 171.86C1411.56 170.903 1406.94 170.343 1402.42 169.375C1398.6 168.559 1395.4 166.482 1393.11 163.216C1389.71 158.363 1389.91 152.729 1394.34 148.856C1407.61 137.272 1429.75 135.616 1441.56 154.514C1444.42 159.086 1442.4 165.036 1436.54 167.077C1430.03 169.329 1423.13 170.483 1417.47 171.86Z" fill="#A020F0" fill-opacity="0.08"/>
<path d="M900.764 221.904C881.311 221.134 869.585 210.157 866.391 191.796C865.715 187.888 866.531 184.167 869.398 181.192C871.566 178.941 874.294 178.066 877.231 179.151C879.993 180.177 881.719 182.044 882.36 185.345C882.919 188.238 884.947 190.828 886.194 193.604C891.952 206.389 902.443 211.288 915.777 211.475C916.628 211.487 917.502 211.37 918.306 211.545C919.134 211.732 919.903 212.21 920.696 212.56C920.276 213.341 920.031 214.345 919.402 214.87C913.83 219.524 907.303 221.636 900.764 221.904Z" fill="#A020F0" fill-opacity="0.08"/>
<path d="M92.3631 39.8206C85.2997 39.9139 81.9778 35.5861 83.3182 30.0917C84.6703 24.5507 86.3021 19.0681 87.7124 13.5387C88.54 10.2608 89.2277 6.94784 89.8921 3.6349C90.4049 1.06854 91.5822 -0.949544 94.1465 -1.82444C96.7107 -2.69934 98.6806 -1.63781 100.814 -0.0863245C109.614 6.34124 112.353 16.5251 116.945 25.5306C118.507 28.5986 117.155 32.1798 114.02 33.2531C106.338 35.8661 98.4941 37.9892 92.3631 39.8206Z" fill="#A020F0" fill-opacity="0.08"/>
<path d="M388.735 50.5177C387.616 53.049 387.243 55.4521 385.845 56.7703C379.597 62.6146 375.809 70.0686 371.625 77.3011C371.042 78.3043 370.482 79.3309 369.83 80.2874C368.221 82.6438 366.03 84.0203 363.104 83.577C360.19 83.1338 358.489 81.2207 357.638 78.4676C356.122 73.6266 354.712 68.7388 352.999 63.9677C352.311 62.0429 351.122 60.1999 349.817 58.59C348.231 56.6536 347.229 54.7055 348.01 52.2091C348.826 49.5961 350.772 48.1379 353.395 47.9513C360.353 47.4497 367.324 47.0181 374.294 46.7731C377.837 46.6448 381.451 46.6915 384.947 47.2514C386.288 47.4614 387.383 49.3045 388.735 50.5177Z" fill="#A020F0" fill-opacity="0.08"/>
<path d="M239.471 289.528C234.319 289.271 229.703 288.361 227.326 283.31C225.799 280.079 226.626 279.6 229.971 278.644C241.348 275.389 252.222 271.015 259.869 261.298C260.918 259.956 261.372 258.066 261.839 256.363C263.167 251.581 266.512 248.968 270.732 249.586C274.94 250.204 277.644 254.042 277.352 258.976C276.898 266.804 273.518 273.196 267.701 278.306C259.566 285.433 249.833 288.536 239.471 289.528Z" fill="#A020F0" fill-opacity="0.08"/>
<path d="M81.9074 139.011C80.8933 142.732 80.124 146.43 78.8652 149.953C76.1727 157.477 73.2471 164.919 70.2982 172.338C70.0301 173.015 68.7363 173.901 68.2001 173.738C65.8573 173.05 63.1065 172.56 61.4281 170.997C57.3485 167.194 53.8285 162.796 50.0054 158.725C44.7952 153.184 45.0983 147.421 51.7421 143.817C59.1319 139.804 66.9646 136.561 74.7623 133.341C78.329 131.871 81.8608 135.009 81.9074 139.011Z" fill="#A020F0" fill-opacity="0.08"/>
<path d="M734.354 52.1159C729.366 52.0693 725.1 50.5178 722.733 45.8167C720.239 40.8473 721.521 36.1695 724.342 31.7017C725.286 30.2202 726.009 28.5987 726.825 27.0356C726.918 26.8489 726.965 26.639 727.046 26.4407C730.986 17.5984 747.56 14.2621 754.496 20.9346C758.33 24.6209 759.018 29.217 757.794 34.1397C755.44 43.5886 744.075 52.2326 734.354 52.1159ZM732.932 42.2471C738.527 42.3404 744.868 37.5343 746.535 32.6349C747.537 29.6953 746.523 28.3538 743.539 29.3803C739.704 30.7101 735.87 32.3899 732.536 34.653C731.254 35.5162 731.102 38.4092 730.986 40.4157C730.951 41.1389 732.571 41.9321 732.932 42.2471Z" fill="#A020F0" fill-opacity="0.08"/>
<path d="M584.903 231.504C591.011 231.586 595.813 233.767 598.237 239.798C599.578 243.111 599.718 245.678 596.85 248.886C592.036 254.275 586.558 258.556 580.52 262.301C574.261 266.185 566.254 262.721 564.622 255.488C561.906 243.438 572.058 231.423 584.903 231.504Z" fill="#A020F0" fill-opacity="0.08"/>
<path d="M446.362 85.91C447.154 82.7488 447.621 79.4475 448.81 76.4379C451.852 68.7854 459.055 65.3559 466.561 67.6656C474.429 70.0803 478.835 77.1494 477.226 85.1285C475.874 91.836 471.958 96.6188 465.582 99.1851C455.826 103.105 446.572 96.5838 446.362 85.91Z" fill="#A020F0" fill-opacity="0.08"/>
<path d="M1262.21 43.052C1263.61 41.4189 1264.95 39.7274 1266.41 38.1526C1268.69 35.6679 1270.77 32.8799 1273.44 30.9084C1277.57 27.8638 1283.2 29.427 1284.12 34.3497C1285.7 42.6554 1291.13 46.4116 1298.17 49.048C1298.43 49.1413 1298.59 49.4912 1298.79 49.7129C1294.68 55.4989 1283.79 53.8541 1275.78 46.085C1275.02 46.8899 1274.31 47.7648 1273.47 48.488C1271.22 50.4011 1269.12 52.5942 1266.61 54.0524C1260.82 57.377 1254.92 55.3589 1252.7 49.0596C1251.5 45.6534 1251.21 41.8388 1251.03 38.1759C1250.88 35.0263 1251.42 31.8417 1251.73 28.6804C1251.98 26.254 1253.07 24.3059 1255.75 24.1426C1258.39 23.9793 1259.96 25.694 1260.44 28.0504C1260.96 30.6168 1261.07 33.2881 1261.21 35.9245C1261.33 38.1876 1261.23 40.474 1261.23 42.7487C1261.57 42.842 1261.9 42.947 1262.21 43.052Z" fill="#A020F0" fill-opacity="0.08"/>
<path d="M396.545 87.905C396.09 89.9581 395.636 93.796 394.389 97.3539C391.649 105.135 388.596 112.822 385.472 120.463C384.738 122.259 383.455 124.009 382.01 125.316C378.315 128.664 373.688 127.112 372.592 122.224C372.231 120.614 372.114 118.76 372.546 117.208C375.669 105.881 378.805 94.5659 382.29 83.3439C383.689 78.8411 387.08 76.9397 390.647 77.6163C394.459 78.3279 396.627 81.4541 396.545 87.905Z" fill="#A020F0" fill-opacity="0.08"/>
<path d="M1094.12 44.8251C1094.17 36.7994 1095.86 34.5014 1101.75 33.2765C1109.19 31.725 1116.46 32.9615 1123.48 35.5979C1126.03 36.5545 1128.04 38.6775 1127.56 41.3722C1127.21 43.367 1125.63 45.4901 1124 46.8316C1120.09 50.0279 1115.84 52.7809 1111.72 55.7205C1110.44 56.6421 1109.25 57.727 1107.89 58.5202C1103.51 61.0399 1098.66 59.7451 1096.8 55.0556C1095.29 51.1944 1094.66 46.9599 1094.12 44.8251Z" fill="#A020F0" fill-opacity="0.08"/>
<path d="M750.556 173.633C750.218 176.993 748.528 179.116 745.835 179.197C743.259 179.279 741.301 177.401 740.986 174.333C739.261 156.975 737.548 139.605 735.904 122.236C735.753 120.684 735.59 118.818 736.289 117.593C737.128 116.135 738.818 114.443 740.299 114.292C741.767 114.14 743.586 115.563 744.949 116.671C745.625 117.22 745.847 118.573 745.94 119.588C747.514 137.611 749.029 155.622 750.556 173.633Z" fill="#A020F0" fill-opacity="0.08"/>
<path d="M231.499 12.4306C232.909 4.18325 234.086 -3.53916 235.601 -11.2032C236.615 -16.3126 240.019 -18.9606 244.087 -18.4357C248.33 -17.8874 251.512 -14.2129 250.742 -9.17346C249.239 0.625357 247.117 10.3308 245.043 20.0363C244.693 21.7044 243.516 23.3143 242.397 24.6791C239.448 28.272 235.706 28.027 233.981 23.7109C232.536 20.0946 232.245 16.0118 231.499 12.4306Z" fill="#A020F0" fill-opacity="0.08"/>
<path d="M482.064 192.391C482.064 187.526 481.994 182.662 482.099 177.809C482.134 176.258 482.39 174.613 482.95 173.178C483.906 170.705 485.864 169.329 488.591 169.329C491.307 169.329 493.312 170.635 494.244 173.143C494.815 174.695 495.095 176.421 495.153 178.089C495.48 187.386 495.725 196.695 495.958 205.992C495.981 207.147 495.876 208.326 495.655 209.457C494.932 213.143 492.111 215.546 488.614 215.558C485.001 215.57 481.784 213.038 481.551 209.177C481.225 203.601 481.469 197.99 481.469 192.391C481.668 192.391 481.866 192.391 482.064 192.391Z" fill="#A020F0" fill-opacity="0.08"/>
<path d="M35.7738 246.179C35.226 247.917 34.9695 251.405 33.8272 251.72C31.7292 252.304 28.6054 251.732 26.8104 250.414C19.5022 245.036 14.1056 237.99 11.4248 229.23C10.0727 224.832 11.8094 220.947 15.2246 219.046C18.6164 217.156 22.7542 217.856 26.0178 220.912C26.7871 221.636 27.5331 222.417 28.0926 223.304C32.4052 230.163 34.1303 237.874 35.7738 246.179Z" fill="#A020F0" fill-opacity="0.08"/>
<path d="M1114.87 113.988C1112.96 112.507 1110.86 111.457 1109.6 109.766C1108.09 107.736 1108.72 105.321 1110.24 103.28C1110.56 102.86 1110.91 102.428 1111.34 102.137C1120.43 95.9656 1129.49 89.7597 1138.66 83.7171C1140.86 82.2706 1143.64 81.7107 1145.57 84.1487C1147.65 86.7501 1146.17 89.2231 1144.24 91.1945C1141.89 93.6093 1139.39 95.919 1136.8 98.0654C1131.67 102.3 1126.47 106.476 1121.18 110.512C1119.47 111.819 1117.39 112.624 1114.87 113.988Z" fill="#A020F0" fill-opacity="0.08"/>
<path d="M1219.43 77.2079C1211.81 77.1379 1208.04 73.3583 1208.08 65.8459C1208.12 59.5583 1212.72 54.8105 1218.79 54.7872C1226.09 54.7639 1232.31 59.7799 1232.19 65.5776C1231.99 73.8483 1228.22 77.2779 1219.43 77.2079Z" fill="#A020F0" fill-opacity="0.08"/>
<path d="M873.991 58.6716C874.76 56.6069 875.401 53.3989 877.021 50.8093C879.714 46.4931 884.376 46.6914 888.013 50.2493C895.484 57.5634 891.708 63.9094 886.031 69.8703C884.061 71.9351 881.287 72.0051 879.143 70.0336C876.194 67.3156 874.562 63.781 873.991 58.6716Z" fill="#A020F0" fill-opacity="0.08"/>
<path d="M1196.86 173.621C1198.5 175.289 1199.97 176.421 1200.97 177.856C1203.35 181.262 1205.45 184.878 1207.8 188.308C1209.5 190.781 1208.83 193.091 1205.83 193.336C1200.33 193.779 1194.97 194.432 1190 197.174C1189.15 197.64 1186.94 197.115 1186.4 196.334C1185.66 195.237 1185.32 193.231 1185.81 192.017C1187.56 187.736 1189.75 183.63 1191.75 179.454C1192.16 178.602 1192.36 177.588 1192.96 176.923C1193.96 175.849 1195.19 174.998 1196.86 173.621Z" fill="#A020F0" fill-opacity="0.08"/>
<path d="M609.299 238.025C607.853 236.847 605.93 236.03 605.394 234.666C604.858 233.277 605.499 231.294 605.988 229.685C606.233 228.903 607.247 228.285 608.04 227.771C613.029 224.563 618.006 221.344 623.087 218.288C624.498 217.448 626.211 216.864 627.843 216.701C631.631 216.328 633.974 219.652 632.645 223.222C632.54 223.514 632.412 223.84 632.214 224.062C626.106 230.933 617.936 234.292 609.299 238.025Z" fill="#A020F0" fill-opacity="0.08"/>
<path d="M54.4931 206.564C46.6488 205.258 40.7742 202.283 36.5665 196.789C35.5524 195.47 35.599 192.717 36.1818 190.956C36.9395 188.646 39.4338 187.853 41.7417 188.355C47.9426 189.708 53.619 192.367 57.8034 197.22C59.0972 198.725 59.9947 201.805 59.3187 203.461C58.6543 205.083 55.7869 205.806 54.4931 206.564Z" fill="#A020F0" fill-opacity="0.08"/>
<path d="M767.748 163.484C767.492 167.065 767.34 170.658 766.932 174.216C766.617 176.923 765.417 179.127 762.247 179.244C759.589 179.337 757.538 177.401 757.328 174.1C757.118 170.74 757.351 167.345 757.479 163.974C757.608 160.288 757.899 156.602 757.981 152.904C758.039 150.337 759.111 148.564 761.629 148.063C764.193 147.549 766.256 148.914 766.734 151.247C767.538 155.237 767.713 159.355 768.144 163.414C768.005 163.438 767.876 163.461 767.748 163.484Z" fill="#A020F0" fill-opacity="0.08"/>
<path d="M1099.17 156.754C1094.27 156.707 1090.1 152.834 1090.57 148.098C1091.21 141.589 1093.27 138.077 1098.09 138.171C1103.89 138.276 1108.63 142.417 1108.61 147.48C1108.59 152.414 1104.11 156.812 1099.17 156.754Z" fill="#A020F0" fill-opacity="0.08"/>
<path d="M12.2058 66.9541C12.1009 61.4247 15.7026 56.5137 19.8637 56.5137C23.6985 56.5137 26.9039 60.0483 26.9971 64.3877C27.1137 69.3455 23.3838 73.7433 19.0245 73.7783C15.1781 73.8133 12.2758 70.9086 12.2058 66.9541Z" fill="#A020F0" fill-opacity="0.08"/>
<path d="M647.658 204.488C651.948 204.441 654.803 206.412 654.885 209.504C654.978 212.63 651.225 216.001 647.553 216.083C644.045 216.165 641.283 213.703 641.189 210.414C641.096 207.101 643.905 204.534 647.658 204.488Z" fill="#A020F0" fill-opacity="0.08"/>
<path d="M1445.69 130.262C1445.63 133.528 1443.51 135.756 1440.51 135.686C1437.14 135.616 1434.34 132.828 1434.43 129.62C1434.5 126.599 1436.94 124.266 1440 124.301C1443.26 124.359 1445.74 126.96 1445.69 130.262Z" fill="#A020F0" fill-opacity="0.08"/>
<path d="M1102.81 251.907C1104.1 252.094 1106.01 252.245 1107.84 252.677C1110.57 253.33 1112.75 254.777 1113.33 257.763C1113.94 260.889 1112.42 263.222 1109.93 264.715C1107.6 266.115 1105.07 267.503 1102.46 268.04C1097.19 269.137 1091.83 269.848 1086.47 270.361C1064.13 272.508 1041.78 274.526 1019.43 276.567C1018.07 276.696 1016.68 276.766 1015.32 276.649C1012.66 276.427 1010.69 275.051 1009.89 272.461C1009.05 269.743 1009.86 267.223 1012.17 265.719C1014.16 264.424 1016.51 263.304 1018.83 262.966C1038.83 260.084 1058.84 257.343 1078.87 254.66C1086.63 253.645 1094.41 252.864 1102.81 251.907Z" fill="#A020F0" fill-opacity="0.08"/>
<path d="M1127.89 271.085C1128.73 264.587 1129.49 258.078 1130.45 251.604C1130.73 249.76 1131.39 247.882 1132.26 246.226C1133.73 243.45 1136.2 242.12 1139.38 242.586C1142.41 243.03 1144.62 244.896 1145.01 247.824C1145.39 250.565 1145.5 253.692 1144.52 256.188C1142.24 262.067 1139.34 267.725 1136.5 273.383C1135.4 275.599 1134.14 278.13 1131.01 277.839C1129.09 277.675 1128.01 274.852 1127.89 271.085Z" fill="#A020F0" fill-opacity="0.08"/>
<path d="M1144.41 268.238C1146.12 262.966 1147.41 257.833 1149.46 253.015C1151.03 249.352 1154.79 248.139 1157.93 249.399C1161.05 250.647 1163.13 254.17 1161.69 257.81C1159.78 262.662 1157.11 267.282 1154.34 271.715C1153.05 273.756 1150.58 276.252 1148.09 274.771C1146.31 273.721 1145.7 270.676 1144.41 268.238Z" fill="#A020F0" fill-opacity="0.08"/>
<path d="M611.304 151.901C614.218 152.087 616.456 152.181 618.67 152.391C619.544 152.472 620.384 152.845 621.246 153.09C620.85 153.989 620.71 155.272 620.022 155.715C616.677 157.85 613.413 160.475 609.707 161.594C602.282 163.846 595.953 158.153 597.025 150.454C598.412 140.445 604.345 133.563 613.134 129.072C614.229 128.512 616.374 128.593 617.202 129.328C618.181 130.18 618.833 132.175 618.589 133.481C618.122 135.931 616.933 138.252 615.989 140.597C614.614 144.003 613.169 147.409 611.304 151.901Z" fill="#A020F0" fill-opacity="0.08"/>
</g>
<defs>
<clipPath id="clip0_346_3229">
<rect width="1500" height="1042.97" fill="white" transform="translate(-30 -387)"/>
</clipPath>
</defs>
</svg>
