<svg width="88" height="68" viewBox="0 0 88 68" fill="none" xmlns="http://www.w3.org/2000/svg">
<g opacity="0.3">
<circle cx="4" cy="4" r="4" fill="#FFD43A"/>
<circle cx="24" cy="4" r="4" fill="#FFD43A"/>
<circle cx="44" cy="4" r="4" fill="#FFD43A"/>
<circle cx="64" cy="4" r="4" fill="#FFD43A"/>
<circle cx="84" cy="4" r="4" fill="#FFD43A"/>
<circle cx="4" cy="24" r="4" fill="#FFD43A"/>
<circle cx="24" cy="24" r="4" fill="#FFD43A"/>
<circle cx="44" cy="24" r="4" fill="#FFD43A"/>
<circle cx="64" cy="24" r="4" fill="#FFD43A"/>
<circle cx="84" cy="24" r="4" fill="#FFD43A"/>
<circle cx="4" cy="44" r="4" fill="#FFD43A"/>
<circle cx="24" cy="44" r="4" fill="#FFD43A"/>
<circle cx="44" cy="44" r="4" fill="#FFD43A"/>
<circle cx="64" cy="44" r="4" fill="#FFD43A"/>
<circle cx="84" cy="44" r="4" fill="#FFD43A"/>
<circle cx="4" cy="64" r="4" fill="#FFD43A"/>
<circle cx="24" cy="64" r="4" fill="#FFD43A"/>
<circle cx="44" cy="64" r="4" fill="#FFD43A"/>
<circle cx="64" cy="64" r="4" fill="#FFD43A"/>
<circle cx="84" cy="64" r="4" fill="#FFD43A"/>
</g>
</svg>
