<svg width="24" height="24" viewBox="0 0 24 24" fill="none" xmlns="http://www.w3.org/2000/svg">
<path d="M17.7502 14.9998C17.7502 15.1987 17.6711 15.3895 17.5305 15.5301C17.3898 15.6708 17.1991 15.7498 17.0002 15.7498H12.0002C11.8012 15.7498 11.6105 15.6708 11.4698 15.5301C11.3292 15.3895 11.2502 15.1987 11.2502 14.9998C11.2502 14.8009 11.3292 14.6101 11.4698 14.4695C11.6105 14.3288 11.8012 14.2498 12.0002 14.2498H17.0002C17.1991 14.2498 17.3898 14.3288 17.5305 14.4695C17.6711 14.6101 17.7502 14.8009 17.7502 14.9998ZM7.48016 9.4238C7.40489 9.35796 7.31721 9.30783 7.22228 9.27636C7.12735 9.2449 7.02709 9.23274 6.92739 9.2406C6.8277 9.24846 6.73058 9.27618 6.64175 9.32212C6.55293 9.36807 6.47418 9.43132 6.41016 9.50814C6.34614 9.58497 6.29813 9.67382 6.26895 9.76948C6.23978 9.86514 6.23003 9.96566 6.24028 10.0651C6.25053 10.1646 6.28057 10.261 6.32863 10.3487C6.3767 10.4364 6.44181 10.5136 6.52016 10.5758L6.75416 10.7708C7.41316 11.3208 7.84416 11.6808 8.12016 11.9868C8.38216 12.2768 8.40716 12.4138 8.40716 12.4998C8.40716 12.5858 8.38216 12.7218 8.12016 13.0128C7.84316 13.3188 7.41316 13.6798 6.75416 14.2288L6.52016 14.4238C6.37279 14.5527 6.28169 14.7342 6.2663 14.9293C6.25092 15.1245 6.31247 15.318 6.43782 15.4684C6.56316 15.6188 6.74236 15.7143 6.93712 15.7343C7.13189 15.7544 7.32678 15.6975 7.48016 15.5758L7.75716 15.3458C8.36216 14.8418 8.87716 14.4128 9.23316 14.0178C9.61116 13.5978 9.90716 13.1168 9.90716 12.4998C9.90716 11.8828 9.61116 11.4008 9.23316 10.9818C8.87716 10.5868 8.36216 10.1578 7.75716 9.6538L7.48016 9.4238Z" fill="#FFD43A"/>
<path fill-rule="evenodd" clip-rule="evenodd" d="M11.943 1.25H12.057C14.366 1.25 16.175 1.25 17.587 1.44C19.031 1.634 20.171 2.04 21.066 2.934C21.961 3.829 22.366 4.969 22.56 6.414C22.75 7.825 22.75 9.634 22.75 11.943V12.057C22.75 14.366 22.75 16.175 22.56 17.587C22.366 19.031 21.96 20.171 21.066 21.066C20.171 21.961 19.031 22.366 17.586 22.56C16.175 22.75 14.366 22.75 12.057 22.75H11.943C9.634 22.75 7.825 22.75 6.413 22.56C4.969 22.366 3.829 21.96 2.934 21.066C2.039 20.171 1.634 19.031 1.44 17.586C1.25 16.175 1.25 14.366 1.25 12.057V11.943C1.25 9.634 1.25 7.825 1.44 6.413C1.634 4.969 2.04 3.829 2.934 2.934C3.829 2.039 4.969 1.634 6.414 1.44C7.825 1.25 9.634 1.25 11.943 1.25ZM6.613 2.926C5.335 3.098 4.564 3.426 3.995 3.995C3.425 4.565 3.098 5.335 2.926 6.614C2.752 7.914 2.75 9.622 2.75 12C2.75 14.378 2.752 16.086 2.926 17.386C3.098 18.665 3.426 19.436 3.995 20.006C4.565 20.575 5.335 20.902 6.614 21.074C7.914 21.248 9.622 21.25 12 21.25C14.378 21.25 16.086 21.248 17.386 21.074C18.665 20.902 19.436 20.574 20.006 20.005C20.575 19.435 20.902 18.665 21.074 17.386C21.248 16.086 21.25 14.378 21.25 12C21.25 9.622 21.248 7.914 21.074 6.614C20.902 5.335 20.574 4.564 20.005 3.994C19.435 3.425 18.665 3.098 17.386 2.926C16.086 2.752 14.378 2.75 12 2.75C9.622 2.75 7.913 2.752 6.613 2.926Z" fill="#FFD43A"/>
</svg>
