<svg width="24" height="24" viewBox="0 0 24 24" fill="none" xmlns="http://www.w3.org/2000/svg">
<path fill-rule="evenodd" clip-rule="evenodd" d="M17.386 2.64291C17.4715 2.59274 17.5462 2.52612 17.6057 2.44691C17.6653 2.3677 17.7086 2.27747 17.7331 2.18142C17.7576 2.08538 17.7628 1.98544 17.7484 1.88737C17.7341 1.7893 17.7004 1.69505 17.6494 1.61007C17.5984 1.5251 17.531 1.45107 17.4512 1.39228C17.3714 1.33349 17.2808 1.2911 17.1845 1.26756C17.0882 1.24401 16.9882 1.23979 16.8903 1.25513C16.7924 1.27046 16.6985 1.30506 16.614 1.35691L14.27 2.76391C13.5615 2.42425 12.7857 2.24857 12 2.24991C11.2147 2.24872 10.4391 2.42439 9.731 2.76391L7.386 1.35691C7.21556 1.25687 7.01253 1.22815 6.82103 1.27699C6.62953 1.32582 6.46504 1.44827 6.36333 1.61771C6.26161 1.78715 6.23088 1.98989 6.27782 2.18186C6.32476 2.37384 6.44557 2.53952 6.614 2.64291L8.377 3.70091C7.8622 4.19059 7.45246 4.77994 7.17275 5.43306C6.89304 6.08619 6.7492 6.78941 6.75 7.49991V7.78991C6.493 7.92491 6.25 8.08391 6.025 8.26291C5.95437 8.19386 5.87076 8.13948 5.779 8.10291L3.779 7.30291C3.5954 7.2337 3.39198 7.23921 3.21239 7.31823C3.0328 7.39726 2.89133 7.54353 2.81832 7.72565C2.74531 7.90777 2.74658 8.11126 2.82186 8.29245C2.89714 8.47365 3.04043 8.61813 3.221 8.69491L4.993 9.40391C4.523 10.1339 4.25 11.0039 4.25 11.9369V13.2489H2C1.80109 13.2489 1.61032 13.3279 1.46967 13.4686C1.32902 13.6092 1.25 13.8 1.25 13.9989C1.25 14.1978 1.32902 14.3886 1.46967 14.5292C1.61032 14.6699 1.80109 14.7489 2 14.7489H4.25V14.9999C4.25 16.2799 4.56 17.4859 5.109 18.5499L3.221 19.3039C3.12953 19.3405 3.04618 19.3948 2.9757 19.4637C2.90522 19.5325 2.84899 19.6146 2.81022 19.7052C2.77145 19.7958 2.7509 19.8931 2.74975 19.9916C2.7486 20.0902 2.76686 20.1879 2.8035 20.2794C2.84014 20.3709 2.89443 20.4542 2.96329 20.5247C3.03214 20.5952 3.1142 20.6514 3.20478 20.6902C3.29537 20.729 3.3927 20.7495 3.49122 20.7507C3.58975 20.7518 3.68753 20.7335 3.779 20.6969L5.779 19.8969C5.83152 19.8759 5.88151 19.8491 5.928 19.8169C6.65307 20.7324 7.57601 21.4719 8.62761 21.9798C9.6792 22.4878 10.8322 22.7511 12 22.7499C13.1679 22.7509 14.3209 22.4875 15.3725 21.9794C16.4241 21.4712 17.347 20.7316 18.072 19.8159C18.1188 19.8482 18.1691 19.875 18.222 19.8959L20.222 20.6959C20.4048 20.761 20.6056 20.7528 20.7825 20.6729C20.9593 20.5931 21.0983 20.4478 21.1702 20.2676C21.2422 20.0874 21.2415 19.8864 21.1684 19.7067C21.0953 19.527 20.9553 19.3826 20.778 19.3039L18.892 18.5489C19.4578 17.4516 19.752 16.2345 19.75 14.9999V14.7499H22C22.1989 14.7499 22.3897 14.6709 22.5303 14.5302C22.671 14.3896 22.75 14.1988 22.75 13.9999C22.75 13.801 22.671 13.6102 22.5303 13.4696C22.3897 13.3289 22.1989 13.2499 22 13.2499H19.75V11.9379C19.75 11.0039 19.477 10.1349 19.007 9.40491L20.778 8.69591C20.9553 8.6172 21.0953 8.47283 21.1684 8.29313C21.2415 8.11343 21.2422 7.91238 21.1702 7.7322C21.0983 7.55203 20.9593 7.40675 20.7825 7.32689C20.6056 7.24703 20.4048 7.23879 20.222 7.30391L18.222 8.10391C18.1299 8.14036 18.0459 8.19475 17.975 8.26391C17.7484 8.08424 17.5057 7.9259 17.25 7.79091V7.49991C17.2509 6.78924 17.1072 6.08583 16.8274 5.43252C16.5477 4.77922 16.1379 4.18971 15.623 3.69991L17.386 2.64291ZM5.75 14.9999V11.9379C5.74987 11.5192 5.83224 11.1046 5.9924 10.7178C6.15257 10.3309 6.38739 9.97942 6.68345 9.68336C6.97951 9.3873 7.331 9.15248 7.71785 8.99231C8.10469 8.83215 8.51931 8.74978 8.938 8.74991H15.062C15.9075 8.74991 16.7184 9.08579 17.3163 9.68365C17.9141 10.2815 18.25 11.0924 18.25 11.9379V14.9999C18.2501 16.5278 17.6906 18.0028 16.6772 19.1462C15.6638 20.2896 14.2668 21.0224 12.75 21.2059V14.9999C12.75 14.801 12.671 14.6102 12.5303 14.4696C12.3897 14.3289 12.1989 14.2499 12 14.2499C11.8011 14.2499 11.6103 14.3289 11.4697 14.4696C11.329 14.6102 11.25 14.801 11.25 14.9999V21.2059C9.7332 21.0224 8.33616 20.2896 7.32279 19.1462C6.30943 18.0028 5.74993 16.5278 5.75 14.9999ZM12 3.74991C12.96 3.74982 13.8835 4.11791 14.5802 4.77835C15.2769 5.43879 15.6938 6.34128 15.745 7.29991C15.5192 7.2668 15.2912 7.25009 15.063 7.24991H8.936C8.70775 7.24985 8.4798 7.26656 8.254 7.29991C8.30521 6.34111 8.72225 5.43847 9.41918 4.77801C10.1161 4.11754 11.0398 3.74957 12 3.74991Z" fill="#FFD43A"/>
</svg>
