<svg width="24" height="24" viewBox="0 0 24 24" fill="none" xmlns="http://www.w3.org/2000/svg">
<path d="M14.1802 4.2762C14.3724 4.32754 14.5362 4.4531 14.6358 4.62525C14.7354 4.7974 14.7625 5.00205 14.7112 5.1942L10.7382 20.0242C10.6867 20.2165 10.5608 20.3804 10.3884 20.4799C10.2159 20.5794 10.011 20.6063 9.81873 20.5547C9.62645 20.5031 9.46254 20.3773 9.36305 20.2048C9.26356 20.0324 9.23665 19.8275 9.28823 19.6352L13.2622 4.8052C13.2878 4.71005 13.3318 4.62085 13.3918 4.54272C13.4518 4.46458 13.5266 4.39903 13.6119 4.34981C13.6973 4.3006 13.7915 4.26867 13.8892 4.25587C13.9868 4.24307 14.0861 4.24964 14.1812 4.2752M16.4432 7.3282C16.5763 7.18037 16.7625 7.09143 16.9611 7.08093C17.1597 7.07043 17.3544 7.13923 17.5022 7.2722L19.2392 8.8362C19.9762 9.4982 20.5862 10.0482 21.0062 10.5462C21.4462 11.0712 21.7602 11.6342 21.7602 12.3302C21.7602 13.0252 21.4472 13.5882 21.0062 14.1122C20.5862 14.6112 19.9762 15.1612 19.2392 15.8232L17.5022 17.3872C17.3544 17.5203 17.1597 17.5893 16.961 17.5789C16.7623 17.5685 16.5759 17.4796 16.4427 17.3317C16.3096 17.1838 16.2406 16.9892 16.2511 16.7905C16.2615 16.5918 16.3504 16.4053 16.4982 16.2722L18.1952 14.7452C18.9832 14.0362 19.5142 13.5552 19.8582 13.1472C20.1882 12.7542 20.2602 12.5252 20.2602 12.3292C20.2602 12.1342 20.1882 11.9052 19.8582 11.5122C19.5142 11.1032 18.9832 10.6222 18.1952 9.9142L16.4982 8.3872C16.4249 8.32132 16.3653 8.24162 16.3227 8.15267C16.2802 8.06372 16.2557 7.96726 16.2505 7.86881C16.2453 7.77036 16.2595 7.67185 16.2924 7.57891C16.3253 7.48598 16.3762 7.40044 16.4422 7.3272M7.50223 8.3872C7.65009 8.25406 7.73901 8.06764 7.74941 7.86894C7.75982 7.67025 7.69087 7.47556 7.55773 7.3277C7.4246 7.17984 7.23817 7.09093 7.03948 7.08052C6.84078 7.07011 6.64609 7.13906 6.49823 7.2722L4.76123 8.8362C4.02423 9.4982 3.41423 10.0482 2.99423 10.5462C2.55423 11.0712 2.24023 11.6342 2.24023 12.3302C2.24023 13.0252 2.55323 13.5882 2.99423 14.1122C3.41423 14.6112 4.02423 15.1612 4.76123 15.8232L6.49823 17.3872C6.64609 17.5203 6.84078 17.5893 7.03948 17.5789C7.23817 17.5685 7.4246 17.4796 7.55773 17.3317C7.69087 17.1838 7.75982 16.9892 7.74941 16.7905C7.73901 16.5918 7.65009 16.4053 7.50223 16.2722L5.80523 14.7452C5.01723 14.0362 4.48623 13.5552 4.14223 13.1472C3.81223 12.7542 3.74023 12.5252 3.74023 12.3292C3.74023 12.1342 3.81223 11.9052 4.14223 11.5122C4.48623 11.1032 5.01723 10.6222 5.80523 9.9142L7.50223 8.3872Z" fill="#A020F0"/>
</svg>
