<svg width="24" height="24" viewBox="0 0 24 24" fill="none" xmlns="http://www.w3.org/2000/svg">
<path fill-rule="evenodd" clip-rule="evenodd" d="M8.30016 3.25H15.7002C16.5992 3.25 17.3482 3.25 17.9432 3.33C18.5702 3.414 19.1372 3.6 19.5932 4.055C20.0482 4.511 20.2332 5.078 20.3182 5.705C20.3982 6.3 20.3982 7.05 20.3982 7.948V15.232L21.9112 16.793L21.9142 16.797L21.9222 16.804L21.9292 16.812L21.9352 16.818L21.9452 16.828L21.9552 16.839L21.9602 16.844L21.9682 16.853L21.9772 16.863L21.9852 16.873L21.9972 16.888C22.3692 17.318 22.7002 17.962 22.7452 18.605V18.609L22.7482 18.632V18.645L22.7502 18.659V18.774C22.7502 18.904 22.7502 19.093 22.7452 19.174C22.7027 19.8417 22.4183 20.471 21.9452 20.9441C21.4722 21.4172 20.8428 21.7016 20.1752 21.744C20.0872 21.75 19.9902 21.75 19.8642 21.75H4.13716C4.01116 21.75 3.91416 21.75 3.82716 21.744C3.15912 21.702 2.52932 21.4178 2.05582 20.9447C1.58233 20.4716 1.29765 19.842 1.25516 19.174C1.25087 19.0414 1.24953 18.9087 1.25116 18.776V18.659L1.25216 18.645V18.633L1.25516 18.609V18.605C1.30116 17.962 1.63216 17.319 2.00416 16.888C2.00806 16.8829 2.01206 16.8779 2.01616 16.873L2.02416 16.863L2.03416 16.853L2.04116 16.844L2.04516 16.839L2.05616 16.829L2.06616 16.818L2.07116 16.812L2.07916 16.804L2.08616 16.797L2.09016 16.793L3.60316 15.232V7.948C3.60316 7.05 3.60316 6.3 3.68316 5.706C3.76716 5.078 3.95316 4.511 4.40816 4.056C4.86416 3.6 5.43116 3.414 6.05816 3.33C6.65316 3.25 7.40116 3.25 8.30016 3.25ZM4.67016 16.286L3.15616 17.849C2.92916 18.102 2.76216 18.475 2.75116 18.726V18.949C2.75114 18.9923 2.75148 19.0357 2.75216 19.079C2.77154 19.3828 2.90109 19.669 3.1165 19.884C3.3319 20.0991 3.61837 20.2281 3.92216 20.247C3.95516 20.25 4.00016 20.25 4.16116 20.25H19.8392C19.9992 20.25 20.0452 20.25 20.0792 20.247C20.3826 20.2277 20.6686 20.0984 20.8836 19.8834C21.0986 19.6684 21.2278 19.3824 21.2472 19.079L21.2482 19.044C21.2496 18.9583 21.2499 18.8727 21.2492 18.787V18.727C21.2382 18.475 21.0712 18.102 20.8432 17.849L19.3292 16.286H4.67016ZM18.8972 14.786V8C18.8972 7.036 18.8952 6.388 18.8302 5.905C18.7682 5.444 18.6612 5.246 18.5302 5.116C18.4002 4.986 18.2032 4.879 17.7422 4.816C17.2592 4.752 16.6112 4.75 15.6472 4.75H8.35316C7.38916 4.75 6.74116 4.752 6.25816 4.817C5.79716 4.879 5.59916 4.986 5.46916 5.117C5.33916 5.247 5.23116 5.444 5.16916 5.905C5.10416 6.388 5.10316 7.036 5.10316 8V14.786H18.8972ZM2.33116 18.024C2.32077 18.0201 2.31044 18.0161 2.30016 18.012L2.30916 18.017C2.31643 18.0195 2.32376 18.0219 2.33116 18.024ZM8.75016 18.5C8.75016 18.3011 8.82918 18.1103 8.96983 17.9697C9.11048 17.829 9.30125 17.75 9.50016 17.75H14.5002C14.6991 17.75 14.8898 17.829 15.0305 17.9697C15.1711 18.1103 15.2502 18.3011 15.2502 18.5C15.2502 18.6989 15.1711 18.8897 15.0305 19.0303C14.8898 19.171 14.6991 19.25 14.5002 19.25H9.50016C9.30125 19.25 9.11048 19.171 8.96983 19.0303C8.82918 18.8897 8.75016 18.6989 8.75016 18.5Z" fill="#A020F0"/>
<path d="M12.75 6.75C12.75 6.94891 12.671 7.13968 12.5303 7.28033C12.3897 7.42098 12.1989 7.5 12 7.5C11.8011 7.5 11.6103 7.42098 11.4697 7.28033C11.329 7.13968 11.25 6.94891 11.25 6.75C11.25 6.55109 11.329 6.36032 11.4697 6.21967C11.6103 6.07902 11.8011 6 12 6C12.1989 6 12.3897 6.07902 12.5303 6.21967C12.671 6.36032 12.75 6.55109 12.75 6.75Z" fill="#A020F0"/>
</svg>
