<svg width="24" height="24" viewBox="0 0 24 24" fill="none" xmlns="http://www.w3.org/2000/svg">
<path fill-rule="evenodd" clip-rule="evenodd" d="M15.25 5C15.25 4.25832 15.4699 3.5333 15.882 2.91661C16.294 2.29993 16.8797 1.81928 17.5649 1.53545C18.2502 1.25162 19.0042 1.17736 19.7316 1.32206C20.459 1.46675 21.1272 1.8239 21.6517 2.34835C22.1761 2.8728 22.5333 3.54098 22.6779 4.26841C22.8226 4.99584 22.7484 5.74984 22.4646 6.43506C22.1807 7.12029 21.7001 7.70596 21.0834 8.11801C20.4667 8.53007 19.7417 8.75 19 8.75H16.75V15.25H19C19.7416 15.25 20.4666 15.4699 21.0833 15.8819C21.6999 16.2939 22.1806 16.8795 22.4645 17.5647C22.7483 18.2499 22.8226 19.0038 22.678 19.7312C22.5334 20.4586 22.1764 21.1268 21.652 21.6513C21.1277 22.1758 20.4596 22.533 19.7322 22.6778C19.0048 22.8226 18.2509 22.7485 17.5656 22.4648C16.8804 22.1812 16.2947 21.7007 15.8825 21.0841C15.4703 20.4676 15.2502 19.7426 15.25 19.001V16.75H8.75V19.001C8.75 19.7427 8.53004 20.4678 8.11794 21.0845C7.70584 21.7012 7.12011 22.1818 6.43483 22.4656C5.74955 22.7494 4.9955 22.8236 4.26805 22.6789C3.54059 22.5341 2.8724 22.1768 2.348 21.6523C1.82359 21.1278 1.46652 20.4595 1.32193 19.732C1.17735 19.0045 1.25176 18.2505 1.53574 17.5652C1.81972 16.88 2.30053 16.2944 2.91734 15.8825C3.53416 15.4706 4.25928 15.2508 5.001 15.251H7.25V8.751H5.001C4.25936 8.751 3.53438 8.53109 2.91772 8.11908C2.30105 7.70707 1.82041 7.12146 1.53655 6.4363C1.25269 5.75113 1.17837 4.99718 1.32298 4.26978C1.4676 3.54238 1.82465 2.87419 2.349 2.3497C2.87334 1.82522 3.54144 1.46799 4.2688 1.32318C4.99616 1.17837 5.75013 1.25249 6.43537 1.53617C7.12061 1.81984 7.70635 2.30033 8.11853 2.91689C8.5307 3.53344 8.7508 4.25836 8.751 5V7.25H15.251L15.25 5ZM7.25 7.25V5C7.25 4.55499 7.11804 4.11998 6.87081 3.74997C6.62358 3.37996 6.27217 3.09157 5.86104 2.92127C5.44991 2.75098 4.99751 2.70642 4.56105 2.79323C4.12459 2.88005 3.72368 3.09434 3.40901 3.40901C3.09434 3.72368 2.88005 4.12459 2.79323 4.56105C2.70642 4.99751 2.75098 5.44991 2.92127 5.86104C3.09157 6.27217 3.37996 6.62357 3.74997 6.87081C4.11998 7.11804 4.55499 7.25 5 7.25H7.25ZM19 2.75C18.4033 2.75 17.831 2.98705 17.409 3.40901C16.9871 3.83097 16.75 4.40326 16.75 5V7.25H19C19.2955 7.25 19.5881 7.1918 19.861 7.07873C20.134 6.96566 20.3821 6.79992 20.591 6.59099C20.7999 6.38206 20.9657 6.13402 21.0787 5.86104C21.1918 5.58806 21.25 5.29548 21.25 5C21.25 4.70453 21.1918 4.41195 21.0787 4.13896C20.9657 3.86598 20.7999 3.61794 20.591 3.40901C20.3821 3.20008 20.134 3.03435 19.861 2.92127C19.5881 2.8082 19.2955 2.75 19 2.75ZM8.75 8.75V15.25H15.25V8.75H8.75ZM21.25 19C21.25 18.4033 21.0129 17.831 20.591 17.409C20.169 16.9871 19.5967 16.75 19 16.75H16.75V19C16.75 19.5967 16.9871 20.169 17.409 20.591C17.831 21.0129 18.4033 21.25 19 21.25C19.5967 21.25 20.169 21.0129 20.591 20.591C21.0129 20.169 21.25 19.5967 21.25 19ZM2.75 19C2.75 18.4033 2.98705 17.831 3.40901 17.409C3.83097 16.9871 4.40326 16.75 5 16.75H7.25V19C7.25 19.2955 7.1918 19.5881 7.07873 19.861C6.96566 20.134 6.79992 20.3821 6.59099 20.591C6.38206 20.7999 6.13402 20.9657 5.86104 21.0787C5.58806 21.1918 5.29548 21.25 5 21.25C4.70453 21.25 4.41195 21.1918 4.13896 21.0787C3.86598 20.9657 3.61794 20.7999 3.40901 20.591C3.20008 20.3821 3.03435 20.134 2.92127 19.861C2.8082 19.5881 2.75 19.2955 2.75 19Z" fill="#FFD43A"/>
</svg>
