<svg width="24" height="24" viewBox="0 0 24 24" fill="none" xmlns="http://www.w3.org/2000/svg">
<path fill-rule="evenodd" clip-rule="evenodd" d="M12 1.25C12.1235 1.25001 12.245 1.2805 12.3539 1.33876C12.4627 1.39703 12.5555 1.48127 12.624 1.584L14.624 4.584C14.6799 4.66592 14.719 4.75811 14.7391 4.85525C14.7591 4.95239 14.7597 5.05254 14.7408 5.1499C14.7219 5.24727 14.6839 5.33991 14.6289 5.42248C14.5739 5.50504 14.5031 5.57588 14.4206 5.6309C14.3381 5.68592 14.2455 5.72402 14.1481 5.743C14.0507 5.76198 13.9506 5.76146 13.8534 5.74148C13.7563 5.72149 13.6641 5.68243 13.5821 5.62656C13.5002 5.5707 13.4301 5.49913 13.376 5.416L12.75 4.477V14.992C12.871 14.93 12.998 14.877 13.13 14.832L16.395 13.744C16.905 13.574 17.25 13.097 17.25 12.559V10.709C17.0105 10.6676 16.7894 10.5543 16.616 10.384C16.4232 10.1841 16.3031 9.92529 16.275 9.649C16.2536 9.44474 16.2453 9.23932 16.25 9.034V8.966C16.25 8.76 16.25 8.539 16.275 8.351C16.305 8.132 16.38 7.851 16.616 7.616C16.852 7.38 17.132 7.304 17.351 7.275C17.539 7.25 17.761 7.25 17.966 7.25H18.034C18.24 7.25 18.461 7.25 18.649 7.275C18.868 7.305 19.149 7.38 19.384 7.616C19.62 7.852 19.695 8.132 19.725 8.351C19.75 8.539 19.75 8.761 19.75 8.966V9.034C19.75 9.24 19.75 9.461 19.725 9.649C19.695 9.868 19.62 10.149 19.384 10.384C19.184 10.584 18.95 10.669 18.75 10.708V12.558C18.7503 13.1353 18.5688 13.6981 18.2314 14.1665C17.894 14.635 17.4177 14.9854 16.87 15.168L13.605 16.256C13.3703 16.3342 13.164 16.4802 13.0123 16.6757C12.8607 16.8711 12.7704 17.1072 12.753 17.354C13.3916 17.5354 13.9432 17.9415 14.3058 18.4976C14.6685 19.0537 14.8178 19.7222 14.7262 20.3797C14.6347 21.0373 14.3084 21.6395 13.8076 22.0754C13.3069 22.5113 12.6654 22.7514 12.0015 22.7514C11.3376 22.7514 10.6961 22.5113 10.1954 22.0754C9.69459 21.6395 9.36834 21.0373 9.27679 20.3797C9.18523 19.7222 9.33455 19.0537 9.6972 18.4976C10.0599 17.9415 10.6114 17.5354 11.25 17.354V14.442C11.25 14.1796 11.1674 13.9238 11.014 13.711C10.8605 13.4981 10.644 13.3389 10.395 13.256L7.13 12.167C6.58249 11.9844 6.10631 11.6342 5.7689 11.1659C5.43149 10.6977 5.24995 10.1352 5.25 9.558V7.582C4.89101 7.41171 4.60065 7.12433 4.42667 6.76711C4.2527 6.40989 4.20546 6.0041 4.29274 5.61647C4.38001 5.22884 4.5966 4.88245 4.90688 4.63426C5.21716 4.38607 5.60267 4.25086 6 4.25086C6.39733 4.25086 6.78284 4.38607 7.09312 4.63426C7.4034 4.88245 7.61999 5.22884 7.70726 5.61647C7.79454 6.0041 7.7473 6.40989 7.57333 6.76711C7.39935 7.12433 7.109 7.41171 6.75 7.582V9.558C6.75 10.097 7.094 10.574 7.605 10.744L10.87 11.833C11.002 11.877 11.129 11.93 11.25 11.992V4.477L10.624 5.416C10.5699 5.49913 10.4998 5.5707 10.4179 5.62656C10.3359 5.68243 10.2437 5.72149 10.1466 5.74148C10.0494 5.76146 9.94925 5.76198 9.8519 5.743C9.75455 5.72402 9.66193 5.68592 9.5794 5.6309C9.49688 5.57588 9.42608 5.50504 9.37112 5.42248C9.31615 5.33991 9.27811 5.24727 9.25919 5.1499C9.24028 5.05254 9.24086 4.95239 9.26091 4.85525C9.28096 4.75811 9.32008 4.66592 9.376 4.584L11.376 1.584C11.4445 1.48127 11.5373 1.39703 11.6461 1.33876C11.755 1.2805 11.8765 1.25001 12 1.25ZM18 9.25L18.249 9.249L18.25 9L18.249 8.751C18.083 8.74846 17.917 8.74846 17.751 8.751L17.75 9L17.751 9.249L18 9.25ZM10.75 20C10.75 19.6685 10.8817 19.3505 11.1161 19.1161C11.3505 18.8817 11.6685 18.75 12 18.75C12.3315 18.75 12.6495 18.8817 12.8839 19.1161C13.1183 19.3505 13.25 19.6685 13.25 20C13.25 20.3315 13.1183 20.6495 12.8839 20.8839C12.6495 21.1183 12.3315 21.25 12 21.25C11.6685 21.25 11.3505 21.1183 11.1161 20.8839C10.8817 20.6495 10.75 20.3315 10.75 20ZM6 6.25C6.06631 6.25 6.12989 6.22366 6.17678 6.17678C6.22366 6.12989 6.25 6.0663 6.25 6C6.25 5.9337 6.22366 5.87011 6.17678 5.82322C6.12989 5.77634 6.06631 5.75 6 5.75C5.9337 5.75 5.87011 5.77634 5.82323 5.82322C5.77634 5.87011 5.75 5.9337 5.75 6C5.75 6.0663 5.77634 6.12989 5.82323 6.17678C5.87011 6.22366 5.9337 6.25 6 6.25Z" fill="#A020F0"/>
</svg>
