<svg width="24" height="24" viewBox="0 0 24 24" fill="none" xmlns="http://www.w3.org/2000/svg">
<path d="M7 6C7 6.26522 6.89464 6.51957 6.70711 6.70711C6.51957 6.89464 6.26522 7 6 7C5.73478 7 5.48043 6.89464 5.29289 6.70711C5.10536 6.51957 5 6.26522 5 6C5 5.73478 5.10536 5.48043 5.29289 5.29289C5.48043 5.10536 5.73478 5 6 5C6.26522 5 6.51957 5.10536 6.70711 5.29289C6.89464 5.48043 7 5.73478 7 6ZM10 6C10 6.26522 9.89464 6.51957 9.70711 6.70711C9.51957 6.89464 9.26522 7 9 7C8.73478 7 8.48043 6.89464 8.29289 6.70711C8.10536 6.51957 8 6.26522 8 6C8 5.73478 8.10536 5.48043 8.29289 5.29289C8.48043 5.10536 8.73478 5 9 5C9.26522 5 9.51957 5.10536 9.70711 5.29289C9.89464 5.48043 10 5.73478 10 6ZM12 7C12.2652 7 12.5196 6.89464 12.7071 6.70711C12.8946 6.51957 13 6.26522 13 6C13 5.73478 12.8946 5.48043 12.7071 5.29289C12.5196 5.10536 12.2652 5 12 5C11.7348 5 11.4804 5.10536 11.2929 5.29289C11.1054 5.48043 11 5.73478 11 6C11 6.26522 11.1054 6.51957 11.2929 6.70711C11.4804 6.89464 11.7348 7 12 7Z" fill="#FFD43A"/>
<path fill-rule="evenodd" clip-rule="evenodd" d="M11.943 1.25C9.63404 1.25 7.82504 1.25 6.41304 1.44C4.96904 1.634 3.82904 2.04 2.93404 2.934C2.03904 3.829 1.63404 4.969 1.44004 6.414C1.32704 7.25 1.28204 8.225 1.26304 9.361C1.24712 9.44548 1.24577 9.53206 1.25904 9.617C1.25004 10.33 1.25004 11.103 1.25004 11.943V12.057C1.25004 14.366 1.25004 16.175 1.44004 17.587C1.63404 19.031 2.04004 20.171 2.93404 21.066C3.82904 21.961 4.96904 22.366 6.41404 22.56C7.82504 22.75 9.63404 22.75 11.943 22.75H12.057C14.366 22.75 16.175 22.75 17.587 22.56C19.031 22.366 20.171 21.96 21.066 21.066C21.961 20.171 22.366 19.031 22.56 17.586C22.75 16.175 22.75 14.366 22.75 12.057V11.943C22.75 11.103 22.75 10.33 22.74 9.617C22.7536 9.53212 22.7526 9.44554 22.737 9.361C22.719 8.225 22.673 7.25 22.56 6.414C22.366 4.969 21.96 3.829 21.066 2.934C20.171 2.039 19.031 1.634 17.586 1.44C16.175 1.25 14.366 1.25 12.057 1.25H11.943ZM2.75004 12C2.75004 11.371 2.75004 10.79 2.75304 10.25H8.25004V21C8.25004 21.072 8.26004 21.141 8.27904 21.207C7.7223 21.188 7.16672 21.1437 6.61404 21.074C5.33504 20.902 4.56404 20.574 3.99404 20.005C3.42504 19.435 3.09804 18.665 2.92604 17.386C2.75204 16.086 2.75004 14.378 2.75004 12ZM9.71004 21.242C10.397 21.25 11.156 21.25 12 21.25C14.378 21.25 16.086 21.248 17.386 21.074C18.665 20.902 19.436 20.574 20.006 20.005C20.575 19.435 20.902 18.665 21.074 17.386C21.248 16.086 21.25 14.378 21.25 12C21.25 11.371 21.25 10.79 21.247 10.25H9.75004V21C9.75009 21.0823 9.73658 21.1641 9.71004 21.242ZM2.92604 6.614C2.83931 7.32294 2.78924 8.03589 2.77604 8.75H21.223C21.2099 8.03589 21.1598 7.32294 21.073 6.614C20.902 5.335 20.575 4.564 20.005 3.994C19.435 3.425 18.665 3.098 17.386 2.926C16.086 2.752 14.378 2.75 12 2.75C9.62204 2.75 7.91404 2.752 6.61404 2.926C5.33504 3.098 4.56404 3.426 3.99404 3.995C3.42504 4.565 3.09804 5.335 2.92604 6.614Z" fill="#FFD43A"/>
</svg>
