<svg width="24" height="24" viewBox="0 0 24 24" fill="none" xmlns="http://www.w3.org/2000/svg">
<path d="M2.75 12C2.75 9.54675 3.72455 7.19397 5.45926 5.45926C7.19397 3.72455 9.54675 2.75 12 2.75C14.4533 2.75 16.806 3.72455 18.5407 5.45926C20.2754 7.19397 21.25 9.54675 21.25 12C21.2516 13.2149 21.0129 14.4182 20.5478 15.5405C20.0828 16.6629 19.4004 17.6823 18.54 18.54C18.3993 18.6807 18.3203 18.8715 18.3203 19.0705C18.3203 19.2695 18.3993 19.4603 18.54 19.601C18.6807 19.7417 18.8715 19.8207 19.0705 19.8207C19.2695 19.8207 19.4603 19.7417 19.601 19.601C20.6006 18.6039 21.3934 17.4191 21.9338 16.1147C22.4742 14.8102 22.7516 13.4119 22.75 12C22.75 6.063 17.937 1.25 12 1.25C6.063 1.25 1.25 6.063 1.25 12C1.25 14.968 2.454 17.657 4.399 19.601C4.46766 19.6747 4.55046 19.7338 4.64246 19.7748C4.73446 19.8158 4.83377 19.8378 4.93448 19.8396C5.03518 19.8414 5.13521 19.8228 5.2286 19.7851C5.32199 19.7474 5.40682 19.6913 5.47804 19.62C5.54926 19.5488 5.6054 19.464 5.64312 19.3706C5.68084 19.2772 5.69937 19.1772 5.69759 19.0765C5.69582 18.9758 5.67377 18.8765 5.63278 18.7845C5.59179 18.6925 5.53269 18.6097 5.459 18.541C4.5987 17.683 3.91648 16.6635 3.45157 15.5409C2.98667 14.4184 2.74824 13.215 2.75 12Z" fill="#A020F0"/>
<path d="M6.75 11.9999C6.7499 11.1365 6.96275 10.2864 7.36969 9.52492C7.77662 8.76342 8.36509 8.11404 9.08296 7.6343C9.80083 7.15457 10.6259 6.85929 11.4852 6.77462C12.3444 6.68996 13.2113 6.81852 14.009 7.14892C14.8067 7.47932 15.5106 8.00136 16.0583 8.66879C16.6061 9.33622 16.9807 10.1284 17.1492 10.9753C17.3176 11.8221 17.2745 12.6974 17.0239 13.5236C16.7732 14.3498 16.3226 15.1015 15.712 15.7119C15.5713 15.8526 15.4923 16.0435 15.4923 16.2424C15.4923 16.4414 15.5713 16.6322 15.712 16.7729C15.8527 16.9136 16.0435 16.9927 16.2425 16.9927C16.4415 16.9927 16.6323 16.9136 16.773 16.7729C17.717 15.8289 18.3599 14.6262 18.6203 13.3168C18.8808 12.0075 18.7471 10.6503 18.2362 9.41687C17.7253 8.18347 16.8601 7.12927 15.7501 6.38757C14.6401 5.64588 13.335 5.25 12 5.25C10.665 5.25 9.35994 5.64588 8.24991 6.38757C7.13988 7.12927 6.27472 8.18347 5.76382 9.41687C5.25293 10.6503 5.11925 12.0075 5.3797 13.3168C5.64014 14.6262 6.28301 15.8289 7.227 16.7729C7.29567 16.8466 7.37847 16.9057 7.47046 16.9467C7.56246 16.9877 7.66178 17.0098 7.76248 17.0115C7.86318 17.0133 7.96321 16.9948 8.0566 16.9571C8.14999 16.9193 8.23482 16.8632 8.30604 16.792C8.37726 16.7208 8.4334 16.6359 8.47113 16.5425C8.50885 16.4491 8.52737 16.3491 8.52559 16.2484C8.52382 16.1477 8.50178 16.0484 8.46078 15.9564C8.41979 15.8644 8.36069 15.7816 8.287 15.7129C7.79869 15.2259 7.41151 14.6471 7.14773 14.0099C6.88395 13.3727 6.74878 12.6896 6.75 11.9999Z" fill="#A020F0"/>
<path fill-rule="evenodd" clip-rule="evenodd" d="M9.25011 12C9.25011 11.2707 9.53984 10.5712 10.0556 10.0555C10.5713 9.53973 11.2708 9.25 12.0001 9.25C12.7295 9.25 13.4289 9.53973 13.9446 10.0555C14.4604 10.5712 14.7501 11.2707 14.7501 12C14.7501 12.7293 14.4604 13.4288 13.9446 13.9445C13.4289 14.4603 12.7295 14.75 12.0001 14.75C11.2708 14.75 10.5713 14.4603 10.0556 13.9445C9.53984 13.4288 9.25011 12.7293 9.25011 12ZM12.0001 10.75C11.6686 10.75 11.3506 10.8817 11.1162 11.1161C10.8818 11.3505 10.7501 11.6685 10.7501 12C10.7501 12.3315 10.8818 12.6495 11.1162 12.8839C11.3506 13.1183 11.6686 13.25 12.0001 13.25C12.3316 13.25 12.6496 13.1183 12.884 12.8839C13.1184 12.6495 13.2501 12.3315 13.2501 12C13.2501 11.6685 13.1184 11.3505 12.884 11.1161C12.6496 10.8817 12.3316 10.75 12.0001 10.75ZM13.3931 15.743C13.0151 15.476 12.6101 15.277 12.1171 15.253C12.0391 15.2493 11.9611 15.2493 11.8831 15.253C11.3901 15.277 10.9851 15.476 10.6071 15.743C10.2551 15.993 9.86711 16.348 9.41511 16.76L9.33511 16.832C8.33111 17.749 7.51811 18.492 7.00111 19.109C6.50411 19.702 6.04711 20.446 6.34111 21.276C6.38111 21.386 6.43011 21.494 6.48711 21.596C6.89711 22.331 7.73211 22.551 8.53511 22.648C9.37211 22.75 10.5151 22.75 11.9441 22.75H12.0561C13.4851 22.75 14.6281 22.75 15.4661 22.648C16.2681 22.551 17.1021 22.331 17.5131 21.596C17.5701 21.494 17.6191 21.386 17.6581 21.276C17.9531 20.446 17.4961 19.702 16.9991 19.109C16.4821 18.491 15.6691 17.749 14.6641 16.832L14.5851 16.76C14.1341 16.348 13.7451 15.993 13.3931 15.743ZM11.4741 16.967C11.7241 16.79 11.8541 16.756 11.9541 16.751C11.9844 16.7495 12.0148 16.7495 12.0451 16.751C12.1451 16.756 12.2751 16.79 12.5251 16.967C12.7931 17.157 13.1131 17.447 13.6071 17.898C14.6691 18.867 15.4051 19.541 15.8501 20.072C16.0701 20.335 16.1781 20.516 16.2241 20.638C16.2611 20.733 16.2491 20.763 16.2451 20.772V20.773C16.234 20.8044 16.2203 20.8349 16.2041 20.864C16.1841 20.899 16.0661 21.064 15.2841 21.159C14.5491 21.249 13.4971 21.25 12.0001 21.25C10.5021 21.25 9.45111 21.249 8.71611 21.16C7.93411 21.064 7.81611 20.9 7.79611 20.864C7.77995 20.8352 7.76624 20.8051 7.75511 20.774V20.772C7.75111 20.763 7.73911 20.733 7.77611 20.638C7.82211 20.516 7.93011 20.335 8.15011 20.072C8.59511 19.542 9.33211 18.867 10.3931 17.898C10.8871 17.448 11.2071 17.157 11.4741 16.968" fill="#A020F0"/>
</svg>
