<svg width="24" height="24" viewBox="0 0 24 24" fill="none" xmlns="http://www.w3.org/2000/svg">
<path fill-rule="evenodd" clip-rule="evenodd" d="M4.24986 8.67486C3.58582 8.53941 2.97088 8.22658 2.47039 7.76963C1.9699 7.31268 1.60256 6.72866 1.40741 6.07966C1.21226 5.43065 1.19659 4.74089 1.36206 4.08369C1.52753 3.42649 1.86796 2.82639 2.34718 2.34718C2.82639 1.86796 3.42649 1.52753 4.08369 1.36206C4.74089 1.19659 5.43065 1.21226 6.07966 1.40741C6.72866 1.60256 7.31268 1.9699 7.76963 2.47039C8.22658 2.97088 8.53941 3.58582 8.67486 4.24986H15.3249C15.4603 3.58582 15.7731 2.97088 16.2301 2.47039C16.687 1.9699 17.271 1.60256 17.9201 1.40741C18.5691 1.21226 19.2588 1.19659 19.916 1.36206C20.5732 1.52753 21.1733 1.86796 21.6525 2.34718C22.1318 2.82639 22.4722 3.42649 22.6377 4.08369C22.8031 4.74089 22.7875 5.43065 22.5923 6.07966C22.3972 6.72866 22.0298 7.31268 21.5293 7.76963C21.0288 8.22658 20.4139 8.53941 19.7499 8.67486V15.3249C20.4139 15.4603 21.0288 15.7731 21.5293 16.2301C22.0298 16.687 22.3972 17.271 22.5923 17.9201C22.7875 18.5691 22.8031 19.2588 22.6377 19.916C22.4722 20.5732 22.1318 21.1733 21.6525 21.6525C21.1733 22.1318 20.5732 22.4722 19.916 22.6377C19.2588 22.8031 18.5691 22.7875 17.9201 22.5923C17.271 22.3972 16.687 22.0298 16.2301 21.5293C15.7731 21.0288 15.4603 20.4139 15.3249 19.7499H8.67486C8.53941 20.4139 8.22658 21.0288 7.76963 21.5293C7.31268 22.0298 6.72866 22.3972 6.07966 22.5923C5.43065 22.7875 4.74089 22.8031 4.08369 22.6377C3.42649 22.4722 2.82639 22.1318 2.34718 21.6525C1.86796 21.1733 1.52753 20.5732 1.36206 19.916C1.19659 19.2588 1.21226 18.5691 1.40741 17.9201C1.60256 17.271 1.9699 16.687 2.47039 16.2301C2.97088 15.7731 3.58582 15.4603 4.24986 15.3249V8.67486ZM2.74986 4.99986C2.74986 4.70438 2.80805 4.4118 2.92113 4.13882C3.0342 3.86584 3.19993 3.6178 3.40887 3.40887C3.6178 3.19993 3.86584 3.0342 4.13882 2.92113C4.4118 2.80805 4.70438 2.74986 4.99986 2.74986C5.29533 2.74986 5.58791 2.80805 5.86089 2.92113C6.13388 3.0342 6.38192 3.19993 6.59085 3.40887C6.79978 3.6178 6.96551 3.86584 7.07859 4.13882C7.19166 4.4118 7.24986 4.70438 7.24986 4.99986C7.24986 5.59659 7.0128 6.16889 6.59085 6.59085C6.16889 7.0128 5.59659 7.24986 4.99986 7.24986C4.40312 7.24986 3.83082 7.0128 3.40887 6.59085C2.98691 6.16889 2.74986 5.59659 2.74986 4.99986ZM5.74986 15.3249V8.67486C6.47031 8.5274 7.13158 8.17158 7.65158 7.65158C8.17158 7.13158 8.5274 6.47031 8.67486 5.74986H15.3249C15.4724 6.47025 15.8283 7.13146 16.3483 7.65144C16.8683 8.17142 17.5295 8.52728 18.2499 8.67486V15.3249C17.5295 15.4724 16.8683 15.8283 16.3483 16.3483C15.8283 16.8683 15.4724 17.5295 15.3249 18.2499H8.67486C8.52728 17.5295 8.17142 16.8683 7.65144 16.3483C7.13146 15.8283 6.47025 15.4724 5.74986 15.3249ZM4.99986 16.7499C4.40312 16.7499 3.83082 16.9869 3.40887 17.4089C2.98691 17.8308 2.74986 18.4031 2.74986 18.9999C2.74986 19.5966 2.98691 20.1689 3.40887 20.5908C3.83082 21.0128 4.40312 21.2499 4.99986 21.2499C5.59659 21.2499 6.16889 21.0128 6.59085 20.5908C7.0128 20.1689 7.24986 19.5966 7.24986 18.9999C7.24986 18.4031 7.0128 17.8308 6.59085 17.4089C6.16889 16.9869 5.59659 16.7499 4.99986 16.7499ZM21.2499 4.99986C21.2499 5.59659 21.0128 6.16889 20.5908 6.59085C20.1689 7.0128 19.5966 7.24986 18.9999 7.24986C18.4031 7.24986 17.8308 7.0128 17.4089 6.59085C16.9869 6.16889 16.7499 5.59659 16.7499 4.99986C16.7499 4.40312 16.9869 3.83082 17.4089 3.40887C17.8308 2.98691 18.4031 2.74986 18.9999 2.74986C19.5966 2.74986 20.1689 2.98691 20.5908 3.40887C21.0128 3.83082 21.2499 4.40312 21.2499 4.99986ZM16.7499 18.9999C16.7499 18.4031 16.9869 17.8308 17.4089 17.4089C17.8308 16.9869 18.4031 16.7499 18.9999 16.7499C19.5966 16.7499 20.1689 16.9869 20.5908 17.4089C21.0128 17.8308 21.2499 18.4031 21.2499 18.9999C21.2499 19.5966 21.0128 20.1689 20.5908 20.5908C20.1689 21.0128 19.5966 21.2499 18.9999 21.2499C18.4031 21.2499 17.8308 21.0128 17.4089 20.5908C16.9869 20.1689 16.7499 19.5966 16.7499 18.9999Z" fill="#A020F0"/>
</svg>
