<svg width="24" height="24" viewBox="0 0 24 24" fill="none" xmlns="http://www.w3.org/2000/svg">
<path d="M9.944 2.25C8.106 2.25 6.65 2.25 5.511 2.403C4.339 2.561 3.39 2.893 2.641 3.641C1.893 4.39 1.561 5.339 1.403 6.511C1.25 7.651 1.25 9.106 1.25 10.944V11.056C1.25 12.894 1.25 14.35 1.403 15.489C1.561 16.661 1.893 17.61 2.641 18.359C2.945 18.662 3.287 18.902 3.672 19.089C3.84969 19.1682 4.05119 19.1752 4.23397 19.1086C4.41675 19.042 4.56651 18.907 4.65164 18.7321C4.73676 18.5572 4.75059 18.356 4.69021 18.1711C4.62982 17.9862 4.49995 17.832 4.328 17.741C4.09574 17.6299 3.88406 17.4801 3.702 17.298C3.279 16.875 3.025 16.295 2.89 15.289C2.752 14.262 2.75 12.907 2.75 11C2.75 9.093 2.752 7.739 2.89 6.71C3.025 5.705 3.279 5.125 3.702 4.702C4.125 4.279 4.705 4.025 5.711 3.89C6.739 3.752 8.093 3.75 10 3.75H14C15.907 3.75 17.262 3.752 18.29 3.89C19.295 4.025 19.875 4.279 20.298 4.702C20.721 5.125 20.975 5.705 21.11 6.711C21.248 7.739 21.25 9.093 21.25 11C21.25 12.907 21.248 14.262 21.11 15.29C20.975 16.295 20.721 16.875 20.298 17.298C20.118 17.478 19.914 17.623 19.672 17.741C19.4931 17.828 19.3561 17.9825 19.2911 18.1705C19.2261 18.3585 19.2385 18.5646 19.3255 18.7435C19.4125 18.9224 19.567 19.0594 19.755 19.1244C19.943 19.1894 20.1491 19.177 20.328 19.09C20.71 18.9059 21.0582 18.6588 21.358 18.359C22.108 17.61 22.439 16.661 22.597 15.489C22.75 14.349 22.75 12.894 22.75 11.056V10.944C22.75 9.106 22.75 7.65 22.597 6.511C22.439 5.339 22.107 4.39 21.359 3.641C20.61 2.893 19.661 2.561 18.489 2.403C17.349 2.25 15.894 2.25 14.056 2.25H9.944Z" fill="#A020F0"/>
<path fill-rule="evenodd" clip-rule="evenodd" d="M12.1179 13.875C12.0392 13.8708 11.9605 13.8708 11.8819 13.875C11.3799 13.901 10.9739 14.123 10.6089 14.407C10.2669 14.672 9.88886 15.05 9.45186 15.487L9.37586 15.563C8.39986 16.539 7.61186 17.328 7.10986 17.983C6.61986 18.623 6.21486 19.374 6.48086 20.195C6.51786 20.307 6.56286 20.417 6.61686 20.522C7.00786 21.29 7.82486 21.535 8.62586 21.642C9.44386 21.75 10.5579 21.75 11.9389 21.75H12.0599C13.4409 21.75 14.5559 21.75 15.3739 21.641C16.1739 21.535 16.9909 21.291 17.3829 20.522C17.4369 20.417 17.4829 20.307 17.5189 20.195C17.7849 19.375 17.3789 18.624 16.8889 17.983C16.3879 17.328 15.5989 16.539 14.6229 15.563L14.5479 15.488C14.1099 15.05 13.7329 14.672 13.3909 14.407C13.0249 14.123 12.6199 13.901 12.1179 13.874M11.9599 15.371C11.9865 15.3695 12.0132 15.3695 12.0399 15.371C12.1119 15.375 12.2269 15.401 12.4699 15.591C12.7299 15.791 13.0399 16.101 13.5199 16.58C14.5499 17.61 15.2649 18.327 15.6979 18.893C16.1499 19.483 16.1089 19.677 16.0919 19.731C16.0797 19.7684 16.0647 19.8049 16.0469 19.84C16.0209 19.89 15.9129 20.055 15.1769 20.153C14.4689 20.247 13.4559 20.249 11.9999 20.249C10.5439 20.249 9.52986 20.247 8.82386 20.153C8.08686 20.055 7.97886 19.89 7.95286 19.84C7.93497 19.8045 7.91992 19.7678 7.90786 19.73C7.88986 19.677 7.84986 19.484 8.30186 18.893C8.73486 18.327 9.44986 17.609 10.4799 16.58C10.9599 16.1 11.2699 15.791 11.5289 15.59C11.7729 15.401 11.8869 15.375 11.9599 15.371Z" fill="#A020F0"/>
</svg>
