<svg width="24" height="24" viewBox="0 0 24 24" fill="none" xmlns="http://www.w3.org/2000/svg">
<path d="M6.452 3.25C6.034 3.25 5.767 3.25 5.534 3.273C4.44054 3.38081 3.41827 3.86438 2.64132 4.64132C1.86438 5.41827 1.38081 6.44054 1.273 7.534C1.25 7.767 1.25 8.034 1.25 8.452V8.5C1.25 8.69891 1.32902 8.88968 1.46967 9.03033C1.61032 9.17098 1.80109 9.25 2 9.25C2.19891 9.25 2.38968 9.17098 2.53033 9.03033C2.67098 8.88968 2.75 8.69891 2.75 8.5C2.75 8.018 2.75 7.831 2.766 7.681C2.8398 6.93314 3.1705 6.23396 3.7018 5.70248C4.2331 5.171 4.93216 4.84006 5.68 4.766C5.83 4.751 6.017 4.75 6.499 4.75H14C15.907 4.75 17.262 4.752 18.29 4.89C19.295 5.025 19.875 5.279 20.298 5.702C20.721 6.125 20.975 6.705 21.11 7.711C21.248 8.739 21.25 10.093 21.25 12C21.25 13.907 21.248 15.262 21.11 16.29C20.975 17.295 20.721 17.875 20.298 18.298C19.875 18.721 19.295 18.975 18.289 19.11C17.262 19.248 15.907 19.25 14 19.25C13.8011 19.25 13.6103 19.329 13.4697 19.4697C13.329 19.6103 13.25 19.8011 13.25 20C13.25 20.1989 13.329 20.3897 13.4697 20.5303C13.6103 20.671 13.8011 20.75 14 20.75H14.056C15.894 20.75 17.35 20.75 18.489 20.597C19.661 20.439 20.61 20.107 21.359 19.359C22.107 18.61 22.439 17.661 22.597 16.489C22.75 15.349 22.75 13.894 22.75 12.056V11.944C22.75 10.106 22.75 8.65 22.597 7.511C22.439 6.339 22.107 5.39 21.359 4.641C20.61 3.893 19.661 3.561 18.489 3.403C17.349 3.25 15.894 3.25 14.056 3.25H6.452Z" fill="#FFD43A"/>
<path d="M2 10.25C1.80109 10.25 1.61032 10.329 1.46967 10.4697C1.32902 10.6103 1.25 10.8011 1.25 11C1.25 11.1989 1.32902 11.3897 1.46967 11.5303C1.61032 11.671 1.80109 11.75 2 11.75C4.18804 11.75 6.28646 12.6192 7.83363 14.1664C9.38081 15.7135 10.25 17.812 10.25 20C10.25 20.1989 10.329 20.3897 10.4697 20.5303C10.6103 20.671 10.8011 20.75 11 20.75C11.1989 20.75 11.3897 20.671 11.5303 20.5303C11.671 20.3897 11.75 20.1989 11.75 20C11.75 17.4141 10.7228 14.9342 8.89429 13.1057C7.06581 11.2772 4.58586 10.25 2 10.25Z" fill="#FFD43A"/>
<path d="M1.25 14C1.25 13.8011 1.32902 13.6103 1.46967 13.4697C1.61032 13.329 1.80109 13.25 2 13.25C3.79021 13.25 5.5071 13.9612 6.77297 15.227C8.03884 16.4929 8.75 18.2098 8.75 20C8.75 20.1989 8.67098 20.3897 8.53033 20.5303C8.38968 20.671 8.19891 20.75 8 20.75C7.80109 20.75 7.61032 20.671 7.46967 20.5303C7.32902 20.3897 7.25 20.1989 7.25 20C7.25 17.1 4.9 14.75 2 14.75C1.80109 14.75 1.61032 14.671 1.46967 14.5303C1.32902 14.3897 1.25 14.1989 1.25 14Z" fill="#FFD43A"/>
<path d="M2 16.25C1.80109 16.25 1.61032 16.329 1.46967 16.4697C1.32902 16.6103 1.25 16.8011 1.25 17C1.25 17.1989 1.32902 17.3897 1.46967 17.5303C1.61032 17.671 1.80109 17.75 2 17.75C2.59674 17.75 3.16903 17.9871 3.59099 18.409C4.01295 18.831 4.25 19.4033 4.25 20C4.25 20.1989 4.32902 20.3897 4.46967 20.5303C4.61032 20.671 4.80109 20.75 5 20.75C5.19891 20.75 5.38968 20.671 5.53033 20.5303C5.67098 20.3897 5.75 20.1989 5.75 20C5.75 19.0054 5.35491 18.0516 4.65165 17.3483C3.94839 16.6451 2.99456 16.25 2 16.25Z" fill="#FFD43A"/>
</svg>
