<svg width="104" height="104" viewBox="0 0 104 104" fill="none" xmlns="http://www.w3.org/2000/svg">
<g filter="url(#filter0_d_632_11174)">
<rect x="16" y="16" width="72" height="72" rx="36" fill="#A020F0"/>
<g clip-path="url(#clip0_632_11174)">
<path d="M51.9997 40.3333C58.4432 40.3333 63.6664 45.5564 63.6664 51.9999C63.6664 58.4434 58.4432 63.6666 51.9997 63.6666C49.8742 63.6699 47.7886 63.0896 45.9704 61.9889L42.433 63.0296C42.2299 63.0893 42.0145 63.0933 41.8093 63.041C41.6042 62.9887 41.4169 62.8821 41.2672 62.7324C41.1175 62.5827 41.0109 62.3954 40.9586 62.1903C40.9063 61.9851 40.9103 61.7697 40.97 61.5666L42.0107 58.0293C40.9105 56.2108 40.3302 54.1253 40.333 51.9999C40.333 45.5564 45.5562 40.3333 51.9997 40.3333ZM47.9164 50.2499C47.4522 50.2499 47.0071 50.4343 46.6789 50.7625C46.3507 51.0907 46.1664 51.5358 46.1664 51.9999C46.1664 52.464 46.3507 52.9092 46.6789 53.2374C47.0071 53.5655 47.4522 53.7499 47.9164 53.7499C48.3805 53.7499 48.8256 53.5655 49.1538 53.2374C49.482 52.9092 49.6664 52.464 49.6664 51.9999C49.6664 51.5358 49.482 51.0907 49.1538 50.7625C48.8256 50.4343 48.3805 50.2499 47.9164 50.2499ZM56.083 50.2499C55.6189 50.2499 55.1738 50.4343 54.8456 50.7625C54.5174 51.0907 54.333 51.5358 54.333 51.9999C54.333 52.464 54.5174 52.9092 54.8456 53.2374C55.1738 53.5655 55.6189 53.7499 56.083 53.7499C56.5471 53.7499 56.9923 53.5655 57.3205 53.2374C57.6486 52.9092 57.833 52.464 57.833 51.9999C57.833 51.5358 57.6486 51.0907 57.3205 50.7625C56.9923 50.4343 56.5471 50.2499 56.083 50.2499Z" fill="#F2F2F2"/>
</g>
</g>
<defs>
<filter id="filter0_d_632_11174" x="0" y="0" width="104" height="104" filterUnits="userSpaceOnUse" color-interpolation-filters="sRGB">
<feFlood flood-opacity="0" result="BackgroundImageFix"/>
<feColorMatrix in="SourceAlpha" type="matrix" values="0 0 0 0 0 0 0 0 0 0 0 0 0 0 0 0 0 0 127 0" result="hardAlpha"/>
<feOffset/>
<feGaussianBlur stdDeviation="8"/>
<feComposite in2="hardAlpha" operator="out"/>
<feColorMatrix type="matrix" values="0 0 0 0 0.627451 0 0 0 0 0.12549 0 0 0 0 0.941176 0 0 0 0.35 0"/>
<feBlend mode="normal" in2="BackgroundImageFix" result="effect1_dropShadow_632_11174"/>
<feBlend mode="normal" in="SourceGraphic" in2="effect1_dropShadow_632_11174" result="shape"/>
</filter>
<clipPath id="clip0_632_11174">
<rect width="28" height="28" fill="white" transform="translate(38 38)"/>
</clipPath>
</defs>
</svg>
