<svg width="24" height="23" viewBox="0 0 24 23" fill="none" xmlns="http://www.w3.org/2000/svg">
<g clip-path="url(#clip0_505_5009)">
<path d="M12.5003 17.6774C12.5003 17.7431 12.4873 17.8082 12.4622 17.8689C12.4371 17.9296 12.4002 17.9847 12.3538 18.0312C12.3073 18.0776 12.2521 18.1145 12.1914 18.1396C12.1308 18.1648 12.0657 18.1777 12 18.1777C11.9343 18.1777 11.8692 18.1648 11.8086 18.1396C11.7479 18.1145 11.6927 18.0776 11.6462 18.0312C11.5998 17.9847 11.5629 17.9296 11.5378 17.8689C11.5127 17.8082 11.4997 17.7431 11.4997 17.6774L11.5002 11.8133L5.63604 11.8137C5.50336 11.8137 5.37611 11.761 5.28229 11.6672C5.18847 11.5734 5.13576 11.4461 5.13576 11.3135C5.13576 11.1808 5.18847 11.0535 5.28229 10.9597C5.37611 10.8659 5.50336 10.8132 5.63604 10.8132L11.5002 10.8136L11.4997 4.9495C11.4997 4.81682 11.5524 4.68957 11.6463 4.59575C11.7401 4.50193 11.8673 4.44923 12 4.44923C12.1327 4.44923 12.2599 4.50193 12.3537 4.59575C12.4476 4.68957 12.5003 4.81682 12.5003 4.9495L12.4998 10.8136L18.364 10.8132C18.4966 10.8132 18.6239 10.8659 18.7177 10.9597C18.8115 11.0535 18.8642 11.1808 18.8642 11.3135C18.8642 11.4461 18.8115 11.5734 18.7177 11.6672C18.6239 11.761 18.4966 11.8137 18.364 11.8137L12.4998 11.8133L12.5003 17.6774Z" fill="#222222"/>
</g>
<defs>
<clipPath id="clip0_505_5009">
<rect width="16" height="16" fill="white" transform="translate(12) rotate(45)"/>
</clipPath>
</defs>
</svg>
