<svg width="520" height="358" viewBox="0 0 520 358" fill="none" xmlns="http://www.w3.org/2000/svg">
<rect width="520" height="358" rx="8" fill="#F2F2F2"/>
<rect x="0.5" y="0.5" width="519" height="357" rx="7.5" stroke="#272727" stroke-opacity="0.1"/>
<path d="M198.539 158.177L182.143 163.851C202.01 179.942 208.174 192.486 217.787 217.054C214.973 193.617 212.533 180.618 198.539 158.177Z" fill="#9CE546"/>
<path d="M217.064 154.632H200.668C214.179 177.217 215.608 191.794 217.064 217.056C221.735 190.541 222.367 175.996 217.064 154.632Z" fill="#528838"/>
<ellipse cx="207.797" cy="143.991" rx="7.12885" ry="7.09366" fill="#528838"/>
<ellipse cx="187.842" cy="149.664" rx="7.12885" ry="7.09366" fill="#9CE546"/>
<ellipse cx="169.303" cy="162.435" rx="7.12885" ry="7.09366" fill="#90FDE1"/>
<path d="M181.426 165.27L167.168 175.201C192.832 187.261 201.143 196.067 212.793 217.763H218.496C209.941 195.064 200.308 183.839 181.426 165.27Z" fill="#90FDE1"/>
<path d="M269.994 158.174L286.391 163.849C266.523 179.939 260.359 192.483 250.746 217.051C253.561 193.614 256 180.615 269.994 158.174Z" fill="#9CE546"/>
<path d="M251.469 154.629H267.865C254.355 177.213 252.926 191.79 251.469 217.053C246.798 190.538 246.166 175.993 251.469 154.629Z" fill="#528838"/>
<ellipse cx="259.129" cy="145.403" rx="7.12885" ry="7.09366" fill="#528838"/>
<ellipse cx="280.527" cy="149.663" rx="7.12885" ry="7.09366" fill="#9CE546"/>
<ellipse cx="299.043" cy="161.011" rx="7.12885" ry="7.09366" fill="#90FDE1"/>
<path d="M287.109 165.267L301.367 175.198C275.703 187.257 267.392 196.064 255.743 217.76H250.039C258.594 195.06 268.227 183.836 287.109 165.267Z" fill="#90FDE1"/>
<path d="M242.021 133.35C242.021 138.443 237.872 142.572 232.754 142.572C227.636 142.572 223.486 138.443 223.486 133.35C223.486 128.257 227.636 122 232.754 122C237.872 122 242.021 128.257 242.021 133.35Z" fill="#B8541B"/>
<path d="M246.299 145.409H219.922C228.958 171.337 230.05 187.143 224.199 217.765H243.447C236.844 191.238 236.258 175.666 246.299 145.409Z" fill="#B8541B"/>
<path d="M229.582 166.513L232.077 145.409H233.948L236.444 166.513L232.701 170.237L229.582 166.513Z" fill="white"/>
<path d="M143.897 228.132C143.856 227.591 143.744 227.117 143.56 226.709C143.377 226.291 143.117 225.939 142.78 225.653C142.444 225.358 142.025 225.138 141.526 224.996C141.036 224.843 140.46 224.766 139.797 224.766C138.369 224.766 137.069 225.108 135.896 225.791C134.723 226.474 133.739 227.459 132.943 228.744C132.158 230.029 131.617 231.579 131.321 233.395C131.015 235.231 130.99 236.801 131.245 238.107C131.5 239.412 132.051 240.412 132.897 241.105C133.754 241.799 134.911 242.146 136.37 242.146C137.675 242.146 138.802 241.957 139.751 241.58C140.7 241.202 141.459 240.667 142.031 239.973C142.602 239.28 142.959 238.464 143.101 237.525L144.57 237.678H137.41L138.389 231.62H152.281L151.577 235.965C151.108 238.821 150.098 241.263 148.548 243.293C147.008 245.313 145.09 246.863 142.796 247.944C140.501 249.015 137.981 249.55 135.238 249.55C132.198 249.55 129.633 248.903 127.542 247.607C125.452 246.312 123.957 244.466 123.06 242.069C122.172 239.672 121.999 236.822 122.54 233.517C122.968 230.926 123.743 228.632 124.865 226.633C125.997 224.633 127.379 222.945 129.011 221.569C130.643 220.181 132.443 219.136 134.412 218.432C136.38 217.718 138.42 217.361 140.531 217.361C142.377 217.361 144.055 217.627 145.565 218.157C147.074 218.677 148.364 219.422 149.435 220.391C150.506 221.349 151.307 222.487 151.837 223.802C152.378 225.118 152.597 226.561 152.495 228.132H143.897ZM170.414 238.841L172.617 225.623H181.062L177.146 249.122H169.129L169.863 244.655H169.618C168.894 246.154 167.813 247.327 166.375 248.174C164.947 249.01 163.356 249.428 161.602 249.428C159.96 249.428 158.588 249.051 157.486 248.296C156.385 247.541 155.605 246.501 155.146 245.175C154.687 243.849 154.595 242.329 154.87 240.616L157.379 225.623H165.824L163.621 238.841C163.448 240.004 163.596 240.917 164.065 241.58C164.544 242.243 165.314 242.574 166.375 242.574C167.079 242.574 167.711 242.426 168.272 242.13C168.843 241.824 169.313 241.396 169.68 240.845C170.057 240.284 170.302 239.616 170.414 238.841ZM181.441 249.122L185.357 225.623H193.558L192.823 230.09H193.068C193.772 228.438 194.654 227.229 195.715 226.464C196.775 225.699 197.933 225.317 199.188 225.317C199.555 225.317 199.907 225.347 200.243 225.409C200.59 225.46 200.932 225.531 201.268 225.623L200.044 232.844C199.647 232.691 199.152 232.584 198.56 232.523C197.969 232.451 197.444 232.416 196.985 232.416C196.169 232.416 195.404 232.604 194.69 232.982C193.986 233.349 193.384 233.869 192.884 234.542C192.395 235.205 192.068 235.985 191.905 236.883L189.886 249.122H181.441ZM217.072 238.841L219.275 225.623H227.72L223.804 249.122H215.787L216.521 244.655H216.277C215.552 246.154 214.471 247.327 213.033 248.174C211.605 249.01 210.014 249.428 208.26 249.428C206.618 249.428 205.246 249.051 204.145 248.296C203.043 247.541 202.263 246.501 201.804 245.175C201.345 243.849 201.253 242.329 201.528 240.616L204.037 225.623H212.482L210.279 238.841C210.106 240.004 210.254 240.917 210.723 241.58C211.202 242.243 211.972 242.574 213.033 242.574C213.737 242.574 214.369 242.426 214.93 242.13C215.501 241.824 215.971 241.396 216.338 240.845C216.715 240.284 216.96 239.616 217.072 238.841ZM237.951 258.424C235.585 258.424 233.617 258.087 232.046 257.414C230.486 256.751 229.333 255.833 228.588 254.66C227.854 253.498 227.548 252.161 227.671 250.652H235.81C235.83 251.162 235.978 251.57 236.253 251.876C236.529 252.182 236.911 252.401 237.401 252.534C237.89 252.666 238.461 252.733 239.114 252.733C240.216 252.733 241.169 252.462 241.975 251.922C242.781 251.391 243.276 250.438 243.459 249.061L244.132 245.083H243.887C243.459 245.879 242.883 246.557 242.159 247.118C241.435 247.669 240.603 248.092 239.665 248.388C238.727 248.673 237.727 248.816 236.666 248.816C234.994 248.816 233.52 248.429 232.245 247.653C230.98 246.878 230.062 245.649 229.491 243.966C228.93 242.283 228.874 240.085 229.323 237.372C229.792 234.537 230.618 232.232 231.801 230.457C232.984 228.683 234.346 227.382 235.886 226.556C237.426 225.73 238.971 225.317 240.522 225.317C241.684 225.317 242.669 225.521 243.474 225.929C244.28 226.327 244.923 226.862 245.402 227.535C245.881 228.198 246.213 228.927 246.397 229.723H246.58L247.253 225.623H255.698L251.782 249.061C251.476 251.06 250.696 252.753 249.441 254.14C248.197 255.537 246.585 256.598 244.607 257.322C242.638 258.057 240.42 258.424 237.951 258.424ZM240.766 242.819C241.542 242.819 242.245 242.605 242.878 242.176C243.51 241.738 244.046 241.116 244.484 240.31C244.923 239.494 245.234 238.515 245.417 237.372C245.601 236.21 245.611 235.215 245.448 234.389C245.285 233.553 244.964 232.915 244.484 232.477C244.005 232.028 243.378 231.804 242.602 231.804C241.827 231.804 241.129 232.028 240.506 232.477C239.884 232.915 239.359 233.553 238.931 234.389C238.502 235.215 238.196 236.21 238.013 237.372C237.829 238.535 237.814 239.524 237.967 240.34C238.12 241.146 238.431 241.763 238.9 242.192C239.369 242.61 239.991 242.819 240.766 242.819ZM267.276 249.55C264.767 249.55 262.686 249.071 261.034 248.112C259.382 247.143 258.219 245.756 257.546 243.951C256.873 242.136 256.75 239.963 257.178 237.434C257.586 235.006 258.428 232.885 259.703 231.069C260.988 229.254 262.605 227.841 264.553 226.831C266.511 225.822 268.704 225.317 271.131 225.317C272.906 225.317 274.461 225.592 275.797 226.143C277.144 226.694 278.24 227.494 279.087 228.545C279.933 229.595 280.504 230.865 280.8 232.354C281.106 233.833 281.106 235.506 280.8 237.372L280.494 239.331H259.504L260.238 234.68H273.457C273.559 234.007 273.492 233.415 273.258 232.905C273.033 232.385 272.671 231.982 272.172 231.697C271.682 231.401 271.09 231.253 270.397 231.253C269.703 231.253 269.051 231.401 268.439 231.697C267.837 231.992 267.322 232.405 266.893 232.936C266.475 233.466 266.195 234.088 266.052 234.802L265.134 239.698C265.012 240.453 265.057 241.126 265.272 241.717C265.486 242.309 265.858 242.773 266.388 243.11C266.919 243.446 267.602 243.614 268.439 243.614C269.01 243.614 269.55 243.538 270.06 243.385C270.58 243.222 271.039 242.987 271.437 242.681C271.845 242.365 272.172 241.983 272.416 241.534H280.127C279.576 243.166 278.704 244.583 277.511 245.787C276.328 246.98 274.869 247.908 273.135 248.571C271.412 249.224 269.458 249.55 267.276 249.55ZM293.487 249.55C290.978 249.55 288.897 249.071 287.245 248.112C285.593 247.143 284.43 245.756 283.757 243.951C283.084 242.136 282.961 239.963 283.39 237.434C283.797 235.006 284.639 232.885 285.914 231.069C287.199 229.254 288.816 227.841 290.764 226.831C292.722 225.822 294.915 225.317 297.342 225.317C299.117 225.317 300.672 225.592 302.008 226.143C303.355 226.694 304.451 227.494 305.298 228.545C306.144 229.595 306.715 230.865 307.011 232.354C307.317 233.833 307.317 235.506 307.011 237.372L306.705 239.331H285.715L286.449 234.68H299.668C299.77 234.007 299.703 233.415 299.469 232.905C299.244 232.385 298.882 231.982 298.383 231.697C297.893 231.401 297.301 231.253 296.608 231.253C295.914 231.253 295.262 231.401 294.65 231.697C294.048 231.992 293.533 232.405 293.104 232.936C292.686 233.466 292.406 234.088 292.263 234.802L291.345 239.698C291.223 240.453 291.268 241.126 291.483 241.717C291.697 242.309 292.069 242.773 292.6 243.11C293.13 243.446 293.813 243.614 294.65 243.614C295.221 243.614 295.761 243.538 296.271 243.385C296.791 243.222 297.25 242.987 297.648 242.681C298.056 242.365 298.383 241.983 298.627 241.534H306.338C305.787 243.166 304.915 244.583 303.722 245.787C302.539 246.98 301.08 247.908 299.346 248.571C297.623 249.224 295.669 249.55 293.487 249.55ZM317.005 243.553L318.719 233.517H319.82L326.858 225.623H336.343L324.777 237.923H322.39L317.005 243.553ZM308.499 249.122L313.701 217.79H322.146L316.944 249.122H308.499ZM323.002 249.122L319.147 239.82L325.695 233.823L332.671 249.122H323.002ZM358.676 233.272H351.088C351.128 232.783 351.042 232.365 350.827 232.018C350.613 231.671 350.312 231.406 349.925 231.222C349.547 231.039 349.119 230.947 348.64 230.947C347.803 230.947 347.044 231.136 346.36 231.513C345.677 231.88 345.294 232.365 345.213 232.966C345.162 233.201 345.238 233.42 345.442 233.624C345.646 233.828 346.182 234.017 347.049 234.19L351.7 235.047C354.025 235.475 355.718 236.256 356.779 237.388C357.85 238.51 358.237 239.994 357.942 241.84C357.666 243.441 356.962 244.818 355.83 245.97C354.698 247.123 353.26 248.01 351.516 248.633C349.782 249.244 347.865 249.55 345.764 249.55C342.061 249.55 339.287 248.811 337.441 247.332C335.605 245.853 334.769 243.92 334.932 241.534H343.132C343.152 242.299 343.407 242.875 343.897 243.263C344.397 243.64 345.06 243.839 345.886 243.859C346.783 243.89 347.569 243.711 348.242 243.324C348.915 242.926 349.292 242.431 349.374 241.84C349.405 241.503 349.257 241.248 348.93 241.075C348.614 240.901 348.007 240.728 347.11 240.555L343.071 239.82C340.745 239.402 339.052 238.566 337.992 237.311C336.931 236.047 336.564 234.435 336.89 232.477C337.155 230.916 337.788 229.606 338.787 228.545C339.797 227.484 341.123 226.684 342.765 226.143C344.407 225.592 346.304 225.317 348.456 225.317C351.975 225.317 354.637 226.026 356.442 227.443C358.258 228.851 359.002 230.794 358.676 233.272Z" fill="#B8541B"/>
<path d="M191.729 278.927L194.34 263.261H197.288L196.869 265.749H197.033C197.454 264.906 198.07 264.243 198.879 263.76C199.688 263.271 200.551 263.026 201.469 263.026C201.666 263.026 201.891 263.033 202.142 263.047C202.394 263.053 202.598 263.07 202.754 263.098L202.265 266.015C202.149 265.981 201.938 265.943 201.632 265.902C201.327 265.855 201.01 265.831 200.684 265.831C199.97 265.831 199.307 265.984 198.695 266.29C198.083 266.589 197.57 267.007 197.155 267.544C196.74 268.075 196.472 268.68 196.349 269.36L194.779 278.927H191.729ZM208.917 279.243C207.428 279.243 206.184 278.903 205.184 278.223C204.185 277.536 203.481 276.578 203.073 275.347C202.672 274.109 202.604 272.671 202.869 271.033C203.128 269.428 203.648 268.027 204.43 266.83C205.218 265.634 206.204 264.706 207.387 264.046C208.577 263.386 209.9 263.057 211.355 263.057C212.844 263.057 214.085 263.4 215.078 264.087C216.077 264.774 216.781 265.736 217.189 266.973C217.597 268.211 217.668 269.652 217.403 271.298C217.145 272.889 216.618 274.283 215.822 275.48C215.034 276.669 214.048 277.594 212.865 278.254C211.681 278.913 210.366 279.243 208.917 279.243ZM209.091 276.683C210.07 276.683 210.923 276.425 211.651 275.908C212.385 275.391 212.983 274.704 213.446 273.848C213.908 272.991 214.224 272.053 214.394 271.033C214.551 270.047 214.547 269.146 214.384 268.33C214.228 267.507 213.888 266.847 213.364 266.351C212.841 265.855 212.113 265.607 211.182 265.607C210.202 265.607 209.342 265.868 208.601 266.392C207.867 266.909 207.268 267.599 206.806 268.462C206.351 269.326 206.041 270.268 205.878 271.288C205.722 272.267 205.722 273.168 205.878 273.99C206.034 274.806 206.374 275.459 206.898 275.949C207.421 276.438 208.152 276.683 209.091 276.683ZM219.989 284.802C219.526 284.802 219.115 284.764 218.755 284.69C218.394 284.622 218.126 284.547 217.949 284.465L219.112 281.966C219.649 282.116 220.128 282.174 220.55 282.14C220.978 282.106 221.379 281.929 221.753 281.609C222.127 281.29 222.508 280.787 222.896 280.1L223.467 279.07L220.397 263.261H223.538L225.476 275.449H225.639L231.636 263.261H235.033L225.639 280.997C225.197 281.84 224.694 282.541 224.13 283.098C223.572 283.663 222.947 284.088 222.253 284.373C221.566 284.659 220.811 284.802 219.989 284.802ZM239.357 279.274C238.365 279.274 237.498 279.09 236.756 278.723C236.015 278.349 235.468 277.808 235.114 277.101C234.761 276.394 234.669 275.527 234.839 274.5C234.989 273.616 235.281 272.889 235.716 272.318C236.158 271.747 236.695 271.294 237.328 270.961C237.96 270.621 238.647 270.366 239.388 270.196C240.129 270.026 240.877 269.9 241.632 269.819C242.584 269.71 243.355 269.618 243.947 269.543C244.545 269.469 244.994 269.353 245.293 269.197C245.592 269.034 245.773 268.768 245.834 268.401V268.33C245.977 267.446 245.847 266.759 245.446 266.27C245.052 265.773 244.365 265.525 243.386 265.525C242.366 265.525 241.509 265.749 240.816 266.198C240.129 266.647 239.622 267.15 239.296 267.708L236.563 267.055C237.052 266.103 237.674 265.335 238.429 264.75C239.191 264.158 240.024 263.73 240.928 263.465C241.832 263.193 242.757 263.057 243.702 263.057C244.328 263.057 244.977 263.132 245.65 263.281C246.323 263.424 246.935 263.689 247.486 264.077C248.044 264.464 248.458 265.018 248.73 265.739C249.002 266.453 249.043 267.381 248.853 268.524L247.129 278.927H244.151L244.518 276.785H244.396C244.137 277.179 243.777 277.567 243.315 277.948C242.859 278.329 242.301 278.645 241.642 278.896C240.982 279.148 240.221 279.274 239.357 279.274ZM240.398 276.826C241.248 276.826 241.999 276.659 242.652 276.326C243.311 275.993 243.845 275.558 244.253 275.021C244.661 274.477 244.916 273.895 245.018 273.276L245.354 271.257C245.225 271.366 244.998 271.464 244.671 271.553C244.352 271.641 243.991 271.719 243.59 271.787C243.189 271.855 242.794 271.913 242.407 271.961C242.026 272.008 241.71 272.053 241.458 272.093C240.86 272.168 240.299 272.294 239.775 272.471C239.259 272.647 238.827 272.902 238.48 273.236C238.133 273.562 237.916 273.997 237.827 274.541C237.705 275.296 237.885 275.867 238.368 276.255C238.858 276.635 239.534 276.826 240.398 276.826ZM257.708 258.039L254.241 278.927H251.191L254.659 258.039H257.708ZM268.267 263.261L267.87 265.709H259.312L259.71 263.261H268.267ZM262.617 259.507H265.666L263.198 274.327C263.103 274.919 263.12 275.364 263.249 275.663C263.378 275.955 263.576 276.156 263.841 276.265C264.113 276.367 264.415 276.418 264.749 276.418C264.993 276.418 265.207 276.401 265.391 276.367C265.575 276.333 265.721 276.306 265.83 276.285L265.993 278.804C265.789 278.872 265.513 278.94 265.167 279.008C264.827 279.083 264.412 279.124 263.922 279.131C263.12 279.144 262.396 279.002 261.75 278.702C261.104 278.397 260.621 277.934 260.302 277.315C259.982 276.69 259.904 275.904 260.067 274.959L262.617 259.507ZM269.999 284.802C269.536 284.802 269.125 284.764 268.765 284.69C268.404 284.622 268.136 284.547 267.959 284.465L269.121 281.966C269.659 282.116 270.138 282.174 270.56 282.14C270.988 282.106 271.389 281.929 271.763 281.609C272.137 281.29 272.518 280.787 272.905 280.1L273.477 279.07L270.407 263.261H273.548L275.486 275.449H275.649L281.646 263.261H285.043L275.649 280.997C275.207 281.84 274.704 282.541 274.14 283.098C273.582 283.663 272.956 284.088 272.263 284.373C271.576 284.659 270.821 284.802 269.999 284.802Z" fill="#6A4B39"/>
</svg>
