<svg width="32" height="33" viewBox="0 0 32 33" fill="none" xmlns="http://www.w3.org/2000/svg">
<circle cx="16" cy="16.9166" r="16" fill="white" fill-opacity="0.1"/>
<path d="M16.2709 9.28088C17.1147 9.28313 17.5429 9.28763 17.9127 9.29813L18.0582 9.30338C18.2262 9.30938 18.3919 9.31688 18.5922 9.32588C19.3902 9.36338 19.9347 9.48938 20.4124 9.67463C20.9074 9.86513 21.3244 10.1231 21.7414 10.5394C22.1228 10.9143 22.4179 11.3678 22.6062 11.8684C22.7914 12.3461 22.9174 12.8906 22.9549 13.6894C22.9639 13.8889 22.9714 14.0546 22.9774 14.2234L22.9819 14.3689C22.9932 14.7379 22.9977 15.1661 22.9992 16.0099L22.9999 16.5694V17.5519C23.0018 18.0989 22.996 18.646 22.9827 19.1929L22.9782 19.3384C22.9722 19.5071 22.9647 19.6729 22.9557 19.8724C22.9182 20.6711 22.7907 21.2149 22.6062 21.6934C22.4185 22.1942 22.1233 22.6478 21.7414 23.0224C21.3664 23.4036 20.9129 23.6987 20.4124 23.8871C19.9347 24.0724 19.3902 24.1984 18.5922 24.2359C18.4142 24.2443 18.2362 24.2518 18.0582 24.2584L17.9127 24.2629C17.5429 24.2734 17.1147 24.2786 16.2709 24.2801L15.7114 24.2809H14.7297C14.1824 24.2828 13.6351 24.277 13.0879 24.2636L12.9424 24.2591C12.7644 24.2524 12.5864 24.2446 12.4084 24.2359C11.6104 24.1984 11.0659 24.0724 10.5874 23.8871C10.0869 23.6992 9.63361 23.404 9.25919 23.0224C8.87748 22.6476 8.58211 22.1941 8.39369 21.6934C8.20844 21.2156 8.08244 20.6711 8.04494 19.8724C8.03659 19.6944 8.02909 19.5164 8.02244 19.3384L8.01869 19.1929C8.00487 18.646 7.99862 18.0989 7.99994 17.5519V16.0099C7.99785 15.4628 8.00335 14.9158 8.01644 14.3689L8.02169 14.2234C8.02769 14.0546 8.03519 13.8889 8.04419 13.6894C8.08169 12.8906 8.20769 12.3469 8.39294 11.8684C8.58128 11.3673 8.87723 10.9137 9.25994 10.5394C9.63426 10.158 10.0873 9.86287 10.5874 9.67463C11.0659 9.48938 11.6097 9.36338 12.4084 9.32588C12.6079 9.31688 12.7744 9.30938 12.9424 9.30338L13.0879 9.29888C13.6348 9.28556 14.1819 9.27981 14.7289 9.28163L16.2709 9.28088ZM15.4999 13.0309C14.5054 13.0309 13.5516 13.426 12.8483 14.1292C12.145 14.8325 11.7499 15.7863 11.7499 16.7809C11.7499 17.7754 12.145 18.7293 12.8483 19.4325C13.5516 20.1358 14.5054 20.5309 15.4999 20.5309C16.4945 20.5309 17.4483 20.1358 18.1516 19.4325C18.8549 18.7293 19.2499 17.7754 19.2499 16.7809C19.2499 15.7863 18.8549 14.8325 18.1516 14.1292C17.4483 13.426 16.4945 13.0309 15.4999 13.0309ZM15.4999 14.5309C15.7954 14.5308 16.088 14.589 16.361 14.702C16.634 14.815 16.8821 14.9807 17.091 15.1896C17.3 15.3985 17.4658 15.6465 17.5789 15.9195C17.692 16.1925 17.7503 16.485 17.7503 16.7805C17.7504 17.076 17.6922 17.3686 17.5792 17.6416C17.4662 17.9146 17.3005 18.1626 17.0916 18.3716C16.8827 18.5806 16.6347 18.7464 16.3617 18.8595C16.0887 18.9726 15.7962 19.0308 15.5007 19.0309C14.904 19.0309 14.3317 18.7938 13.9097 18.3719C13.4877 17.9499 13.2507 17.3776 13.2507 16.7809C13.2507 16.1841 13.4877 15.6119 13.9097 15.1899C14.3317 14.7679 14.904 14.5309 15.5007 14.5309M19.4382 11.9059C19.1896 11.9059 18.9511 12.0047 18.7753 12.1805C18.5995 12.3563 18.5007 12.5947 18.5007 12.8434C18.5007 13.092 18.5995 13.3305 18.7753 13.5063C18.9511 13.6821 19.1896 13.7809 19.4382 13.7809C19.6868 13.7809 19.9253 13.6821 20.1011 13.5063C20.2769 13.3305 20.3757 13.092 20.3757 12.8434C20.3757 12.5947 20.2769 12.3563 20.1011 12.1805C19.9253 12.0047 19.6868 11.9059 19.4382 11.9059Z" fill="white"/>
</svg>
