<svg width="32" height="33" viewBox="0 0 32 33" fill="none" xmlns="http://www.w3.org/2000/svg">
<circle cx="16" cy="16.9166" r="16" fill="white" fill-opacity="0.1"/>
<path d="M20.75 10.0309C21.1478 10.0309 21.5294 10.1889 21.8107 10.4702C22.092 10.7515 22.25 11.1331 22.25 11.5309V22.0309C22.25 22.4287 22.092 22.8102 21.8107 23.0915C21.5294 23.3728 21.1478 23.5309 20.75 23.5309H10.25C9.85218 23.5309 9.47064 23.3728 9.18934 23.0915C8.90804 22.8102 8.75 22.4287 8.75 22.0309V11.5309C8.75 11.1331 8.90804 10.7515 9.18934 10.4702C9.47064 10.1889 9.85218 10.0309 10.25 10.0309H20.75ZM20.375 21.6559V17.6809C20.375 17.0324 20.1174 16.4105 19.6589 15.952C19.2003 15.4935 18.5785 15.2359 17.93 15.2359C17.2925 15.2359 16.55 15.6259 16.19 16.2109V15.3784H14.0975V21.6559H16.19V17.9584C16.19 17.3809 16.655 16.9084 17.2325 16.9084C17.511 16.9084 17.778 17.019 17.975 17.2159C18.1719 17.4128 18.2825 17.6799 18.2825 17.9584V21.6559H20.375ZM11.66 14.2009C11.9942 14.2009 12.3147 14.0681 12.551 13.8318C12.7873 13.5955 12.92 13.2751 12.92 12.9409C12.92 12.2434 12.3575 11.6734 11.66 11.6734C11.3238 11.6734 11.0014 11.8069 10.7637 12.0446C10.526 12.2823 10.3925 12.6047 10.3925 12.9409C10.3925 13.6384 10.9625 14.2009 11.66 14.2009ZM12.7025 21.6559V15.3784H10.625V21.6559H12.7025Z" fill="white"/>
</svg>
