<svg width="30" height="30" viewBox="0 0 30 30" fill="none" xmlns="http://www.w3.org/2000/svg">
<rect y="0.379395" width="29.2412" height="29.2412" rx="3.27226" fill="#A020F0"/>
<path d="M11.7437 12.1617C11.5822 12.1617 11.4513 12.2927 11.4513 12.4542C11.4513 12.6156 11.5822 12.7466 11.7437 12.7466V12.1617ZM15.8375 12.7466C15.999 12.7466 16.1299 12.6156 16.1299 12.4542C16.1299 12.2927 15.999 12.1617 15.8375 12.1617V12.7466ZM16.1299 14.5136C15.9684 14.5136 15.8375 14.6445 15.8375 14.806C15.8375 14.9675 15.9684 15.0984 16.1299 15.0984V14.5136ZM18.323 14.806L18.57 14.9624L18.8543 14.5136H18.323V14.806ZM16.224 17.5737C16.1376 17.7101 16.1782 17.8907 16.3146 17.9771C16.451 18.0636 16.6317 18.023 16.7181 17.8866L16.224 17.5737ZM4.79028 10.7688C4.9023 10.6525 4.8988 10.4674 4.78248 10.3554C4.66615 10.2434 4.48104 10.2469 4.36902 10.3632L4.79028 10.7688ZM2.04541 13.1977L1.83478 12.9949C1.77804 13.0538 1.74858 13.1338 1.75354 13.2155C1.75849 13.2971 1.79742 13.3729 1.86087 13.4246L2.04541 13.1977ZM4.73626 15.7639C4.86153 15.8658 5.04571 15.8468 5.14762 15.7216C5.24954 15.5963 5.23061 15.4121 5.10533 15.3102L4.73626 15.7639ZM7.24268 7.14846C7.13166 7.26574 7.13673 7.45081 7.25401 7.56184C7.37128 7.67286 7.55636 7.66779 7.66738 7.55051L7.24268 7.14846ZM11.1276 3.89536C11.2386 3.77808 11.2335 3.59301 11.1163 3.48198C10.999 3.37096 10.8139 3.37603 10.7029 3.49331L11.1276 3.89536ZM10.5633 19.9397C10.4378 19.838 10.2536 19.8573 10.152 19.9828C10.0503 20.1083 10.0696 20.2924 10.1951 20.3941L10.5633 19.9397ZM13.0217 22.6846C13.1472 22.7863 13.3313 22.767 13.433 22.6415C13.5347 22.5161 13.5154 22.3319 13.3899 22.2303L13.0217 22.6846ZM11.7437 12.7466H15.8375V12.1617H11.7437V12.7466ZM16.1299 15.0984H18.323V14.5136H16.1299V15.0984ZM18.076 14.6495L16.224 17.5737L16.7181 17.8866L18.57 14.9624L18.076 14.6495ZM4.36902 10.3632L1.83478 12.9949L2.25604 13.4006L4.79028 10.7688L4.36902 10.3632ZM1.86087 13.4246L4.73626 15.7639L5.10533 15.3102L2.22995 12.9709L1.86087 13.4246ZM7.66738 7.55051L11.1276 3.89536L10.7029 3.49331L7.24268 7.14846L7.66738 7.55051ZM13.3899 22.2303L10.5633 19.9397L10.1951 20.3941L13.0217 22.6846L13.3899 22.2303Z" fill="white"/>
<path d="M12.9629 26.2599L20.2732 13.7837L27.1936 26.2599M15.2047 26.2599L17.7877 21.825M20.7118 17.78L25.2442 26.1625M18.8599 21.825H21.2479" stroke="white" stroke-width="0.584824" stroke-linecap="round" stroke-linejoin="round"/>
<path d="M20.2722 13.7828H16.6414H13.0107M12.036 4.32812L3.99463 13.1005L14.1316 21.5317M14.1316 18.5588L7.35737 13.1005L14.229 5.30283" stroke="white" stroke-width="0.584824" stroke-linecap="round" stroke-linejoin="round"/>
</svg>
