<svg width="49" height="49" viewBox="0 0 49 49" fill="none" xmlns="http://www.w3.org/2000/svg">
<rect y="0.215332" width="48.7013" height="48.7013" rx="2.50979" fill="white"/>
<path d="M19.5618 19.8373C19.2928 19.8373 19.0748 20.0554 19.0748 20.3244C19.0748 20.5933 19.2928 20.8114 19.5618 20.8114V19.8373ZM26.38 20.8114C26.6489 20.8114 26.867 20.5933 26.867 20.3244C26.867 20.0554 26.6489 19.8373 26.38 19.8373V20.8114ZM26.867 23.7543C26.598 23.7543 26.38 23.9724 26.38 24.2414C26.38 24.5103 26.598 24.7284 26.867 24.7284V23.7543ZM30.5196 24.2414L30.931 24.5019L31.4045 23.7543H30.5196V24.2414ZM27.0237 28.8509C26.8798 29.0781 26.9473 29.379 27.1746 29.5229C27.4018 29.6668 27.7027 29.5993 27.8466 29.3721L27.0237 28.8509ZM7.98076 17.5175C8.16733 17.3237 8.16152 17.0154 7.96777 16.8289C7.77403 16.6423 7.46572 16.6481 7.27915 16.8419L7.98076 17.5175ZM3.40918 21.5628L3.05837 21.225C2.96388 21.3231 2.9148 21.4563 2.92306 21.5923C2.93132 21.7283 2.99616 21.8546 3.10183 21.9406L3.40918 21.5628ZM7.89079 25.8367C8.09944 26.0064 8.40618 25.9749 8.57592 25.7662C8.74567 25.5576 8.71413 25.2508 8.50549 25.0811L7.89079 25.8367ZM12.0652 11.4877C11.8803 11.683 11.8888 11.9913 12.0841 12.1762C12.2794 12.3611 12.5877 12.3527 12.7726 12.1573L12.0652 11.4877ZM18.5356 6.06967C18.7205 5.87435 18.712 5.5661 18.5167 5.38119C18.3214 5.19628 18.0131 5.20473 17.8282 5.40005L18.5356 6.06967ZM17.5957 32.7915C17.3867 32.6222 17.08 32.6543 16.9107 32.8633C16.7413 33.0723 16.7735 33.379 16.9824 33.5483L17.5957 32.7915ZM21.6902 37.3632C21.8992 37.5326 22.2059 37.5004 22.3752 37.2915C22.5446 37.0825 22.5124 36.7758 22.3035 36.6065L21.6902 37.3632ZM19.5618 20.8114H26.38V19.8373H19.5618V20.8114ZM26.867 24.7284H30.5196V23.7543H26.867V24.7284ZM30.1081 23.9808L27.0237 28.8509L27.8466 29.3721L30.931 24.5019L30.1081 23.9808ZM7.27915 16.8419L3.05837 21.225L3.75998 21.9006L7.98076 17.5175L7.27915 16.8419ZM3.10183 21.9406L7.89079 25.8367L8.50549 25.0811L3.71653 21.185L3.10183 21.9406ZM12.7726 12.1573L18.5356 6.06967L17.8282 5.40005L12.0652 11.4877L12.7726 12.1573ZM22.3035 36.6065L17.5957 32.7915L16.9824 33.5483L21.6902 37.3632L22.3035 36.6065Z" fill="#A020F0"/>
<path d="M21.5908 43.3161L33.7661 22.5369L45.2921 43.3161M25.3246 43.3161L29.6265 35.9297M34.4967 29.1927L42.0454 43.1537M31.4122 35.9297H35.3895" stroke="#A020F0" stroke-width="0.974026" stroke-linecap="round" stroke-linejoin="round"/>
<path d="M33.7661 22.5368H27.719H21.672M20.0486 6.79004L6.65576 21.4004L23.5389 35.4426M23.5389 30.4913L12.2564 21.4004L23.7012 8.41342" stroke="#A020F0" stroke-width="0.974026" stroke-linecap="round" stroke-linejoin="round"/>
</svg>
