<svg width="56" height="56" viewBox="0 0 56 56" fill="none" xmlns="http://www.w3.org/2000/svg">
<rect width="56" height="56" rx="4" fill="#A020F0"/>
<rect x="0.5" y="0.5" width="55" height="55" rx="3.5" stroke="#A020F0" stroke-opacity="0.1"/>
<g clip-path="url(#clip0_415_3933)">
<path d="M36.0007 14.6666C36.7079 14.6666 37.3862 14.9476 37.8863 15.4477C38.3864 15.9478 38.6673 16.626 38.6673 17.3333V38.6666C38.6673 39.3739 38.3864 40.0521 37.8863 40.5522C37.3862 41.0523 36.7079 41.3333 36.0007 41.3333H20.0007C19.2934 41.3333 18.6151 41.0523 18.115 40.5522C17.6149 40.0521 17.334 39.3739 17.334 38.6666V17.3333C17.334 16.626 17.6149 15.9478 18.115 15.4477C18.6151 14.9476 19.2934 14.6666 20.0007 14.6666H36.0007ZM28.0007 29.3333H24.0007C23.647 29.3333 23.3079 29.4738 23.0578 29.7238C22.8078 29.9739 22.6673 30.313 22.6673 30.6666C22.6673 31.0202 22.8078 31.3594 23.0578 31.6094C23.3079 31.8595 23.647 32 24.0007 32H28.0007C28.3543 32 28.6934 31.8595 28.9435 31.6094C29.1935 31.3594 29.334 31.0202 29.334 30.6666C29.334 30.313 29.1935 29.9739 28.9435 29.7238C28.6934 29.4738 28.3543 29.3333 28.0007 29.3333ZM32.0007 22.6666H24.0007C23.6608 22.667 23.3339 22.7971 23.0868 23.0304C22.8397 23.2637 22.691 23.5826 22.6711 23.9218C22.6512 24.2611 22.7615 24.5951 22.9797 24.8557C23.1978 25.1163 23.5072 25.2838 23.8447 25.324L24.0007 25.3333H32.0007C32.3405 25.3329 32.6674 25.2028 32.9145 24.9695C33.1616 24.7362 33.3103 24.4174 33.3302 24.0781C33.3501 23.7388 33.2398 23.4048 33.0216 23.1442C32.8035 22.8836 32.4941 22.7161 32.1566 22.676L32.0007 22.6666Z" fill="white"/>
</g>
<defs>
<clipPath id="clip0_415_3933">
<rect width="32" height="32" fill="white" transform="translate(12 12)"/>
</clipPath>
</defs>
</svg>
