<svg width="16" height="12" viewBox="0 0 16 12" fill="none" xmlns="http://www.w3.org/2000/svg">
<path fill-rule="evenodd" clip-rule="evenodd" d="M9.22468 0.558271C9.34186 0.441229 9.50072 0.375488 9.66634 0.375488C9.83197 0.375488 9.99082 0.441229 10.108 0.558271L15.108 5.55827C15.2251 5.67546 15.2908 5.83431 15.2908 5.99994C15.2908 6.16556 15.2251 6.32442 15.108 6.4416L10.108 11.4416C10.0508 11.503 9.98179 11.5523 9.90512 11.5864C9.82846 11.6206 9.7457 11.6389 9.66178 11.6404C9.57786 11.6419 9.4945 11.6265 9.41668 11.595C9.33885 11.5636 9.26816 11.5168 9.20881 11.4575C9.14946 11.3981 9.10267 11.3274 9.07124 11.2496C9.03981 11.1718 9.02437 11.0884 9.02585 11.0045C9.02733 10.9206 9.0457 10.8378 9.07986 10.7612C9.11402 10.6845 9.16327 10.6155 9.22468 10.5583L13.158 6.62494H1.33301C1.16725 6.62494 1.00828 6.55909 0.891066 6.44188C0.773856 6.32467 0.708008 6.1657 0.708008 5.99994C0.708008 5.83418 0.773856 5.67521 0.891066 5.558C1.00828 5.44079 1.16725 5.37494 1.33301 5.37494H13.158L9.22468 1.44161C9.10763 1.32442 9.04189 1.16556 9.04189 0.999938C9.04189 0.834313 9.10763 0.675459 9.22468 0.558271Z" fill="#222222"/>
</svg>
