<svg width="24" height="24" viewBox="0 0 24 24" fill="none" xmlns="http://www.w3.org/2000/svg">
<path fill-rule="evenodd" clip-rule="evenodd" d="M2.34499 2.24507C2.49426 2.1154 2.67861 2.03289 2.87476 2.00797C3.07091 1.98306 3.27004 2.01684 3.44699 2.10507L21.447 11.1051C21.6134 11.188 21.7534 11.3157 21.8512 11.4738C21.9491 11.6319 22.0009 11.8141 22.0009 12.0001C22.0009 12.186 21.9491 12.3682 21.8512 12.5263C21.7534 12.6844 21.6134 12.8121 21.447 12.8951L3.44699 21.8951C3.27005 21.9836 3.07083 22.0177 2.87453 21.9929C2.67823 21.9682 2.49368 21.8858 2.34423 21.7562C2.19478 21.6265 2.08714 21.4554 2.03494 21.2646C1.98274 21.0738 1.98833 20.8717 2.05099 20.6841L4.61299 13.0001H9.99999C10.2652 13.0001 10.5196 12.8947 10.7071 12.7072C10.8946 12.5196 11 12.2653 11 12.0001C11 11.7348 10.8946 11.4805 10.7071 11.293C10.5196 11.1054 10.2652 11.0001 9.99999 11.0001H4.61299L2.04999 3.31607C1.98765 3.12848 1.98231 2.92662 2.03464 2.736C2.08696 2.54538 2.19561 2.37454 2.34499 2.24507Z" fill="#A020F0"/>
</svg>
