<svg width="1440" height="460" viewBox="0 0 1440 460" fill="none" xmlns="http://www.w3.org/2000/svg">
<g clip-path="url(#clip0_1071_296)">
<path d="M902.28 751.969C909.599 731.38 916.488 710.627 918.19 688.673C919.658 669.6 915.824 651.577 905.555 635.164C901.3 628.375 896.125 622.414 890.018 617.223C870.727 600.787 848.278 590.918 823.941 584.689C799.242 578.366 774.065 575.065 748.854 571.822C719.866 568.089 690.878 564.275 662.671 556.191C646.096 551.443 630.209 545.132 615.639 535.776C605.033 528.964 595.778 520.705 587.957 510.766C576.044 495.636 571.464 478.348 572.093 459.38C572.664 442.092 577.641 426.029 585.392 410.736C596.827 388.164 612.422 368.986 632.61 353.693C665.165 329.033 701.333 312.468 741.79 305.912C758.493 303.206 775.336 301.946 791.934 306.309C797.983 307.895 804.033 310.427 809.313 313.763C821.062 321.182 825.095 333.372 821.12 346.717C817.262 359.654 809.149 369.698 799.324 378.563C798.065 379.695 796.853 380.931 795.431 381.818C794.568 382.355 793.204 382.728 792.353 382.413C791.712 382.18 791.048 380.64 791.199 379.823C791.945 375.787 792.656 371.704 793.95 367.831C796.27 360.914 799.417 354.253 801.48 347.266C805.268 334.375 802.086 328.916 789.16 324.927C780.534 322.267 771.641 321.824 762.736 322.36C710.296 325.521 665.515 346.356 627.843 382.401C610.522 398.966 598.214 419.112 591.978 442.559C589.134 453.245 588.691 464.093 590.311 475.024C591.698 484.391 595.743 492.545 601.373 500.034C612.189 514.417 626.281 524.706 642.261 532.568C662.589 542.577 684.304 548.34 706.485 552.061C734.354 556.75 762.386 560.53 790.325 564.823C813.928 568.451 837.182 573.502 859.328 582.717C873.501 588.608 886.509 596.529 898.433 606.176C918.866 622.706 929.006 644.637 931.582 670.429C933.529 689.933 929.799 708.854 925.533 727.705C923.901 734.926 921.791 742.053 919.915 749.227C919.682 750.126 919.6 751.071 919.449 751.992C913.726 751.969 908.003 751.969 902.28 751.969Z" fill="white" fill-opacity="0.15"/>
<path d="M-30 451.191C-27.8087 449.931 -25.5591 448.777 -23.4378 447.412C-2.04933 433.705 19.3624 420.045 40.6576 406.198C50.7399 399.642 59.2137 391.197 67.466 382.46C80.1009 369.08 87.0128 353.215 89.3207 335.134C89.5771 333.151 89.9268 331.132 90.5912 329.254C91.9782 325.346 94.7057 322.838 98.995 322.558C103.249 322.278 106.769 324.168 108.226 327.983C109.742 331.961 110.919 336.37 110.837 340.57C110.721 346.321 109.742 352.177 108.308 357.764C104.998 370.643 98.9717 382.261 90.5212 392.573C80.8119 404.425 70.1352 415.286 57.4304 423.941C44.0495 433.063 30.587 442.069 17.0662 450.993C1.43577 461.317 -14.3113 471.489 -30 481.719C-30 471.547 -30 461.363 -30 451.191Z" fill="white" fill-opacity="0.15"/>
<path d="M-30 231.173C-21.7127 229.131 -13.507 226.483 -5.0915 225.258C0.410051 224.465 6.37783 225.013 11.8561 226.227C26.0762 229.388 33.2795 240.925 30.7851 255.273C29.5496 262.389 26.6706 268.84 22.7543 274.801C9.51325 294.958 -8.5999 309.505 -30 320.202C-30 313.844 -30 307.487 -30 301.129C-29.6969 301.094 -29.3356 301.153 -29.0908 301.013C-13.0408 291.914 1.15602 280.668 11.1684 264.92C13.6044 261.082 15.2712 256.533 16.3669 252.088C17.7306 246.547 15.0731 242.628 9.45497 241.601C5.56192 240.89 1.43576 240.82 -2.51556 241.181C-12.2249 242.068 -21.1299 245.848 -30 249.615C-30 243.468 -30 237.32 -30 231.173Z" fill="white" fill-opacity="0.15"/>
<path d="M265.778 58.0949C265.778 56.5785 265.79 55.3536 265.778 54.1171C265.696 48.5061 265.358 42.8834 265.568 37.2724C265.778 31.5798 269.415 27.5669 274.415 26.7153C279.357 25.8754 284.357 28.5002 286.257 33.7495C287.644 37.5757 288.402 41.7286 288.833 45.7997C290.617 62.7377 288.647 79.4424 284.975 95.9721C284.322 98.9117 282.982 101.793 281.478 104.441C279.637 107.696 276.653 109.574 272.737 109.014C268.855 108.454 266.046 105.888 265.615 102.248C264.916 96.2054 264.752 90.0344 265.137 83.9568C265.358 80.5039 264.647 78.9058 261.372 77.6809C247.385 72.4549 233.037 69.6202 218.106 70.8684C196.053 72.7115 178.697 83.0236 166.167 101.186C155.001 117.366 160.503 136.847 178.429 145.27C187.94 149.737 198.139 151.067 208.501 150.601C240.45 149.154 269.298 138.714 294.521 119.139C310.909 106.424 324.197 90.956 330.456 70.6001C334.606 57.1034 336.774 43.2684 334.116 29.2C331.004 12.647 322.775 -0.733044 308.508 -10.1469C288.822 -23.142 267.631 -27.6448 244.588 -21.6605C237.839 -19.8991 231.137 -17.881 224.516 -15.6646C222.348 -14.9413 220.612 -13.0282 218.502 -12.025C217.092 -11.3601 215.25 -10.8585 213.816 -11.1851C210.121 -12.025 207.942 -16.2245 209.142 -19.9924C209.702 -21.7655 210.681 -23.527 211.893 -24.9268C213.467 -26.7466 215.262 -28.5664 217.325 -29.7446C243.912 -44.9444 271.431 -51.372 301.06 -38.6335C324.244 -28.6597 341.984 -13.3898 350.982 10.8856C357.533 28.5585 356.67 46.3713 352.94 64.4292C347.136 92.4842 331.132 114.1 309.697 131.854C280.453 156.072 246.371 169.02 208.676 172.438C196.624 173.534 184.7 172.286 173.429 167.597C153.474 159.303 141.912 144.208 138.73 122.907C137.308 113.4 139.767 104.383 143.986 95.8438C160.001 63.4959 194.666 44.6799 230.461 48.856C241.989 50.1975 253.236 52.5773 263.832 57.5117C264.309 57.745 264.834 57.8266 265.778 58.0949Z" fill="white" fill-opacity="0.15"/>
<path d="M1270.36 273.506C1264.4 275.547 1259.16 277.472 1253.82 279.129C1247.05 281.217 1240.23 283.165 1233.39 284.996C1229.19 286.116 1225.78 284.541 1224.66 281.322C1223.47 277.892 1225.2 274.392 1229.4 272.864C1244.81 267.23 1260.26 261.724 1275.73 256.253C1277.6 255.588 1279.65 255.238 1281.64 255.156C1288.15 254.911 1291.78 260.522 1288.98 266.367C1281.34 282.29 1278.17 299.508 1274.53 316.586C1274.47 316.866 1274.58 317.181 1274.66 317.986C1286.32 312.958 1299.24 312.188 1310.64 305.084C1307.04 302.576 1303.69 300.383 1300.5 297.98C1298.06 296.148 1295.38 294.398 1293.57 292.03C1288.54 285.486 1292.09 277.11 1300.28 276.177C1314.78 274.509 1328.87 271.383 1342.29 265.492C1343.73 264.862 1345.28 264.454 1346.82 264.057C1353.42 262.401 1358.17 265.888 1357.77 272.759C1357.4 278.755 1356.25 284.728 1355.08 290.642C1351.68 307.988 1348.1 325.3 1344.41 343.591C1356.46 340.266 1367.87 337.117 1379.35 333.955C1375.58 325.381 1372.01 317.274 1368.44 309.178C1367.93 308.012 1367.34 306.869 1366.96 305.667C1365.35 300.558 1367.88 296.09 1373.16 295.25C1381.73 293.873 1390.36 292.847 1398.95 291.564C1402.61 291.015 1406.22 290.152 1409.86 289.464C1414.68 288.542 1418.06 290.479 1419.1 295.297C1419.68 298.038 1419.88 301.024 1419.48 303.789C1416.34 325.486 1413 347.16 1409.7 368.846C1409.11 372.707 1408.35 376.545 1407.69 380.395C1407.03 384.244 1404.47 386.787 1399.85 387.604C1393.19 388.794 1386.43 389.505 1379.8 390.87C1359.06 395.116 1338.34 399.479 1317.66 404.017C1313.67 404.892 1309.88 406.723 1306.04 408.193C1304.27 408.87 1302.6 409.861 1300.82 410.515C1292.57 413.559 1285.99 410.001 1284.65 401.287C1282.88 389.715 1282.59 378.073 1285.23 366.536C1285.51 365.312 1285.78 364.087 1286.2 362.185C1281.86 362.745 1277.9 363.084 1274.04 363.9C1273.31 364.052 1272.71 366.047 1272.48 367.271C1268.33 389.447 1264.36 411.669 1260.06 433.81C1259.01 439.176 1257.13 444.426 1255.15 449.535C1254.19 452.008 1252.4 454.353 1250.45 456.196C1247.07 459.404 1242.31 458.61 1240.44 454.329C1239.26 451.646 1238.59 448.31 1238.97 445.452C1240.16 436.75 1241.98 428.141 1243.53 419.485C1247.15 399.258 1250.91 379.042 1254.32 358.779C1255.42 352.293 1258.8 348.385 1264.78 346.064C1272.97 342.879 1281.41 343.393 1289.87 343.918C1292.61 344.093 1295.35 344.524 1298.03 345.142C1304.46 346.624 1307.2 351.453 1305.49 357.857C1304.39 361.952 1303.24 366.035 1302.41 370.176C1301.17 376.382 1301.64 382.576 1302.9 388.677C1303.3 388.771 1303.54 388.91 1303.71 388.84C1319.32 382.366 1336.05 381.666 1352.49 379.322C1365.9 377.409 1379.26 375.157 1392.62 372.859C1393.65 372.684 1395.05 371.156 1395.25 370.059C1396.44 363.503 1397.34 356.889 1398.3 350.287C1400.48 335.402 1402.65 320.517 1404.82 305.632C1404.96 304.699 1405.02 303.766 1405.19 302.097C1397.38 303.766 1389.95 305.364 1382.27 307.009C1382.65 308.56 1382.79 309.61 1383.15 310.566C1385.98 317.974 1388.79 325.381 1391.77 332.73C1393.11 336.067 1392.13 339.041 1388.58 340.476C1384.76 342.028 1380.86 343.369 1376.97 344.781C1365.74 348.864 1354.49 352.911 1343.27 357.006C1339.21 358.487 1335.11 360.004 1331.23 356.843C1327.22 353.576 1327.9 349.167 1328.78 344.804C1332.89 324.355 1337.01 303.894 1341.1 283.445C1341.3 282.441 1341.4 281.427 1341.6 280.085C1333.81 282.768 1326.46 285.311 1318.78 287.959C1320.51 289.919 1322.26 291.599 1323.66 293.535C1325.76 296.44 1328.04 299.321 1329.48 302.552C1331.59 307.3 1329.54 311.861 1324.73 313.716C1313.5 318.079 1302.18 322.243 1290.91 326.536C1285.97 328.414 1281.02 330.304 1276.16 332.392C1266.58 336.533 1259.24 331.541 1260.92 321.252C1263.26 306.845 1266.47 292.567 1269.32 278.242C1269.54 276.924 1269.88 275.606 1270.36 273.506Z" fill="white" fill-opacity="0.15"/>
<path d="M376.52 108.536C379.574 106.681 382.838 105.106 385.623 102.913C391.113 98.5851 396.347 93.9539 401.65 89.3928C408.749 83.2919 416.185 77.7042 425.055 74.3796C429.671 72.6415 434.321 72.0816 438.926 74.3913C444.194 77.0393 446.7 81.6821 447.924 87.1764C449.649 94.8755 448.285 102.446 446.269 109.795C442.317 124.19 437.772 138.422 433.68 152.782C429.694 166.78 427.083 181.07 426.162 195.593C425.848 200.61 426.186 205.777 427.048 210.735C428.156 217.139 431.99 221.63 438.506 223.438C439.427 223.695 440.266 224.22 441.094 225.06C437.9 227.125 434.508 227.813 430.953 227.218C424.367 226.133 419.88 222.132 416.943 216.358C412.735 208.075 411.021 199.14 410.975 189.924C410.905 173.009 414.215 156.643 419.542 140.662C422.794 130.921 426.477 121.309 429.613 111.534C431.256 106.412 432.177 101.07 433.389 95.8087C433.576 94.9922 433.587 94.1173 433.587 93.2774C433.552 88.0397 432.375 87.0598 427.969 89.7311C421.57 93.6157 415.427 97.9668 409.366 102.365C403.457 106.657 398.025 111.615 391.941 115.616C388.036 118.183 383.49 120.084 378.968 121.309C371.811 123.245 366.263 119.781 363.897 112.7C361.706 106.144 362.323 99.5066 363.71 92.9157C366.496 79.6173 372.732 67.8354 380.238 56.7184C386.218 47.8528 393.002 39.5238 398.853 30.5766C407.35 17.6048 409.238 3.06982 407.327 -12.0717C406.86 -15.7463 405.403 -18.6859 401.767 -20.6807C397.291 -23.1304 395.834 -27.5515 397.373 -31.4477C398.934 -35.4256 403.142 -37.327 408.271 -36.3588C408.795 -36.2655 409.32 -36.1721 409.821 -35.9972C440.196 -25.3118 466.608 -9.45869 482.553 19.9728C487.775 29.62 491.54 39.8388 494.302 50.4425C494.489 51.1424 494.722 51.8307 495.27 53.6505C496.051 52.3556 496.4 51.609 496.902 50.9908C509.653 35.5343 524.829 23.2741 543.455 15.5517C572.595 3.46645 601.722 -8.64211 630.862 -20.7157C641.084 -24.9502 651.166 -29.4063 658.848 -37.747C661.202 -40.3017 663.382 -43.0897 665.177 -46.0526C667.415 -49.7505 666.692 -52.6785 662.741 -54.4166C659.337 -55.9215 655.479 -57.1113 651.819 -57.123C641.935 -57.1463 632.202 -55.8865 623.169 -51.2553C621.887 -50.5904 619.463 -50.4038 618.577 -51.1737C617.633 -51.9903 617.19 -54.51 617.749 -55.7231C618.705 -57.8229 620.244 -60.2376 622.178 -61.2058C635.326 -67.715 649.045 -70.8413 663.592 -66.4202C665.876 -65.7203 668.091 -64.4954 670.061 -63.1189C677.497 -57.9279 679.991 -49.8439 675.515 -41.9698C672.275 -36.2655 667.881 -31.0628 663.3 -26.3033C656.691 -19.4208 648.346 -14.8364 639.639 -11.1035C616.677 -1.25799 593.622 8.36586 570.636 18.1647C561.487 22.0726 552.29 25.9104 543.373 30.3316C524.398 39.7338 509.338 53.5455 498.65 71.9066C496.983 74.7763 496.167 78.1592 494.99 81.3088C494.221 83.3852 493.766 85.6249 492.706 87.5264C490.911 90.7577 487.449 92.1458 484.045 91.4109C480.642 90.6877 478.007 88.0163 477.669 84.3651C477.46 82.0787 477.669 79.699 478.042 77.4243C479.348 69.5385 478.823 61.8628 476.364 54.2104C469.988 34.3094 459.673 16.9282 443.798 3.15149C439.846 -0.278107 435.417 -3.14777 431.093 -6.35572C424.869 16.3449 411.464 34.2511 398.422 52.3439C388.829 65.654 380.227 79.4774 376.485 95.7038C375.576 99.6233 375.529 103.741 375.098 107.766C375.576 108.069 376.054 108.302 376.52 108.536Z" fill="white" fill-opacity="0.15"/>
<path d="M376.474 361.87C384.761 358.861 393.095 356.481 399.995 351.255C402.338 349.482 404.109 346.391 405.124 343.533C406.953 338.353 406.487 332.917 405.24 327.738C403.771 327.551 402.454 327.598 401.324 327.19C398.526 326.175 396.591 324.203 396.556 321.1C396.522 318.102 398.386 316.248 401.056 315.174C406.709 312.9 412.77 315.571 415.614 321.87C418.959 329.266 419.169 337.058 417.84 344.933C416.301 354.078 411.523 361.322 403.329 365.452C394.004 370.153 384.376 374.364 374.574 377.945C360.062 383.253 345.119 387.371 330.678 392.842C320.024 396.878 309.697 401.906 299.557 407.132C290.29 411.903 282.842 419.054 277.236 427.908C270.044 439.258 273.622 447.202 286.887 449.512C293.111 450.597 298.787 449.465 303.018 444.437C303.893 443.399 304.254 441.311 303.893 439.958C302.715 435.513 303.263 432.434 306.142 430.567C308.998 428.712 313.054 429.214 316.155 431.815C320.968 435.863 322.029 442.361 318.334 448.193C310.56 460.465 299.382 466.461 284.8 464.921C280.243 464.443 275.581 463.172 271.408 461.282C258.202 455.298 252.607 440.879 258.062 427.464C263.051 415.181 272.002 406.035 282.504 398.406C296.957 387.907 313.136 380.827 330.118 375.565C340.329 372.404 350.609 369.476 360.855 366.432C362.044 366.082 363.221 365.673 364.351 365.3C359.421 352.27 360.307 338.575 357.917 324.938C356.146 325.941 354.677 326.7 353.278 327.563C348.604 330.468 344.07 333.617 339.268 336.289C330.083 341.41 320.304 342.693 310.094 340.01C295.675 336.207 290.92 323.643 299.23 311.232C304.172 303.847 311.014 298.528 318.544 294.049C330.701 286.816 344.059 282.722 357.719 279.584C373.536 275.944 389.528 273.436 405.753 272.631C417.758 272.036 429.659 272.969 441.42 275.536C442.329 275.734 443.238 275.874 444.485 276.096C444.73 270.286 444.928 264.71 445.22 259.134C445.383 255.856 445.453 252.555 446.001 249.336C446.851 244.413 450.523 241.357 454.929 241.415C459.416 241.485 462.995 244.868 463.787 249.861C464.009 251.214 464.23 252.602 464.195 253.967C463.706 275.349 463.298 296.743 462.494 318.114C462.377 321.159 460.675 324.39 458.973 327.073C457.248 329.803 454.195 330.923 450.873 330.199C447.527 329.476 445.523 327.201 444.777 323.97C444.252 321.719 443.984 319.362 443.949 317.052C443.867 309.318 443.844 301.584 444.042 293.85C444.112 291.261 443.343 290.491 440.767 290.222C417.898 287.784 395.496 290.736 373.431 296.463C362.288 299.356 351.32 303.042 340.504 306.974C332.216 309.983 324.803 314.813 318.066 320.599C316.971 321.544 315.642 322.209 314.698 323.363C319.966 326.14 324.768 326.198 329.361 324.145C333.394 322.337 337.158 319.922 341.051 317.787C345.784 315.209 350.341 312.211 355.307 310.182C363.326 306.892 369.387 310.03 370.902 318.581C372.394 327.003 372.814 335.612 373.734 344.128C374.259 348.957 374.807 353.798 375.424 358.616C375.541 359.631 376.042 360.587 376.474 361.87Z" fill="white" fill-opacity="0.15"/>
<path d="M1125.02 111.067C1117.84 114.602 1111.34 114.881 1104.74 113.19C1089.88 109.364 1080.46 97.1969 1080.19 81.1455C1079.91 64.2658 1086.34 49.9876 1097.96 37.9373C1104.33 31.3231 1111.77 26.1087 1119.79 21.6643C1120.98 21.011 1122.22 19.4946 1122.45 18.2114C1125.09 2.54491 1127.74 -13.1216 1129.99 -28.8347C1131.25 -37.6303 1131.85 -46.5192 1132.62 -55.3849C1132.77 -57.1113 1132.33 -58.8844 1132.09 -61.5324C1128.4 -59.911 1125.02 -58.9194 1122.17 -57.088C1111.56 -50.3104 1101.15 -43.2063 1090.61 -36.3238C1082.75 -31.1794 1074.87 -26.0467 1066.82 -21.1706C1064.34 -19.6658 1061.39 -18.7676 1058.54 -18.0676C1050.51 -16.1079 1044.1 -19.2925 1041.36 -27.1316C1039.55 -32.2876 1038.9 -37.8286 1037.51 -43.148C1037 -45.1077 1036.15 -47.0792 1034.99 -48.724C1033.36 -51.0454 1032.68 -53.2384 1034.28 -55.7465C1035.75 -58.0562 1039.04 -59.2927 1041.55 -57.7412C1043.87 -56.3181 1046.21 -54.23 1047.42 -51.8736C1049.22 -48.3507 1050.09 -44.3262 1051.3 -40.5C1051.91 -38.5868 1052.43 -36.6388 1052.9 -34.679C1053.51 -32.0776 1054.99 -31.2961 1057.28 -32.6492C1064.47 -36.8837 1071.77 -40.9432 1078.73 -45.5277C1090.47 -53.2618 1101.83 -61.6258 1113.72 -69.1499C1118.54 -72.2062 1124.14 -74.4926 1129.7 -75.8574C1138.94 -78.1438 1145.72 -73.2794 1147.63 -63.9588C1149.39 -55.4082 1148.5 -46.8109 1147.27 -38.3302C1144.97 -22.2905 1142.24 -6.32069 1139.7 9.68406C1139.52 10.8039 1139.43 11.9471 1139.27 13.4403C1143.4 12.5071 1147.17 11.5738 1150.96 10.8389C1161.85 8.71583 1172.8 8.21421 1183.78 10.314C1196.36 12.7287 1206.97 18.783 1215.83 27.9402C1231.47 44.1199 1229.78 67.6954 1211.9 81.3321C1202.78 88.2963 1192.58 93.3474 1181.18 95.1088C1156.5 98.9234 1129.31 84.7151 1123.5 55.3653C1123.3 54.3504 1123.04 53.3588 1122.69 51.854C1114.47 59.5414 1108.34 67.9754 1105.22 78.3925C1101.33 91.3876 1102.89 96.2637 1113.68 104.348C1116.04 106.109 1118.73 107.427 1121.27 108.932C1122.22 109.48 1123.19 110.017 1125.02 111.067ZM1174.38 28.2785C1163.37 28.4185 1153.01 31.6148 1143.24 36.7591C1136.04 40.5504 1137.44 39.2439 1138.2 46.4297C1139.16 55.4236 1141.52 63.9042 1148.39 70.4718C1166.66 87.9464 1191.6 83.3852 1206.83 67.3805C1213.68 60.1947 1213.01 49.3693 1205.96 42.0318C1197.4 33.1779 1186.93 28.4535 1174.38 28.2785Z" fill="white" fill-opacity="0.15"/>
<path d="M1230.96 336.242C1230.44 343.929 1229.72 352.387 1229.33 360.844C1229.09 366.233 1229.14 371.658 1229.45 377.035C1229.92 385.423 1227.31 390.205 1219.11 392.025C1210.37 393.962 1201.38 394.941 1192.45 395.933C1160.2 399.514 1127.7 398.453 1095.38 400.506C1066.75 402.326 1038.21 405.242 1009.62 407.703C1002.34 408.333 995.083 409.255 987.798 409.71C983.812 409.955 979.721 409.885 975.793 409.243C966.631 407.727 962.96 400.681 966.969 392.34C970.828 384.326 975.129 376.534 979.173 368.613C980.805 365.405 982.507 362.197 983.742 358.826C984.663 356.318 985.281 353.553 985.339 350.893C985.502 343.626 988.148 339.088 995.246 337.758C1009.58 335.075 1024 332.462 1038.5 331.039C1064.95 328.426 1091.54 327.225 1117.95 324.437C1139.2 322.197 1160.28 318.441 1181.46 315.443C1190.05 314.229 1198.68 313.191 1207.3 312.2C1223.82 310.298 1230.92 316.632 1230.97 333.244C1230.96 333.99 1230.96 334.725 1230.96 336.242ZM1212.58 375.612C1211.78 361.567 1210.9 348.152 1210.3 334.725C1210.17 331.751 1209.29 330.561 1206.29 330.666C1196.24 331.016 1186.15 330.747 1176.14 331.587C1142.39 334.422 1108.66 337.478 1074.95 340.745C1051.99 342.973 1029.07 345.726 1006.12 348.175C1003.93 348.409 1002.9 348.992 1002.53 351.488C1002.01 355.011 1001.04 358.581 999.606 361.835C996.086 369.884 992.193 377.758 988.463 385.714C987.938 386.834 987.425 387.954 986.726 389.494C988.603 389.354 989.955 389.249 991.307 389.144C1006.49 387.954 1021.68 386.554 1036.88 385.633C1065.81 383.859 1094.85 385.434 1123.79 382.611C1146.63 380.383 1169.61 379.508 1192.51 377.875C1199.25 377.397 1205.94 376.382 1212.58 375.612Z" fill="white" fill-opacity="0.15"/>
<path d="M1032.34 34.2046C1035.03 32.8164 1037.6 31.9648 1039.57 30.3783C1043.42 27.2637 1047.07 23.8691 1050.54 20.3346C1054.33 16.4967 1057.54 12.0289 1061.57 8.49429C1064.51 5.92793 1068.21 4.01482 1071.88 2.59166C1075.02 1.37847 1078.18 2.63832 1080.49 5.23968C1082.72 7.77105 1083.53 11.0373 1081.9 13.8253C1078.47 19.728 1078.06 26.3305 1076.83 32.6997C1071 62.8428 1068.11 93.2892 1067.57 123.98C1067.29 139.857 1070.26 154.94 1077.99 168.962C1080.08 172.753 1081.71 176.778 1081.41 181.992C1079.58 181.362 1077.92 181.094 1076.62 180.265C1074.76 179.087 1072.96 177.676 1071.5 176.031C1059.67 162.628 1052.3 147.288 1050.83 129.218C1049.26 109.866 1051.02 90.6762 1053.2 71.5101C1054.52 59.8448 1056.46 48.2495 1058.2 36.1293C1057.21 36.9809 1056.39 37.6691 1055.6 38.3807C1049.94 43.4551 1043.7 47.5963 1036.29 49.6494C1027.54 52.0641 1020.99 49.0311 1017.43 40.6788C1015.56 36.3043 1014.29 31.6849 1012.67 27.2054C1011.21 23.1575 1010.01 22.6326 1006.41 24.954C1003.85 26.5988 1001.58 28.7102 999.233 30.6817C993.801 35.2428 988.568 40.0489 982.938 44.3534C979.861 46.6981 976.306 48.5995 972.704 50.0227C961.386 54.5138 950.744 49.2527 947.656 37.4708C946.35 32.4897 946.339 27.1937 945.406 22.096C944.579 17.5349 943.599 12.9621 942.107 8.58763C940.965 5.22803 939.916 5.21635 936.897 7.25777C931.139 11.154 927.946 16.7067 926.477 23.3909C924.484 32.4664 925.02 41.542 926.803 50.5359C928.097 57.0452 929.321 63.5661 932.631 69.5737C935.534 74.858 931.85 80.7373 925.556 81.6939C920.381 82.4754 915.858 80.7023 912.921 76.6078C909.436 71.7434 905.928 66.634 903.83 61.093C897.92 45.5082 897.279 29.4101 901.743 13.312C905.52 -0.301325 913.434 -10.8584 926.314 -17.146C939.718 -23.6902 952.504 -19.829 960.36 -7.16049C965.862 1.70512 967.086 11.6789 967.855 21.7694C968.042 24.2657 968.216 26.7505 968.461 30.0867C971.061 28.1386 973.217 26.8204 975.023 25.129C979.196 21.2211 982.938 16.8233 987.332 13.1954C991.528 9.7308 995.969 6.14957 1000.92 4.10815C1012.86 -0.826262 1024.84 5.2047 1028.68 17.5232C1029.9 21.4428 1030.41 25.5839 1031.26 29.6318C1031.53 30.9383 1031.87 32.2448 1032.34 34.2046Z" fill="white" fill-opacity="0.15"/>
<path d="M896.219 227.498C895.228 230.239 894.47 232.899 893.34 235.395C887.768 247.656 875.903 253.978 864.282 250.945C857.778 249.242 853.092 245.101 849.549 239.572C844.84 232.234 842.264 224.092 840.69 215.576C840.539 214.771 840.364 213.978 840.108 212.753C838.872 213.511 837.94 214.13 836.961 214.666C830.83 217.991 824.932 221.934 818.498 224.488C793.438 234.427 769.846 221.024 765.033 194.474C762.888 182.657 764.391 171.271 769.112 160.271C773.868 149.201 780.745 139.624 789.498 131.4C801.27 120.341 814.243 110.822 827.764 102.026C831.692 99.4717 835.061 99.4251 837.788 101.583C840.306 103.578 841.343 107.812 840.224 111.51C839.198 114.858 836.436 115.955 833.592 113.902C832.275 112.945 831.389 112.712 830.002 113.657C804.219 131.096 786.771 153.925 783.25 185.795C783.029 187.79 783.041 189.808 782.982 191.826C782.481 210.105 800.256 217.758 812.309 213.476C816.633 211.937 820.841 209.709 824.629 207.107C829.058 204.063 833.207 200.505 836.996 196.69C839.606 194.065 841.401 190.624 843.511 187.51C844.164 186.553 844.549 185.41 845.213 184.465C848.069 180.37 852.929 179.064 856.915 181.269C860.773 183.392 862.452 188.139 860.447 192.596C855.085 204.471 856.869 216.159 861.076 227.79C861.892 230.029 863.198 232.223 864.736 234.042C868.711 238.755 875.32 238.603 878.432 233.307C880.332 230.076 881.358 226.028 881.696 222.249C882.208 216.579 881.672 210.817 881.789 205.101C881.87 201.006 884.26 197.915 887.675 196.912C891.183 195.885 894.785 197.133 897.221 200.33C897.99 201.333 898.585 202.464 899.226 203.561C900.45 205.672 901.347 208.04 902.898 209.86C906.791 214.421 910.544 219.286 915.148 223.03C922.421 228.956 930.429 228.081 937.224 221.642C951.689 207.924 955.78 188.466 947.982 170.117C934.893 139.344 907.187 125.357 879.085 127.643C864.375 128.833 854.782 137.769 848.581 150.554C845.877 156.118 847.334 160.049 852.451 163.701C852.626 163.829 852.812 163.922 852.976 164.062C854.794 165.567 857.521 166.734 856.437 169.767C855.435 172.555 852.766 173.08 850.155 173.173C844.828 173.371 840.679 171.178 837.905 166.64C833.953 160.189 833.021 153.202 835.818 146.214C841.285 132.566 849.63 121.169 863.279 114.625C870.623 111.102 878.607 110.495 886.591 111.149C913.877 113.377 935.021 125.999 949.521 149.294C956.608 160.679 962.587 172.695 964.032 186.261C966.282 207.422 957.26 223.66 940.324 235.419C929.053 243.246 917.083 242.091 905.718 234.812C902.443 232.724 899.529 230.076 896.219 227.498Z" fill="white" fill-opacity="0.15"/>
<path d="M877.231 433.577C882.383 433.577 886.917 433.682 891.451 433.484C892.302 433.449 893.666 432.247 893.817 431.419C896.125 418.599 898.34 405.767 900.403 392.9C901.359 386.939 903.958 383.428 908.224 383.113C912.525 382.798 915.998 386.099 917.199 392.153C918.784 400.097 917.735 408.018 916.103 415.811C914.681 422.541 912.91 429.202 911.115 435.852C910.543 437.963 909.611 440.074 908.41 441.906C905.881 445.779 901.755 446.654 897.524 444.822C896.055 444.181 894.284 443.877 892.675 443.959C868.594 445.079 844.828 448.217 821.54 454.773C817.483 455.916 812.891 456.254 808.742 455.648C801.666 454.621 799.673 448.193 804.184 442.571C807.098 438.931 811.026 436.645 815.455 435.91C824.931 434.335 834.478 433.075 844.035 432.095C848.826 431.605 853.721 432.014 858.593 432.014C859.048 423.941 859.479 416.161 859.922 408.123C858.78 408.123 857.544 407.995 856.344 408.147C836.051 410.561 815.758 412.964 795.489 415.519C793.635 415.752 791.654 416.662 790.174 417.817C783.029 423.37 775.313 427.581 766.279 429.027C750.952 431.489 741.825 425.26 738.527 410.118C738.399 409.511 738.27 408.893 738.061 407.902C736.452 408.252 734.948 408.543 733.468 408.893C723.351 411.296 713.21 413.559 702.697 411.891C702.067 411.786 701.438 411.739 700.808 411.623C683.022 408.275 675.772 393.145 684.269 377.117C687.567 370.888 692.521 366.432 698.827 363.434C706.17 359.946 713.945 357.764 722.034 357.298C725.391 357.099 729.039 357.846 732.174 359.106C734.296 359.957 736.301 362.174 737.408 364.273C739.308 367.901 736.813 371.308 732.78 370.934C723.607 370.083 715.588 373.186 708.455 378.435C705.692 380.465 703.489 383.614 701.834 386.682C700.004 390.077 700.995 392.037 704.69 393.285C708.28 394.498 712.021 395.828 715.74 395.956C722.791 396.213 729.866 395.77 736.918 395.315C738.212 395.233 739.739 393.973 740.59 392.83C742.641 390.1 744.996 387.977 748.411 387.242C752.024 386.472 755.649 387.861 757.654 390.765C759.694 393.728 759.775 397.485 757.386 400.564C754.32 404.519 754.495 408.8 755.544 413.256C756.29 416.394 758.516 418.284 761.559 417.607C765.195 416.802 769.112 415.741 772.014 413.594C775.942 410.69 779.241 406.817 782.411 403.037C784.649 400.366 786.887 398.534 790.547 398.289C805.956 397.251 821.365 396.155 836.75 394.836C844.233 394.195 851.658 392.865 859.141 392.223C862.02 391.978 862.778 390.835 863.151 388.222C864.351 379.94 865.785 371.693 867.219 363.445C867.487 361.894 867.988 360.342 868.664 358.931C870.587 354.883 874.422 352.643 878.641 352.923C882.966 353.215 886.766 356.061 887.838 360.471C888.526 363.305 888.747 366.35 888.631 369.278C887.791 390.03 883.933 410.293 878.199 430.217C877.954 430.999 877.732 431.792 877.231 433.577Z" fill="white" fill-opacity="0.15"/>
<path d="M24.7589 609.256C28.3605 598.874 34.002 590.02 40.3078 581.446C50.5765 567.494 64.6917 559.783 81.0216 555.654C84.087 554.884 87.5372 555.199 90.7425 555.561C92.5259 555.771 94.181 557.112 96.7919 558.395C92.5142 560.997 89.3438 563.283 85.882 564.963C73.014 571.215 62.8734 580.396 54.2365 591.793C47.0332 601.288 39.69 610.516 36.1233 622.134C35.2375 625.027 32.9879 625.762 29.9341 625.902C20.691 626.31 15.3643 620.898 10.6903 614.05C0.468143 599.049 -1.99124 582.729 2.04168 565.196C6.03963 547.815 14.8864 533.023 26.4257 519.736C37.9883 506.415 51.0544 494.633 64.7267 483.574C85.6373 466.66 106.804 450.071 127.785 433.239C145.315 419.182 160.922 403.305 173.103 384.268C175.329 380.791 177.404 377.339 176.984 372.801C176.867 371.494 178.499 369.266 179.805 368.8C181.285 368.275 184.164 368.648 184.922 369.709C186.67 372.171 188.477 375.285 188.5 378.143C188.535 382.588 187.777 387.289 186.192 391.442C180.656 405.93 172.566 418.75 161.388 429.797C144.616 446.362 125.943 460.652 107.912 475.712C92.3161 488.754 76.4408 501.457 61.0435 514.732C48.8515 525.243 38.8042 537.689 30.8316 551.734C22.2529 566.852 19.4322 583.032 22.0897 600.18C22.3928 602.163 22.9755 604.1 23.5117 606.036C23.8497 607.133 24.3509 608.183 24.7589 609.256Z" fill="white" fill-opacity="0.15"/>
<path d="M850.808 8.84428C851.472 1.1452 852.101 -6.09895 852.789 -13.938C851.274 -13.0748 850.213 -12.4682 849.152 -11.8499C843.791 -8.75862 838.219 -6.23893 831.96 -5.679C822.146 -4.79243 817.099 -9.89015 818.113 -19.6307C819.325 -31.1909 824.209 -41.2347 831.342 -50.1237C841.623 -62.9438 848.103 -77.5254 852.334 -93.2269C853.267 -96.6798 853.803 -100.284 854.036 -103.854C854.281 -107.75 853.15 -108.835 849.339 -108.053C842.31 -106.619 834.956 -105.674 828.475 -102.827C818.836 -98.5929 809.697 -93.1336 800.641 -87.6975C795.209 -84.4429 791.2 -79.5318 788.892 -73.4659C787.038 -68.5898 787.726 -66.8867 791.969 -63.9004C793.204 -63.0372 793.915 -61.4273 794.871 -60.1675C793.473 -59.3976 792.144 -58.1727 790.652 -57.9161C778.949 -55.9097 771.093 -63.0138 771.991 -74.8541C772.667 -83.8013 776.49 -91.5704 782.971 -97.543C801.119 -114.259 822.309 -124.513 847.206 -126.286C847.835 -126.333 848.476 -126.31 849.117 -126.31C862.906 -126.263 871.333 -118.121 870.902 -104.262C870.716 -98.3246 869.375 -92.2587 867.604 -86.5543C862.545 -70.258 855.178 -55.1164 844.618 -41.5147C840.585 -36.3237 837.893 -30.0711 834.699 -24.2385C834.07 -23.0836 833.883 -21.6838 833.289 -19.7357C835.13 -20.2606 836.541 -20.3422 837.601 -21.0072C842.497 -24.1101 847.357 -27.2831 852.09 -30.6193C853.885 -31.8909 855.33 -33.6523 856.927 -35.2038C860.179 -38.3534 863.256 -39.1467 866.356 -37.6418C869.515 -36.1137 870.634 -32.9291 870.238 -28.3913C868.827 -12.5732 867.464 3.25659 866.298 19.098C865.797 25.9455 861.356 29.7484 854.771 27.8937C837.147 22.9243 820.048 25.164 803.485 31.8832C786.514 38.7657 770.977 48.2496 756.966 60.1248C754.973 61.8163 753.155 63.7294 750.999 65.7941C752.246 66.5407 753.108 67.054 753.959 67.5556C752.77 72.1167 747.467 74.1348 743.084 71.6035C739.191 69.3637 737.338 65.7008 738.119 61.4196C738.748 57.9667 739.937 54.3155 741.93 51.4809C744.879 47.2814 748.26 43.0935 752.316 40.0139C772.166 24.9424 793.612 13.0554 818.626 8.85593C827.985 7.28111 837.357 6.98949 846.775 8.35432C847.963 8.55263 849.211 8.6693 850.808 8.84428Z" fill="white" fill-opacity="0.15"/>
<path d="M397.932 495.064C397.932 496.686 397.92 497.922 397.932 499.159C398.305 526.094 397.804 552.994 395.205 579.824C394.773 584.245 394.342 588.737 393.176 592.983C392.337 596.039 390.764 599.2 388.677 601.557C384.33 606.433 376.952 605.033 374.819 598.862C373.688 595.596 373.338 591.711 373.839 588.293C379.749 548.316 380.926 508.106 380.402 467.791C380.367 465.248 379.959 462.717 379.947 460.185C379.912 455.064 383.013 451.285 387.523 450.678C391.894 450.095 395.857 452.801 397.151 457.654C398.188 461.539 398.596 465.586 399.68 469.448C400.613 472.784 401.918 476.062 403.41 479.188C404.797 482.104 407.443 483.084 410.614 482.559C416.208 481.626 419.74 478.383 421.209 472.924C423.202 465.54 421.955 458.191 420.882 450.853C420.276 446.665 419.355 442.477 419.251 438.266C419.041 429.016 424.228 423.335 433.459 423.078C457.05 422.402 479.931 418.039 502.24 410.503C510.352 407.762 517.87 403.982 523.943 397.753C533.268 388.211 533.081 377.245 523.069 368.38C511.39 358.033 497.939 356.049 483.299 360.821C482.332 361.136 481.434 361.707 480.176 362.325C480.91 363.55 481.528 364.495 482.052 365.487C483.777 368.765 482.786 370.678 479.092 371.308C469.977 372.871 462.68 363.772 465.932 354.871C467.342 351.022 469.977 348.105 473.473 346.134C503.685 329.138 536.601 348.759 543.082 372.171C545.891 382.308 544.306 391.722 538.058 400.214C531.659 408.916 523.069 414.819 513.197 418.855C495.095 426.251 476.294 431.232 457.062 434.673C450.605 435.828 444.136 436.995 437.655 437.998C435.301 438.36 434.438 439.374 434.613 441.778C435.056 447.692 435.662 453.629 435.545 459.544C435.44 465.015 435.114 470.614 433.797 475.887C429.636 492.743 411.663 499.999 397.932 495.064Z" fill="white" fill-opacity="0.15"/>
<path d="M1156.53 485.721C1160.22 484.916 1163.88 483.784 1167.62 483.364C1175.48 482.478 1183.4 481.253 1191.25 481.486C1201.6 481.801 1206.04 487.319 1204.66 497.608C1203.19 508.503 1201.04 519.328 1198.86 530.119C1197.36 537.584 1195.35 544.945 1193.49 552.329C1193.02 554.149 1192.5 556.156 1190.02 556.272C1187.43 556.389 1185.54 554.977 1184.92 552.749C1184.14 549.961 1183.35 546.847 1183.8 544.082C1185.75 532.183 1188.13 520.355 1190.42 508.526C1191.27 504.163 1192.45 499.859 1193.24 495.496C1194 491.332 1193.58 490.748 1189.27 491.075C1185.28 491.378 1181.3 492.055 1177.42 493.011C1170.54 494.691 1163.75 496.803 1156.88 498.529C1154.55 499.112 1152.04 499.439 1149.65 499.311C1141.68 498.867 1137.11 492.405 1139.76 484.881C1141.14 480.949 1143.31 477.182 1145.67 473.705C1151.25 465.458 1157.24 457.502 1162.88 449.302C1165.76 445.125 1168.32 440.716 1170.85 436.306C1172.46 433.483 1172.05 432.305 1168.83 432.002C1163.59 431.512 1158.21 430.999 1153.04 431.687C1129.41 434.837 1107.8 443.294 1088.85 457.981C1085.46 460.605 1082.6 463.942 1079.69 467.138C1077.69 469.343 1077.91 471.559 1080.67 473.157C1087.23 476.972 1093.8 480.786 1100.73 484.811C1101.65 482.303 1102.19 480.401 1103.03 478.628C1104.69 475.105 1106.21 471.442 1108.37 468.234C1110.59 464.921 1114.32 464.152 1117.33 465.598C1120.35 467.056 1121.49 470.206 1120.57 474.312C1114.43 501.69 1108.31 529.08 1102.2 556.47C1101.37 560.18 1100.94 564.018 1099.79 567.622C1099.3 569.162 1097.48 571.239 1096.16 571.32C1094.41 571.425 1091.61 570.259 1090.94 568.847C1089.46 565.698 1088.13 562.011 1088.32 558.64C1088.91 548.2 1089.87 537.736 1091.38 527.389C1092.75 518.08 1095.06 508.911 1096.94 499.672C1097.13 498.774 1097.26 497.864 1097.4 497.094C1092.35 496.208 1087.47 495.764 1082.84 494.423C1077.79 492.965 1072.72 491.168 1068.11 488.672C1057.79 483.084 1054.47 473.04 1058.77 462.098C1061.48 455.216 1065.99 449.687 1071.55 444.939C1084.36 433.962 1099.52 427.488 1115.38 422.565C1131.93 417.432 1148.82 414.807 1166.12 418.144C1170.13 418.914 1174.19 420.15 1177.81 421.958C1184.83 425.469 1187.25 431.92 1184.72 439.351C1183.74 442.233 1182.44 445.102 1180.8 447.645C1173.66 458.669 1166.35 469.576 1159.1 480.518C1158.13 481.999 1157.12 483.469 1156.12 484.951C1156.26 485.196 1156.4 485.464 1156.53 485.721Z" fill="white" fill-opacity="0.15"/>
<path d="M661.086 209.743C660.2 201.134 659.384 193.144 658.545 185.153C657.776 177.886 656.797 170.63 656.26 163.351C655.561 153.82 659.955 149.247 669.501 149.434C675.201 149.551 680.889 150.076 686.589 150.426C687.008 150.449 687.428 150.484 687.848 150.449C694.387 149.889 697.405 151.347 698.991 157.926C701.718 169.218 704.189 180.639 705.774 192.141C707.639 205.661 708.537 219.321 709.656 232.934C710.04 237.565 709.97 242.255 709.831 246.897C709.691 251.633 707.243 254.398 702.534 255.005C698.874 255.483 695.156 255.518 691.461 255.623C677.707 256.02 663.942 256.346 650.188 256.766C649.22 256.801 648.02 257.139 647.344 257.781C638.765 266.005 628.473 271.756 618.484 277.915C613.006 281.298 607.411 284.611 601.536 287.236C593.902 290.642 585.964 291.435 578.399 286.688C572.012 282.675 568.9 276.445 567.979 269.26C565.939 253.442 570.415 239.233 579.623 226.483C589.1 213.36 601.501 204.331 617.726 201.671C628.298 199.933 638.59 202.231 648.672 205.404C652.6 206.629 656.435 208.11 661.086 209.743ZM682.579 161.274C680.458 162.056 678.919 162.814 677.287 163.176C674.746 163.736 674.047 164.995 674.222 167.643C674.758 175.774 674.781 183.94 675.294 192.082C675.865 201.158 676.611 210.222 677.567 219.262C677.87 222.109 677.859 224.547 675.481 226.413C673.091 228.291 670.644 227.708 667.998 226.74C658.673 223.322 649.407 219.636 639.872 216.906C625.652 212.823 612.376 215.028 600.93 225.002C592.654 232.211 587.619 241.356 585.16 251.948C583.831 257.641 582.957 263.415 584.682 269.225C585.941 273.459 587.969 274.824 592.247 273.914C594.811 273.366 597.433 272.584 599.706 271.324C609.87 265.667 620.022 259.974 629.942 253.896C632.716 252.205 635.07 249.429 636.888 246.676C639.453 242.814 642.635 240.89 647.192 241.181C649.302 241.321 651.412 241.531 653.521 241.683C667.24 242.64 680.959 243.619 694.678 244.506C696.613 244.634 698.583 244.319 700.867 244.191C700.413 243.048 700.273 242.418 699.935 241.928C696.59 237.11 694.853 231.686 694.177 225.946C693.338 218.796 692.953 211.587 691.951 204.471C689.887 189.971 689.841 174.993 682.579 161.274Z" fill="white" fill-opacity="0.15"/>
<path d="M617.947 71.4402C617.994 59.5766 621.281 48.6695 627.633 38.6723C634.51 27.8236 643.007 18.4448 653.369 10.8273C669.349 -0.931252 686.472 -10.5434 705.599 -16.1778C718.397 -19.9456 731.172 -23.8652 744.157 -26.8748C767.666 -32.3342 787.05 -44.4777 803.59 -61.6723C807.005 -65.2302 809.884 -69.0681 811.084 -74.0025C811.725 -76.6505 813.299 -78.622 816.329 -78.7153C819.407 -78.8086 821.691 -77.1288 822.192 -74.3525C822.81 -71.0045 823.043 -67.4 822.46 -64.0637C821.237 -57.0062 817.309 -51.1852 812.821 -45.7026C797.482 -26.9565 778.378 -13.9263 755.031 -7.21882C741.196 -3.24096 727.372 0.795227 713.572 4.9014C696.729 9.91747 681.483 18.1648 667.496 28.6636C653.836 38.9173 643.602 51.7258 639.627 68.7805C639.196 70.6352 638.904 72.525 638.706 74.4265C637.343 87.6082 642.075 97.4887 654.104 103.776C663.964 108.932 674 112.7 685.388 110.647C685.982 110.542 686.682 110.962 687.323 111.137C686.775 111.907 686.402 112.957 685.656 113.423C675.865 119.559 665.351 120.131 654.488 117.098C651.341 116.223 648.241 115.068 645.257 113.738C626.852 105.468 617.959 91.6327 617.947 71.4402Z" fill="white" fill-opacity="0.15"/>
<path d="M1012.39 226.028C1015.5 225.048 1018.64 224.127 1021.73 223.065C1028.84 220.627 1035.91 218.072 1043.02 215.646C1045.42 214.83 1047.86 214.06 1050.34 213.581C1061 211.528 1068.65 216.684 1069.42 227.51C1069.98 235.36 1068.92 243.339 1068.61 251.26C1068.44 255.39 1068.34 259.519 1068.19 263.637C1067.69 277.297 1082.04 286.851 1094.18 283.748C1099.69 282.336 1104.39 279.817 1108.24 275.606C1110.16 273.494 1112.1 271.371 1114.25 269.516C1116.13 267.906 1118.46 267.195 1120.63 269.015C1122.75 270.788 1122.48 273.133 1121.46 275.407C1121.02 276.364 1120.45 277.274 1119.85 278.137C1111.4 290.106 1091.1 297.793 1076.86 294.433C1060.8 290.642 1052.08 280.318 1051.64 263.824C1051.45 256.754 1052.23 249.65 1052.49 242.57C1052.6 239.537 1052.51 236.48 1052.51 233.004C1050.38 233.599 1048.41 233.949 1046.6 234.684C1039.46 237.612 1032.38 240.738 1025.23 243.631C1020.82 245.404 1016.32 246.967 1011.81 248.46C1010.33 248.95 1008.67 249.02 1007.1 249.044C995.235 249.265 987.833 240.365 991.015 228.956C993.486 220.102 996.727 211.447 999.978 202.826C1004.8 190.052 1010 177.419 1014.9 164.669C1016.03 161.718 1016.65 158.568 1017.44 155.5C1018.13 152.829 1017.18 151.405 1014.28 151.58C1003.36 152.245 994.419 157.063 986.994 164.855C986.446 165.427 986.586 166.944 986.819 167.935C987.309 170.082 988.358 172.135 988.637 174.293C989.022 177.337 987.285 179.075 984.29 178.597C978.287 177.641 973.007 175.156 970.408 169.277C967.948 163.712 969.568 158.451 973.613 154.345C985.7 142.085 1000.54 136.602 1017.65 138.294C1026.36 139.157 1031.95 145.409 1031.97 154.182C1032 159.921 1031.23 165.882 1029.56 171.365C1025.99 183.1 1021.55 194.579 1017.58 206.186C1015.4 212.543 1013.43 218.971 1011.37 225.375C1011.73 225.573 1012.05 225.795 1012.39 226.028Z" fill="white" fill-opacity="0.15"/>
<path d="M1345.83 109.259C1345.21 116.725 1344.59 124.19 1343.97 131.656C1343.94 131.971 1343.86 132.298 1343.9 132.601C1344.14 134.782 1344.99 137.244 1342.31 138.469C1339.37 139.81 1336.2 139.857 1333.48 138.072C1328.09 134.537 1322.61 131.049 1317.63 126.978C1302.81 114.835 1288.24 102.4 1273.52 90.1394C1268.4 85.8699 1263.14 81.7637 1257.92 77.6108C1249.63 71.0316 1248.31 65.5256 1253.76 56.4501C1261.5 43.5716 1269.38 30.7514 1277.75 18.2813C1280.43 14.2917 1284.46 10.8738 1288.57 8.24913C1295.36 3.89798 1302.83 4.57458 1309.2 9.1357C1313.74 12.3903 1318.01 16.5548 1321.13 21.1742C1325.19 27.1702 1328.57 33.7961 1331.24 40.5386C1339.97 62.551 1345.28 85.3566 1345.83 109.259ZM1271.94 61.0112C1294.06 76.2577 1311.89 95.2371 1328.87 115.231C1329.15 113.75 1329.15 112.513 1328.94 111.3C1327.57 103.053 1326.23 94.7938 1324.71 86.5581C1321.98 71.8016 1318.04 57.3833 1310.82 44.1432C1308.1 39.1738 1304.62 34.5543 1300.97 30.2148C1297.98 26.6686 1291.26 27.8585 1288.87 31.9063C1284.02 40.1187 1279.21 48.3427 1274.38 56.5667C1273.54 58.0132 1272.77 59.4947 1271.94 61.0112Z" fill="white" fill-opacity="0.15"/>
<path d="M90.556 185.585C87.2691 188.163 84.4484 190.519 81.4645 192.666C78.2941 194.952 75.1237 197.343 71.6736 199.117C62.8734 203.631 54.5162 200.61 50.3085 191.616C47.4528 185.527 46.8933 178.959 46.8467 172.368C46.7418 154.287 49.0613 136.439 52.3016 118.684C54.6911 105.549 57.1737 92.4376 59.5982 79.3142C60.5539 74.1581 64.074 70.8102 68.7247 70.7052C73.352 70.6002 77.5248 73.7148 78.3174 78.7542C78.9002 82.4638 78.9352 86.4067 78.364 90.1162C75.3568 109.481 71.965 128.787 68.9345 148.139C67.594 156.713 66.7082 165.369 65.7757 174.001C65.4843 176.778 65.7291 179.612 65.7291 183.182C67.5008 182.027 68.5848 181.42 69.5639 180.674C74.9372 176.544 80.2406 172.321 85.6489 168.239C88.5978 166.01 91.5934 163.782 94.7754 161.904C102.224 157.507 110.103 161.554 110.511 170.187C110.791 176.194 110.208 182.249 109.998 188.279C108.949 217.606 107.9 246.933 106.839 276.271C106.641 281.8 106.221 287.283 103.564 292.31C101.478 296.253 99.4844 296.417 96.9201 292.754C92.8639 286.956 92.2811 280.12 91.3603 273.413C87.7353 247.014 88.6095 220.557 90.3695 194.1C90.5211 191.779 90.6609 189.446 90.7775 187.125C90.7775 186.821 90.6842 186.506 90.556 185.585Z" fill="white" fill-opacity="0.15"/>
<path d="M1404.61 155.687C1401.72 145.211 1398.37 134.957 1396.15 124.47C1393.92 113.948 1392.83 103.193 1391.18 92.2042C1390.48 92.7058 1389.98 93.0208 1389.55 93.3941C1381.92 100.148 1372.86 99.915 1365.81 92.4609C1360.11 86.4299 1356.08 79.1974 1354.12 71.2301C1351.7 61.3846 1350.38 51.2708 1348.42 41.3086C1346.76 32.898 1344.86 24.534 1343.09 16.1466C1342.67 14.1869 1342.1 12.2271 1342 10.244C1341.83 7.39768 1343.03 5.05296 1345.6 3.65313C1348.14 2.26496 1351.04 2.18332 1353.07 4.08476C1355.46 6.34782 1358.07 9.03082 1359.02 12.0405C1361.66 20.2761 1363.93 28.6868 1365.49 37.1908C1367.62 48.7394 1368.44 60.5447 1372.66 71.65C1373.98 75.103 1375.59 78.4509 1377.23 81.7522C1378.37 84.0502 1380.05 84.2485 1381.57 82.0671C1384.27 78.1476 1386.92 74.193 1389.47 70.1685C1391.8 66.5056 1394.04 62.5978 1399.3 63.9043C1404.44 65.1875 1405.01 69.6669 1405.43 73.9481C1407.23 92.6125 1408.88 111.289 1410.75 129.953C1411.76 139.915 1414.55 149.469 1418.52 158.661C1420.33 162.884 1418.7 166.384 1413.76 167.305C1406.38 168.693 1398.92 169.697 1391.49 170.793C1377.44 172.858 1363.38 174.934 1349.97 179.787C1344.92 181.619 1340.01 183.987 1335.32 186.588C1329.23 189.948 1324.69 194.964 1321.81 201.345C1319.34 206.816 1317.03 212.357 1314.46 217.781C1314.18 218.376 1312.25 218.947 1311.87 218.609C1310.3 217.256 1308.68 215.751 1307.75 213.955C1305 208.647 1304.92 202.908 1306.08 197.203C1306.82 193.587 1307.98 190.041 1309.16 186.53C1313.11 174.794 1321.18 166.827 1333.01 163.887C1344.15 161.123 1355.62 159.385 1367.06 158.125C1379.04 156.807 1391.14 156.585 1403.19 155.873C1403.89 155.815 1404.59 155.698 1404.61 155.687Z" fill="white" fill-opacity="0.15"/>
<path d="M512.427 190.158C512.637 168.169 515.924 146.494 519.328 124.832C520.983 114.275 522.568 103.695 524.071 93.1025C524.654 88.9613 526.239 85.5434 530.098 83.6187C543.548 76.8878 557.151 70.4836 571.86 66.9956C575.567 66.1207 579.6 66.564 583.481 66.424C584.425 66.389 585.381 66.5174 586.314 66.4124C592.142 65.7125 595.801 68.6404 595.732 74.5897C595.685 79.5474 595.335 84.5635 594.543 89.4513C591.419 108.781 588.062 128.075 584.81 147.381C584.588 148.723 584.122 150.181 584.402 151.441C585.253 155.255 583.458 157.506 580.695 159.793C568.783 169.627 556.708 179.309 545.308 189.714C539.341 195.162 534.678 202.021 529.34 208.169C527.545 210.234 525.75 212.438 523.524 213.931C519.094 216.906 514.933 215.308 514.013 210.047C513.045 204.553 512.905 198.907 512.439 193.331C512.357 192.281 512.427 191.219 512.427 190.158ZM578.446 80.3407C566.604 84.5752 555.344 88.5531 544.143 92.6942C543.362 92.9859 542.628 94.479 542.569 95.4589C542.15 101.886 542.628 108.454 541.509 114.742C538.07 134.118 534.026 153.4 530.237 172.718C529.235 177.804 528.303 182.902 527.288 188.303C528.023 187.988 528.268 187.965 528.396 187.825C540.541 174.258 555.472 163.852 569.086 151.965C569.96 151.196 570.706 149.702 570.683 148.571C570.438 133.044 572.397 117.716 574.716 102.423C575.823 95.2256 577.14 88.0748 578.446 80.3407Z" fill="white" fill-opacity="0.15"/>
<path d="M1315.93 445.067C1330.13 445.592 1341.53 449.675 1350.63 459.089C1354.22 462.81 1356.01 466.986 1356.29 472.632C1356.66 480.308 1354.51 487.144 1351.98 493.863C1345.29 511.582 1338.11 529.115 1330.92 546.637C1329.49 550.124 1327.34 553.379 1325.15 556.47C1322.62 560.04 1319.69 560.157 1316.22 557.509C1315.47 556.937 1314.36 556.61 1313.39 556.552C1284.71 554.954 1263.03 533.921 1261.66 505.283C1260.29 476.388 1279.99 451.121 1307.46 446.059C1310.68 445.487 1313.96 445.289 1315.93 445.067ZM1315.85 544.409C1324.48 520.238 1333.07 496.173 1341.68 472.049C1328.15 461.83 1307.84 460.547 1293.57 474.125C1279.26 487.727 1276.8 512.026 1288.25 528.334C1294.95 537.923 1303.86 543.954 1315.85 544.409Z" fill="white" fill-opacity="0.15"/>
<path d="M1409.41 546.695C1400.44 549.145 1391.81 551.618 1383.11 553.811C1380.69 554.417 1378.05 554.476 1375.54 554.324C1366.19 553.752 1359.62 545.773 1361.52 536.581C1362.39 532.358 1364.19 527.937 1366.8 524.542C1371.87 517.928 1377.63 511.816 1383.41 505.796C1388.47 500.535 1394.13 495.858 1399.19 490.597C1405.96 483.551 1411.38 475.63 1412.76 465.61C1414.01 456.511 1410.91 452.125 1401.88 450.76C1397.85 450.153 1393.5 448.893 1390.15 453.023C1389.78 453.466 1387.47 452.976 1386.64 452.241C1382.77 448.8 1383.99 443.201 1389.09 440.949C1395.01 438.325 1401.24 438.255 1407.49 439.351C1418.61 441.311 1425.42 448.73 1426.76 459.964C1427.72 468.083 1426.1 475.758 1423.13 483.259C1418.82 494.108 1412.5 503.708 1405.11 512.667C1400.95 517.707 1396.92 522.863 1392.83 527.972C1392.98 528.217 1393.12 528.45 1393.27 528.695C1394.28 528.369 1395.31 528.089 1396.3 527.727C1400.67 526.129 1404.94 524.158 1409.41 522.968C1418.45 520.565 1425.14 525.207 1426.56 534.458C1427.2 538.646 1427.53 542.892 1428.42 547.021C1430.13 554.861 1434.07 557.94 1442.08 557.882C1450.57 557.824 1458.65 555.875 1466.28 552.119C1467.3 551.618 1468.33 551.174 1469.77 550.509C1469.77 556.377 1469.83 561.848 1469.7 567.307C1469.69 567.972 1468.79 568.94 1468.08 569.232C1457.94 573.42 1447.39 575.671 1436.44 574.318C1424.09 572.79 1415.73 565.826 1411.55 554.044C1410.66 551.583 1410.08 548.993 1409.41 546.695Z" fill="white" fill-opacity="0.15"/>
<path d="M305.851 196.013C304.534 196.515 303.473 196.877 302.447 197.32C275.546 208.997 248.656 220.721 221.731 232.351C215.996 234.824 210.145 237.017 204.294 239.222C199.526 241.018 196.146 240.505 194.363 237.973C192.51 235.349 193.209 231.103 196.344 227.486C201.345 221.724 207.371 217.151 214.259 214.025C223.304 209.907 232.512 206.081 241.814 202.581C262.142 194.929 282.481 187.346 301.69 177.116C304.639 175.541 307.494 173.616 309.989 171.388C316.889 165.24 326.82 167.387 329.839 176.148C330.841 179.064 331.109 182.4 330.969 185.515C330.177 202.931 332.018 219.986 336.925 236.749C337.881 240.027 338.429 243.701 337.998 247.037C336.984 254.771 328.417 257.781 322.624 252.567C320.549 250.7 318.94 248.192 317.53 245.743C311.352 234.952 308.963 223.019 307.401 210.875C306.807 206.069 306.399 201.24 305.851 196.013Z" fill="white" fill-opacity="0.15"/>
<path d="M704.34 479.281C701.695 482.139 699.41 484.927 696.787 487.365C694.328 489.652 691.717 491.938 688.803 493.56C680.889 497.957 672.205 495.939 666.366 488.73C662.321 483.737 660.654 477.718 658.894 471.699C657.834 468.071 656.517 464.501 655.048 461.025C653.544 457.456 652.985 453.886 654.337 450.223C657.472 441.789 668.289 439.41 674.595 446.28C677.544 449.488 679.164 454.003 680.982 458.109C682.113 460.652 682.462 463.545 683.162 466.275C683.523 466.543 683.896 466.799 684.257 467.068C684.992 465.925 685.528 464.548 686.507 463.673C690.307 460.325 693.92 456.592 698.198 454.014C708.35 447.902 718.642 451.646 723.001 462.647C724.272 465.866 725.053 469.284 726.207 473.075C727.407 472.201 728.573 471.559 729.494 470.649C733.62 466.543 737.641 462.332 741.779 458.237C753.423 446.712 762.212 446.992 773.32 459.042C778.052 464.175 782.912 469.203 787.831 474.16C789.533 475.875 791.619 477.193 793.449 478.78C794.265 479.491 795.629 480.623 795.454 481.183C795.163 482.174 794.032 483.201 793.006 483.668C787.027 486.362 780.943 486.152 775.254 483.084C769.683 480.075 764.286 476.692 759.076 473.099C756.92 471.606 755.848 471.699 754.134 473.507C750.055 477.8 745.963 482.139 741.476 485.989C738.142 488.859 734.424 491.495 730.461 493.361C722.337 497.188 714.423 494.855 709.178 487.54C707.418 485.079 706.089 482.303 704.34 479.281Z" fill="white" fill-opacity="0.15"/>
<path d="M136.958 279.479C140.653 280.517 143.159 281.205 145.665 281.928C147.588 282.488 149.581 282.908 151.411 283.69C156.19 285.755 158.579 289.826 157.647 294.935C157.029 298.341 156.062 301.783 154.64 304.932C149.826 315.548 148.684 326.688 149.068 338.155C149.301 345.247 149.383 352.352 149.243 359.444C149.197 361.695 148.521 364.075 147.541 366.117C145.968 369.43 143.986 369.558 141.935 366.572C140.758 364.857 139.709 362.897 139.184 360.902C133.671 339.636 133.461 318.791 144.534 298.936C145.455 297.291 146.201 295.553 147.297 293.29C144.872 293.069 142.914 292.929 140.956 292.719C137.902 292.392 134.813 292.252 131.818 291.645C123.985 290.047 119.87 283.678 121.432 275.816C122.645 269.726 125.64 264.5 129.65 259.893C133.892 255.028 138.625 250.56 142.693 245.556C146.341 241.065 149.628 236.235 152.542 231.243C153.637 229.376 153.241 226.623 153.521 224.279C151.388 224.407 149.15 224.185 147.133 224.745C141.55 226.262 135.956 227.685 131.515 232.001C128.379 235.046 123.624 234.894 119.999 232.514C116.164 230.006 114.427 225.165 115.698 220.464C116.747 216.579 119.183 213.651 122.458 211.528C132.342 205.136 143.299 202.523 154.896 204.028C167.088 205.614 174.292 217.069 170.981 229.959C169.513 235.675 166.843 241.368 163.533 246.279C159.057 252.917 153.393 258.749 148.311 264.99C144.697 269.493 141.189 274.101 136.958 279.479Z" fill="white" fill-opacity="0.15"/>
<path d="M60.5774 24.4756C76.8256 25.1871 92.9223 23.6123 108.937 21.011C110.709 20.7193 112.516 20.4977 114.299 20.5327C117.749 20.591 120.255 22.7141 120.628 25.6188C120.99 28.4534 119.311 31.1364 115.966 31.8947C109.916 33.2478 103.809 34.4727 97.6545 35.2543C79.4948 37.5523 61.3117 39.6638 43.1286 41.6585C40.3778 41.9618 39.6901 43 39.4687 45.5547C37.2307 71.5683 31.6709 97.0103 25.8663 122.406C25.3301 124.727 24.386 127.107 23.0456 129.066C20.3414 133.021 15.5392 132.508 13.8725 128.028C12.94 125.52 12.4621 122.616 12.6719 119.956C13.8258 104.453 15.108 88.9495 16.6232 73.4814C17.7072 62.4227 19.1992 51.399 20.5862 40.3753C21.8917 29.9582 27.2184 24.8955 37.7319 24.5339C45.3315 24.2656 52.9545 24.4756 60.5774 24.4756Z" fill="white" fill-opacity="0.15"/>
<path d="M4.89741 51.6906C4.13978 68.3953 3.46375 85.1116 2.51962 101.805C2.34479 104.989 1.40067 108.256 0.211771 111.242C-0.953812 114.158 -3.57637 115.803 -6.86331 115.756C-10.2785 115.71 -12.8777 113.925 -13.9967 110.834C-15.069 107.906 -15.9432 104.709 -15.9549 101.618C-16.1297 69.4335 -16.1297 37.249 -16.1064 5.07619C-16.1064 2.12487 -15.815 -0.861428 -15.2555 -3.75442C-14.1715 -9.37708 -9.87052 -13.0283 -4.74196 -13.0516C0.328329 -13.075 4.46615 -9.68039 5.70166 -4.11605C6.24949 -1.66635 6.42433 0.923356 6.36605 3.44305C6.00472 19.5295 5.51517 35.6159 5.08391 51.6906C5.01397 51.6906 4.95569 51.6906 4.89741 51.6906Z" fill="white" fill-opacity="0.15"/>
<path d="M270.102 258.364C266.804 259.718 263.878 260.861 260.999 262.121C244.098 269.458 227.244 276.889 210.308 284.121C206.438 285.778 202.347 287.003 198.256 288.041C196.053 288.601 193.617 288.624 191.344 288.367C188.115 288.006 185.737 285.463 185.446 282.57C185.12 279.315 186.682 277.087 189.502 275.676C190.54 275.162 191.647 274.766 192.731 274.357C200.062 271.581 207.359 268.723 214.725 266.075C234.517 258.948 253.458 250.105 271.303 238.918C278.564 234.369 285.138 236.515 288.74 244.319C292.12 251.645 293.239 259.531 294.02 267.452C294.475 272.094 294.789 276.749 295.022 281.403C295.116 283.176 295.046 285.043 294.615 286.758C293.577 290.899 290.931 293.664 286.654 294.468C282.388 295.273 278.704 293.78 276.49 290.164C275.044 287.819 274.228 284.926 273.774 282.173C272.713 275.804 272.049 269.365 271.175 262.972C270.953 261.537 270.51 260.149 270.102 258.364Z" fill="white" fill-opacity="0.15"/>
<path d="M1179.79 231.453C1176.68 231.453 1173.73 231.674 1170.82 231.406C1161.73 230.578 1156.56 224.384 1157.19 215.25C1157.26 214.2 1157.41 213.138 1157.66 212.112C1160.53 200.166 1173.88 182.389 1189.63 182.237C1203.22 182.097 1224.07 190.274 1226.72 210.257C1227.92 219.356 1225.38 227.51 1219.43 234.427C1214.11 240.622 1207.24 244.576 1199.33 246.443C1189.71 248.717 1182.32 243.783 1180.36 234.112C1180.18 233.202 1179.97 232.293 1179.79 231.453ZM1213.72 216.241C1212.94 213.861 1212.53 211.248 1211.3 209.125C1207.25 202.219 1200.99 198.02 1193.45 195.734C1192.37 195.407 1190.64 195.885 1189.69 196.62C1186.32 199.175 1182.75 201.648 1180.04 204.821C1177.36 207.959 1175.53 211.855 1173.52 215.53C1172.59 217.256 1173.49 218.364 1175.43 218.504C1179.56 218.807 1183.71 219.344 1186.98 215.821C1187.68 215.075 1188.7 214.585 1189.64 214.118C1193.2 212.392 1196.75 213.068 1198.45 215.74C1200.14 218.388 1199.36 221.397 1196.04 223.94C1193.09 226.192 1192.73 229.166 1193.24 232.468C1193.55 234.392 1194.79 235.069 1196.68 234.859C1204.88 233.984 1213.23 224.71 1213.72 216.241Z" fill="white" fill-opacity="0.15"/>
<path d="M1435.87 78.2292C1434.32 78.5675 1433 78.8475 1431.7 79.1391C1423.44 80.9589 1417.07 74.7997 1419.33 66.6573C1420.56 62.2362 1422.44 57.78 1425.01 54.0005C1430.1 46.4764 1435.64 39.2206 1441.42 32.2097C1449.84 22.0026 1458.65 12.1105 1467.28 2.09C1467.89 1.39008 1468.55 0.725158 1469.79 -0.593018C1469.79 4.62136 1469.39 9.14748 1469.88 13.5686C1470.57 19.7745 1468.22 24.2657 1464.27 28.8851C1455.8 38.7656 1447.94 49.1477 1439.89 59.3665C1438.74 60.8363 1437.94 62.5861 1436.96 64.2309C1439.9 65.899 1442.74 67.3222 1445.37 69.037C1449.28 71.5684 1450.44 75.1146 1450.26 79.909C1449.88 89.5212 1450.27 99.1567 1450.5 108.792C1450.69 116.946 1451.18 125.089 1451.35 133.243C1451.4 135.307 1451.25 137.734 1450.2 139.355C1449.07 141.093 1446.83 143.018 1444.99 143.123C1443.13 143.228 1440.81 141.513 1439.36 139.962C1438.27 138.795 1437.93 136.672 1437.8 134.922C1436.29 116.561 1433.95 98.2352 1436.06 79.7574C1436.09 79.4424 1435.99 79.1274 1435.87 78.2292Z" fill="white" fill-opacity="0.15"/>
<path d="M1373.82 238.545C1368.62 240.435 1363.42 240.913 1358.51 237.6C1352.98 233.867 1349.65 228.746 1350.14 221.852C1350.73 213.768 1354.64 207.399 1361.03 202.558C1369.31 196.27 1378.96 193.424 1389.05 192.455C1398.83 191.522 1408.69 191.511 1418.52 191.056C1421.37 190.927 1424.23 190.811 1427.06 190.449C1433.9 189.574 1437.85 185.83 1438.58 178.982C1438.9 175.902 1437.98 172.718 1437.98 169.58C1437.98 167.83 1438.16 165.345 1439.25 164.529C1440.67 163.467 1443.27 163.082 1445.03 163.596C1448.69 164.645 1450.31 167.947 1451.34 171.4C1455.49 185.48 1447.4 201.543 1433.33 206.29C1428.59 207.889 1423.44 208.53 1418.42 209.032C1406.22 210.245 1393.98 210.933 1381.79 212.216C1378.18 212.601 1374.67 214.118 1371.18 215.354C1369.73 215.868 1368.38 216.883 1367.18 217.874C1360.84 223.123 1361.22 229.434 1368.14 233.949C1370.11 235.232 1372.18 236.34 1374.21 237.53C1374.07 237.868 1373.94 238.207 1373.82 238.545Z" fill="white" fill-opacity="0.15"/>
<path d="M694.165 90.1977C688.978 77.0043 692.102 65.0824 698.804 53.6854C699.62 52.2973 701.065 51.1424 702.452 50.2325C704.737 48.7277 707.278 48.5294 709.609 50.1975C712.022 51.924 712.103 54.327 711.392 57.0334C709.504 64.1959 707.884 71.44 705.914 78.5674C704.224 84.68 706.264 89.3345 710.879 93.1957C711.847 94.0006 712.884 94.7005 713.933 95.4821C709.224 99.5999 702.639 98.3401 696.205 92.6941C684.91 98.3168 671.937 97.0219 665.736 83.5369C664.046 79.874 662.892 75.6628 662.706 71.65C662.03 56.4618 666.214 42.5334 674.968 30.0749C676.588 27.7652 678.639 25.6655 680.831 23.8807C683.721 21.5243 687.276 21.571 689.642 23.4841C691.974 25.3738 692.487 28.2551 690.913 31.8597C685.26 44.8315 682.194 58.3982 681.752 72.5248C681.46 81.7404 685.318 87.0248 694.165 90.1977Z" fill="white" fill-opacity="0.15"/>
<path d="M555.752 309.388C544.399 309.225 536.263 303.626 530.773 294.072C523.943 282.185 523.22 269.341 525.75 256.183C529.736 235.396 539.818 217.793 553.945 202.289C555.554 200.516 556.626 198.242 558.234 196.48C560.204 194.334 562.221 192.024 564.68 190.589C568.748 188.221 573.399 191.172 573.27 195.885C573.212 197.81 572.594 199.91 571.627 201.578C569.121 205.871 566.44 210.07 563.549 214.118C552.267 229.901 543.909 246.967 540.389 266.204C538.629 275.804 539.9 284.926 544.131 293.71C546.998 299.66 551.637 303.532 557.523 306.192C558.561 306.659 559.377 307.615 560.297 308.339C559.097 308.688 557.896 309.05 556.684 309.377C556.404 309.447 556.066 309.388 555.752 309.388Z" fill="white" fill-opacity="0.15"/>
<path d="M993.16 466.566C993.16 469.926 993.358 474.604 993.079 479.246C992.927 481.836 992.426 484.589 991.307 486.887C988.405 492.871 980.828 494.563 975.688 490.153C970.536 485.721 964.767 482.641 958.577 480.028C951.106 476.867 949.148 470.404 953.775 463.813C956.421 460.057 959.65 456.686 962.832 453.35C966.259 449.757 969.954 446.42 973.497 442.944C976.527 439.981 979.302 436.54 984.384 438.476C991.132 441.043 994.174 444.729 994.069 451.005C994.011 455.753 993.545 460.5 993.16 466.566Z" fill="white" fill-opacity="0.15"/>
<path d="M1371.36 22.6908C1371.45 -0.219816 1390.04 -18.3243 1411.84 -17.6244C1417.19 -17.4494 1422.04 -15.7463 1426.08 -12.2117C1430.2 -8.60715 1430.95 -3.63775 1428.42 0.993366C1427.3 3.04646 1426.08 3.62973 1424.29 1.78661C1421.44 -1.12971 1418.05 -1.51467 1414.34 -0.301481C1401.35 3.97968 1391.42 11.1538 1391.53 29.235C1391.54 31.2414 1391.36 33.2479 1391.16 35.2543C1390.85 38.5672 1389.88 41.6469 1386.4 42.8484C1382.65 44.1549 1379.53 42.5801 1377.02 39.8271C1372.36 34.706 1371.72 28.2668 1371.36 22.6908Z" fill="white" fill-opacity="0.15"/>
<path d="M1217.08 115.966C1216.6 116.795 1215.98 118.731 1214.68 119.933C1211.66 122.721 1208.5 125.439 1205.06 127.667C1194.14 134.747 1183.05 141.56 1172.07 148.559C1155.02 159.42 1138.03 170.373 1120.99 181.222C1118.05 183.088 1114.99 184.803 1111.85 186.331C1110.18 187.148 1108.18 188.034 1106.46 187.813C1104.72 187.591 1102.47 186.413 1101.72 184.978C1101.06 183.718 1101.62 181.117 1102.6 179.857C1104.18 177.827 1106.41 176.183 1108.62 174.771C1122.35 165.987 1135.94 156.97 1149.98 148.711C1166.52 138.982 1182.5 128.495 1197.79 116.9C1201.3 114.24 1205.2 111.965 1209.21 110.157C1213.33 108.291 1217.13 110.869 1217.08 115.966Z" fill="white" fill-opacity="0.15"/>
<path d="M221.486 335.495C222.116 325.848 223.083 318.312 226.871 311.441C230.706 304.489 237.035 301.701 246.068 302.972C252.328 303.859 257.887 308.817 258.96 315.792C261.035 329.266 257.456 341.398 247.724 351.01C239.879 358.756 228.643 356.283 224.26 346.146C222.559 342.261 222.069 337.852 221.486 335.495Z" fill="white" fill-opacity="0.15"/>
<path d="M8.04472 356.912C7.62511 366.186 7.31041 374.107 6.87914 382.04C6.77424 384.034 6.54112 386.076 5.96999 387.977C4.22161 393.856 -1.90935 395.501 -6.18704 391.08C-7.95873 389.249 -9.56723 386.787 -10.1267 384.349C-11.7585 377.268 -13.5069 370.094 -13.9498 362.885C-14.6025 352.34 -14.2062 341.736 -14.1363 331.156C-14.1247 328.846 -13.7983 326.501 -13.2854 324.238C-12.318 319.957 -9.05437 317.087 -4.97484 316.574C-0.988543 316.084 3.07934 318.149 4.87434 322.103C5.94668 324.471 6.72762 327.131 6.87914 329.697C7.46193 339.205 7.71836 348.723 8.04472 356.912Z" fill="white" fill-opacity="0.15"/>
<path d="M950.791 107.077C951.363 104.674 952.248 100.65 953.251 96.6603C954.44 91.9475 955.768 87.2698 956.981 82.557C958.006 78.5675 960.687 75.7678 964.778 75.9311C968.147 76.0594 971.784 76.7944 974.756 78.3225C981.225 81.6588 987.402 85.59 993.603 89.4278C996.96 91.5042 998.953 94.5605 998.522 98.7134C998.091 102.901 995.282 105.013 991.703 106.704C984.756 110.005 977.949 113.587 971.084 117.063C969.487 117.879 967.96 118.883 966.305 119.536C958.135 122.814 950.57 117.529 950.791 107.077Z" fill="white" fill-opacity="0.15"/>
<path d="M931.489 291.622C918.61 291.517 907.828 287.236 899.669 277.309C896.603 273.576 894.4 269.353 893.806 264.465C893.247 259.904 895.088 256.043 898.597 254.2C902.07 252.38 906.348 253.068 909.774 256.078C910.882 257.058 911.977 258.096 912.84 259.286C922.841 273.028 936.478 276.667 952.458 273.413C956.13 272.666 959.615 270.986 963.205 269.785C964.219 269.446 965.303 269.306 966.352 269.073C966.387 270.181 966.701 271.371 966.41 272.398C964.802 278.09 961.002 282.138 956.176 285.288C948.6 290.246 940.01 291.26 931.489 291.622Z" fill="white" fill-opacity="0.15"/>
<path d="M1461.47 297.221C1461.23 298.213 1460.86 300.184 1460.34 302.121C1455.95 318.149 1451.54 334.165 1447.18 350.205C1446.82 351.523 1446.83 352.935 1446.51 354.265C1445.6 358.114 1442.24 360.366 1438.45 359.747C1434.73 359.141 1432.27 355.816 1432.64 351.885C1434.09 336.72 1435.55 321.555 1436.99 306.379C1437.41 301.958 1437.38 297.455 1438.24 293.127C1439.51 286.734 1445.23 282.862 1451.32 283.655C1457.4 284.471 1461.68 289.732 1461.47 297.221Z" fill="white" fill-opacity="0.15"/>
<path d="M506.576 -22.5821C518.814 -21.9638 531.053 -21.4272 543.28 -20.6807C547.593 -20.4124 550.157 -18.1843 550.728 -14.953C551.264 -11.8967 549.621 -9.17867 545.798 -7.28889C541.334 -5.09582 536.648 -3.33437 532.312 -0.919661C525.773 2.71991 519.456 6.76775 513.045 10.6406C511.693 11.4572 510.434 12.4838 508.989 13.102C504.932 14.8285 501.063 13.0904 499.442 8.96085C499.209 8.36592 498.953 7.75931 498.883 7.14105C498.254 1.70503 496.202 -3.14773 493.708 -8.01215C489.826 -15.5829 493.125 -21.3572 501.541 -22.7221C503.207 -22.9904 504.897 -23.072 506.587 -23.2354C506.576 -23.0137 506.576 -22.7921 506.576 -22.5821Z" fill="white" fill-opacity="0.15"/>
<path d="M351.309 444.717C351.379 464.746 336.424 484.426 317.075 489.524C314.488 490.2 311.621 490.352 308.951 490.06C305.711 489.71 303.613 487.155 303.298 484.064C302.972 480.88 304.289 478.407 307.086 476.983C308.753 476.132 310.641 475.63 312.483 475.199C333.662 470.276 346.098 443.119 328.615 423.685C326.015 420.792 325.701 417.934 327.601 415.717C329.466 413.536 332.321 413.384 335.701 415.286C345.574 420.862 351.262 431.594 351.309 444.717Z" fill="white" fill-opacity="0.15"/>
<path d="M1259.74 207.982C1260.35 197.67 1263.2 187.708 1269.61 179.017C1271.21 176.847 1273.35 174.993 1275.52 173.359C1279.29 170.525 1283.13 172.438 1286.57 174.094C1289.49 175.494 1289.27 178.772 1288.9 181.479C1287.57 191.336 1286.02 201.158 1284.61 211.003C1284.25 213.511 1283.98 216.043 1283.84 218.574C1283.68 221.642 1284.87 223.998 1287.66 225.573C1289.63 226.681 1288.82 228.373 1287.89 229.668C1285.97 232.362 1283.08 232.957 1279.99 232.759C1268.6 232.047 1261.26 224.815 1260.02 213.138C1259.87 211.552 1259.85 209.953 1259.74 207.982Z" fill="white" fill-opacity="0.15"/>
<path d="M1417.47 267.86C1411.56 266.903 1406.94 266.343 1402.42 265.375C1398.6 264.559 1395.4 262.482 1393.11 259.216C1389.71 254.363 1389.91 248.729 1394.34 244.856C1407.61 233.272 1429.75 231.616 1441.56 250.514C1444.42 255.086 1442.4 261.036 1436.54 263.077C1430.03 265.329 1423.13 266.483 1417.47 267.86Z" fill="white" fill-opacity="0.15"/>
<path d="M234.016 471.711C233.911 478.173 232.734 482.839 229.739 486.91C224.307 494.294 214.982 495.706 207.569 490.317C199.34 484.332 196.52 471.862 201.345 462.903C201.951 461.783 202.546 460.675 203.117 459.532C207.406 450.911 217.29 448.38 225.1 454.061C231.557 458.739 233.713 465.551 234.016 471.711ZM217.756 478.931C220.647 474.919 220.134 468.328 217.127 465.598C215.507 464.14 214.19 464.723 213.992 466.613C213.514 471.046 214.679 475.082 217.756 478.931Z" fill="white" fill-opacity="0.15"/>
<path d="M519.222 458.692C512.241 458.692 505.247 458.75 498.265 458.657C496.284 458.634 494.221 458.412 492.344 457.817C489.955 457.059 488.521 455.192 488.393 452.579C488.253 449.838 489.465 447.692 491.959 446.77C494.209 445.942 496.657 445.51 499.058 445.324C512.567 444.262 526.099 443.399 539.597 442.267C540.995 442.151 542.569 440.926 543.56 439.783C545.903 437.065 547.884 434.043 550.11 431.22C551.672 429.237 553.759 428.071 556.23 429.261C558.526 430.369 558.537 432.574 558.036 434.79C556.346 442.256 552.768 448.893 548.14 454.808C546.777 456.546 543.56 457.467 541.135 457.584C533.85 457.934 526.531 457.712 519.222 457.712C519.222 458.039 519.222 458.365 519.222 458.692Z" fill="white" fill-opacity="0.15"/>
<path d="M900.764 317.904C881.311 317.134 869.585 306.157 866.391 287.796C865.715 283.888 866.531 280.167 869.398 277.192C871.566 274.941 874.294 274.066 877.231 275.151C879.993 276.177 881.719 278.044 882.36 281.345C882.919 284.238 884.947 286.828 886.194 289.604C891.952 302.389 902.443 307.288 915.777 307.475C916.628 307.487 917.502 307.37 918.306 307.545C919.134 307.732 919.903 308.21 920.696 308.56C920.276 309.341 920.031 310.345 919.402 310.87C913.83 315.524 907.303 317.636 900.764 317.904Z" fill="white" fill-opacity="0.15"/>
<path d="M92.3631 135.821C85.2997 135.914 81.9778 131.586 83.3182 126.092C84.6703 120.551 86.3021 115.068 87.7124 109.539C88.54 106.261 89.2277 102.948 89.8921 99.6349C90.4049 97.0685 91.5822 95.0505 94.1465 94.1756C96.7107 93.3007 98.6806 94.3622 100.814 95.9137C109.614 102.341 112.353 112.525 116.945 121.531C118.507 124.599 117.155 128.18 114.02 129.253C106.338 131.866 98.4941 133.989 92.3631 135.821Z" fill="white" fill-opacity="0.15"/>
<path d="M388.735 146.518C387.616 149.049 387.243 151.452 385.845 152.77C379.597 158.615 375.809 166.069 371.625 173.301C371.042 174.304 370.482 175.331 369.83 176.287C368.221 178.644 366.03 180.02 363.104 179.577C360.19 179.134 358.489 177.221 357.638 174.468C356.122 169.627 354.712 164.739 352.999 159.968C352.311 158.043 351.122 156.2 349.817 154.59C348.231 152.654 347.229 150.706 348.01 148.209C348.826 145.596 350.772 144.138 353.395 143.951C360.353 143.45 367.324 143.018 374.294 142.773C377.837 142.645 381.451 142.691 384.947 143.251C386.288 143.461 387.383 145.304 388.735 146.518Z" fill="white" fill-opacity="0.15"/>
<path d="M239.471 385.528C234.319 385.271 229.703 384.361 227.326 379.31C225.799 376.079 226.626 375.6 229.971 374.644C241.348 371.389 252.222 367.015 259.869 357.298C260.918 355.956 261.372 354.066 261.839 352.363C263.167 347.581 266.512 344.968 270.732 345.586C274.94 346.204 277.644 350.042 277.352 354.976C276.898 362.804 273.518 369.196 267.701 374.306C259.566 381.433 249.833 384.536 239.471 385.528Z" fill="white" fill-opacity="0.15"/>
<path d="M81.9074 235.011C80.8933 238.732 80.124 242.43 78.8652 245.953C76.1727 253.477 73.2471 260.919 70.2982 268.338C70.0301 269.015 68.7363 269.901 68.2001 269.738C65.8573 269.05 63.1065 268.56 61.4281 266.997C57.3485 263.194 53.8285 258.796 50.0054 254.725C44.7952 249.184 45.0983 243.421 51.7421 239.817C59.1319 235.804 66.9646 232.561 74.7623 229.341C78.329 227.871 81.8608 231.009 81.9074 235.011Z" fill="white" fill-opacity="0.15"/>
<path d="M734.354 148.116C729.366 148.069 725.1 146.518 722.733 141.817C720.239 136.847 721.521 132.169 724.342 127.702C725.286 126.22 726.009 124.599 726.825 123.036C726.918 122.849 726.965 122.639 727.046 122.441C730.986 113.598 747.56 110.262 754.496 116.935C758.33 120.621 759.018 125.217 757.794 130.14C755.44 139.589 744.075 148.233 734.354 148.116ZM732.932 138.247C738.527 138.34 744.868 133.534 746.535 128.635C747.537 125.695 746.523 124.354 743.539 125.38C739.704 126.71 735.87 128.39 732.536 130.653C731.254 131.516 731.102 134.409 730.986 136.416C730.951 137.139 732.571 137.932 732.932 138.247Z" fill="white" fill-opacity="0.15"/>
<path d="M584.903 327.504C591.011 327.586 595.813 329.767 598.237 335.798C599.578 339.111 599.718 341.678 596.85 344.886C592.036 350.275 586.558 354.556 580.52 358.301C574.261 362.185 566.254 358.721 564.622 351.488C561.906 339.438 572.058 327.423 584.903 327.504Z" fill="white" fill-opacity="0.15"/>
<path d="M446.362 181.91C447.154 178.749 447.621 175.447 448.81 172.438C451.852 164.785 459.055 161.356 466.561 163.666C474.429 166.08 478.835 173.149 477.226 181.128C475.874 187.836 471.958 192.619 465.582 195.185C455.826 199.105 446.572 192.584 446.362 181.91Z" fill="white" fill-opacity="0.15"/>
<path d="M1262.21 139.052C1263.61 137.419 1264.95 135.727 1266.41 134.153C1268.69 131.668 1270.77 128.88 1273.44 126.908C1277.57 123.864 1283.2 125.427 1284.12 130.35C1285.7 138.655 1291.13 142.412 1298.17 145.048C1298.43 145.141 1298.59 145.491 1298.79 145.713C1294.68 151.499 1283.79 149.854 1275.78 142.085C1275.02 142.89 1274.31 143.765 1273.47 144.488C1271.22 146.401 1269.12 148.594 1266.61 150.052C1260.82 153.377 1254.92 151.359 1252.7 145.06C1251.5 141.653 1251.21 137.839 1251.03 134.176C1250.88 131.026 1251.42 127.842 1251.73 124.68C1251.98 122.254 1253.07 120.306 1255.75 120.143C1258.39 119.979 1259.96 121.694 1260.44 124.05C1260.96 126.617 1261.07 129.288 1261.21 131.925C1261.33 134.188 1261.23 136.474 1261.23 138.749C1261.57 138.842 1261.9 138.947 1262.21 139.052Z" fill="white" fill-opacity="0.15"/>
<path d="M396.545 183.905C396.09 185.958 395.636 189.796 394.389 193.354C391.649 201.135 388.596 208.822 385.472 216.463C384.738 218.259 383.455 220.009 382.01 221.316C378.315 224.664 373.688 223.112 372.592 218.224C372.231 216.614 372.114 214.76 372.546 213.208C375.669 201.881 378.805 190.566 382.29 179.344C383.689 174.841 387.08 172.94 390.647 173.616C394.459 174.328 396.627 177.454 396.545 183.905Z" fill="white" fill-opacity="0.15"/>
<path d="M849.619 73.1782C851.274 70.9268 852.288 68.5588 854.071 67.2989C860.459 62.7844 867.079 58.6083 873.676 54.3971C876.812 52.4023 879.318 53.7089 880.122 57.4068C880.95 61.2213 881.882 65.0242 882.896 68.7921C883.7 71.79 883.397 73.8898 880.204 75.5463C873.735 78.8942 867.51 82.6971 861.17 86.3017C858.57 87.7832 856.099 87.0016 854.806 84.7385C852.812 81.2273 851.449 77.3544 849.619 73.1782Z" fill="white" fill-opacity="0.15"/>
<path d="M1094.12 140.825C1094.17 132.799 1095.86 130.501 1101.75 129.277C1109.19 127.725 1116.46 128.962 1123.48 131.598C1126.03 132.554 1128.04 134.678 1127.56 137.372C1127.21 139.367 1125.63 141.49 1124 142.832C1120.09 146.028 1115.84 148.781 1111.72 151.721C1110.44 152.642 1109.25 153.727 1107.89 154.52C1103.51 157.04 1098.66 155.745 1096.8 151.056C1095.29 147.194 1094.66 142.96 1094.12 140.825Z" fill="white" fill-opacity="0.15"/>
<path d="M750.556 269.633C750.218 272.993 748.528 275.116 745.835 275.197C743.259 275.279 741.301 273.401 740.986 270.333C739.261 252.975 737.548 235.605 735.904 218.236C735.753 216.684 735.59 214.818 736.289 213.593C737.128 212.135 738.818 210.443 740.299 210.292C741.767 210.14 743.586 211.563 744.949 212.671C745.625 213.22 745.847 214.573 745.94 215.588C747.514 233.611 749.029 251.622 750.556 269.633Z" fill="white" fill-opacity="0.15"/>
<path d="M231.499 108.431C232.909 100.183 234.086 92.4608 235.601 84.7968C236.615 79.6874 240.019 77.0394 244.087 77.5643C248.33 78.1126 251.512 81.7871 250.742 86.8265C249.239 96.6254 247.117 106.331 245.043 116.036C244.693 117.704 243.516 119.314 242.397 120.679C239.448 124.272 235.706 124.027 233.981 119.711C232.536 116.095 232.245 112.012 231.499 108.431Z" fill="white" fill-opacity="0.15"/>
<path d="M421.698 370.934C425.23 371.039 427.41 372.369 428.494 375.099C429.624 377.957 429.03 380.651 426.629 382.565C424.659 384.128 422.456 385.481 420.183 386.577C411.616 390.719 402.979 394.743 394.354 398.756C392.256 399.736 390.064 401.031 387.862 401.159C386.067 401.264 383.689 400.284 382.477 398.954C380.833 397.158 381.544 394.766 383.188 392.912C383.607 392.445 384.085 391.978 384.621 391.664C395.951 385.061 407.28 378.458 418.645 371.926C419.705 371.319 421.022 371.144 421.698 370.934Z" fill="white" fill-opacity="0.15"/>
<path d="M482.064 288.391C482.064 283.526 481.994 278.662 482.099 273.809C482.134 272.258 482.39 270.613 482.95 269.178C483.906 266.705 485.864 265.329 488.591 265.329C491.307 265.329 493.312 266.635 494.244 269.143C494.815 270.695 495.095 272.421 495.153 274.089C495.48 283.386 495.725 292.695 495.958 301.992C495.981 303.147 495.876 304.326 495.655 305.457C494.932 309.143 492.111 311.546 488.614 311.558C485.001 311.57 481.784 309.038 481.551 305.177C481.225 299.601 481.469 293.99 481.469 288.391C481.668 288.391 481.866 288.391 482.064 288.391Z" fill="white" fill-opacity="0.15"/>
<path d="M1415.31 14.7468C1419.52 15.1901 1423.6 15.4934 1426.23 19.1796C1427.32 20.6961 1427.64 21.5593 1425.17 22.8192C1419.87 25.5372 1415.63 29.6784 1413.49 35.5577C1412.82 37.4358 1412.26 39.4189 1411.23 41.1104C1407.56 47.1647 1400.51 47.1297 1396.93 41.0054C1393.54 35.2077 1394.05 29.3635 1397.87 24.0091C1402.13 18.0481 1408.27 15.3068 1415.31 14.7468Z" fill="white" fill-opacity="0.15"/>
<path d="M407.688 55.5985C408.271 54.292 408.982 51.5273 410.555 49.3926C413.481 45.4031 416.861 41.7169 420.148 37.9956C423.785 33.8778 427.596 29.9116 431.233 25.7821C433.622 23.0641 436.629 22.1542 439.38 23.6007C442.049 25.0122 443.308 28.2435 442.201 31.5681C441.676 33.1429 440.86 34.706 439.881 36.0475C433.459 44.8198 425.754 52.3556 417.199 59.0281C416.208 59.8097 415.113 60.4979 413.982 61.0579C410.392 62.8193 407.595 60.9995 407.688 55.5985Z" fill="white" fill-opacity="0.15"/>
<path d="M1427.28 420.512C1426.1 423.253 1424.93 426.006 1423.75 428.748C1421.42 427.499 1418.98 426.403 1416.78 424.956C1415.39 424.046 1414.48 422.39 1413.08 421.492C1410.47 419.824 1407.82 417.91 1404.9 417.094C1398.96 415.414 1395.95 412.334 1396.53 407.365C1397.1 402.501 1401.65 399.036 1407.35 399.129C1417.64 399.304 1426.64 409.15 1427.28 420.512Z" fill="white" fill-opacity="0.15"/>
<path d="M35.7738 342.179C35.226 343.917 34.9695 347.405 33.8272 347.72C31.7292 348.304 28.6054 347.732 26.8104 346.414C19.5022 341.036 14.1056 333.99 11.4248 325.23C10.0727 320.832 11.8094 316.947 15.2246 315.046C18.6164 313.156 22.7542 313.856 26.0178 316.912C26.7871 317.636 27.5331 318.417 28.0926 319.304C32.4052 326.163 34.1303 333.874 35.7738 342.179Z" fill="white" fill-opacity="0.15"/>
<path d="M360.54 427.686C360.622 420.29 355.948 413.816 349.374 411.331C348.581 411.028 347.754 410.841 346.973 410.526C344.805 409.639 343.511 408.065 343.651 405.65C343.802 403.13 345.259 401.357 347.672 400.996C349.7 400.692 351.997 400.622 353.885 401.287C364.678 405.067 371.135 412.812 373.292 423.964C373.735 426.228 373.21 428.829 372.546 431.115C371.637 434.253 368.758 436.061 366.112 435.781C363.209 435.478 361.1 433.122 360.657 429.657C360.54 428.701 360.54 427.744 360.54 427.686Z" fill="white" fill-opacity="0.15"/>
<path d="M115.185 89.2996C111.502 89.1713 108.658 87.6664 106.874 84.6218C104.368 80.329 102.014 75.9428 99.7175 71.5217C99.0998 70.3319 98.7617 68.9204 98.5869 67.5789C97.8759 62.0146 102.748 58.1533 107.958 60.2181C109.392 60.7897 110.826 61.7229 111.863 62.8544C115.301 66.599 118.682 70.4019 121.829 74.3797C124.253 77.436 124.614 80.9822 122.784 84.5401C121.176 87.6431 118.46 89.0546 115.185 89.2996Z" fill="white" fill-opacity="0.15"/>
<path d="M1114.87 209.988C1112.96 208.507 1110.86 207.457 1109.6 205.766C1108.09 203.736 1108.72 201.321 1110.24 199.28C1110.56 198.86 1110.91 198.428 1111.34 198.137C1120.43 191.966 1129.49 185.76 1138.66 179.717C1140.86 178.271 1143.64 177.711 1145.57 180.149C1147.65 182.75 1146.17 185.223 1144.24 187.195C1141.89 189.609 1139.39 191.919 1136.8 194.065C1131.67 198.3 1126.47 202.476 1121.18 206.512C1119.47 207.819 1117.39 208.624 1114.87 209.988Z" fill="white" fill-opacity="0.15"/>
<path d="M183.756 0.981762C183.931 -0.943007 183.978 -2.10954 184.153 -3.25274C185.062 -9.02704 189.339 -12.9932 194.55 -12.9349C199.946 -12.8766 204.912 -8.45545 205.04 -2.63448C205.121 0.935094 204.294 4.72629 202.965 8.05089C201.357 12.0637 197.848 14.2218 193.314 13.8135C188.78 13.4169 186.053 10.5939 184.724 6.46443C184.094 4.48134 183.989 2.33493 183.756 0.981762Z" fill="white" fill-opacity="0.15"/>
<path d="M1219.43 173.208C1211.81 173.138 1208.04 169.358 1208.08 161.846C1208.12 155.558 1212.72 150.811 1218.79 150.787C1226.09 150.764 1232.31 155.78 1232.19 161.578C1231.99 169.848 1228.22 173.278 1219.43 173.208Z" fill="white" fill-opacity="0.15"/>
<path d="M873.991 154.672C874.76 152.607 875.401 149.399 877.021 146.809C879.714 142.493 884.376 142.691 888.013 146.249C895.484 153.563 891.708 159.909 886.031 165.87C884.061 167.935 881.287 168.005 879.143 166.034C876.194 163.316 874.562 159.781 873.991 154.672Z" fill="white" fill-opacity="0.15"/>
<path d="M1196.86 269.621C1198.5 271.289 1199.97 272.421 1200.97 273.856C1203.35 277.262 1205.45 280.878 1207.8 284.308C1209.5 286.781 1208.83 289.091 1205.83 289.336C1200.33 289.779 1194.97 290.432 1190 293.174C1189.15 293.64 1186.94 293.115 1186.4 292.334C1185.66 291.237 1185.32 289.231 1185.81 288.017C1187.56 283.736 1189.75 279.63 1191.75 275.454C1192.16 274.602 1192.36 273.588 1192.96 272.923C1193.96 271.849 1195.19 270.998 1196.86 269.621Z" fill="white" fill-opacity="0.15"/>
<path d="M609.299 334.025C607.853 332.847 605.93 332.03 605.394 330.666C604.858 329.277 605.499 327.294 605.988 325.685C606.233 324.903 607.247 324.285 608.04 323.771C613.029 320.563 618.006 317.344 623.087 314.288C624.498 313.448 626.211 312.864 627.843 312.701C631.631 312.328 633.974 315.652 632.645 319.222C632.54 319.514 632.412 319.84 632.214 320.062C626.106 326.933 617.936 330.292 609.299 334.025Z" fill="white" fill-opacity="0.15"/>
<path d="M54.4931 302.564C46.6488 301.258 40.7742 298.283 36.5665 292.789C35.5524 291.47 35.599 288.717 36.1818 286.956C36.9395 284.646 39.4338 283.853 41.7417 284.355C47.9426 285.708 53.619 288.367 57.8034 293.22C59.0972 294.725 59.9947 297.805 59.3187 299.461C58.6543 301.083 55.7869 301.806 54.4931 302.564Z" fill="white" fill-opacity="0.15"/>
<path d="M767.748 259.484C767.492 263.065 767.34 266.658 766.932 270.216C766.617 272.923 765.417 275.127 762.247 275.244C759.589 275.337 757.538 273.401 757.328 270.1C757.118 266.74 757.351 263.345 757.479 259.974C757.608 256.288 757.899 252.602 757.981 248.904C758.039 246.337 759.111 244.564 761.629 244.063C764.193 243.549 766.256 244.914 766.734 247.247C767.538 251.237 767.713 255.355 768.144 259.414C768.005 259.438 767.876 259.461 767.748 259.484Z" fill="white" fill-opacity="0.15"/>
<path d="M1099.17 252.754C1094.27 252.707 1090.1 248.834 1090.57 244.098C1091.21 237.589 1093.27 234.077 1098.09 234.171C1103.89 234.276 1108.63 238.417 1108.61 243.48C1108.59 248.414 1104.11 252.812 1099.17 252.754Z" fill="white" fill-opacity="0.15"/>
<path d="M12.2058 162.954C12.1009 157.425 15.7026 152.514 19.8637 152.514C23.6985 152.514 26.9039 156.048 26.9971 160.388C27.1137 165.345 23.3838 169.743 19.0245 169.778C15.1781 169.813 12.2758 166.909 12.2058 162.954Z" fill="white" fill-opacity="0.15"/>
<path d="M235.17 428.491C235.088 433.495 232.454 436.493 228.2 436.446C223.876 436.4 219.668 432.107 219.738 427.826C219.796 424.373 224.167 420.57 228.048 420.582C232.314 420.605 235.252 423.871 235.17 428.491Z" fill="white" fill-opacity="0.15"/>
<path d="M1440.65 412.264C1439.23 415.122 1437.95 418.062 1436.34 420.803C1435.41 422.39 1433.69 422.612 1432.92 420.687C1431.27 416.511 1429.55 412.288 1428.61 407.925C1427.92 404.764 1430.16 402.232 1432.82 401.777C1435.3 401.357 1437.7 402.932 1438.74 405.989C1439.38 407.867 1439.66 409.873 1440.09 411.821C1440.29 411.973 1440.48 412.113 1440.65 412.264Z" fill="white" fill-opacity="0.15"/>
<path d="M1009.5 445.65C1013.14 445.744 1015.94 448.823 1015.77 452.591C1015.62 456.347 1012.66 459.275 1009.07 459.217C1005.45 459.159 1002.68 456.091 1002.81 452.265C1002.96 448.485 1005.91 445.557 1009.5 445.65Z" fill="white" fill-opacity="0.15"/>
<path d="M477.122 398.546C477.145 394.871 479.721 392.107 483.113 392.118C486.714 392.13 489.78 395.035 489.745 398.406C489.71 401.905 486.738 404.833 483.241 404.81C479.698 404.787 477.11 402.139 477.122 398.546Z" fill="white" fill-opacity="0.15"/>
<path d="M647.658 300.488C651.948 300.441 654.803 302.412 654.885 305.504C654.978 308.63 651.225 312.001 647.553 312.083C644.045 312.165 641.283 309.703 641.189 306.414C641.096 303.101 643.905 300.534 647.658 300.488Z" fill="white" fill-opacity="0.15"/>
<path d="M592.619 44.4699C592.468 40.702 594.205 38.8473 598.063 38.6606C601.012 38.5207 603.354 40.807 603.541 44.0383C603.739 47.4212 601.326 50.8042 598.482 50.5359C594.951 50.2093 592.293 49.416 592.619 44.4699Z" fill="white" fill-opacity="0.15"/>
<path d="M1445.69 226.262C1445.63 229.528 1443.51 231.756 1440.51 231.686C1437.14 231.616 1434.34 228.828 1434.43 225.62C1434.5 222.599 1436.94 220.266 1440 220.301C1443.26 220.359 1445.74 222.96 1445.69 226.262Z" fill="white" fill-opacity="0.15"/>
<path d="M1102.81 347.907C1104.1 348.094 1106.01 348.245 1107.84 348.677C1110.57 349.33 1112.75 350.777 1113.33 353.763C1113.94 356.889 1112.42 359.222 1109.93 360.715C1107.6 362.115 1105.07 363.503 1102.46 364.04C1097.19 365.137 1091.83 365.848 1086.47 366.361C1064.13 368.508 1041.78 370.526 1019.43 372.567C1018.07 372.696 1016.68 372.766 1015.32 372.649C1012.66 372.427 1010.69 371.051 1009.89 368.461C1009.05 365.743 1009.86 363.223 1012.17 361.719C1014.16 360.424 1016.51 359.304 1018.83 358.966C1038.83 356.084 1058.84 353.343 1078.87 350.66C1086.63 349.645 1094.41 348.864 1102.81 347.907Z" fill="white" fill-opacity="0.15"/>
<path d="M1127.89 367.085C1128.73 360.587 1129.49 354.078 1130.45 347.604C1130.73 345.76 1131.39 343.882 1132.26 342.226C1133.73 339.45 1136.2 338.12 1139.38 338.586C1142.41 339.03 1144.62 340.896 1145.01 343.824C1145.39 346.565 1145.5 349.692 1144.52 352.188C1142.24 358.067 1139.34 363.725 1136.5 369.383C1135.4 371.599 1134.14 374.13 1131.01 373.839C1129.09 373.675 1128.01 370.852 1127.89 367.085Z" fill="white" fill-opacity="0.15"/>
<path d="M1144.41 364.238C1146.12 358.966 1147.41 353.833 1149.46 349.015C1151.03 345.352 1154.79 344.139 1157.93 345.399C1161.05 346.647 1163.13 350.17 1161.69 353.81C1159.78 358.662 1157.11 363.282 1154.34 367.715C1153.05 369.756 1150.58 372.252 1148.09 370.771C1146.31 369.721 1145.7 366.676 1144.41 364.238Z" fill="white" fill-opacity="0.15"/>
<path d="M611.304 247.901C614.218 248.087 616.456 248.181 618.67 248.391C619.544 248.472 620.384 248.845 621.246 249.09C620.85 249.989 620.71 251.272 620.022 251.715C616.677 253.85 613.413 256.475 609.707 257.594C602.282 259.846 595.953 254.153 597.025 246.454C598.412 236.445 604.345 229.563 613.134 225.072C614.229 224.512 616.374 224.593 617.202 225.328C618.181 226.18 618.833 228.175 618.589 229.481C618.122 231.931 616.933 234.252 615.989 236.597C614.614 240.003 613.169 243.409 611.304 247.901Z" fill="white" fill-opacity="0.15"/>
</g>
<defs>
<clipPath id="clip0_1071_296">
<rect width="1500" height="1042.97" fill="white" transform="translate(-30 -291)"/>
</clipPath>
</defs>
</svg>
