<svg width="40" height="40" viewBox="0 0 40 40" fill="none" xmlns="http://www.w3.org/2000/svg">
<g clip-path="url(#clip0_632_11170)">
<path d="M0.85332 19.7608C0.852383 23.1216 1.73738 26.4031 3.4202 29.2955L0.692383 39.178L10.8849 36.5262C13.704 38.049 16.8626 38.8469 20.0724 38.8472H20.0808C30.6769 38.8472 39.3024 30.2917 39.3069 19.7759C39.3089 14.6802 37.3108 9.88857 33.6805 6.28361C30.0508 2.67896 25.2235 0.692755 20.08 0.69043C9.4827 0.69043 0.857852 9.24547 0.853477 19.7608" fill="url(#paint0_linear_632_11170)"/>
<path d="M0.167188 19.7544C0.166094 23.2361 1.08281 26.635 2.82562 29.631L0 39.8678L10.558 37.1209C13.467 38.6947 16.7423 39.5245 20.0752 39.5257H20.0837C31.06 39.5257 39.9953 30.6625 40 19.7702C40.0019 14.4915 37.9319 9.5276 34.1719 5.79349C30.4114 2.05984 25.4114 0.00217054 20.0837 0C9.10562 0 0.171563 8.86202 0.167188 19.7544ZM6.45484 29.115L6.06062 28.4941C4.40344 25.8795 3.52875 22.8581 3.53 19.7557C3.53344 10.7022 10.9591 3.33643 20.09 3.33643C24.5119 3.33829 28.6675 5.04868 31.7931 8.15194C34.9186 11.2555 36.6384 15.3811 36.6373 19.769C36.6333 28.8225 29.2075 36.1891 20.0837 36.1891H20.0772C17.1064 36.1876 14.1928 35.396 11.6519 33.9L11.0472 33.5442L4.78188 35.1741L6.45484 29.115Z" fill="url(#paint1_linear_632_11170)"/>
<path d="M15.1061 11.496C14.7332 10.6738 14.3409 10.6573 13.9864 10.6428C13.6961 10.6304 13.3642 10.6314 13.0326 10.6314C12.7007 10.6314 12.1615 10.7552 11.7057 11.249C11.2495 11.7433 9.96387 12.9377 9.96387 15.367C9.96387 17.7963 11.7471 20.1442 11.9957 20.474C12.2446 20.8031 15.4384 25.948 20.4965 27.9272C24.7003 29.572 25.5557 29.2449 26.4681 29.1624C27.3806 29.0802 29.4125 27.9683 29.827 26.8152C30.2418 25.6624 30.2418 24.6742 30.1175 24.4676C29.9931 24.2619 29.6612 24.1383 29.1636 23.8915C28.6659 23.6447 26.2192 22.45 25.7631 22.2852C25.3068 22.1205 24.9751 22.0383 24.6432 22.5328C24.3114 23.0264 23.3584 24.1383 23.0679 24.4676C22.7778 24.7977 22.4873 24.8388 21.9898 24.5918C21.4918 24.3441 19.8892 23.8233 17.9878 22.1413C16.5084 20.8324 15.5096 19.2162 15.2193 18.7218C14.929 18.2281 15.1882 17.9605 15.4378 17.7145C15.6614 17.4932 15.9356 17.1379 16.1846 16.8497C16.4328 16.5613 16.5156 16.3555 16.6815 16.0262C16.8476 15.6966 16.7645 15.4083 16.6403 15.1613C16.5156 14.9143 15.5486 12.4723 15.1061 11.496Z" fill="white"/>
</g>
<defs>
<linearGradient id="paint0_linear_632_11170" x1="1931.42" y1="3849.45" x2="1931.42" y2="0.69043" gradientUnits="userSpaceOnUse">
<stop stop-color="#1FAF38"/>
<stop offset="1" stop-color="#60D669"/>
</linearGradient>
<linearGradient id="paint1_linear_632_11170" x1="2000" y1="3986.78" x2="2000" y2="0" gradientUnits="userSpaceOnUse">
<stop stop-color="#F9F9F9"/>
<stop offset="1" stop-color="white"/>
</linearGradient>
<clipPath id="clip0_632_11170">
<rect width="40" height="40" fill="white"/>
</clipPath>
</defs>
</svg>
