<svg width="20" height="21" viewBox="0 0 20 21" fill="none" xmlns="http://www.w3.org/2000/svg">
<path fill-rule="evenodd" clip-rule="evenodd" d="M18.9582 4.58937C18.9582 3.3702 17.9873 2.32437 16.7132 2.36854C15.764 2.40187 14.5248 2.5002 13.5707 2.78604C12.7415 3.03437 11.809 3.51937 11.0815 3.9402C10.7453 4.13439 10.3655 4.24063 9.97728 4.24908C9.58909 4.25753 9.20504 4.16791 8.86067 3.98854C8.03067 3.5502 6.93984 3.0302 5.99234 2.7802C5.19234 2.56937 4.179 2.4677 3.3565 2.41687C2.05817 2.3377 1.0415 3.3952 1.0415 4.64354V13.9319C1.0415 15.2119 2.07817 16.211 3.3065 16.2877C4.10567 16.3377 5.00484 16.4344 5.67317 16.611C6.50067 16.8285 7.52317 17.3144 8.34984 17.7544C8.85801 18.024 9.42454 18.165 9.99984 18.165C10.5751 18.165 11.1417 18.024 11.6498 17.7544C12.4757 17.3144 13.499 16.8294 14.3257 16.611C14.9948 16.4344 15.894 16.3377 16.6932 16.2877C17.9215 16.211 18.9582 15.2119 18.9582 13.9319V4.58937ZM16.7565 3.6177C17.269 3.6002 17.7082 4.02187 17.7082 4.58937V13.931C17.7082 14.5027 17.2348 15.0019 16.6148 15.0402C15.7982 15.0919 14.799 15.1927 14.0065 15.4019C13.0315 15.6602 11.9023 16.2035 11.0623 16.6519C10.9223 16.7269 10.7757 16.7852 10.6248 16.8277V5.4302C11.0015 5.3552 11.3682 5.21854 11.7082 5.02187C12.4165 4.61187 13.2457 4.18854 13.929 3.98354C14.7207 3.74687 15.824 3.6502 16.7565 3.6177ZM9.37484 5.4577C8.9911 5.39837 8.61992 5.27558 8.2765 5.09437C7.46234 4.66354 6.47567 4.20104 5.674 3.98937C4.9965 3.8102 4.08484 3.71437 3.27984 3.66437C2.7515 3.6327 2.2915 4.0627 2.2915 4.64354V13.9319C2.2915 14.5027 2.76484 15.0019 3.38484 15.0402C4.2015 15.0919 5.20067 15.1927 5.99317 15.4019C6.96817 15.6602 8.09734 16.2035 8.93734 16.6519C9.07734 16.7269 9.22484 16.7852 9.37484 16.8277V5.4577Z" fill="#222222"/>
</svg>
