<svg width="20" height="20" viewBox="0 0 20 20" fill="none" xmlns="http://www.w3.org/2000/svg">
<g filter="url(#filter0_d_2342_11635)">
<path fill-rule="evenodd" clip-rule="evenodd" d="M18.9587 4.1089C18.9587 2.88974 17.9878 1.8439 16.7137 1.88807C15.7645 1.9214 14.5253 2.01974 13.5712 2.30557C12.742 2.5539 11.8095 3.0389 11.082 3.45974C10.7458 3.65392 10.366 3.76016 9.97777 3.76861C9.58958 3.77706 9.20553 3.68745 8.86116 3.50807C8.03116 3.06974 6.94033 2.54974 5.99283 2.29974C5.19283 2.0889 4.17949 1.98724 3.35699 1.9364C2.05866 1.85724 1.04199 2.91474 1.04199 4.16307V13.4514C1.04199 14.7314 2.07866 15.7306 3.30699 15.8072C4.10616 15.8572 5.00533 15.9539 5.67366 16.1306C6.50116 16.3481 7.52366 16.8339 8.35033 17.2739C8.8585 17.5436 9.42503 17.6846 10.0003 17.6846C10.5756 17.6846 11.1421 17.5436 11.6503 17.2739C12.4762 16.8339 13.4995 16.3489 14.3262 16.1306C14.9953 15.9539 15.8945 15.8572 16.6937 15.8072C17.922 15.7306 18.9587 14.7314 18.9587 13.4514V4.1089ZM16.757 3.13724C17.2695 3.11974 17.7087 3.5414 17.7087 4.1089V13.4506C17.7087 14.0222 17.2353 14.5214 16.6153 14.5597C15.7987 14.6114 14.7995 14.7122 14.007 14.9214C13.032 15.1797 11.9028 15.7231 11.0628 16.1714C10.9228 16.2464 10.7762 16.3047 10.6253 16.3472V4.94974C11.002 4.87474 11.3687 4.73807 11.7087 4.5414C12.417 4.1314 13.2462 3.70807 13.9295 3.50307C14.7212 3.2664 15.8245 3.16974 16.757 3.13724ZM9.37533 4.97724C8.99159 4.9179 8.62041 4.79511 8.27699 4.6139C7.46283 4.18307 6.47616 3.72057 5.67449 3.5089C4.99699 3.32974 4.08533 3.2339 3.28033 3.1839C2.75199 3.15224 2.29199 3.58224 2.29199 4.16307V13.4514C2.29199 14.0222 2.76533 14.5214 3.38533 14.5597C4.20199 14.6114 5.20116 14.7122 5.99366 14.9214C6.96866 15.1797 8.09783 15.7231 8.93783 16.1714C9.07783 16.2464 9.22533 16.3047 9.37533 16.3472V4.97724Z" fill="#222222"/>
</g>
<defs>
<filter id="filter0_d_2342_11635" x="1.04199" y="1.88672" width="18.917" height="17.7969" filterUnits="userSpaceOnUse" color-interpolation-filters="sRGB">
<feFlood flood-opacity="0" result="BackgroundImageFix"/>
<feColorMatrix in="SourceAlpha" type="matrix" values="0 0 0 0 0 0 0 0 0 0 0 0 0 0 0 0 0 0 127 0" result="hardAlpha"/>
<feOffset dx="1" dy="2"/>
<feComposite in2="hardAlpha" operator="out"/>
<feColorMatrix type="matrix" values="0 0 0 0 1 0 0 0 0 0.831373 0 0 0 0 0.227451 0 0 0 1 0"/>
<feBlend mode="normal" in2="BackgroundImageFix" result="effect1_dropShadow_2342_11635"/>
<feBlend mode="normal" in="SourceGraphic" in2="effect1_dropShadow_2342_11635" result="shape"/>
</filter>
</defs>
</svg>
