<svg width="20" height="20" viewBox="0 0 20 20" fill="none" xmlns="http://www.w3.org/2000/svg">
<g clip-path="url(#clip0_2342_11745)">
<g filter="url(#filter0_d_2342_11745)">
<path fill-rule="evenodd" clip-rule="evenodd" d="M12.2979 2.18585C13.0297 1.45408 14.0222 1.04297 15.0571 1.04297C16.092 1.04297 17.0845 1.45408 17.8163 2.18585C18.5481 2.91763 18.9592 3.91013 18.9592 4.94502C18.9592 5.97991 18.5481 6.97241 17.8163 7.70419L9.91127 15.6092C9.45961 16.0609 9.19461 16.3259 8.89794 16.5567C8.54961 16.8292 8.17294 17.0625 7.77294 17.2525C7.43461 17.4134 7.07794 17.5325 6.47294 17.7342L3.69627 18.6592L3.02794 18.8825C2.76213 18.9713 2.47686 18.9842 2.20411 18.9199C1.93136 18.8555 1.68193 18.7165 1.48377 18.5184C1.28562 18.3202 1.14659 18.0708 1.08226 17.798C1.01794 17.5253 1.03087 17.24 1.11961 16.9742L2.26794 13.53C2.46961 12.9242 2.58877 12.5675 2.74961 12.2284C2.94044 11.8292 3.17294 11.4525 3.44544 11.1034C3.67544 10.8084 3.94127 10.5425 4.39294 10.0909L12.2979 2.18585ZM3.66711 17.3525L6.03461 16.5625C6.69378 16.3425 6.97377 16.2484 7.23461 16.1242C7.55127 15.9725 7.85127 15.7875 8.12878 15.5717C8.35628 15.3934 8.56628 15.1859 9.05794 14.6942L15.3663 8.38585C14.5014 8.07937 13.7163 7.58273 13.0688 6.93252C12.4191 6.28491 11.9231 5.4998 11.6171 4.63502L5.30877 10.9434C4.81711 11.4342 4.60877 11.6434 4.43127 11.8717C4.21548 12.149 4.03024 12.4488 3.87877 12.7659C3.75461 13.0267 3.66044 13.3067 3.44044 13.9659L2.65044 16.335L3.66711 17.3525ZM12.6296 3.62085C12.6588 3.76669 12.7063 3.96502 12.7871 4.19585C13.0308 4.89343 13.4297 5.52657 13.9538 6.04752C14.4745 6.57145 15.1073 6.97036 15.8046 7.21419C16.0363 7.29502 16.2346 7.34252 16.3804 7.37169L16.9321 6.82002C17.4265 6.32214 17.7034 5.6486 17.7022 4.94694C17.701 4.24528 17.4217 3.57272 16.9256 3.07657C16.4294 2.58042 15.7568 2.30115 15.0552 2.29992C14.3535 2.29869 13.68 2.57561 13.1821 3.07002L12.6296 3.62085Z" fill="#222222"/>
</g>
</g>
<defs>
<filter id="filter0_d_2342_11745" x="1.04199" y="1.04297" width="18.917" height="19.918" filterUnits="userSpaceOnUse" color-interpolation-filters="sRGB">
<feFlood flood-opacity="0" result="BackgroundImageFix"/>
<feColorMatrix in="SourceAlpha" type="matrix" values="0 0 0 0 0 0 0 0 0 0 0 0 0 0 0 0 0 0 127 0" result="hardAlpha"/>
<feOffset dx="1" dy="2"/>
<feComposite in2="hardAlpha" operator="out"/>
<feColorMatrix type="matrix" values="0 0 0 0 1 0 0 0 0 0.831373 0 0 0 0 0.227451 0 0 0 1 0"/>
<feBlend mode="normal" in2="BackgroundImageFix" result="effect1_dropShadow_2342_11745"/>
<feBlend mode="normal" in="SourceGraphic" in2="effect1_dropShadow_2342_11745" result="shape"/>
</filter>
<clipPath id="clip0_2342_11745">
<rect width="20" height="20" fill="white"/>
</clipPath>
</defs>
</svg>
