<svg width="20" height="21" viewBox="0 0 20 21" fill="none" xmlns="http://www.w3.org/2000/svg">
<path fill-rule="evenodd" clip-rule="evenodd" d="M10 7.35547C9.1712 7.35547 8.37634 7.68471 7.79029 8.27076C7.20424 8.85681 6.875 9.65167 6.875 10.4805C6.875 11.3093 7.20424 12.1041 7.79029 12.6902C8.37634 13.2762 9.1712 13.6055 10 13.6055C10.8288 13.6055 11.6237 13.2762 12.2097 12.6902C12.7958 12.1041 13.125 11.3093 13.125 10.4805C13.125 9.65167 12.7958 8.85681 12.2097 8.27076C11.6237 7.68471 10.8288 7.35547 10 7.35547ZM8.125 10.4805C8.125 9.98319 8.32254 9.50627 8.67417 9.15464C9.02581 8.80301 9.50272 8.60547 10 8.60547C10.4973 8.60547 10.9742 8.80301 11.3258 9.15464C11.6775 9.50627 11.875 9.98319 11.875 10.4805C11.875 10.9777 11.6775 11.4547 11.3258 11.8063C10.9742 12.1579 10.4973 12.3555 10 12.3555C9.50272 12.3555 9.02581 12.1579 8.67417 11.8063C8.32254 11.4547 8.125 10.9777 8.125 10.4805Z" fill="#222222"/>
<path fill-rule="evenodd" clip-rule="evenodd" d="M9.97931 1.52344C9.60847 1.52344 9.2993 1.52344 9.04597 1.5401C8.78698 1.55053 8.53154 1.60404 8.29014 1.69844C8.01201 1.81351 7.75928 1.98225 7.54638 2.19501C7.33347 2.40777 7.16457 2.66039 7.0493 2.93844C6.92847 3.2301 6.89597 3.53844 6.88264 3.87344C6.88115 3.99592 6.84865 4.11603 6.78817 4.22256C6.7277 4.32908 6.64122 4.41855 6.5368 4.4826C6.42916 4.54121 6.30841 4.57156 6.18585 4.57083C6.06329 4.5701 5.94291 4.53831 5.83597 4.47844C5.5393 4.32177 5.25597 4.19594 4.94264 4.15427C4.64426 4.11502 4.34107 4.13493 4.05038 4.21286C3.7597 4.29078 3.48721 4.4252 3.24847 4.60844C3.0463 4.7705 2.87253 4.96511 2.7343 5.18427C2.59264 5.39594 2.43764 5.66344 2.25264 5.98427L2.2318 6.02094C2.04597 6.34177 1.8918 6.60927 1.78014 6.8376C1.66347 7.07594 1.5718 7.31094 1.53847 7.57094C1.45897 8.17343 1.62204 8.78283 1.9918 9.2651C2.1843 9.51594 2.43514 9.69844 2.71847 9.87677C2.824 9.93934 2.91192 10.0277 2.97401 10.1335C3.0361 10.2393 3.07032 10.3591 3.07347 10.4818C3.07032 10.6044 3.0361 10.7243 2.97401 10.8301C2.91192 10.9359 2.824 11.0242 2.71847 11.0868C2.43514 11.2651 2.18514 11.4476 1.9918 11.6984C1.80857 11.9372 1.67415 12.2097 1.59622 12.5003C1.5183 12.791 1.49839 13.0942 1.53764 13.3926C1.5718 13.6526 1.66264 13.8876 1.7793 14.1259C1.8918 14.3543 2.04597 14.6218 2.2318 14.9426L2.25264 14.9793C2.43764 15.3001 2.59264 15.5676 2.7343 15.7793C2.8818 15.9984 3.04014 16.1959 3.24847 16.3543C3.48715 16.5377 3.75961 16.6722 4.0503 16.7503C4.34098 16.8284 4.6442 16.8484 4.94264 16.8093C5.25597 16.7676 5.5393 16.6426 5.83597 16.4851C5.94281 16.4254 6.06304 16.3937 6.18544 16.3929C6.30784 16.3922 6.42843 16.4225 6.53597 16.4809C6.64123 16.5442 6.72848 16.6334 6.78933 16.7401C6.85018 16.8468 6.8826 16.9673 6.88347 17.0901C6.89597 17.4251 6.92847 17.7334 7.05014 18.0251C7.16521 18.3032 7.33395 18.556 7.54671 18.7689C7.75947 18.9818 8.01209 19.1507 8.29014 19.2659C8.53181 19.3659 8.7818 19.4051 9.04597 19.4226C9.2993 19.4401 9.60847 19.4401 9.97931 19.4401H10.021C10.3918 19.4401 10.701 19.4401 10.9543 19.4234C11.2193 19.4051 11.4685 19.3659 11.7101 19.2651C11.9883 19.15 12.241 18.9813 12.4539 18.7685C12.6668 18.5558 12.8357 18.3032 12.951 18.0251C13.0718 17.7334 13.1043 17.4251 13.1176 17.0901C13.119 16.9675 13.1514 16.8472 13.2119 16.7405C13.2724 16.6338 13.3589 16.5442 13.4635 16.4801C13.5712 16.4216 13.692 16.3914 13.8145 16.3923C13.9371 16.3932 14.0574 16.4251 14.1643 16.4851C14.461 16.6418 14.7443 16.7676 15.0576 16.8084C15.6601 16.8879 16.2695 16.7249 16.7518 16.3551C16.9601 16.1951 17.1185 15.9984 17.266 15.7793C17.4076 15.5676 17.5626 15.3001 17.7476 14.9793L17.7685 14.9426C17.9543 14.6218 18.1085 14.3543 18.2201 14.1259C18.3368 13.8876 18.4285 13.6518 18.4618 13.3926C18.5413 12.7901 18.3782 12.1807 18.0085 11.6984C17.816 11.4476 17.5651 11.2651 17.2818 11.0868C17.1763 11.0242 17.0884 10.9359 17.0263 10.8301C16.9642 10.7243 16.93 10.6044 16.9268 10.4818C16.9268 10.2501 17.0535 10.0201 17.2818 9.87677C17.5651 9.69844 17.8151 9.51594 18.0085 9.2651C18.1917 9.02637 18.3261 8.75388 18.4041 8.46319C18.482 8.17251 18.5019 7.86932 18.4626 7.57094C18.4234 7.31477 18.3417 7.06693 18.221 6.8376C18.0786 6.56075 17.9277 6.2884 17.7685 6.02094L17.7476 5.98427C17.5954 5.71267 17.4348 5.44587 17.266 5.18427C17.1277 4.96541 16.9539 4.77109 16.7518 4.60927C16.5131 4.42589 16.2407 4.29132 15.95 4.21325C15.6593 4.13518 15.3561 4.11514 15.0576 4.15427C14.7443 4.19594 14.461 4.32094 14.1643 4.47844C14.0575 4.53817 13.9372 4.56987 13.8148 4.5706C13.6924 4.57133 13.5718 4.54106 13.4643 4.4826C13.3596 4.41875 13.2728 4.32937 13.212 4.22283C13.1512 4.1163 13.1185 3.99608 13.1168 3.87344C13.1043 3.53844 13.0718 3.2301 12.9501 2.93844C12.8351 2.66031 12.6663 2.40758 12.4536 2.19468C12.2408 1.98177 11.9882 1.81287 11.7101 1.6976C11.4685 1.5976 11.2185 1.55844 10.9543 1.54094C10.701 1.52344 10.3918 1.52344 10.021 1.52344H9.97931ZM8.76847 2.8526C8.83264 2.82594 8.93014 2.80177 9.13097 2.7876C9.3368 2.77344 9.60347 2.77344 10.0001 2.77344C10.3968 2.77344 10.6635 2.77344 10.8693 2.7876C11.0701 2.80177 11.1676 2.82594 11.2318 2.8526C11.4876 2.95844 11.6901 3.16094 11.796 3.41677C11.8293 3.49677 11.8568 3.6226 11.8676 3.9201C11.8926 4.5801 12.2335 5.21594 12.8385 5.5651C13.4435 5.91427 14.1643 5.89177 14.7485 5.58344C15.0118 5.44427 15.1343 5.4051 15.221 5.39427C15.4948 5.35809 15.7717 5.43213 15.991 5.6001C16.046 5.6426 16.116 5.7151 16.2285 5.88177C16.3443 6.05344 16.4776 6.28427 16.676 6.6276C16.8743 6.97094 17.0068 7.2026 17.0976 7.3876C17.1868 7.56844 17.2143 7.6651 17.2226 7.73427C17.2588 8.00808 17.1848 8.28504 17.0168 8.50427C16.9635 8.57344 16.8685 8.6601 16.6168 8.81844C16.0568 9.1701 15.6768 9.78344 15.6768 10.4818C15.6768 11.1801 16.0568 11.7934 16.6168 12.1451C16.8685 12.3034 16.9635 12.3901 17.0168 12.4593C17.1851 12.6784 17.2585 12.9551 17.2226 13.2293C17.2143 13.2984 17.186 13.3959 17.0976 13.5759C17.0068 13.7618 16.8743 13.9926 16.676 14.3359C16.4776 14.6793 16.3435 14.9101 16.2285 15.0818C16.116 15.2484 16.046 15.3209 15.991 15.3634C15.7717 15.5314 15.4948 15.6054 15.221 15.5693C15.1343 15.5584 15.0126 15.5193 14.7485 15.3801C14.1651 15.0718 13.4435 15.0484 12.8385 15.3976C12.2335 15.7468 11.8926 16.3834 11.8676 17.0434C11.8568 17.3409 11.8293 17.4668 11.796 17.5468C11.7436 17.6733 11.6668 17.7882 11.57 17.885C11.4732 17.9818 11.3583 18.0586 11.2318 18.1109C11.1676 18.1376 11.0701 18.1618 10.8693 18.1759C10.6635 18.1901 10.3968 18.1901 10.0001 18.1901C9.60347 18.1901 9.3368 18.1901 9.13097 18.1759C8.93014 18.1618 8.83264 18.1376 8.76847 18.1109C8.64197 18.0586 8.52704 17.9818 8.43023 17.885C8.33343 17.7882 8.25666 17.6733 8.20431 17.5468C8.17097 17.4668 8.14347 17.3409 8.13264 17.0434C8.10764 16.3834 7.7668 15.7476 7.1618 15.3984C6.5568 15.0493 5.83597 15.0718 5.2518 15.3801C4.98847 15.5193 4.86597 15.5584 4.7793 15.5693C4.5055 15.6054 4.22854 15.5314 4.0093 15.3634C3.9543 15.3209 3.8843 15.2484 3.7718 15.0818C3.61504 14.8378 3.4658 14.5891 3.3243 14.3359C3.12597 13.9926 2.99347 13.7609 2.90264 13.5759C2.81347 13.3951 2.78597 13.2984 2.77764 13.2293C2.74146 12.9555 2.8155 12.6785 2.98347 12.4593C3.0368 12.3901 3.1318 12.3034 3.38347 12.1451C3.94347 11.7934 4.32347 11.1801 4.32347 10.4818C4.32347 9.78344 3.94347 9.1701 3.38347 8.81844C3.1318 8.6601 3.0368 8.57344 2.98347 8.50427C2.8155 8.28504 2.74146 8.00808 2.77764 7.73427C2.78597 7.6651 2.8143 7.5676 2.90264 7.3876C2.99347 7.20177 3.12597 6.97094 3.3243 6.6276C3.52264 6.28427 3.6568 6.05344 3.7718 5.88177C3.8843 5.7151 3.9543 5.6426 4.0093 5.6001C4.22854 5.43213 4.5055 5.35809 4.7793 5.39427C4.86597 5.4051 4.98764 5.44427 5.2518 5.58344C5.83514 5.89177 6.5568 5.9151 7.1618 5.5651C7.7668 5.21594 8.10764 4.5801 8.13264 3.9201C8.14347 3.6226 8.17097 3.49677 8.20431 3.41677C8.31014 3.16094 8.51264 2.95844 8.76847 2.8526Z" fill="#222222"/>
</svg>
