<svg width="20" height="21" viewBox="0 0 20 21" fill="none" xmlns="http://www.w3.org/2000/svg">
<path fill-rule="evenodd" clip-rule="evenodd" d="M10 7.35547C9.1712 7.35547 8.37634 7.68471 7.79029 8.27076C7.20424 8.85681 6.875 9.65167 6.875 10.4805C6.875 11.3093 7.20424 12.1041 7.79029 12.6902C8.37634 13.2762 9.1712 13.6055 10 13.6055C10.8288 13.6055 11.6237 13.2762 12.2097 12.6902C12.7958 12.1041 13.125 11.3093 13.125 10.4805C13.125 9.65167 12.7958 8.85681 12.2097 8.27076C11.6237 7.68471 10.8288 7.35547 10 7.35547ZM8.125 10.4805C8.125 9.98319 8.32254 9.50627 8.67417 9.15464C9.02581 8.80301 9.50272 8.60547 10 8.60547C10.4973 8.60547 10.9742 8.80301 11.3258 9.15464C11.6775 9.50627 11.875 9.98319 11.875 10.4805C11.875 10.9777 11.6775 11.4547 11.3258 11.8063C10.9742 12.1579 10.4973 12.3555 10 12.3555C9.50272 12.3555 9.02581 12.1579 8.67417 11.8063C8.32254 11.4547 8.125 10.9777 8.125 10.4805Z" fill="white"/>
<path fill-rule="evenodd" clip-rule="evenodd" d="M9.97882 1.52344C9.60798 1.52344 9.29882 1.52344 9.04548 1.5401C8.78649 1.55053 8.53105 1.60404 8.28965 1.69844C8.01153 1.81351 7.75879 1.98225 7.54589 2.19501C7.33298 2.40777 7.16408 2.66039 7.04882 2.93844C6.92798 3.2301 6.89548 3.53844 6.88215 3.87344C6.88066 3.99592 6.84816 4.11603 6.78769 4.22256C6.72721 4.32908 6.64073 4.41855 6.53632 4.4826C6.42867 4.54121 6.30792 4.57156 6.18536 4.57083C6.0628 4.5701 5.94243 4.53831 5.83548 4.47844C5.53882 4.32177 5.25548 4.19594 4.94215 4.15427C4.64377 4.11502 4.34058 4.13493 4.0499 4.21286C3.75921 4.29078 3.48672 4.4252 3.24798 4.60844C3.04581 4.7705 2.87204 4.96511 2.73382 5.18427C2.59215 5.39594 2.43715 5.66344 2.25215 5.98427L2.23132 6.02094C2.04548 6.34177 1.89132 6.60927 1.77965 6.8376C1.66298 7.07594 1.57132 7.31094 1.53798 7.57094C1.45848 8.17343 1.62155 8.78283 1.99132 9.2651C2.18382 9.51594 2.43465 9.69844 2.71798 9.87677C2.82351 9.93934 2.91143 10.0277 2.97352 10.1335C3.03561 10.2393 3.06983 10.3591 3.07298 10.4818C3.06983 10.6044 3.03561 10.7243 2.97352 10.8301C2.91143 10.9359 2.82351 11.0242 2.71798 11.0868C2.43465 11.2651 2.18465 11.4476 1.99132 11.6984C1.80808 11.9372 1.67366 12.2097 1.59574 12.5003C1.51781 12.791 1.4979 13.0942 1.53715 13.3926C1.57132 13.6526 1.66215 13.8876 1.77882 14.1259C1.89132 14.3543 2.04548 14.6218 2.23132 14.9426L2.25215 14.9793C2.43715 15.3001 2.59215 15.5676 2.73382 15.7793C2.88132 15.9984 3.03965 16.1959 3.24798 16.3543C3.48666 16.5377 3.75912 16.6722 4.04981 16.7503C4.3405 16.8284 4.64372 16.8484 4.94215 16.8093C5.25548 16.7676 5.53882 16.6426 5.83548 16.4851C5.94232 16.4254 6.06255 16.3937 6.18495 16.3929C6.30735 16.3922 6.42794 16.4225 6.53548 16.4809C6.64075 16.5442 6.72799 16.6334 6.78884 16.7401C6.84969 16.8468 6.88211 16.9673 6.88298 17.0901C6.89548 17.4251 6.92798 17.7334 7.04965 18.0251C7.16472 18.3032 7.33346 18.556 7.54622 18.7689C7.75898 18.9818 8.0116 19.1507 8.28965 19.2659C8.53132 19.3659 8.78132 19.4051 9.04548 19.4226C9.29882 19.4401 9.60798 19.4401 9.97882 19.4401H10.0205C10.3913 19.4401 10.7005 19.4401 10.9538 19.4234C11.2188 19.4051 11.468 19.3659 11.7097 19.2651C11.9878 19.15 12.2405 18.9813 12.4534 18.7685C12.6663 18.5558 12.8352 18.3032 12.9505 18.0251C13.0713 17.7334 13.1038 17.4251 13.1172 17.0901C13.1185 16.9675 13.1509 16.8472 13.2114 16.7405C13.2719 16.6338 13.3585 16.5442 13.463 16.4801C13.5707 16.4216 13.6915 16.3914 13.814 16.3923C13.9366 16.3932 14.0569 16.4251 14.1638 16.4851C14.4605 16.6418 14.7438 16.7676 15.0572 16.8084C15.6596 16.8879 16.269 16.7249 16.7513 16.3551C16.9597 16.1951 17.118 15.9984 17.2655 15.7793C17.4072 15.5676 17.5622 15.3001 17.7472 14.9793L17.768 14.9426C17.9538 14.6218 18.108 14.3543 18.2197 14.1259C18.3363 13.8876 18.428 13.6518 18.4613 13.3926C18.5408 12.7901 18.3778 12.1807 18.008 11.6984C17.8155 11.4476 17.5647 11.2651 17.2813 11.0868C17.1758 11.0242 17.0879 10.9359 17.0258 10.8301C16.9637 10.7243 16.9295 10.6044 16.9263 10.4818C16.9263 10.2501 17.053 10.0201 17.2813 9.87677C17.5647 9.69844 17.8147 9.51594 18.008 9.2651C18.1912 9.02637 18.3256 8.75388 18.4036 8.46319C18.4815 8.17251 18.5014 7.86932 18.4622 7.57094C18.4229 7.31477 18.3412 7.06693 18.2205 6.8376C18.0782 6.56075 17.9273 6.2884 17.768 6.02094L17.7472 5.98427C17.5949 5.71267 17.4343 5.44587 17.2655 5.18427C17.1272 4.96541 16.9534 4.77109 16.7513 4.60927C16.5126 4.42589 16.2402 4.29132 15.9495 4.21325C15.6588 4.13518 15.3556 4.11514 15.0572 4.15427C14.7438 4.19594 14.4605 4.32094 14.1638 4.47844C14.057 4.53817 13.9368 4.56987 13.8144 4.5706C13.692 4.57133 13.5714 4.54106 13.4638 4.4826C13.3591 4.41875 13.2723 4.32937 13.2115 4.22283C13.1507 4.1163 13.118 3.99608 13.1163 3.87344C13.1038 3.53844 13.0713 3.2301 12.9496 2.93844C12.8346 2.66031 12.6658 2.40758 12.4531 2.19468C12.2403 1.98177 11.9877 1.81287 11.7097 1.6976C11.468 1.5976 11.218 1.55844 10.9538 1.54094C10.7005 1.52344 10.3913 1.52344 10.0205 1.52344H9.97882ZM8.76798 2.8526C8.83215 2.82594 8.92965 2.80177 9.13048 2.7876C9.33632 2.77344 9.60298 2.77344 9.99965 2.77344C10.3963 2.77344 10.663 2.77344 10.8688 2.7876C11.0697 2.80177 11.1671 2.82594 11.2313 2.8526C11.4872 2.95844 11.6896 3.16094 11.7955 3.41677C11.8288 3.49677 11.8563 3.6226 11.8672 3.9201C11.8921 4.5801 12.233 5.21594 12.838 5.5651C13.443 5.91427 14.1638 5.89177 14.748 5.58344C15.0113 5.44427 15.1338 5.4051 15.2205 5.39427C15.4943 5.35809 15.7713 5.43213 15.9905 5.6001C16.0455 5.6426 16.1155 5.7151 16.228 5.88177C16.3438 6.05344 16.4771 6.28427 16.6755 6.6276C16.8738 6.97094 17.0063 7.2026 17.0972 7.3876C17.1863 7.56844 17.2138 7.6651 17.2221 7.73427C17.2583 8.00808 17.1843 8.28504 17.0163 8.50427C16.963 8.57344 16.868 8.6601 16.6163 8.81844C16.0563 9.1701 15.6763 9.78344 15.6763 10.4818C15.6763 11.1801 16.0563 11.7934 16.6163 12.1451C16.868 12.3034 16.963 12.3901 17.0163 12.4593C17.1847 12.6784 17.258 12.9551 17.2221 13.2293C17.2138 13.2984 17.1855 13.3959 17.0972 13.5759C17.0063 13.7618 16.8738 13.9926 16.6755 14.3359C16.4771 14.6793 16.343 14.9101 16.228 15.0818C16.1155 15.2484 16.0455 15.3209 15.9905 15.3634C15.7713 15.5314 15.4943 15.6054 15.2205 15.5693C15.1338 15.5584 15.0122 15.5193 14.748 15.3801C14.1646 15.0718 13.443 15.0484 12.838 15.3976C12.233 15.7468 11.8921 16.3834 11.8672 17.0434C11.8563 17.3409 11.8288 17.4668 11.7955 17.5468C11.7431 17.6733 11.6664 17.7882 11.5696 17.885C11.4728 17.9818 11.3578 18.0586 11.2313 18.1109C11.1671 18.1376 11.0697 18.1618 10.8688 18.1759C10.663 18.1901 10.3963 18.1901 9.99965 18.1901C9.60298 18.1901 9.33632 18.1901 9.13048 18.1759C8.92965 18.1618 8.83215 18.1376 8.76798 18.1109C8.64149 18.0586 8.52655 17.9818 8.42974 17.885C8.33294 17.7882 8.25617 17.6733 8.20382 17.5468C8.17048 17.4668 8.14298 17.3409 8.13215 17.0434C8.10715 16.3834 7.76632 15.7476 7.16132 15.3984C6.55632 15.0493 5.83548 15.0718 5.25132 15.3801C4.98798 15.5193 4.86548 15.5584 4.77882 15.5693C4.50501 15.6054 4.22805 15.5314 4.00882 15.3634C3.95382 15.3209 3.88382 15.2484 3.77132 15.0818C3.61455 14.8378 3.46531 14.5891 3.32382 14.3359C3.12548 13.9926 2.99298 13.7609 2.90215 13.5759C2.81298 13.3951 2.78548 13.2984 2.77715 13.2293C2.74097 12.9555 2.81501 12.6785 2.98298 12.4593C3.03632 12.3901 3.13132 12.3034 3.38298 12.1451C3.94298 11.7934 4.32298 11.1801 4.32298 10.4818C4.32298 9.78344 3.94298 9.1701 3.38298 8.81844C3.13132 8.6601 3.03632 8.57344 2.98298 8.50427C2.81501 8.28504 2.74097 8.00808 2.77715 7.73427C2.78548 7.6651 2.81382 7.5676 2.90215 7.3876C2.99298 7.20177 3.12548 6.97094 3.32382 6.6276C3.52215 6.28427 3.65632 6.05344 3.77132 5.88177C3.88382 5.7151 3.95382 5.6426 4.00882 5.6001C4.22805 5.43213 4.50501 5.35809 4.77882 5.39427C4.86548 5.4051 4.98715 5.44427 5.25132 5.58344C5.83465 5.89177 6.55632 5.9151 7.16132 5.5651C7.76632 5.21594 8.10715 4.5801 8.13215 3.9201C8.14298 3.6226 8.17048 3.49677 8.20382 3.41677C8.30965 3.16094 8.51215 2.95844 8.76798 2.8526Z" fill="white"/>
</svg>
