<svg width="20" height="20" viewBox="0 0 20 20" fill="none" xmlns="http://www.w3.org/2000/svg">
<g clip-path="url(#clip0_2342_11630)">
<g filter="url(#filter0_d_2342_11630)">
<path fill-rule="evenodd" clip-rule="evenodd" d="M7.88699 2.35058C8.5475 2.03744 9.26935 1.875 10.0003 1.875C10.7313 1.875 11.4531 2.03744 12.1137 2.35058L17.6887 4.96558C18.567 5.37558 18.9587 6.26891 18.9587 7.08391C18.9587 7.89891 18.567 8.79224 17.6895 9.20308L16.4587 9.77974V13.8547C16.4587 14.8989 15.9353 15.9072 14.982 16.4356C14.3553 16.7822 13.532 17.1997 12.6653 17.5322C11.8095 17.8606 10.862 18.1256 10.0003 18.1256C9.13866 18.1256 8.19116 17.8606 7.33449 17.5322C6.46782 17.1997 5.64533 16.7822 5.01866 16.4356C4.06533 15.9072 3.54199 14.8989 3.54199 13.8547V9.77974L2.31116 9.20224L2.29199 9.19391V11.6672C2.29199 11.833 2.22614 11.992 2.10893 12.1092C1.99172 12.2264 1.83275 12.2922 1.66699 12.2922C1.50123 12.2922 1.34226 12.2264 1.22505 12.1092C1.10784 11.992 1.04199 11.833 1.04199 11.6672V7.08391C1.04199 6.26891 1.43449 5.37558 2.31116 4.96558L7.88699 2.35058ZM4.79199 10.3664V13.8556C4.79199 14.4914 5.10783 15.0564 5.62449 15.3431C6.31981 15.7327 7.04094 16.0743 7.78282 16.3656C8.58533 16.6739 9.36532 16.8764 10.0003 16.8764C10.6353 16.8764 11.4153 16.6739 12.2187 16.3656C12.9605 16.0743 13.6817 15.7327 14.377 15.3431C14.8937 15.0564 15.2087 14.4914 15.2087 13.8556V10.3664L12.1137 11.8172C11.4531 12.1304 10.7313 12.2928 10.0003 12.2928C9.26935 12.2928 8.5475 12.1304 7.88699 11.8172L4.79199 10.3664ZM2.84199 8.07058C2.50616 7.91308 2.29199 7.53724 2.29199 7.08391C2.29199 6.63058 2.50616 6.25474 2.84199 6.09724L8.41783 3.48308C8.91222 3.24785 9.45283 3.1258 10.0003 3.1258C10.5478 3.1258 11.0884 3.24785 11.5828 3.48308L17.1587 6.09724C17.4945 6.25474 17.7087 6.63058 17.7087 7.08391C17.7087 7.53724 17.4945 7.91308 17.1587 8.07058L11.5828 10.6847C11.0884 10.92 10.5478 11.042 10.0003 11.042C9.45283 11.042 8.91222 10.92 8.41783 10.6847L2.84199 8.07058Z" fill="black"/>
</g>
</g>
<defs>
<filter id="filter0_d_2342_11630" x="1.04199" y="1.875" width="18.917" height="18.25" filterUnits="userSpaceOnUse" color-interpolation-filters="sRGB">
<feFlood flood-opacity="0" result="BackgroundImageFix"/>
<feColorMatrix in="SourceAlpha" type="matrix" values="0 0 0 0 0 0 0 0 0 0 0 0 0 0 0 0 0 0 127 0" result="hardAlpha"/>
<feOffset dx="1" dy="2"/>
<feComposite in2="hardAlpha" operator="out"/>
<feColorMatrix type="matrix" values="0 0 0 0 1 0 0 0 0 0.831373 0 0 0 0 0.227451 0 0 0 1 0"/>
<feBlend mode="normal" in2="BackgroundImageFix" result="effect1_dropShadow_2342_11630"/>
<feBlend mode="normal" in="SourceGraphic" in2="effect1_dropShadow_2342_11630" result="shape"/>
</filter>
<clipPath id="clip0_2342_11630">
<rect width="20" height="20" fill="white"/>
</clipPath>
</defs>
</svg>
