<svg width="20" height="20" viewBox="0 0 20 20" fill="none" xmlns="http://www.w3.org/2000/svg">
<path d="M7.70703 11.6673C8.37007 11.6673 9.00596 11.9307 9.4748 12.3996C9.94364 12.8684 10.207 13.5043 10.207 14.1673C10.207 14.8304 9.94364 15.4662 9.4748 15.9351C9.00596 16.4039 8.37007 16.6673 7.70703 16.6673C7.04399 16.6673 6.40811 16.4039 5.93926 15.9351C5.47042 15.4662 5.20703 14.8304 5.20703 14.1673C5.20703 13.5043 5.47042 12.8684 5.93926 12.3996C6.40811 11.9307 7.04399 11.6673 7.70703 11.6673ZM11.8737 3.33398C11.5454 3.33398 11.2203 3.39865 10.917 3.52429C10.6137 3.64992 10.3381 3.83407 10.1059 4.06622C9.87378 4.29836 9.68964 4.57396 9.564 4.87728C9.43836 5.18059 9.3737 5.50568 9.3737 5.83398C9.3737 6.16229 9.43836 6.48738 9.564 6.79069C9.68964 7.09401 9.87378 7.36961 10.1059 7.60175C10.3381 7.8339 10.6137 8.01805 10.917 8.14368C11.2203 8.26932 11.5454 8.33398 11.8737 8.33398C12.5367 8.33398 13.1726 8.07059 13.6415 7.60175C14.1103 7.13291 14.3737 6.49703 14.3737 5.83398C14.3737 5.17094 14.1103 4.53506 13.6415 4.06622C13.1726 3.59738 12.5367 3.33398 11.8737 3.33398ZM7.29036 5.17482C7.45612 5.17482 7.6151 5.24067 7.73231 5.35788C7.84952 5.47509 7.91536 5.63406 7.91536 5.79982C7.91536 5.96558 7.84952 6.12455 7.73231 6.24176C7.6151 6.35897 7.45612 6.42482 7.29036 6.42482H1.45703C1.29127 6.42482 1.1323 6.35897 1.01509 6.24176C0.897879 6.12455 0.832031 5.96558 0.832031 5.79982C0.832031 5.63406 0.897879 5.47509 1.01509 5.35788C1.1323 5.24067 1.29127 5.17482 1.45703 5.17482H7.29036ZM12.2904 13.5082C12.1246 13.5082 11.9656 13.574 11.8484 13.6912C11.7312 13.8084 11.6654 13.9674 11.6654 14.1332C11.6654 14.2989 11.7312 14.4579 11.8484 14.5751C11.9656 14.6923 12.1246 14.7582 12.2904 14.7582H18.1237C18.2895 14.7582 18.4484 14.6923 18.5656 14.5751C18.6828 14.4579 18.7487 14.2989 18.7487 14.1332C18.7487 13.9674 18.6828 13.8084 18.5656 13.6912C18.4484 13.574 18.2895 13.5082 18.1237 13.5082H12.2904ZM0.832031 14.1332C0.832031 13.9674 0.897879 13.8084 1.01509 13.6912C1.1323 13.574 1.29127 13.5082 1.45703 13.5082H3.1237C3.28946 13.5082 3.44843 13.574 3.56564 13.6912C3.68285 13.8084 3.7487 13.9674 3.7487 14.1332C3.7487 14.2989 3.68285 14.4579 3.56564 14.5751C3.44843 14.6923 3.28946 14.7582 3.1237 14.7582H1.45703C1.29127 14.7582 1.1323 14.6923 1.01509 14.5751C0.897879 14.4579 0.832031 14.2989 0.832031 14.1332ZM18.1237 5.17482C18.2895 5.17482 18.4484 5.24067 18.5656 5.35788C18.6828 5.47509 18.7487 5.63406 18.7487 5.79982C18.7487 5.96558 18.6828 6.12455 18.5656 6.24176C18.4484 6.35897 18.2895 6.42482 18.1237 6.42482H16.457C16.2913 6.42482 16.1323 6.35897 16.0151 6.24176C15.8979 6.12455 15.832 5.96558 15.832 5.79982C15.832 5.63406 15.8979 5.47509 16.0151 5.35788C16.1323 5.24067 16.2913 5.17482 16.457 5.17482H18.1237Z" fill="#222222"/>
</svg>
