<svg width="17" height="16" viewBox="0 0 17 16" fill="none" xmlns="http://www.w3.org/2000/svg">
<path fill-rule="evenodd" clip-rule="evenodd" d="M8.16732 1.83398C7.40127 1.83398 6.64273 1.98487 5.935 2.27802C5.22727 2.57117 4.5842 3.00085 4.04253 3.54253C3.50085 4.0842 3.07117 4.72727 2.77802 5.435C2.48487 6.14273 2.33398 6.90127 2.33398 7.66732C2.33398 8.43336 2.48487 9.19191 2.77802 9.89964C3.07117 10.6074 3.50085 11.2504 4.04253 11.7921C4.5842 12.3338 5.22727 12.7635 5.935 13.0566C6.64273 13.3498 7.40127 13.5007 8.16732 13.5007C9.71441 13.5007 11.1981 12.8861 12.2921 11.7921C13.3861 10.6981 14.0007 9.21441 14.0007 7.66732C14.0007 6.12022 13.3861 4.63649 12.2921 3.54253C11.1981 2.44857 9.71441 1.83398 8.16732 1.83398ZM1.33398 7.66732C1.33398 3.89398 4.39398 0.833984 8.16732 0.833984C11.9407 0.833984 15.0007 3.89398 15.0007 7.66732C15.0007 9.37398 14.3747 10.9353 13.34 12.1327L15.5207 14.314C15.5698 14.3598 15.6092 14.415 15.6365 14.4763C15.6638 14.5376 15.6785 14.6038 15.6797 14.671C15.6809 14.7381 15.6685 14.8048 15.6434 14.867C15.6183 14.9293 15.5808 14.9859 15.5333 15.0333C15.4859 15.0808 15.4293 15.1183 15.367 15.1434C15.3048 15.1685 15.2381 15.1809 15.171 15.1797C15.1038 15.1785 15.0376 15.1638 14.9763 15.1365C14.915 15.1092 14.8598 15.0698 14.814 15.0207L12.6327 12.84C11.3929 13.9134 9.80721 14.5031 8.16732 14.5007C4.39398 14.5007 1.33398 11.4407 1.33398 7.66732Z" fill="white"/>
</svg>
