<svg width="16" height="16" viewBox="0 0 16 16" fill="none" xmlns="http://www.w3.org/2000/svg">
<g clip-path="url(#clip0_1708_9374)">
<path fill-rule="evenodd" clip-rule="evenodd" d="M7.66732 1.83398C6.90127 1.83398 6.14273 1.98487 5.435 2.27802C4.72727 2.57117 4.0842 3.00085 3.54253 3.54253C3.00085 4.0842 2.57117 4.72727 2.27802 5.435C1.98487 6.14273 1.83398 6.90127 1.83398 7.66732C1.83398 8.43336 1.98487 9.19191 2.27802 9.89964C2.57117 10.6074 3.00085 11.2504 3.54253 11.7921C4.0842 12.3338 4.72727 12.7635 5.435 13.0566C6.14273 13.3498 6.90127 13.5007 7.66732 13.5007C9.21441 13.5007 10.6981 12.8861 11.7921 11.7921C12.8861 10.6981 13.5007 9.21441 13.5007 7.66732C13.5007 6.12022 12.8861 4.63649 11.7921 3.54253C10.6981 2.44857 9.21441 1.83398 7.66732 1.83398ZM0.833984 7.66732C0.833984 3.89398 3.89398 0.833984 7.66732 0.833984C11.4407 0.833984 14.5007 3.89398 14.5007 7.66732C14.5007 9.37398 13.8747 10.9353 12.84 12.1327L15.0207 14.314C15.0698 14.3598 15.1092 14.415 15.1365 14.4763C15.1638 14.5376 15.1785 14.6038 15.1797 14.671C15.1809 14.7381 15.1685 14.8048 15.1434 14.867C15.1183 14.9293 15.0808 14.9859 15.0333 15.0333C14.9859 15.0808 14.9293 15.1183 14.867 15.1434C14.8048 15.1685 14.7381 15.1809 14.671 15.1797C14.6038 15.1785 14.5376 15.1638 14.4763 15.1365C14.415 15.1092 14.3598 15.0698 14.314 15.0207L12.1327 12.84C10.8929 13.9134 9.30721 14.5031 7.66732 14.5007C3.89398 14.5007 0.833984 11.4407 0.833984 7.66732Z" fill="#222222"/>
</g>
<defs>
<clipPath id="clip0_1708_9374">
<rect width="16" height="16" fill="white"/>
</clipPath>
</defs>
</svg>
