<svg width="16" height="16" viewBox="0 0 16 16" fill="none" xmlns="http://www.w3.org/2000/svg">
<path d="M3.71934 3.71981C3.85997 3.57936 4.05059 3.50047 4.24934 3.50047C4.44809 3.50047 4.63871 3.57936 4.77934 3.71981L7.99934 6.93981L11.2193 3.71981C11.311 3.62109 11.4276 3.54892 11.5569 3.5109C11.6861 3.47289 11.8232 3.47044 11.9537 3.50381C12.0843 3.53719 12.2034 3.60515 12.2985 3.70053C12.3937 3.79592 12.4613 3.9152 12.4943 4.04581C12.5276 4.1762 12.5253 4.31314 12.4874 4.44228C12.4496 4.57142 12.3777 4.68801 12.2793 4.77981L9.05934 7.99981L12.2793 11.2198C12.3781 11.3115 12.4502 11.4281 12.4882 11.5573C12.5263 11.6866 12.5287 11.8237 12.4953 11.9542C12.462 12.0847 12.394 12.2038 12.2986 12.299C12.2032 12.3941 12.084 12.4618 11.9533 12.4948C11.823 12.5281 11.686 12.5257 11.5569 12.4879C11.4277 12.4501 11.3111 12.3782 11.2193 12.2798L7.99934 9.05981L4.77934 12.2798C4.63719 12.4125 4.44909 12.4847 4.2547 12.4814C4.06031 12.478 3.87482 12.3993 3.73734 12.2618C3.59987 12.1243 3.52115 11.9388 3.5178 11.7445C3.51444 11.5501 3.5867 11.362 3.71934 11.2198L6.93934 7.99981L3.71934 4.77981C3.57889 4.63919 3.5 4.44856 3.5 4.24981C3.5 4.05106 3.57889 3.86044 3.71934 3.71981Z" fill="#222222"/>
</svg>
