<svg width="20" height="20" viewBox="0 0 20 20" fill="none" xmlns="http://www.w3.org/2000/svg">
<path fill-rule="evenodd" clip-rule="evenodd" d="M3.69153 7.09328C3.74497 7.03093 3.81017 6.97972 3.88341 6.94258C3.95665 6.90544 4.03649 6.88309 4.11837 6.87682C4.20025 6.87055 4.28257 6.88048 4.36061 6.90604C4.43865 6.9316 4.51089 6.97229 4.57319 7.02578L9.99986 11.6766L15.4265 7.02578C15.553 6.92422 15.7141 6.87584 15.8756 6.89086C16.0372 6.90589 16.1866 6.98315 16.2922 7.1063C16.3978 7.22945 16.4514 7.38885 16.4416 7.55079C16.4319 7.71274 16.3595 7.86454 16.2399 7.97411L10.4065 12.9741C10.2933 13.0712 10.149 13.1245 9.99986 13.1245C9.8507 13.1245 9.70646 13.0712 9.59319 12.9741L3.75986 7.97411C3.63418 7.86621 3.55648 7.71283 3.54382 7.54767C3.53116 7.3825 3.58459 7.21907 3.69236 7.09328" fill="#222222"/>
</svg>
