<svg width="20" height="21" viewBox="0 0 20 21" fill="none" xmlns="http://www.w3.org/2000/svg">
<path d="M14.1667 12.1471C14.3877 12.1471 14.5996 12.0593 14.7559 11.9031C14.9122 11.7468 15 11.5348 15 11.3138C15 11.0928 14.9122 10.8808 14.7559 10.7245C14.5996 10.5683 14.3877 10.4805 14.1667 10.4805C13.9457 10.4805 13.7337 10.5683 13.5774 10.7245C13.4211 10.8808 13.3333 11.0928 13.3333 11.3138C13.3333 11.5348 13.4211 11.7468 13.5774 11.9031C13.7337 12.0593 13.9457 12.1471 14.1667 12.1471ZM14.1667 15.4805C14.3877 15.4805 14.5996 15.3927 14.7559 15.2364C14.9122 15.0801 15 14.8681 15 14.6471C15 14.4261 14.9122 14.2142 14.7559 14.0579C14.5996 13.9016 14.3877 13.8138 14.1667 13.8138C13.9457 13.8138 13.7337 13.9016 13.5774 14.0579C13.4211 14.2142 13.3333 14.4261 13.3333 14.6471C13.3333 14.8681 13.4211 15.0801 13.5774 15.2364C13.7337 15.3927 13.9457 15.4805 14.1667 15.4805ZM10.8333 11.3138C10.8333 11.5348 10.7455 11.7468 10.5893 11.9031C10.433 12.0593 10.221 12.1471 10 12.1471C9.77899 12.1471 9.56702 12.0593 9.41074 11.9031C9.25446 11.7468 9.16667 11.5348 9.16667 11.3138C9.16667 11.0928 9.25446 10.8808 9.41074 10.7245C9.56702 10.5683 9.77899 10.4805 10 10.4805C10.221 10.4805 10.433 10.5683 10.5893 10.7245C10.7455 10.8808 10.8333 11.0928 10.8333 11.3138ZM10.8333 14.6471C10.8333 14.8681 10.7455 15.0801 10.5893 15.2364C10.433 15.3927 10.221 15.4805 10 15.4805C9.77899 15.4805 9.56702 15.3927 9.41074 15.2364C9.25446 15.0801 9.16667 14.8681 9.16667 14.6471C9.16667 14.4261 9.25446 14.2142 9.41074 14.0579C9.56702 13.9016 9.77899 13.8138 10 13.8138C10.221 13.8138 10.433 13.9016 10.5893 14.0579C10.7455 14.2142 10.8333 14.4261 10.8333 14.6471ZM5.83333 12.1471C6.05435 12.1471 6.26631 12.0593 6.42259 11.9031C6.57887 11.7468 6.66667 11.5348 6.66667 11.3138C6.66667 11.0928 6.57887 10.8808 6.42259 10.7245C6.26631 10.5683 6.05435 10.4805 5.83333 10.4805C5.61232 10.4805 5.40036 10.5683 5.24408 10.7245C5.0878 10.8808 5 11.0928 5 11.3138C5 11.5348 5.0878 11.7468 5.24408 11.9031C5.40036 12.0593 5.61232 12.1471 5.83333 12.1471ZM5.83333 15.4805C6.05435 15.4805 6.26631 15.3927 6.42259 15.2364C6.57887 15.0801 6.66667 14.8681 6.66667 14.6471C6.66667 14.4261 6.57887 14.2142 6.42259 14.0579C6.26631 13.9016 6.05435 13.8138 5.83333 13.8138C5.61232 13.8138 5.40036 13.9016 5.24408 14.0579C5.0878 14.2142 5 14.4261 5 14.6471C5 14.8681 5.0878 15.0801 5.24408 15.2364C5.40036 15.3927 5.61232 15.4805 5.83333 15.4805Z" fill="#222222"/>
<path fill-rule="evenodd" clip-rule="evenodd" d="M5.83331 1.93945C5.99907 1.93945 6.15805 2.0053 6.27526 2.12251C6.39247 2.23972 6.45831 2.39869 6.45831 2.56445V3.20029C7.00998 3.18945 7.61748 3.18945 8.28581 3.18945H11.7133C12.3825 3.18945 12.99 3.18945 13.5416 3.20029V2.56445C13.5416 2.39869 13.6075 2.23972 13.7247 2.12251C13.8419 2.0053 14.0009 1.93945 14.1666 1.93945C14.3324 1.93945 14.4914 2.0053 14.6086 2.12251C14.7258 2.23972 14.7916 2.39869 14.7916 2.56445V3.25362C15.0083 3.27029 15.2133 3.29112 15.4075 3.31695C16.3841 3.44862 17.175 3.72529 17.7991 4.34862C18.4225 4.97279 18.6991 5.76362 18.8308 6.74029C18.9583 7.69029 18.9583 8.90279 18.9583 10.4345V12.1945C18.9583 13.7261 18.9583 14.9395 18.8308 15.8886C18.6991 16.8653 18.4225 17.6561 17.7991 18.2803C17.175 18.9036 16.3841 19.1803 15.4075 19.312C14.4575 19.4395 13.245 19.4395 11.7133 19.4395H8.28748C6.75581 19.4395 5.54248 19.4395 4.59331 19.312C3.61665 19.1803 2.82581 18.9036 2.20165 18.2803C1.57831 17.6561 1.30165 16.8653 1.16998 15.8886C1.04248 14.9386 1.04248 13.7261 1.04248 12.1945V10.4345C1.04248 8.90279 1.04248 7.68945 1.16998 6.74029C1.30165 5.76362 1.57831 4.97279 2.20165 4.34862C2.82581 3.72529 3.61665 3.44862 4.59331 3.31695C4.78748 3.29112 4.99331 3.27029 5.20915 3.25362V2.56445C5.20915 2.39884 5.27488 2.23999 5.39191 2.12281C5.50894 2.00562 5.6677 1.93967 5.83331 1.93945ZM4.75831 4.55612C3.92081 4.66862 3.43748 4.88029 3.08498 5.23279C2.73248 5.58529 2.52081 6.06862 2.40831 6.90695C2.38915 7.04862 2.37331 7.19862 2.35998 7.35612H17.64C17.6266 7.19779 17.6108 7.04862 17.5916 6.90612C17.4791 6.06862 17.2675 5.58529 16.915 5.23279C16.5625 4.88029 16.0791 4.66862 15.2408 4.55612C14.385 4.44112 13.2558 4.43945 11.6666 4.43945H8.33331C6.74415 4.43945 5.61581 4.44112 4.75831 4.55612ZM2.29165 10.4811C2.29165 9.76945 2.29165 9.15029 2.30248 8.60612H17.6975C17.7083 9.15029 17.7083 9.76945 17.7083 10.4811V12.1478C17.7083 13.737 17.7066 14.8661 17.5916 15.7228C17.4791 16.5603 17.2675 17.0436 16.915 17.3961C16.5625 17.7486 16.0791 17.9603 15.2408 18.0728C14.385 18.1878 13.2558 18.1895 11.6666 18.1895H8.33331C6.74415 18.1895 5.61581 18.1878 4.75831 18.0728C3.92081 17.9603 3.43748 17.7486 3.08498 17.3961C2.73248 17.0436 2.52081 16.5603 2.40831 15.722C2.29331 14.8661 2.29165 13.737 2.29165 12.1478V10.4811Z" fill="#222222"/>
</svg>
