<svg width="20" height="21" viewBox="0 0 20 21" fill="none" xmlns="http://www.w3.org/2000/svg">
<path d="M14.1667 12.1471C14.3877 12.1471 14.5996 12.0593 14.7559 11.9031C14.9122 11.7468 15 11.5348 15 11.3138C15 11.0928 14.9122 10.8808 14.7559 10.7245C14.5996 10.5683 14.3877 10.4805 14.1667 10.4805C13.9457 10.4805 13.7337 10.5683 13.5774 10.7245C13.4211 10.8808 13.3333 11.0928 13.3333 11.3138C13.3333 11.5348 13.4211 11.7468 13.5774 11.9031C13.7337 12.0593 13.9457 12.1471 14.1667 12.1471ZM14.1667 15.4805C14.3877 15.4805 14.5996 15.3927 14.7559 15.2364C14.9122 15.0801 15 14.8681 15 14.6471C15 14.4261 14.9122 14.2142 14.7559 14.0579C14.5996 13.9016 14.3877 13.8138 14.1667 13.8138C13.9457 13.8138 13.7337 13.9016 13.5774 14.0579C13.4211 14.2142 13.3333 14.4261 13.3333 14.6471C13.3333 14.8681 13.4211 15.0801 13.5774 15.2364C13.7337 15.3927 13.9457 15.4805 14.1667 15.4805ZM10.8333 11.3138C10.8333 11.5348 10.7455 11.7468 10.5893 11.9031C10.433 12.0593 10.221 12.1471 10 12.1471C9.77899 12.1471 9.56702 12.0593 9.41074 11.9031C9.25446 11.7468 9.16667 11.5348 9.16667 11.3138C9.16667 11.0928 9.25446 10.8808 9.41074 10.7245C9.56702 10.5683 9.77899 10.4805 10 10.4805C10.221 10.4805 10.433 10.5683 10.5893 10.7245C10.7455 10.8808 10.8333 11.0928 10.8333 11.3138ZM10.8333 14.6471C10.8333 14.8681 10.7455 15.0801 10.5893 15.2364C10.433 15.3927 10.221 15.4805 10 15.4805C9.77899 15.4805 9.56702 15.3927 9.41074 15.2364C9.25446 15.0801 9.16667 14.8681 9.16667 14.6471C9.16667 14.4261 9.25446 14.2142 9.41074 14.0579C9.56702 13.9016 9.77899 13.8138 10 13.8138C10.221 13.8138 10.433 13.9016 10.5893 14.0579C10.7455 14.2142 10.8333 14.4261 10.8333 14.6471ZM5.83333 12.1471C6.05435 12.1471 6.26631 12.0593 6.42259 11.9031C6.57887 11.7468 6.66667 11.5348 6.66667 11.3138C6.66667 11.0928 6.57887 10.8808 6.42259 10.7245C6.26631 10.5683 6.05435 10.4805 5.83333 10.4805C5.61232 10.4805 5.40036 10.5683 5.24408 10.7245C5.0878 10.8808 5 11.0928 5 11.3138C5 11.5348 5.0878 11.7468 5.24408 11.9031C5.40036 12.0593 5.61232 12.1471 5.83333 12.1471ZM5.83333 15.4805C6.05435 15.4805 6.26631 15.3927 6.42259 15.2364C6.57887 15.0801 6.66667 14.8681 6.66667 14.6471C6.66667 14.4261 6.57887 14.2142 6.42259 14.0579C6.26631 13.9016 6.05435 13.8138 5.83333 13.8138C5.61232 13.8138 5.40036 13.9016 5.24408 14.0579C5.0878 14.2142 5 14.4261 5 14.6471C5 14.8681 5.0878 15.0801 5.24408 15.2364C5.40036 15.3927 5.61232 15.4805 5.83333 15.4805Z" fill="white"/>
<path fill-rule="evenodd" clip-rule="evenodd" d="M5.8338 1.93945C5.99956 1.93945 6.15853 2.0053 6.27574 2.12251C6.39295 2.23972 6.4588 2.39869 6.4588 2.56445V3.20029C7.01047 3.18945 7.61797 3.18945 8.2863 3.18945H11.7138C12.383 3.18945 12.9905 3.18945 13.5421 3.20029V2.56445C13.5421 2.39869 13.608 2.23972 13.7252 2.12251C13.8424 2.0053 14.0014 1.93945 14.1671 1.93945C14.3329 1.93945 14.4919 2.0053 14.6091 2.12251C14.7263 2.23972 14.7921 2.39869 14.7921 2.56445V3.25362C15.0088 3.27029 15.2138 3.29112 15.408 3.31695C16.3846 3.44862 17.1755 3.72529 17.7996 4.34862C18.423 4.97279 18.6996 5.76362 18.8313 6.74029C18.9588 7.69029 18.9588 8.90279 18.9588 10.4345V12.1945C18.9588 13.7261 18.9588 14.9395 18.8313 15.8886C18.6996 16.8653 18.423 17.6561 17.7996 18.2803C17.1755 18.9036 16.3846 19.1803 15.408 19.312C14.458 19.4395 13.2455 19.4395 11.7138 19.4395H8.28797C6.7563 19.4395 5.54297 19.4395 4.5938 19.312C3.61714 19.1803 2.8263 18.9036 2.20214 18.2803C1.5788 17.6561 1.30214 16.8653 1.17047 15.8886C1.04297 14.9386 1.04297 13.7261 1.04297 12.1945V10.4345C1.04297 8.90279 1.04297 7.68945 1.17047 6.74029C1.30214 5.76362 1.5788 4.97279 2.20214 4.34862C2.8263 3.72529 3.61714 3.44862 4.5938 3.31695C4.78797 3.29112 4.9938 3.27029 5.20964 3.25362V2.56445C5.20964 2.39884 5.27537 2.23999 5.3924 2.12281C5.50943 2.00562 5.66819 1.93967 5.8338 1.93945ZM4.7588 4.55612C3.9213 4.66862 3.43797 4.88029 3.08547 5.23279C2.73297 5.58529 2.5213 6.06862 2.4088 6.90695C2.38964 7.04862 2.3738 7.19862 2.36047 7.35612H17.6405C17.6271 7.19779 17.6113 7.04862 17.5921 6.90612C17.4796 6.06862 17.268 5.58529 16.9155 5.23279C16.563 4.88029 16.0796 4.66862 15.2413 4.55612C14.3855 4.44112 13.2563 4.43945 11.6671 4.43945H8.3338C6.74464 4.43945 5.6163 4.44112 4.7588 4.55612ZM2.29214 10.4811C2.29214 9.76945 2.29214 9.15029 2.30297 8.60612H17.698C17.7088 9.15029 17.7088 9.76945 17.7088 10.4811V12.1478C17.7088 13.737 17.7071 14.8661 17.5921 15.7228C17.4796 16.5603 17.268 17.0436 16.9155 17.3961C16.563 17.7486 16.0796 17.9603 15.2413 18.0728C14.3855 18.1878 13.2563 18.1895 11.6671 18.1895H8.3338C6.74464 18.1895 5.6163 18.1878 4.7588 18.0728C3.9213 17.9603 3.43797 17.7486 3.08547 17.3961C2.73297 17.0436 2.5213 16.5603 2.4088 15.722C2.2938 14.8661 2.29214 13.737 2.29214 12.1478V10.4811Z" fill="white"/>
</svg>
