<svg width="76" height="76" viewBox="0 0 76 76" fill="none" xmlns="http://www.w3.org/2000/svg">
<g filter="url(#filter0_d_881_7550)">
<rect width="72" height="72" rx="8" fill="#A020F0"/>
<g clip-path="url(#clip0_881_7550)">
<path d="M35.9987 24.334C42.4422 24.334 47.6654 29.5572 47.6654 36.0007C47.6654 42.4442 42.4422 47.6673 35.9987 47.6673C33.8732 47.6706 31.7877 47.0903 29.9694 45.9897L26.432 47.0303C26.2289 47.0901 26.0135 47.094 25.8084 47.0417C25.6032 46.9894 25.416 46.8828 25.2663 46.7331C25.1166 46.5834 25.01 46.3961 24.9577 46.191C24.9054 45.9859 24.9093 45.7704 24.969 45.5673L26.0097 42.03C24.9095 40.2115 24.3292 38.1261 24.332 36.0007C24.332 29.5572 29.5552 24.334 35.9987 24.334ZM31.9154 34.2507C31.4512 34.2507 31.0061 34.435 30.6779 34.7632C30.3498 35.0914 30.1654 35.5365 30.1654 36.0007C30.1654 36.4648 30.3498 36.9099 30.6779 37.2381C31.0061 37.5663 31.4512 37.7507 31.9154 37.7507C32.3795 37.7507 32.8246 37.5663 33.1528 37.2381C33.481 36.9099 33.6654 36.4648 33.6654 36.0007C33.6654 35.5365 33.481 35.0914 33.1528 34.7632C32.8246 34.435 32.3795 34.2507 31.9154 34.2507ZM40.082 34.2507C39.6179 34.2507 39.1728 34.435 38.8446 34.7632C38.5164 35.0914 38.332 35.5365 38.332 36.0007C38.332 36.4648 38.5164 36.9099 38.8446 37.2381C39.1728 37.5663 39.6179 37.7507 40.082 37.7507C40.5462 37.7507 40.9913 37.5663 41.3195 37.2381C41.6477 36.9099 41.832 36.4648 41.832 36.0007C41.832 35.5365 41.6477 35.0914 41.3195 34.7632C40.9913 34.435 40.5462 34.2507 40.082 34.2507Z" fill="#F2F2F2"/>
</g>
</g>
<defs>
<filter id="filter0_d_881_7550" x="0" y="0" width="76" height="76" filterUnits="userSpaceOnUse" color-interpolation-filters="sRGB">
<feFlood flood-opacity="0" result="BackgroundImageFix"/>
<feColorMatrix in="SourceAlpha" type="matrix" values="0 0 0 0 0 0 0 0 0 0 0 0 0 0 0 0 0 0 127 0" result="hardAlpha"/>
<feOffset dx="4" dy="4"/>
<feComposite in2="hardAlpha" operator="out"/>
<feColorMatrix type="matrix" values="0 0 0 0 1 0 0 0 0 0.831373 0 0 0 0 0.227451 0 0 0 1 0"/>
<feBlend mode="normal" in2="BackgroundImageFix" result="effect1_dropShadow_881_7550"/>
<feBlend mode="normal" in="SourceGraphic" in2="effect1_dropShadow_881_7550" result="shape"/>
</filter>
<clipPath id="clip0_881_7550">
<rect width="28" height="28" fill="white" transform="translate(22 22)"/>
</clipPath>
</defs>
</svg>
