<svg width="20" height="20" viewBox="0 0 20 20" fill="none" xmlns="http://www.w3.org/2000/svg">
<path opacity="0.2" fill-rule="evenodd" clip-rule="evenodd" d="M3.27754 9.12007C3.81454 8.58407 4.22754 7.55807 4.21254 6.80007C4.20501 6.44218 4.27007 6.08648 4.40378 5.75443C4.5375 5.42238 4.7371 5.12086 4.99054 4.86807C5.25313 4.60489 5.56814 4.39988 5.91512 4.26637C6.26209 4.13285 6.63327 4.0738 7.00454 4.09307C7.71854 4.12907 8.62054 3.78307 9.12454 3.27707C9.37138 3.0301 9.66446 2.83418 9.98704 2.70051C10.3096 2.56685 10.6554 2.49805 11.0045 2.49805C11.3537 2.49805 11.6995 2.56685 12.022 2.70051C12.3446 2.83418 12.6377 3.0301 12.8845 3.27707C13.3895 3.78207 14.2905 4.12907 15.0045 4.09307C15.376 4.07366 15.7474 4.13264 16.0945 4.26616C16.4417 4.39968 16.7568 4.60476 17.0195 4.86807C17.2729 5.12106 17.4724 5.42278 17.606 5.75501C17.7395 6.08724 17.8043 6.44309 17.7965 6.80107C17.7815 7.55807 18.1965 8.58507 18.7315 9.12107C19.2298 9.62123 19.5091 10.2988 19.508 11.0048C19.5069 11.7108 19.2254 12.3875 18.7255 12.8861C18.1975 13.4141 17.8115 14.3241 17.7975 15.0701C17.7846 15.7565 17.5056 16.4112 17.0195 16.8961C16.5537 17.3631 15.9304 17.6395 15.2715 17.6711C14.4805 17.7111 13.4445 18.1711 12.8845 18.7311C12.6377 18.978 12.3446 19.174 12.022 19.3076C11.6995 19.4413 11.3537 19.5101 11.0045 19.5101C10.6554 19.5101 10.3096 19.4413 9.98704 19.3076C9.66446 19.174 9.37138 18.978 9.12454 18.7311C8.56454 18.1711 7.52954 17.7111 6.73854 17.6711C6.07969 17.6395 5.45635 17.3631 4.99054 16.8961C4.50484 16.4117 4.22594 15.7579 4.21254 15.0721C4.19754 14.3241 3.80654 13.4081 3.27754 12.8791C3.03072 12.6322 2.83493 12.3392 2.70135 12.0167C2.56778 11.6943 2.49902 11.3486 2.49902 10.9996C2.49902 10.6505 2.56778 10.3049 2.70135 9.98239C2.83493 9.6599 3.03072 9.36689 3.27754 9.12007Z" fill="#A020F0"/>
<path fill-rule="evenodd" clip-rule="evenodd" d="M4.19754 4.07707C4.03938 4.23466 3.91484 4.42271 3.83148 4.62983C3.74811 4.83696 3.70765 5.05885 3.71254 5.28207C3.72254 5.83207 3.58254 6.41407 3.37954 6.91807C3.17654 7.42307 2.87354 7.94007 2.48554 8.32907C2.33155 8.48303 2.20939 8.66582 2.12605 8.867C2.04271 9.06818 1.99981 9.28381 1.99981 9.50157C1.99981 9.71933 2.04271 9.93495 2.12605 10.1361C2.20939 10.3373 2.33155 10.5201 2.48554 10.6741C3.19554 11.3851 3.69154 12.5471 3.71254 13.5531C3.72044 13.9727 3.88754 14.3736 4.17999 14.6745C4.47243 14.9755 4.86836 15.1541 5.28754 15.1741C5.83754 15.2011 6.41654 15.3681 6.92454 15.5941C7.43154 15.8191 7.94354 16.1361 8.33254 16.5251C8.48651 16.6791 8.6693 16.8012 8.87048 16.8846C9.07166 16.9679 9.28728 17.0108 9.50504 17.0108C9.7228 17.0108 9.93843 16.9679 10.1396 16.8846C10.3408 16.8012 10.5236 16.6791 10.6775 16.5251C11.0665 16.1361 11.5775 15.8191 12.0855 15.5931C12.5935 15.3681 13.1725 15.2011 13.7225 15.1741C14.1422 15.1543 14.5385 14.9755 14.831 14.6741C15.1236 14.3726 15.2904 13.9711 15.2975 13.5511C15.3175 12.5491 15.8065 11.3921 16.5175 10.6811C16.6725 10.5271 16.7955 10.3441 16.8797 10.1426C16.9639 9.94107 17.0076 9.72493 17.0082 9.50652C17.0089 9.28811 16.9665 9.07171 16.8835 8.86968C16.8005 8.66766 16.6785 8.48395 16.5245 8.32907C16.1365 7.94107 15.8345 7.42407 15.6305 6.91907C15.4265 6.41507 15.2865 5.83207 15.2975 5.28207C15.3023 5.05878 15.2617 4.83684 15.1781 4.62972C15.0946 4.42259 14.9699 4.23457 14.8115 4.07707C14.6479 3.9127 14.4515 3.78465 14.2351 3.70126C14.0187 3.61786 13.7871 3.581 13.5555 3.59307C12.5595 3.64307 11.3825 3.19107 10.6775 2.48607C10.5236 2.33207 10.3408 2.20992 10.1396 2.12657C9.93843 2.04323 9.7228 2.00033 9.50504 2.00033C9.28728 2.00033 9.07166 2.04323 8.87048 2.12657C8.6693 2.20992 8.48651 2.33207 8.33254 2.48607C7.62754 3.19107 6.45054 3.64307 5.45454 3.59307C5.22277 3.58086 4.99103 3.61765 4.77444 3.70105C4.55785 3.78445 4.36128 3.91257 4.19754 4.07707ZM2.71254 5.30007C2.72754 6.05807 2.31454 7.08507 1.77754 7.62107C1.53072 7.86789 1.33493 8.1609 1.20135 8.48339C1.06778 8.80587 0.999023 9.15151 0.999023 9.50057C0.999023 9.84962 1.06778 10.1953 1.20135 10.5177C1.33493 10.8402 1.53072 11.1332 1.77754 11.3801C2.30754 11.9091 2.69754 12.8251 2.71254 13.5721C2.72654 14.2341 2.98554 14.8921 3.49054 15.3971C3.95635 15.8641 4.57969 16.1405 5.23854 16.1721C6.02954 16.2121 7.06554 16.6711 7.62554 17.2321C7.87236 17.4789 8.16538 17.6747 8.48786 17.8083C8.81035 17.9418 9.15599 18.0106 9.50504 18.0106C9.8541 18.0106 10.1997 17.9418 10.5222 17.8083C10.8447 17.6747 11.1377 17.4789 11.3845 17.2321C11.9445 16.6711 12.9805 16.2121 13.7715 16.1721C14.4304 16.1405 15.0537 15.8641 15.5195 15.3971C16.0053 14.912 16.2838 14.2574 16.2965 13.5711C16.3115 12.8241 16.6965 11.9151 17.2255 11.3871C17.7257 10.8885 18.0074 10.2116 18.0085 9.50531C18.0096 8.79905 17.7301 8.12127 17.2315 7.62107C16.6955 7.08507 16.2815 6.05907 16.2975 5.30107C16.3052 4.94302 16.2402 4.58713 16.1065 4.25489C15.9728 3.92266 15.7731 3.62098 15.5195 3.36807C15.2568 3.10476 14.9417 2.89968 14.5945 2.76616C14.2474 2.63264 13.876 2.57366 13.5045 2.59307C12.7905 2.62907 11.8895 2.28307 11.3845 1.77707C11.1377 1.5301 10.8446 1.33418 10.522 1.20051C10.1995 1.06685 9.85372 0.998047 9.50454 0.998047C9.15537 0.998047 8.80962 1.06685 8.48704 1.20051C8.16446 1.33418 7.87138 1.5301 7.62454 1.77707C7.12054 2.28307 6.21854 2.62907 5.50454 2.59307C5.13327 2.5738 4.76209 2.63285 4.41512 2.76637C4.06814 2.89988 3.75313 3.10489 3.49054 3.36807C3.2371 3.62086 3.0375 3.92238 2.90378 4.25443C2.77007 4.58648 2.70501 4.94218 2.71254 5.30007Z" fill="#A020F0"/>
<path fill-rule="evenodd" clip-rule="evenodd" d="M12.2974 6.56302C12.3548 6.59493 12.4053 6.63783 12.4461 6.68928C12.4869 6.74072 12.5172 6.7997 12.5352 6.86284C12.5532 6.92599 12.5586 6.99206 12.5511 7.05729C12.5436 7.12253 12.5233 7.18564 12.4914 7.24302L9.71436 12.243C9.68245 12.3004 9.63955 12.351 9.5881 12.3918C9.53666 12.4326 9.47768 12.4628 9.41454 12.4809C9.3514 12.4989 9.28532 12.5043 9.22009 12.4968C9.15486 12.4892 9.09175 12.4689 9.03436 12.437C8.97697 12.4051 8.92643 12.3622 8.88563 12.3108C8.84482 12.2593 8.81454 12.2003 8.79653 12.1372C8.77851 12.0741 8.77311 12.008 8.78063 11.9428C8.78816 11.8775 8.80845 11.8144 8.84036 11.757L11.6174 6.75702C11.6493 6.69963 11.6922 6.64909 11.7436 6.60828C11.7951 6.56748 11.854 6.5372 11.9172 6.51918C11.9803 6.50117 12.0464 6.49577 12.1116 6.50329C12.1769 6.51081 12.24 6.53111 12.2974 6.56302Z" fill="#A020F0"/>
<path fill-rule="evenodd" clip-rule="evenodd" d="M6.10971 9.46652C6.19254 9.36321 6.31297 9.29698 6.44458 9.28236C6.57618 9.26773 6.70821 9.30591 6.81171 9.38852L9.58971 11.6105C9.69327 11.6934 9.75967 11.814 9.7743 11.9459C9.78893 12.0777 9.75059 12.2099 9.66771 12.3135C9.58483 12.4171 9.4642 12.4835 9.33236 12.4981C9.20052 12.5127 9.06827 12.4744 8.96471 12.3915L6.18771 10.1705C6.13641 10.1295 6.0937 10.0788 6.06201 10.0212C6.03033 9.96368 6.01029 9.90046 6.00305 9.83518C5.99581 9.76989 6.0015 9.70382 6.0198 9.64074C6.0381 9.57765 6.06865 9.51879 6.10971 9.46752" fill="#A020F0"/>
</svg>
