<svg width="20" height="21" viewBox="0 0 20 21" fill="none" xmlns="http://www.w3.org/2000/svg">
<path fill-rule="evenodd" clip-rule="evenodd" d="M7.88699 2.83104C8.5475 2.51791 9.26935 2.35547 10.0003 2.35547C10.7313 2.35547 11.4531 2.51791 12.1137 2.83104L17.6887 5.44604C18.567 5.85605 18.9587 6.74938 18.9587 7.56438C18.9587 8.37938 18.567 9.27271 17.6895 9.68355L16.4587 10.2602V14.3352C16.4587 15.3794 15.9353 16.3877 14.982 16.916C14.3553 17.2627 13.532 17.6802 12.6653 18.0127C11.8095 18.341 10.862 18.606 10.0003 18.606C9.13866 18.606 8.19116 18.341 7.33449 18.0127C6.46782 17.6802 5.64533 17.2627 5.01866 16.916C4.06533 16.3877 3.54199 15.3794 3.54199 14.3352V10.2602L2.31116 9.68271L2.29199 9.67438V12.1477C2.29199 12.3135 2.22614 12.4724 2.10893 12.5897C1.99172 12.7069 1.83275 12.7727 1.66699 12.7727C1.50123 12.7727 1.34226 12.7069 1.22505 12.5897C1.10784 12.4724 1.04199 12.3135 1.04199 12.1477V7.56438C1.04199 6.74938 1.43449 5.85605 2.31116 5.44604L7.88699 2.83104ZM4.79199 10.8469V14.336C4.79199 14.9719 5.10783 15.5369 5.62449 15.8235C6.31998 16.2128 7.04108 16.5544 7.78282 16.846C8.58533 17.1544 9.36532 17.3569 10.0003 17.3569C10.6353 17.3569 11.4153 17.1544 12.2187 16.846C12.9604 16.5544 13.6815 16.2128 14.377 15.8235C14.8937 15.5369 15.2087 14.9719 15.2087 14.336V10.8469L12.1137 12.2977C11.4531 12.6108 10.7313 12.7733 10.0003 12.7733C9.26935 12.7733 8.5475 12.6108 7.88699 12.2977L4.79199 10.8469ZM2.84199 8.55105C2.50616 8.39355 2.29199 8.01771 2.29199 7.56438C2.29199 7.11105 2.50616 6.73521 2.84199 6.57771L8.41783 3.96354C8.91222 3.72832 9.45283 3.60627 10.0003 3.60627C10.5478 3.60627 11.0884 3.72832 11.5828 3.96354L17.1587 6.57771C17.4945 6.73521 17.7087 7.11105 17.7087 7.56438C17.7087 8.01771 17.4945 8.39355 17.1587 8.55105L11.5828 11.1652C11.0884 11.4004 10.5478 11.5225 10.0003 11.5225C9.45283 11.5225 8.91222 11.4004 8.41783 11.1652L2.84199 8.55105Z" fill="white"/>
</svg>
