<svg width="20" height="21" viewBox="0 0 20 21" fill="none" xmlns="http://www.w3.org/2000/svg">
<path fill-rule="evenodd" clip-rule="evenodd" d="M7.8865 2.83104C8.54702 2.51791 9.26886 2.35547 9.99984 2.35547C10.7308 2.35547 11.4527 2.51791 12.1132 2.83104L17.6882 5.44604C18.5665 5.85605 18.9582 6.74938 18.9582 7.56438C18.9582 8.37938 18.5665 9.27271 17.689 9.68355L16.4582 10.2602V14.3352C16.4582 15.3794 15.9348 16.3877 14.9815 16.916C14.3548 17.2627 13.5315 17.6802 12.6648 18.0127C11.809 18.341 10.8615 18.606 9.99984 18.606C9.13817 18.606 8.19067 18.341 7.334 18.0127C6.46734 17.6802 5.64484 17.2627 5.01817 16.916C4.06484 16.3877 3.5415 15.3794 3.5415 14.3352V10.2602L2.31067 9.68271L2.2915 9.67438V12.1477C2.2915 12.3135 2.22566 12.4724 2.10845 12.5897C1.99124 12.7069 1.83226 12.7727 1.6665 12.7727C1.50074 12.7727 1.34177 12.7069 1.22456 12.5897C1.10735 12.4724 1.0415 12.3135 1.0415 12.1477V7.56438C1.0415 6.74938 1.434 5.85605 2.31067 5.44604L7.8865 2.83104ZM4.7915 10.8469V14.336C4.7915 14.9719 5.10734 15.5369 5.624 15.8235C6.31949 16.2128 7.04059 16.5544 7.78234 16.846C8.58484 17.1544 9.36484 17.3569 9.99984 17.3569C10.6348 17.3569 11.4148 17.1544 12.2182 16.846C12.9599 16.5544 13.681 16.2128 14.3765 15.8235C14.8932 15.5369 15.2082 14.9719 15.2082 14.336V10.8469L12.1132 12.2977C11.4527 12.6108 10.7308 12.7733 9.99984 12.7733C9.26886 12.7733 8.54702 12.6108 7.8865 12.2977L4.7915 10.8469ZM2.8415 8.55105C2.50567 8.39355 2.2915 8.01771 2.2915 7.56438C2.2915 7.11105 2.50567 6.73521 2.8415 6.57771L8.41734 3.96354C8.91173 3.72832 9.45234 3.60627 9.99984 3.60627C10.5473 3.60627 11.0879 3.72832 11.5823 3.96354L17.1582 6.57771C17.494 6.73521 17.7082 7.11105 17.7082 7.56438C17.7082 8.01771 17.494 8.39355 17.1582 8.55105L11.5823 11.1652C11.0879 11.4004 10.5473 11.5225 9.99984 11.5225C9.45234 11.5225 8.91173 11.4004 8.41734 11.1652L2.8415 8.55105Z" fill="#222222"/>
</svg>
