<svg width="21" height="22" viewBox="0 0 21 22" fill="none" xmlns="http://www.w3.org/2000/svg">
<g filter="url(#filter0_d_1649_8900)">
<path fill-rule="evenodd" clip-rule="evenodd" d="M6.0525 3.21602C6.10185 2.75603 6.31951 2.33052 6.66363 2.02132C7.00775 1.71211 7.45404 1.54105 7.91667 1.54102H12.0833C12.546 1.54105 12.9922 1.71211 13.3364 2.02132C13.6805 2.33052 13.8982 2.75603 13.9475 3.21602C14.5842 3.22935 15.1333 3.26185 15.6033 3.34852C16.235 3.46518 16.7725 3.68518 17.21 4.12352C17.7117 4.62435 17.9267 5.25685 18.0283 6.00685C18.125 6.72852 18.125 7.64768 18.125 8.78685V13.8785C18.125 15.0177 18.125 15.9368 18.0283 16.6593C17.9267 17.4093 17.7117 18.041 17.21 18.5427C16.7083 19.0443 16.0767 19.2593 15.3267 19.361C14.6042 19.4577 13.685 19.4577 12.5458 19.4577H7.45417C6.315 19.4577 5.39583 19.4577 4.67333 19.361C3.92333 19.2593 3.29167 19.0443 2.79 18.5427C2.28833 18.041 2.07333 17.4093 1.9725 16.6593C1.875 15.9368 1.875 15.0177 1.875 13.8785V8.78685C1.875 7.64768 1.875 6.72852 1.9725 6.00602C2.0725 5.25602 2.28917 4.62435 2.79 4.12268C3.2275 3.68518 3.765 3.46435 4.39667 3.34852C4.86667 3.26185 5.41667 3.22935 6.0525 3.21602ZM6.05417 4.46602C5.45583 4.47935 4.99417 4.50935 4.6225 4.57768C4.15083 4.66435 3.87667 4.80435 3.67417 5.00685C3.44333 5.23768 3.29333 5.56102 3.21083 6.17352C3.12667 6.80185 3.125 7.63685 3.125 8.83268V13.8327C3.125 15.0285 3.12667 15.8627 3.21083 16.4927C3.29333 17.1043 3.44417 17.4277 3.67417 17.6585C3.905 17.8893 4.22833 18.0393 4.84083 18.1218C5.46917 18.206 6.30417 18.2077 7.5 18.2077H12.5C13.6958 18.2077 14.53 18.206 15.16 18.1218C15.7717 18.0393 16.095 17.8885 16.3258 17.6585C16.5567 17.4277 16.7067 17.1043 16.7892 16.4918C16.8733 15.8627 16.875 15.0285 16.875 13.8327V8.83268C16.875 7.63685 16.8733 6.80185 16.7892 6.17268C16.7067 5.56102 16.5558 5.23768 16.3258 5.00685C16.1225 4.80435 15.8492 4.66518 15.3775 4.57768C15.0058 4.50935 14.5442 4.47935 13.9458 4.46685C13.8925 4.92339 13.6734 5.34444 13.33 5.65001C12.9866 5.95559 12.543 6.12439 12.0833 6.12435H7.91667C7.45689 6.12436 7.01314 5.95545 6.66976 5.6497C6.32637 5.34396 6.1073 4.92271 6.05417 4.46602ZM7.91667 2.79102C7.75091 2.79102 7.59194 2.85686 7.47473 2.97407C7.35751 3.09128 7.29167 3.25026 7.29167 3.41602V4.24935C7.29167 4.59435 7.57167 4.87435 7.91667 4.87435H12.0833C12.2491 4.87435 12.4081 4.8085 12.5253 4.69129C12.6425 4.57408 12.7083 4.41511 12.7083 4.24935V3.41602C12.7083 3.25026 12.6425 3.09128 12.5253 2.97407C12.4081 2.85686 12.2491 2.79102 12.0833 2.79102H7.91667ZM5.20833 9.24935C5.20833 9.08359 5.27418 8.92462 5.39139 8.80741C5.5086 8.6902 5.66757 8.62435 5.83333 8.62435H14.1667C14.3324 8.62435 14.4914 8.6902 14.6086 8.80741C14.7258 8.92462 14.7917 9.08359 14.7917 9.24935C14.7917 9.41511 14.7258 9.57408 14.6086 9.69129C14.4914 9.8085 14.3324 9.87435 14.1667 9.87435H5.83333C5.66757 9.87435 5.5086 9.8085 5.39139 9.69129C5.27418 9.57408 5.20833 9.41511 5.20833 9.24935ZM6.04167 12.166C6.04167 12.0003 6.10751 11.8413 6.22472 11.7241C6.34194 11.6069 6.50091 11.541 6.66667 11.541H13.3333C13.4991 11.541 13.6581 11.6069 13.7753 11.7241C13.8925 11.8413 13.9583 12.0003 13.9583 12.166C13.9583 12.3318 13.8925 12.4907 13.7753 12.608C13.6581 12.7252 13.4991 12.791 13.3333 12.791H6.66667C6.50091 12.791 6.34194 12.7252 6.22472 12.608C6.10751 12.4907 6.04167 12.3318 6.04167 12.166ZM6.875 15.0827C6.875 14.9169 6.94085 14.7579 7.05806 14.6407C7.17527 14.5235 7.33424 14.4577 7.5 14.4577H12.5C12.6658 14.4577 12.8247 14.5235 12.9419 14.6407C13.0592 14.7579 13.125 14.9169 13.125 15.0827C13.125 15.2484 13.0592 15.4074 12.9419 15.5246C12.8247 15.6418 12.6658 15.7077 12.5 15.7077H7.5C7.33424 15.7077 7.17527 15.6418 7.05806 15.5246C6.94085 15.4074 6.875 15.2484 6.875 15.0827Z" fill="#222222"/>
</g>
<defs>
<filter id="filter0_d_1649_8900" x="1.875" y="1.54102" width="18.25" height="19.916" filterUnits="userSpaceOnUse" color-interpolation-filters="sRGB">
<feFlood flood-opacity="0" result="BackgroundImageFix"/>
<feColorMatrix in="SourceAlpha" type="matrix" values="0 0 0 0 0 0 0 0 0 0 0 0 0 0 0 0 0 0 127 0" result="hardAlpha"/>
<feOffset dx="2" dy="2"/>
<feComposite in2="hardAlpha" operator="out"/>
<feColorMatrix type="matrix" values="0 0 0 0 1 0 0 0 0 0.831373 0 0 0 0 0.227451 0 0 0 1 0"/>
<feBlend mode="normal" in2="BackgroundImageFix" result="effect1_dropShadow_1649_8900"/>
<feBlend mode="normal" in="SourceGraphic" in2="effect1_dropShadow_1649_8900" result="shape"/>
</filter>
</defs>
</svg>
