<svg width="20" height="20" viewBox="0 0 20 20" fill="none" xmlns="http://www.w3.org/2000/svg">
<path fill-rule="evenodd" clip-rule="evenodd" d="M8.59102 1.875H11.4077C11.5885 1.875 11.746 1.875 11.8943 1.89833C12.1833 1.94462 12.4574 2.05788 12.6947 2.22907C12.932 2.40025 13.1259 2.6246 13.261 2.88417C13.331 3.0175 13.3802 3.16667 13.4377 3.3375L13.5302 3.61667C13.594 3.84347 13.7328 4.04194 13.924 4.17967C14.1151 4.3174 14.3473 4.38626 14.5827 4.375H17.0827C17.2484 4.375 17.4074 4.44085 17.5246 4.55806C17.6418 4.67527 17.7077 4.83424 17.7077 5C17.7077 5.16576 17.6418 5.32473 17.5246 5.44194C17.4074 5.55915 17.2484 5.625 17.0827 5.625H2.91602C2.75026 5.625 2.59128 5.55915 2.47407 5.44194C2.35686 5.32473 2.29102 5.16576 2.29102 5C2.29102 4.83424 2.35686 4.67527 2.47407 4.55806C2.59128 4.44085 2.75026 4.375 2.91602 4.375H5.49102C5.7136 4.36966 5.92862 4.29314 6.10454 4.15667C6.28046 4.02019 6.40802 3.83094 6.46852 3.61667L6.56185 3.3375C6.61852 3.16667 6.66768 3.0175 6.73685 2.88417C6.87201 2.6245 7.06609 2.40009 7.30356 2.2289C7.54102 2.05771 7.81527 1.9445 8.10435 1.89833C8.25268 1.875 8.41018 1.875 8.59018 1.875M7.50518 4.375C7.5637 4.2604 7.61248 4.1411 7.65102 4.01833L7.73435 3.76833C7.81018 3.54083 7.82768 3.495 7.84518 3.46167C7.89017 3.37501 7.95483 3.30009 8.03399 3.24293C8.11315 3.18577 8.2046 3.14795 8.30102 3.1325C8.40965 3.12332 8.51874 3.12082 8.62768 3.125H11.3693C11.6093 3.125 11.6593 3.12667 11.696 3.13333C11.7923 3.14869 11.8837 3.18639 11.9629 3.2434C12.0421 3.30041 12.1068 3.37516 12.1518 3.46167C12.1693 3.495 12.1868 3.54083 12.2627 3.76917L12.346 4.01917L12.3785 4.1125C12.411 4.20417 12.4493 4.29083 12.4918 4.375H7.50518Z" fill="#222222"/>
<path d="M4.92858 7.04246C4.91753 6.87703 4.84121 6.72277 4.71642 6.6136C4.59163 6.50444 4.42859 6.44932 4.26316 6.46038C4.09773 6.47143 3.94347 6.54774 3.83431 6.67253C3.72515 6.79732 3.67003 6.96036 3.68108 7.12579L4.06775 12.9191C4.13858 13.9875 4.19608 14.8508 4.33108 15.5291C4.47191 16.2333 4.71025 16.8216 5.20358 17.2825C5.69608 17.7441 6.29941 17.9433 7.01191 18.0358C7.69691 18.1258 8.56191 18.1258 9.63358 18.1258H10.3661C11.4369 18.1258 12.3027 18.1258 12.9877 18.0358C13.6994 17.9433 14.3027 17.7441 14.7961 17.2825C15.2886 16.8216 15.5269 16.2325 15.6677 15.5291C15.8027 14.8516 15.8594 13.9875 15.9311 12.9191L16.3177 7.12579C16.3288 6.96036 16.2737 6.79732 16.1645 6.67253C16.0554 6.54774 15.9011 6.47143 15.7357 6.46038C15.5702 6.44932 15.4072 6.50444 15.2824 6.6136C15.1576 6.72277 15.0813 6.87703 15.0702 7.04246L14.6869 12.7925C14.6119 13.915 14.5586 14.6966 14.4419 15.2841C14.3277 15.855 14.1694 16.1566 13.9419 16.37C13.7136 16.5833 13.4019 16.7216 12.8252 16.7966C12.2311 16.8741 11.4477 16.8758 10.3219 16.8758H9.67691C8.55191 16.8758 7.76858 16.8741 7.17358 16.7966C6.59691 16.7216 6.28525 16.5833 6.05691 16.37C5.82941 16.1566 5.67108 15.855 5.55691 15.285C5.44025 14.6966 5.38691 13.915 5.31191 12.7916L4.92858 7.04246Z" fill="#222222"/>
<path d="M7.8533 8.54413C8.01816 8.52761 8.18284 8.57723 8.31114 8.68208C8.43943 8.78694 8.52084 8.93844 8.53747 9.1033L8.95413 13.27C8.96634 13.4325 8.91454 13.5934 8.80978 13.7184C8.70503 13.8433 8.55561 13.9223 8.39341 13.9386C8.2312 13.9549 8.06904 13.9072 7.94151 13.8056C7.81399 13.7041 7.7312 13.5567 7.7108 13.395L7.29413 9.2283C7.27761 9.06343 7.32723 8.89875 7.43208 8.77046C7.53694 8.64217 7.68844 8.56076 7.8533 8.54413ZM12.145 8.54413C12.3097 8.56077 12.461 8.64205 12.5659 8.77016C12.6707 8.89827 12.7204 9.06274 12.7041 9.22747L12.2875 13.3941C12.2668 13.5556 12.184 13.7026 12.0566 13.8039C11.9292 13.9052 11.7674 13.9529 11.6054 13.9367C11.4435 13.9205 11.2942 13.8418 11.1894 13.7173C11.0846 13.5928 11.0325 13.4323 11.0441 13.27L11.4608 9.1033C11.4774 8.9386 11.5587 8.78723 11.6868 8.6824C11.8149 8.57757 11.9802 8.52784 12.145 8.54413Z" fill="#222222"/>
</svg>
