<svg width="16" height="16" viewBox="0 0 16 16" fill="none" xmlns="http://www.w3.org/2000/svg">
<g clip-path="url(#clip0_1845_3102)">
<path fill-rule="evenodd" clip-rule="evenodd" d="M9.83777 1.74829C10.4232 1.16287 11.2172 0.833984 12.0451 0.833984C12.873 0.833984 13.667 1.16287 14.2524 1.74829C14.8379 2.33371 15.1667 3.12771 15.1667 3.95563C15.1667 4.78354 14.8379 5.57754 14.2524 6.16296L7.92843 12.487C7.5671 12.8483 7.3551 13.0603 7.11777 13.245C6.8391 13.463 6.53777 13.6496 6.21777 13.8016C5.9471 13.9303 5.66177 14.0256 5.17777 14.187L2.95643 14.927L2.42177 15.1056C2.20912 15.1766 1.9809 15.187 1.7627 15.1355C1.5445 15.084 1.34495 14.9728 1.18643 14.8143C1.02791 14.6558 0.916684 14.4562 0.865226 14.238C0.813767 14.0198 0.824112 13.7916 0.895101 13.579L1.81377 10.8236C1.9751 10.339 2.07043 10.0536 2.1991 9.78229C2.35177 9.46296 2.53777 9.16162 2.75577 8.88229C2.93977 8.64629 3.15243 8.43363 3.51377 8.07229L9.83777 1.74829ZM2.9331 13.8816L4.8271 13.2496C5.35443 13.0736 5.57843 12.9983 5.7871 12.899C6.04043 12.7776 6.28043 12.6296 6.50243 12.457C6.68443 12.3143 6.85243 12.1483 7.24577 11.755L12.2924 6.70829C11.6005 6.46311 10.9724 6.06579 10.4544 5.54563C9.93471 5.02754 9.53786 4.39945 9.2931 3.70763L4.24643 8.75429C3.8531 9.14696 3.68643 9.31429 3.54443 9.49696C3.3718 9.71881 3.22361 9.95864 3.10243 10.2123C3.0031 10.421 2.92777 10.645 2.75177 11.1723L2.11977 13.0676L2.9331 13.8816ZM10.1031 2.89629C10.1264 3.01296 10.1644 3.17163 10.2291 3.35629C10.4241 3.91435 10.7432 4.42086 11.1624 4.83763C11.579 5.25677 12.0853 5.5759 12.6431 5.77096C12.8284 5.83563 12.9871 5.87363 13.1038 5.89696L13.5451 5.45563C13.9406 5.05732 14.1622 4.51849 14.1612 3.95716C14.1602 3.39584 13.9368 2.85778 13.5399 2.46087C13.1429 2.06395 12.6049 1.84053 12.0436 1.83954C11.4822 1.83856 10.9434 2.0601 10.5451 2.45563L10.1031 2.89629Z" fill="white"/>
</g>
<defs>
<clipPath id="clip0_1845_3102">
<rect width="16" height="16" fill="white"/>
</clipPath>
</defs>
</svg>
