<svg width="351" height="280" viewBox="0 0 351 280" fill="none" xmlns="http://www.w3.org/2000/svg">
<rect x="0.5" width="350" height="280" fill="#F4F5F9"/>
<path fill-rule="evenodd" clip-rule="evenodd" d="M290.3 91C295.712 91 300.1 95.3876 300.1 100.8C300.1 106.212 295.712 110.6 290.3 110.6H234.3C239.712 110.6 244.1 114.988 244.1 120.4C244.1 125.812 239.712 130.2 234.3 130.2H265.1C270.512 130.2 274.9 134.588 274.9 140C274.9 145.412 270.512 149.8 265.1 149.8H250.856C244.032 149.8 238.5 154.188 238.5 159.6C238.5 163.208 241.3 166.475 246.9 169.4C252.312 169.4 256.7 173.788 256.7 179.2C256.7 184.612 252.312 189 246.9 189H130.7C125.287 189 120.9 184.612 120.9 179.2C120.9 173.788 125.287 169.4 130.7 169.4H76.0998C70.6874 169.4 66.2998 165.012 66.2998 159.6C66.2998 154.188 70.6874 149.8 76.0998 149.8H132.1C137.512 149.8 141.9 145.412 141.9 140C141.9 134.588 137.512 130.2 132.1 130.2H97.0998C91.6874 130.2 87.2998 125.812 87.2998 120.4C87.2998 114.988 91.6874 110.6 97.0998 110.6H153.1C147.687 110.6 143.3 106.212 143.3 100.8C143.3 95.3876 147.687 91 153.1 91H290.3ZM290.3 130.2C295.712 130.2 300.1 134.588 300.1 140C300.1 145.412 295.712 149.8 290.3 149.8C284.887 149.8 280.5 145.412 280.5 140C280.5 134.588 284.887 130.2 290.3 130.2Z" fill="#222222" fill-opacity="0.05"/>
<path fill-rule="evenodd" clip-rule="evenodd" d="M215.641 89.6006L228.664 184.58L229.834 194.109C230.211 197.179 228.028 199.973 224.958 200.35L142.974 210.416C139.904 210.793 137.11 208.61 136.733 205.541L124.111 102.742C123.922 101.207 125.014 99.8101 126.549 99.6217C126.558 99.6205 126.568 99.6193 126.578 99.6182L133.379 98.8553M138.879 98.2383L145.301 97.5179L138.879 98.2383Z" fill="#F4F5F9"/>
<path d="M216.879 89.4308C216.786 88.7468 216.155 88.2684 215.471 88.3621C214.787 88.4559 214.309 89.0864 214.403 89.7704L216.879 89.4308ZM228.664 184.58L229.904 184.428C229.904 184.422 229.903 184.416 229.902 184.411L228.664 184.58ZM229.834 194.109L231.074 193.957L229.834 194.109ZM224.958 200.35L225.11 201.591L224.958 200.35ZM142.974 210.416L143.126 211.657L142.974 210.416ZM136.733 205.541L137.974 205.388L136.733 205.541ZM124.111 102.742L122.87 102.894L124.111 102.742ZM126.578 99.6182L126.717 100.86L126.578 99.6182ZM133.519 100.097C134.205 100.021 134.699 99.402 134.622 98.7159C134.545 98.0299 133.926 97.5361 133.24 97.6131L133.519 100.097ZM138.74 96.9961C138.054 97.0731 137.56 97.6916 137.637 98.3777C137.714 99.0637 138.333 99.5575 139.019 99.4805L138.74 96.9961ZM145.441 98.7602C146.127 98.6832 146.62 98.0647 146.543 97.3786C146.467 96.6926 145.848 96.1988 145.162 96.2757L145.441 98.7602ZM214.403 89.7704L227.425 184.75L229.902 184.411L216.879 89.4308L214.403 89.7704ZM227.423 184.733L228.593 194.262L231.074 193.957L229.904 184.428L227.423 184.733ZM228.593 194.262C228.886 196.646 227.19 198.816 224.806 199.109L225.11 201.591C228.865 201.13 231.535 197.712 231.074 193.957L228.593 194.262ZM224.806 199.109L142.821 209.176L143.126 211.657L225.11 201.591L224.806 199.109ZM142.821 209.176C140.437 209.468 138.266 207.773 137.974 205.388L135.492 205.693C135.953 209.448 139.371 212.118 143.126 211.657L142.821 209.176ZM137.974 205.388L125.351 102.59L122.87 102.894L135.492 205.693L137.974 205.388ZM125.351 102.59C125.247 101.74 125.851 100.967 126.701 100.862L126.396 98.381C124.176 98.6536 122.597 100.674 122.87 102.894L125.351 102.59ZM126.701 100.862C126.706 100.862 126.712 100.861 126.717 100.86L126.438 98.376C126.424 98.3776 126.41 98.3793 126.396 98.381L126.701 100.862ZM126.717 100.86L133.519 100.097L133.24 97.6131L126.438 98.376L126.717 100.86ZM139.019 99.4805L145.441 98.7602L145.162 96.2757L138.74 96.9961L139.019 99.4805Z" fill="#222222" fill-opacity="0.65"/>
<path fill-rule="evenodd" clip-rule="evenodd" d="M212.096 95.5768L223.883 181.654L224.943 190.29C225.285 193.071 223.333 195.6 220.584 195.938L147.166 204.953C144.417 205.29 141.911 203.309 141.57 200.527L130.062 106.805C129.927 105.709 130.707 104.711 131.803 104.577L141.68 103.364" fill="#A020F0" fill-opacity="0.03"/>
<path fill-rule="evenodd" clip-rule="evenodd" d="M149.841 74C149.841 71.7909 151.632 70 153.841 70H219.883C220.943 70 221.96 70.4211 222.71 71.1707L242.468 90.9166C243.219 91.6668 243.641 92.6846 243.641 93.7459V183.6C243.641 185.809 241.85 187.6 239.641 187.6H153.841C151.632 187.6 149.841 185.809 149.841 183.6V74Z" fill="#F4F5F9"/>
<path d="M151.091 74C151.091 72.4812 152.322 71.25 153.841 71.25H219.883C220.612 71.25 221.311 71.5395 221.827 72.0549L241.585 91.8007C242.101 92.3165 242.391 93.0162 242.391 93.7459V183.6C242.391 185.119 241.16 186.35 239.641 186.35H153.841C152.322 186.35 151.091 185.119 151.091 183.6V74Z" stroke="#222222" stroke-opacity="0.65" stroke-width="2.5"/>
<path d="M219.841 73.3633V89.5993C219.841 91.9189 221.721 93.7993 224.041 93.7993H235.148" stroke="#222222" stroke-opacity="0.65" stroke-width="2.5" stroke-linecap="round" stroke-linejoin="round"/>
<path d="M165.7 165.201H202.1M165.7 93.8008H202.1H165.7ZM165.7 110.601H225.9H165.7ZM165.7 128.801H225.9H165.7ZM165.7 147.001H225.9H165.7Z" stroke="#A020F0" stroke-opacity="0.2" stroke-width="2.5" stroke-linecap="round" stroke-linejoin="round"/>
</svg>
