<svg width="20" height="21" viewBox="0 0 20 21" fill="none" xmlns="http://www.w3.org/2000/svg">
<path fill-rule="evenodd" clip-rule="evenodd" d="M18.9582 4.59132C18.9582 3.37216 17.9873 2.32632 16.7132 2.37049C15.764 2.40382 14.5248 2.50216 13.5707 2.78799C12.7415 3.03632 11.809 3.52132 11.0815 3.94216C10.7453 4.13635 10.3655 4.24258 9.97728 4.25103C9.58909 4.25948 9.20504 4.16987 8.86067 3.99049C8.03067 3.55216 6.93984 3.03216 5.99234 2.78216C5.19234 2.57132 4.179 2.46966 3.3565 2.41882C2.05817 2.33966 1.0415 3.39716 1.0415 4.64549V13.9338C1.0415 15.2138 2.07817 16.213 3.3065 16.2897C4.10567 16.3397 5.00484 16.4363 5.67317 16.613C6.50067 16.8305 7.52317 17.3163 8.34984 17.7563C8.85801 18.026 9.42454 18.167 9.99984 18.167C10.5751 18.167 11.1417 18.026 11.6498 17.7563C12.4757 17.3163 13.499 16.8313 14.3257 16.613C14.9948 16.4363 15.894 16.3397 16.6932 16.2897C17.9215 16.213 18.9582 15.2138 18.9582 13.9338V4.59132ZM16.7565 3.61966C17.269 3.60216 17.7082 4.02382 17.7082 4.59132V13.933C17.7082 14.5047 17.2348 15.0038 16.6148 15.0422C15.7982 15.0938 14.799 15.1947 14.0065 15.4038C13.0315 15.6622 11.9023 16.2055 11.0623 16.6538C10.9223 16.7288 10.7757 16.7872 10.6248 16.8297V5.43216C11.0015 5.35716 11.3682 5.22049 11.7082 5.02382C12.4165 4.61382 13.2457 4.19049 13.929 3.98549C14.7207 3.74882 15.824 3.65216 16.7565 3.61966ZM9.37484 5.45966C8.9911 5.40032 8.61992 5.27754 8.2765 5.09632C7.46234 4.66549 6.47567 4.20299 5.674 3.99132C4.9965 3.81216 4.08484 3.71632 3.27984 3.66632C2.7515 3.63466 2.2915 4.06466 2.2915 4.64549V13.9338C2.2915 14.5047 2.76484 15.0038 3.38484 15.0422C4.2015 15.0938 5.20067 15.1947 5.99317 15.4038C6.96817 15.6622 8.09734 16.2055 8.93734 16.6538C9.07734 16.7288 9.22484 16.7872 9.37484 16.8297V5.45966Z" fill="#222222"/>
</svg>
