<svg width="20" height="21" viewBox="0 0 20 21" fill="none" xmlns="http://www.w3.org/2000/svg">
<path fill-rule="evenodd" clip-rule="evenodd" d="M18.9577 4.59132C18.9577 3.37216 17.9868 2.32632 16.7127 2.37049C15.7635 2.40382 14.5243 2.50216 13.5702 2.78799C12.741 3.03632 11.8085 3.52132 11.081 3.94216C10.7448 4.13635 10.365 4.24258 9.9768 4.25103C9.5886 4.25948 9.20455 4.16987 8.86018 3.99049C8.03018 3.55216 6.93935 3.03216 5.99185 2.78216C5.19185 2.57132 4.17852 2.46966 3.35602 2.41882C2.05768 2.33966 1.04102 3.39716 1.04102 4.64549V13.9338C1.04102 15.2138 2.07768 16.213 3.30602 16.2897C4.10518 16.3397 5.00435 16.4363 5.67268 16.613C6.50018 16.8305 7.52268 17.3163 8.34935 17.7563C8.85753 18.026 9.42405 18.167 9.99935 18.167C10.5746 18.167 11.1412 18.026 11.6493 17.7563C12.4752 17.3163 13.4985 16.8313 14.3252 16.613C14.9943 16.4363 15.8935 16.3397 16.6927 16.2897C17.921 16.213 18.9577 15.2138 18.9577 13.9338V4.59132ZM16.756 3.61966C17.2685 3.60216 17.7077 4.02382 17.7077 4.59132V13.933C17.7077 14.5047 17.2343 15.0038 16.6143 15.0422C15.7977 15.0938 14.7985 15.1947 14.006 15.4038C13.031 15.6622 11.9018 16.2055 11.0618 16.6538C10.9218 16.7288 10.7752 16.7872 10.6243 16.8297V5.43216C11.001 5.35716 11.3677 5.22049 11.7077 5.02382C12.416 4.61382 13.2452 4.19049 13.9285 3.98549C14.7202 3.74882 15.8235 3.65216 16.756 3.61966ZM9.37435 5.45966C8.99061 5.40032 8.61943 5.27754 8.27602 5.09632C7.46185 4.66549 6.47518 4.20299 5.67352 3.99132C4.99602 3.81216 4.08435 3.71632 3.27935 3.66632C2.75102 3.63466 2.29102 4.06466 2.29102 4.64549V13.9338C2.29102 14.5047 2.76435 15.0038 3.38435 15.0422C4.20102 15.0938 5.20018 15.1947 5.99268 15.4038C6.96768 15.6622 8.09685 16.2055 8.93685 16.6538C9.07685 16.7288 9.22435 16.7872 9.37435 16.8297V5.45966Z" fill="white"/>
</svg>
