<svg width="100" height="100" viewBox="0 0 100 100" fill="none" xmlns="http://www.w3.org/2000/svg">
<g clip-path="url(#clip0_565_4922)">
<path opacity="0.2" fill-rule="evenodd" clip-rule="evenodd" d="M51.9246 100.002C78.4784 100.002 100.002 78.4784 100.002 51.9246C100.002 25.3707 78.4784 3.84766 51.9246 3.84766C25.3707 3.84766 3.84766 25.3707 3.84766 51.9246C3.84766 78.4784 25.3707 100.002 51.9246 100.002ZM51.9246 92.3092C74.2284 92.3092 92.3092 74.2284 92.3092 51.9246C92.3092 29.6207 74.2284 11.54 51.9246 11.54C29.6207 11.54 11.54 29.6207 11.54 51.9246C11.54 74.2284 29.6207 92.3092 51.9246 92.3092Z" fill="#A020F0"/>
<g opacity="0.2">
<path fill-rule="evenodd" clip-rule="evenodd" d="M53.8466 42.3086C55.8867 42.3086 57.8433 43.119 59.2859 44.5616C60.7285 46.0042 61.5389 47.9608 61.5389 50.0009V76.924C61.5389 78.9641 60.7285 80.9207 59.2859 82.3633C57.8433 83.8058 55.8867 84.6163 53.8466 84.6163C51.8065 84.6163 49.8499 83.8058 48.4073 82.3633C46.9647 80.9207 46.1543 78.9641 46.1543 76.924V50.0009C46.1543 47.9608 46.9647 46.0042 48.4073 44.5616C49.8499 43.119 51.8065 42.3086 53.8466 42.3086Z" fill="#A020F0"/>
<path d="M61.5389 30.7704C61.5389 32.8106 60.7285 34.7671 59.2859 36.2097C57.8433 37.6523 55.8867 38.4627 53.8466 38.4627C51.8065 38.4627 49.8499 37.6523 48.4073 36.2097C46.9647 34.7671 46.1543 32.8106 46.1543 30.7704C46.1543 28.7303 46.9647 26.7737 48.4073 25.3311C49.8499 23.8886 51.8065 23.0781 53.8466 23.0781C55.8867 23.0781 57.8433 23.8886 59.2859 25.3311C60.7285 26.7737 61.5389 28.7303 61.5389 30.7704Z" fill="#A020F0"/>
</g>
<path fill-rule="evenodd" clip-rule="evenodd" d="M50.9627 41.3477C51.7278 41.3477 52.4615 41.6516 53.0025 42.1925C53.5434 42.7335 53.8474 43.4672 53.8474 44.2323V78.8477C53.8474 79.6127 53.5434 80.3464 53.0025 80.8874C52.4615 81.4284 51.7278 81.7323 50.9627 81.7323C50.1977 81.7323 49.464 81.4284 48.923 80.8874C48.382 80.3464 48.0781 79.6127 48.0781 78.8477V44.2323C48.0781 43.4672 48.382 42.7335 48.923 42.1925C49.464 41.6516 50.1977 41.3477 50.9627 41.3477Z" fill="#A020F0"/>
<path d="M55.7697 27.8858C55.7697 29.1609 55.2632 30.3838 54.3615 31.2854C53.4599 32.187 52.2371 32.6935 50.962 32.6935C49.6869 32.6935 48.4641 32.187 47.5624 31.2854C46.6608 30.3838 46.1543 29.1609 46.1543 27.8858C46.1543 26.6107 46.6608 25.3879 47.5624 24.4863C48.4641 23.5846 49.6869 23.0781 50.962 23.0781C52.2371 23.0781 53.4599 23.5846 54.3615 24.4863C55.2632 25.3879 55.7697 26.6107 55.7697 27.8858Z" fill="#A020F0"/>
<path fill-rule="evenodd" clip-rule="evenodd" d="M50.0008 94.2315C74.4277 94.2315 94.2315 74.4277 94.2315 50.0008C94.2315 25.5738 74.4277 5.76998 50.0008 5.76998C25.5738 5.76998 5.76998 25.5738 5.76998 50.0008C5.76998 74.4277 25.5738 94.2315 50.0008 94.2315ZM50.0008 98.0777C76.5546 98.0777 98.0777 76.5546 98.0777 50.0008C98.0777 23.4469 76.5546 1.92383 50.0008 1.92383C23.4469 1.92383 1.92383 23.4469 1.92383 50.0008C1.92383 76.5546 23.4469 98.0777 50.0008 98.0777Z" fill="#A020F0"/>
</g>
<defs>
<clipPath id="clip0_565_4922">
<rect width="100" height="100" fill="white"/>
</clipPath>
</defs>
</svg>
