<svg width="48" height="48" viewBox="0 0 48 48" fill="none" xmlns="http://www.w3.org/2000/svg">
<circle cx="24" cy="24" r="24" fill="#A020F0" fill-opacity="0.1"/>
<path d="M24.4071 12.5449C25.6728 12.5483 26.3151 12.555 26.8698 12.5708L27.088 12.5787C27.34 12.5877 27.5886 12.5989 27.889 12.6124C29.086 12.6687 29.9028 12.8577 30.6194 13.1355C31.3619 13.4213 31.9874 13.8083 32.6129 14.4327C33.185 14.9951 33.6276 15.6753 33.91 16.4262C34.1879 17.1428 34.3769 17.9595 34.4332 19.1577C34.4467 19.4569 34.4579 19.7055 34.4669 19.9587L34.4736 20.1769C34.4905 20.7304 34.4973 21.3728 34.4995 22.6384L34.5007 23.4777V24.9514C34.5034 25.772 34.4948 26.5926 34.4748 27.4129L34.468 27.6312C34.459 27.8843 34.4478 28.1329 34.4343 28.4322C34.378 29.6303 34.1868 30.4459 33.91 31.1637C33.6284 31.9149 33.1857 32.5954 32.6129 33.1572C32.0504 33.729 31.3701 34.1716 30.6194 34.4543C29.9028 34.7322 29.086 34.9212 27.889 34.9774C27.6221 34.99 27.3551 35.0012 27.088 35.0112L26.8698 35.0179C26.3151 35.0337 25.6728 35.0415 24.4071 35.0438L23.5679 35.0449H22.0953C21.2743 35.0478 20.4534 35.0391 19.6326 35.019L19.4144 35.0123C19.1473 35.0022 18.8803 34.9906 18.6134 34.9774C17.4164 34.9212 16.5996 34.7322 15.8819 34.4543C15.1312 34.1723 14.4511 33.7296 13.8895 33.1572C13.317 32.595 12.8739 31.9147 12.5913 31.1637C12.3134 30.447 12.1244 29.6303 12.0681 28.4322C12.0556 28.1652 12.0444 27.8982 12.0344 27.6312L12.0288 27.4129C12.008 26.5926 11.9987 25.772 12.0006 24.9514V22.6384C11.9975 21.8178 12.0058 20.9973 12.0254 20.1769L12.0333 19.9587C12.0423 19.7055 12.0535 19.4569 12.067 19.1577C12.1233 17.9595 12.3123 17.1439 12.5901 16.4262C12.8727 15.6746 13.3166 14.9941 13.8906 14.4327C14.4521 13.8606 15.1317 13.4179 15.8819 13.1355C16.5996 12.8577 17.4153 12.6687 18.6134 12.6124C18.9126 12.5989 19.1624 12.5877 19.4144 12.5787L19.6326 12.5719C20.453 12.5519 21.2736 12.5433 22.0941 12.546L24.4071 12.5449ZM23.2506 18.1699C21.7588 18.1699 20.3281 18.7626 19.2732 19.8174C18.2183 20.8723 17.6256 22.3031 17.6256 23.7949C17.6256 25.2868 18.2183 26.7175 19.2732 27.7724C20.3281 28.8273 21.7588 29.4199 23.2506 29.4199C24.7425 29.4199 26.1732 28.8273 27.2281 27.7724C28.283 26.7175 28.8756 25.2868 28.8756 23.7949C28.8756 22.3031 28.283 20.8723 27.2281 19.8174C26.1732 18.7626 24.7425 18.1699 23.2506 18.1699ZM23.2506 20.4199C23.6939 20.4198 24.1327 20.5071 24.5422 20.6766C24.9518 20.8462 25.3238 21.0947 25.6373 21.408C25.9507 21.7214 26.1994 22.0934 26.3691 22.5028C26.5388 22.9123 26.6261 23.3511 26.6262 23.7944C26.6263 24.2376 26.5391 24.6765 26.3695 25.086C26.2 25.4955 25.9514 25.8676 25.6381 26.181C25.3247 26.4945 24.9527 26.7431 24.5433 26.9128C24.1338 27.0825 23.695 27.1698 23.2518 27.1699C22.3567 27.1699 21.4982 26.8143 20.8653 26.1814C20.2324 25.5485 19.8768 24.69 19.8768 23.7949C19.8768 22.8998 20.2324 22.0414 20.8653 21.4084C21.4982 20.7755 22.3567 20.4199 23.2518 20.4199M29.158 16.4824C28.7851 16.4824 28.4274 16.6306 28.1637 16.8943C27.8999 17.158 27.7518 17.5157 27.7518 17.8887C27.7518 18.2616 27.8999 18.6193 28.1637 18.883C28.4274 19.1468 28.7851 19.2949 29.158 19.2949C29.531 19.2949 29.8887 19.1468 30.1524 18.883C30.4161 18.6193 30.5643 18.2616 30.5643 17.8887C30.5643 17.5157 30.4161 17.158 30.1524 16.8943C29.8887 16.6306 29.531 16.4824 29.158 16.4824Z" fill="#A020F0"/>
</svg>
