<svg width="21" height="22" viewBox="0 0 21 22" fill="none" xmlns="http://www.w3.org/2000/svg">
<g filter="url(#filter0_d_1649_8924)">
<path fill-rule="evenodd" clip-rule="evenodd" d="M9.12 1.54102H10.88C12.4117 1.54102 13.625 1.54102 14.5742 1.66852C15.5508 1.80018 16.3417 2.07685 16.9658 2.70018C17.0762 2.81866 17.1363 2.97537 17.1335 3.13728C17.1306 3.2992 17.065 3.45369 16.9505 3.5682C16.836 3.68271 16.6815 3.7483 16.5196 3.75116C16.3577 3.75402 16.201 3.69392 16.0825 3.58352C15.7292 3.23185 15.2458 3.02018 14.4075 2.90768C13.5517 2.79268 12.4225 2.79102 10.8333 2.79102H9.16667C7.5775 2.79102 6.44917 2.79268 5.59167 2.90768C4.75417 3.02018 4.27083 3.23185 3.91833 3.58435C3.56583 3.93685 3.35417 4.42018 3.24167 5.25852C3.12667 6.11518 3.125 7.24352 3.125 8.83268V12.166C3.125 13.7552 3.12667 14.8843 3.24167 15.741C3.35417 16.5785 3.56583 17.0618 3.91833 17.4143C4.27083 17.7668 4.75417 17.9785 5.5925 18.091C6.44917 18.206 7.5775 18.2077 9.16667 18.2077H10.8333C12.4225 18.2077 13.5517 18.206 14.4083 18.091C15.2458 17.9785 15.7292 17.7668 16.0817 17.4143C16.6617 16.8343 16.8375 15.9335 16.8675 13.8235C16.8699 13.6578 16.9381 13.4998 17.057 13.3843C17.176 13.2688 17.3359 13.2053 17.5017 13.2077C17.6674 13.2101 17.8254 13.2783 17.9409 13.3972C18.0564 13.5162 18.1199 13.6761 18.1175 13.8418C18.0883 15.8643 17.9575 17.3068 16.9658 18.2985C16.3417 18.9218 15.5508 19.1985 14.5742 19.3302C13.6242 19.4577 12.4117 19.4577 10.88 19.4577H9.12C7.58833 19.4577 6.375 19.4577 5.42583 19.3302C4.44917 19.1985 3.65833 18.9218 3.03417 18.2985C2.41083 17.6743 2.13417 16.8835 2.0025 15.9068C1.875 14.9568 1.875 13.7443 1.875 12.2127V8.78602C1.875 7.25435 1.875 6.04102 2.0025 5.09185C2.13417 4.11518 2.41083 3.32435 3.03417 2.70018C3.65833 2.07685 4.44917 1.80018 5.42583 1.66852C6.37583 1.54102 7.58833 1.54102 9.12 1.54102ZM15.095 6.37102C15.3033 6.15295 15.5531 5.97871 15.8297 5.85854C16.1063 5.73837 16.4042 5.67469 16.7057 5.67124C17.0073 5.66779 17.3065 5.72465 17.5858 5.83846C17.865 5.95228 18.1188 6.12076 18.332 6.33401C18.5453 6.54726 18.7137 6.80097 18.8276 7.08025C18.9414 7.35953 18.9982 7.65874 18.9948 7.9603C18.9913 8.26186 18.9276 8.55969 18.8075 8.8363C18.6873 9.1129 18.5131 9.3627 18.295 9.57102L14.3333 13.5352C14.1685 13.7088 13.9932 13.8722 13.8083 14.0243C13.6167 14.1743 13.4083 14.3027 13.1883 14.4077C13.0017 14.4968 12.805 14.5618 12.5167 14.6577L10.78 15.2368C10.5919 15.2998 10.3901 15.309 10.1971 15.2636C10.004 15.2181 9.82752 15.1198 9.6873 14.9795C9.54708 14.8393 9.44873 14.6628 9.40328 14.4698C9.35783 14.2768 9.36708 14.0749 9.43 13.8868L9.9975 12.1868L10.0092 12.151C10.1058 11.8618 10.1708 11.666 10.26 11.4793C10.3649 11.2594 10.4934 11.0515 10.6433 10.8593C10.7708 10.696 10.9167 10.5502 11.1325 10.3343L11.1583 10.3085L15.095 6.37102ZM17.4117 7.25435C17.3176 7.16021 17.2058 7.08554 17.0829 7.03459C16.9599 6.98364 16.8281 6.95742 16.695 6.95742C16.5619 6.95742 16.4301 6.98364 16.3071 7.03459C16.1842 7.08554 16.0724 7.16021 15.9783 7.25435L15.8267 7.40602C15.835 7.43352 15.8442 7.46435 15.855 7.49518C15.9333 7.72018 16.0825 8.02018 16.3642 8.30185C16.6135 8.55269 16.9214 8.73742 17.26 8.83935L17.4117 8.68768C17.5058 8.59358 17.5805 8.48185 17.6314 8.35889C17.6824 8.23592 17.7086 8.10412 17.7086 7.97101C17.7086 7.83791 17.6824 7.70611 17.6314 7.58314C17.5805 7.46018 17.5058 7.34845 17.4117 7.25435ZM16.305 9.79435C16.0009 9.6344 15.7227 9.42929 15.48 9.18602C15.2367 8.94331 15.0316 8.66516 14.8717 8.36102L12.0417 11.191C11.7908 11.4418 11.7025 11.5318 11.6283 11.6268C11.5342 11.7477 11.4533 11.8785 11.3875 12.016C11.3358 12.1252 11.295 12.2443 11.1825 12.581L10.8492 13.581L11.085 13.8168L12.085 13.4835C12.4217 13.371 12.5408 13.3302 12.65 13.2785C12.7875 13.2118 12.9183 13.1318 13.0392 13.0377C13.1342 12.9635 13.2242 12.8752 13.475 12.6243L16.305 9.79435ZM6.04167 7.99935C6.04167 7.83359 6.10751 7.67462 6.22473 7.55741C6.34194 7.4402 6.50091 7.37435 6.66667 7.37435H12.0833C12.2491 7.37435 12.4081 7.4402 12.5253 7.55741C12.6425 7.67462 12.7083 7.83359 12.7083 7.99935C12.7083 8.16511 12.6425 8.32408 12.5253 8.44129C12.4081 8.5585 12.2491 8.62435 12.0833 8.62435H6.66667C6.50091 8.62435 6.34194 8.5585 6.22473 8.44129C6.10751 8.32408 6.04167 8.16511 6.04167 7.99935ZM6.04167 11.3327C6.04167 11.1669 6.10751 11.008 6.22473 10.8907C6.34194 10.7735 6.50091 10.7077 6.66667 10.7077H8.75C8.91576 10.7077 9.07473 10.7735 9.19194 10.8907C9.30915 11.008 9.375 11.1669 9.375 11.3327C9.375 11.4984 9.30915 11.6574 9.19194 11.7746C9.07473 11.8918 8.91576 11.9577 8.75 11.9577H6.66667C6.50091 11.9577 6.34194 11.8918 6.22473 11.7746C6.10751 11.6574 6.04167 11.4984 6.04167 11.3327ZM6.04167 14.666C6.04167 14.5003 6.10751 14.3413 6.22473 14.2241C6.34194 14.1069 6.50091 14.041 6.66667 14.041H7.91667C8.08243 14.041 8.2414 14.1069 8.35861 14.2241C8.47582 14.3413 8.54167 14.5003 8.54167 14.666C8.54167 14.8318 8.47582 14.9907 8.35861 15.108C8.2414 15.2252 8.08243 15.291 7.91667 15.291H6.66667C6.50091 15.291 6.34194 15.2252 6.22473 15.108C6.10751 14.9907 6.04167 14.8318 6.04167 14.666Z" fill="#222222"/>
</g>
<defs>
<filter id="filter0_d_1649_8924" x="1.875" y="1.54102" width="19.1191" height="19.916" filterUnits="userSpaceOnUse" color-interpolation-filters="sRGB">
<feFlood flood-opacity="0" result="BackgroundImageFix"/>
<feColorMatrix in="SourceAlpha" type="matrix" values="0 0 0 0 0 0 0 0 0 0 0 0 0 0 0 0 0 0 127 0" result="hardAlpha"/>
<feOffset dx="2" dy="2"/>
<feComposite in2="hardAlpha" operator="out"/>
<feColorMatrix type="matrix" values="0 0 0 0 1 0 0 0 0 0.831373 0 0 0 0 0.227451 0 0 0 1 0"/>
<feBlend mode="normal" in2="BackgroundImageFix" result="effect1_dropShadow_1649_8924"/>
<feBlend mode="normal" in="SourceGraphic" in2="effect1_dropShadow_1649_8924" result="shape"/>
</filter>
</defs>
</svg>
