<svg width="21" height="22" viewBox="0 0 21 22" fill="none" xmlns="http://www.w3.org/2000/svg">
<g filter="url(#filter0_d_1649_8917)">
<path fill-rule="evenodd" clip-rule="evenodd" d="M4.375 12.582C4.375 12.4163 4.44085 12.2573 4.55806 12.1401C4.67527 12.0229 4.83424 11.957 5 11.957H11.6667C11.8324 11.957 11.9914 12.0229 12.1086 12.1401C12.2258 12.2573 12.2917 12.4163 12.2917 12.582C12.2917 12.7478 12.2258 12.9068 12.1086 13.024C11.9914 13.1412 11.8324 13.207 11.6667 13.207H5C4.83424 13.207 4.67527 13.1412 4.55806 13.024C4.44085 12.9068 4.375 12.7478 4.375 12.582ZM4.375 15.4987C4.375 15.3329 4.44085 15.174 4.55806 15.0568C4.67527 14.9395 4.83424 14.8737 5 14.8737H9.58333C9.74909 14.8737 9.90806 14.9395 10.0253 15.0568C10.1425 15.174 10.2083 15.3329 10.2083 15.4987C10.2083 15.6645 10.1425 15.8234 10.0253 15.9406C9.90806 16.0579 9.74909 16.1237 9.58333 16.1237H5C4.83424 16.1237 4.67527 16.0579 4.55806 15.9406C4.44085 15.8234 4.375 15.6645 4.375 15.4987Z" fill="#222222"/>
</g>
<g filter="url(#filter1_d_1649_8917)">
<path fill-rule="evenodd" clip-rule="evenodd" d="M10.2077 2.86102C9.82435 2.79602 9.30101 2.79102 8.35768 2.79102C6.76018 2.79102 5.62435 2.79268 4.76435 2.90768C3.92102 3.02018 3.43685 3.23268 3.08435 3.58435C2.73185 3.93685 2.52018 4.42018 2.40768 5.25852C2.29268 6.11518 2.29102 7.24352 2.29102 8.83352V12.1668C2.29102 13.7552 2.29268 14.8835 2.40768 15.7402C2.52018 16.5785 2.73185 17.0618 3.08435 17.4152C3.43685 17.7668 3.92018 17.9785 4.75852 18.091C5.61518 18.2068 6.74352 18.2077 8.33268 18.2077H11.666C13.2552 18.2077 14.3843 18.206 15.241 18.091C16.0785 17.9785 16.5618 17.7668 16.9143 17.4143C17.2668 17.0618 17.4785 16.5785 17.591 15.7402C17.706 14.8843 17.7077 13.7552 17.7077 12.166V11.8018C17.7077 10.5218 17.6993 9.91518 17.5627 9.45768H14.9543C14.0102 9.45768 13.2393 9.45768 12.6293 9.37602C11.9935 9.29018 11.4418 9.10518 11.001 8.66435C10.5602 8.22352 10.3752 7.67268 10.2893 7.03518C10.2077 6.42685 10.2077 5.65518 10.2077 4.71018V2.86102ZM11.4577 3.50768V4.66602C11.4577 5.66602 11.4593 6.35268 11.5285 6.86852C11.5952 7.36685 11.7152 7.61102 11.8852 7.78018C12.0543 7.95018 12.2985 8.07018 12.7968 8.13685C13.3127 8.20602 13.9993 8.20768 14.9993 8.20768H16.6827C16.3629 7.90318 16.0378 7.60424 15.7077 7.31102L12.4085 4.34185C12.0973 4.05736 11.7803 3.77924 11.4577 3.50768ZM8.47852 1.54102C9.63268 1.54102 10.3785 1.54102 11.0643 1.80352C11.7502 2.06685 12.3018 2.56352 13.156 3.33268L13.2452 3.41268L16.5435 6.38185L16.6477 6.47518C17.6343 7.36268 18.2727 7.93685 18.6152 8.70685C18.9585 9.47685 18.9585 10.3352 18.9577 11.6618V12.2127C18.9577 13.7443 18.9577 14.9577 18.8302 15.9068C18.6985 16.8835 18.4218 17.6743 17.7985 18.2985C17.1743 18.9218 16.3835 19.1985 15.4068 19.3302C14.4568 19.4577 13.2443 19.4577 11.7127 19.4577H8.28602C6.75435 19.4577 5.54102 19.4577 4.59185 19.3302C3.61518 19.1985 2.82435 18.9218 2.20018 18.2985C1.57685 17.6743 1.30018 16.8835 1.16852 15.9068C1.04102 14.9568 1.04102 13.7443 1.04102 12.2127V8.78685C1.04102 7.25518 1.04102 6.04185 1.16852 5.09268C1.30018 4.11602 1.57685 3.32518 2.20018 2.70102C2.82518 2.07685 3.61768 1.80102 4.59852 1.66935C5.55185 1.54185 6.77102 1.54185 8.31102 1.54185H8.35768L8.47852 1.54102Z" fill="#222222"/>
</g>
<defs>
<filter id="filter0_d_1649_8917" x="4.375" y="11.957" width="9.91602" height="6.16602" filterUnits="userSpaceOnUse" color-interpolation-filters="sRGB">
<feFlood flood-opacity="0" result="BackgroundImageFix"/>
<feColorMatrix in="SourceAlpha" type="matrix" values="0 0 0 0 0 0 0 0 0 0 0 0 0 0 0 0 0 0 127 0" result="hardAlpha"/>
<feOffset dx="2" dy="2"/>
<feComposite in2="hardAlpha" operator="out"/>
<feColorMatrix type="matrix" values="0 0 0 0 1 0 0 0 0 0.831373 0 0 0 0 0.227451 0 0 0 1 0"/>
<feBlend mode="normal" in2="BackgroundImageFix" result="effect1_dropShadow_1649_8917"/>
<feBlend mode="normal" in="SourceGraphic" in2="effect1_dropShadow_1649_8917" result="shape"/>
</filter>
<filter id="filter1_d_1649_8917" x="1.04102" y="1.54102" width="19.916" height="19.916" filterUnits="userSpaceOnUse" color-interpolation-filters="sRGB">
<feFlood flood-opacity="0" result="BackgroundImageFix"/>
<feColorMatrix in="SourceAlpha" type="matrix" values="0 0 0 0 0 0 0 0 0 0 0 0 0 0 0 0 0 0 127 0" result="hardAlpha"/>
<feOffset dx="2" dy="2"/>
<feComposite in2="hardAlpha" operator="out"/>
<feColorMatrix type="matrix" values="0 0 0 0 1 0 0 0 0 0.831373 0 0 0 0 0.227451 0 0 0 1 0"/>
<feBlend mode="normal" in2="BackgroundImageFix" result="effect1_dropShadow_1649_8917"/>
<feBlend mode="normal" in="SourceGraphic" in2="effect1_dropShadow_1649_8917" result="shape"/>
</filter>
</defs>
</svg>
