<svg width="21" height="21" viewBox="0 0 21 21" fill="none" xmlns="http://www.w3.org/2000/svg">
<g filter="url(#filter0_d_1649_8935)">
<path fill-rule="evenodd" clip-rule="evenodd" d="M4.16667 1.54102C3.55888 1.54102 2.97598 1.78246 2.54621 2.21223C2.11644 2.642 1.875 3.22489 1.875 3.83268C1.875 4.44047 2.11644 5.02336 2.54621 5.45314C2.97598 5.88291 3.55888 6.12435 4.16667 6.12435C4.77445 6.12435 5.35735 5.88291 5.78712 5.45314C6.21689 5.02336 6.45833 4.44047 6.45833 3.83268C6.45833 3.22489 6.21689 2.642 5.78712 2.21223C5.35735 1.78246 4.77445 1.54102 4.16667 1.54102ZM3.125 3.83268C3.125 3.55642 3.23475 3.29146 3.4301 3.09611C3.62545 2.90076 3.8904 2.79102 4.16667 2.79102C4.44293 2.79102 4.70789 2.90076 4.90324 3.09611C5.09859 3.29146 5.20833 3.55642 5.20833 3.83268C5.20833 4.10895 5.09859 4.3739 4.90324 4.56925C4.70789 4.7646 4.44293 4.87435 4.16667 4.87435C3.8904 4.87435 3.62545 4.7646 3.4301 4.56925C3.23475 4.3739 3.125 4.10895 3.125 3.83268ZM1.875 7.16602C1.875 7.00026 1.94085 6.84128 2.05806 6.72407C2.17527 6.60686 2.33424 6.54102 2.5 6.54102H5.83333C5.99909 6.54102 6.15807 6.60686 6.27528 6.72407C6.39249 6.84128 6.45833 7.00026 6.45833 7.16602V17.9993C6.45833 18.1651 6.39249 18.3241 6.27528 18.4413C6.15807 18.5585 5.99909 18.6243 5.83333 18.6243H2.5C2.33424 18.6243 2.17527 18.5585 2.05806 18.4413C1.94085 18.3241 1.875 18.1651 1.875 17.9993V7.16602ZM3.125 7.79102V17.3743H5.20833V7.79102H3.125ZM7.70833 7.16602C7.70833 7.00026 7.77418 6.84128 7.89139 6.72407C8.0086 6.60686 8.16757 6.54102 8.33333 6.54102H11.6667C11.8324 6.54102 11.9914 6.60686 12.1086 6.72407C12.2258 6.84128 12.2917 7.00026 12.2917 7.16602V7.52768L12.6542 7.37185C13.2792 7.10475 13.9423 6.93743 14.6192 6.87602C16.9317 6.66602 18.9583 8.48268 18.9583 10.816V17.9993C18.9583 18.1651 18.8925 18.3241 18.7753 18.4413C18.6581 18.5585 18.4991 18.6243 18.3333 18.6243H15C14.8342 18.6243 14.6753 18.5585 14.5581 18.4413C14.4408 18.3241 14.375 18.1651 14.375 17.9993V12.166C14.375 11.8897 14.2653 11.6248 14.0699 11.4294C13.8746 11.2341 13.6096 11.1243 13.3333 11.1243C13.0571 11.1243 12.7921 11.2341 12.5968 11.4294C12.4014 11.6248 12.2917 11.8897 12.2917 12.166V17.9993C12.2917 18.1651 12.2258 18.3241 12.1086 18.4413C11.9914 18.5585 11.8324 18.6243 11.6667 18.6243H8.33333C8.16757 18.6243 8.0086 18.5585 7.89139 18.4413C7.77418 18.3241 7.70833 18.1651 7.70833 17.9993V7.16602ZM8.95833 7.79102V17.3743H11.0417V12.166C11.0417 11.5582 11.2831 10.9753 11.7129 10.5456C12.1427 10.1158 12.7255 9.87435 13.3333 9.87435C13.9411 9.87435 14.524 10.1158 14.9538 10.5456C15.3836 10.9753 15.625 11.5582 15.625 12.166V17.3743H17.7083V10.816C17.7083 9.22935 16.3242 7.97602 14.7333 8.12102C14.1868 8.17074 13.6514 8.3057 13.1467 8.52102L11.9133 9.05018C11.8182 9.09104 11.7144 9.10763 11.6113 9.09846C11.5082 9.08929 11.4089 9.05464 11.3225 8.99763C11.2361 8.94062 11.1652 8.86304 11.1162 8.77185C11.0671 8.68066 11.0415 8.57871 11.0417 8.47518V7.79102H8.95833Z" fill="#222222"/>
</g>
<defs>
<filter id="filter0_d_1649_8935" x="1.875" y="1.54102" width="19.084" height="19.084" filterUnits="userSpaceOnUse" color-interpolation-filters="sRGB">
<feFlood flood-opacity="0" result="BackgroundImageFix"/>
<feColorMatrix in="SourceAlpha" type="matrix" values="0 0 0 0 0 0 0 0 0 0 0 0 0 0 0 0 0 0 127 0" result="hardAlpha"/>
<feOffset dx="2" dy="2"/>
<feComposite in2="hardAlpha" operator="out"/>
<feColorMatrix type="matrix" values="0 0 0 0 1 0 0 0 0 0.831373 0 0 0 0 0.227451 0 0 0 1 0"/>
<feBlend mode="normal" in2="BackgroundImageFix" result="effect1_dropShadow_1649_8935"/>
<feBlend mode="normal" in="SourceGraphic" in2="effect1_dropShadow_1649_8935" result="shape"/>
</filter>
</defs>
</svg>
