<svg width="48" height="48" viewBox="0 0 48 48" fill="none" xmlns="http://www.w3.org/2000/svg">
<circle cx="24" cy="24" r="24" fill="#A020F0" fill-opacity="0.1"/>
<path d="M31.125 13.6699C31.7217 13.6699 32.294 13.907 32.716 14.3289C33.1379 14.7509 33.375 15.3232 33.375 15.9199V31.6699C33.375 32.2667 33.1379 32.839 32.716 33.2609C32.294 33.6829 31.7217 33.9199 31.125 33.9199H15.375C14.7783 33.9199 14.206 33.6829 13.784 33.2609C13.3621 32.839 13.125 32.2667 13.125 31.6699V15.9199C13.125 15.3232 13.3621 14.7509 13.784 14.3289C14.206 13.907 14.7783 13.6699 15.375 13.6699H31.125ZM30.5625 31.1074V25.1449C30.5625 24.1722 30.1761 23.2394 29.4883 22.5516C28.8005 21.8638 27.8677 21.4774 26.895 21.4774C25.9387 21.4774 24.825 22.0624 24.285 22.9399V21.6912H21.1462V31.1074H24.285V25.5612C24.285 24.6949 24.9825 23.9862 25.8488 23.9862C26.2665 23.9862 26.6671 24.1521 26.9624 24.4475C27.2578 24.7428 27.4237 25.1435 27.4237 25.5612V31.1074H30.5625ZM17.49 19.9249C17.9913 19.9249 18.472 19.7258 18.8264 19.3714C19.1809 19.0169 19.38 18.5362 19.38 18.0349C19.38 16.9887 18.5363 16.1337 17.49 16.1337C16.9858 16.1337 16.5022 16.334 16.1456 16.6905C15.7891 17.0471 15.5888 17.5307 15.5888 18.0349C15.5888 19.0812 16.4438 19.9249 17.49 19.9249ZM19.0538 31.1074V21.6912H15.9375V31.1074H19.0538Z" fill="#A020F0"/>
</svg>
