<svg width="16" height="17" viewBox="0 0 16 17" fill="none" xmlns="http://www.w3.org/2000/svg">
<mask id="mask0_1603_9012" style="mask-type:luminance" maskUnits="userSpaceOnUse" x="1" y="1" width="14" height="15">
<path d="M13.3333 7.83398H2.66667C2.29848 7.83398 2 8.13246 2 8.50065V14.5007C2 14.8688 2.29848 15.1673 2.66667 15.1673H13.3333C13.7015 15.1673 14 14.8688 14 14.5007V8.50065C14 8.13246 13.7015 7.83398 13.3333 7.83398Z" fill="white" stroke="white" stroke-width="1.5" stroke-linejoin="round"/>
<path d="M4.66699 7.83398V5.16732C4.66699 3.32632 6.15933 1.83398 8.00033 1.83398C9.84133 1.83398 11.3337 3.32632 11.3337 5.16732V7.83398" stroke="white" stroke-width="1.5" stroke-linecap="round" stroke-linejoin="round"/>
<path d="M8 10.5V12.5" stroke="black" stroke-width="1.5" stroke-linecap="round" stroke-linejoin="round"/>
</mask>
<g mask="url(#mask0_1603_9012)">
<path d="M0 0.5H16V16.5H0V0.5Z" fill="#222222" fill-opacity="0.9"/>
</g>
</svg>
