<svg width="20" height="20" viewBox="0 0 20 20" fill="none" xmlns="http://www.w3.org/2000/svg">
<path d="M12.4542 1.04102C11.3151 1.04102 10.3959 1.04102 9.67338 1.13852C8.92338 1.23852 8.29172 1.45518 7.79005 1.95602C7.35338 2.39352 7.13172 2.93102 7.01588 3.56268C6.90338 4.17685 6.88172 4.92768 6.87672 5.82935C6.87583 5.99511 6.94083 6.15443 7.05742 6.27227C7.174 6.3901 7.33262 6.4568 7.49838 6.45768C7.66415 6.45857 7.82347 6.39357 7.9413 6.27698C8.05914 6.1604 8.12583 6.00178 8.12672 5.83602C8.13172 4.92518 8.15505 4.27935 8.24505 3.78852C8.33255 3.31685 8.47172 3.04268 8.67422 2.84018C8.90505 2.60935 9.22922 2.45935 9.84088 2.37685C10.4701 2.29268 11.3042 2.29102 12.5001 2.29102H13.3334C14.5301 2.29102 15.3642 2.29268 15.9934 2.37685C16.6051 2.45935 16.9284 2.61018 17.1601 2.84018C17.39 3.07102 17.5401 3.39435 17.6226 4.00685C17.7076 4.63518 17.7084 5.47018 17.7084 6.66602V13.3327C17.7084 14.5285 17.7076 15.3627 17.6226 15.9927C17.5401 16.6043 17.3901 16.9277 17.1592 17.1585C16.9284 17.3893 16.6051 17.5393 15.9934 17.6218C15.3642 17.706 14.5301 17.7077 13.3334 17.7077H12.5001C11.3042 17.7077 10.4701 17.706 9.84005 17.6218C9.22922 17.5393 8.90505 17.3885 8.67422 17.1585C8.47172 16.9552 8.33255 16.6818 8.24505 16.2102C8.15505 15.7193 8.13172 15.0735 8.12672 14.1627C8.12628 14.0806 8.10968 13.9994 8.07787 13.9238C8.04605 13.8481 7.99965 13.7794 7.9413 13.7217C7.88296 13.664 7.81381 13.6183 7.73782 13.5873C7.66182 13.5563 7.58046 13.5406 7.49838 13.541C7.41631 13.5415 7.33512 13.5581 7.25946 13.5899C7.1838 13.6217 7.11515 13.6681 7.05742 13.7264C6.99969 13.7848 6.95402 13.8539 6.92302 13.9299C6.89201 14.0059 6.87628 14.0873 6.87672 14.1693C6.88172 15.071 6.90338 15.8218 7.01588 16.436C7.13255 17.0677 7.35338 17.6052 7.79088 18.0427C8.29172 18.5443 8.92422 18.7593 9.67422 18.861C10.3959 18.9577 11.3151 18.9577 12.4542 18.9577H13.3792C14.5192 18.9577 15.4376 18.9577 16.1601 18.861C16.9101 18.7593 17.5417 18.5443 18.0434 18.0427C18.5451 17.541 18.7601 16.9093 18.8617 16.1593C18.9584 15.4368 18.9584 14.5177 18.9584 13.3785V6.62018C18.9584 5.48102 18.9584 4.56185 18.8617 3.83935C18.7609 3.08935 18.5451 2.45768 18.0434 1.95602C17.5417 1.45435 16.9101 1.23935 16.1601 1.13852C15.4376 1.04102 14.5184 1.04102 13.3792 1.04102H12.4542Z" fill="#222222"/>
<path d="M12.5001 9.3753C12.6658 9.3753 12.8248 9.44115 12.942 9.55836C13.0592 9.67557 13.1251 9.83454 13.1251 10.0003C13.1251 10.1661 13.0592 10.325 12.942 10.4422C12.8248 10.5595 12.6658 10.6253 12.5001 10.6253H3.35589L4.99006 12.0253C5.11604 12.1332 5.19401 12.2866 5.20682 12.452C5.21964 12.6173 5.16625 12.781 5.05839 12.907C4.95054 13.0329 4.79705 13.1109 4.63171 13.1237C4.46637 13.1366 4.3027 13.0832 4.17672 12.9753L1.26006 10.4753C1.19145 10.4166 1.13636 10.3438 1.09859 10.2618C1.06082 10.1798 1.04126 10.0906 1.04126 10.0003C1.04126 9.91002 1.06082 9.82082 1.09859 9.73882C1.13636 9.65682 1.19145 9.58398 1.26006 9.5253L4.17672 7.0253C4.2391 6.9719 4.31139 6.9313 4.38945 6.90584C4.46752 6.88037 4.54984 6.87052 4.63171 6.87687C4.71358 6.88322 4.7934 6.90562 4.86661 6.94282C4.93982 6.98001 5.00499 7.03126 5.05839 7.09364C5.1118 7.15601 5.15239 7.2283 5.17786 7.30637C5.20333 7.38443 5.21317 7.46675 5.20682 7.54862C5.20048 7.63049 5.17807 7.71031 5.14088 7.78352C5.10368 7.85673 5.05244 7.9219 4.99006 7.9753L3.35672 9.3753H12.5001Z" fill="#222222"/>
</svg>
