<svg width="21" height="21" viewBox="0 0 21 21" fill="none" xmlns="http://www.w3.org/2000/svg">
<g filter="url(#filter0_d_2042_1811)">
<path fill-rule="evenodd" clip-rule="evenodd" d="M18.9587 4.61086C18.9587 3.39169 17.9878 2.34586 16.7137 2.39002C15.7645 2.42336 14.5253 2.52169 13.5712 2.80752C12.742 3.05586 11.8095 3.54086 11.082 3.96169C10.7458 4.15588 10.366 4.26211 9.97777 4.27056C9.58958 4.27901 9.20553 4.1894 8.86116 4.01002C8.03116 3.57169 6.94033 3.05169 5.99283 2.80169C5.19283 2.59086 4.17949 2.48919 3.35699 2.43836C2.05866 2.35919 1.04199 3.41669 1.04199 4.66502V13.9534C1.04199 15.2334 2.07866 16.2325 3.30699 16.3092C4.10616 16.3592 5.00533 16.4559 5.67366 16.6325C6.50116 16.85 7.52366 17.3359 8.35033 17.7759C8.8585 18.0455 9.42503 18.1865 10.0003 18.1865C10.5756 18.1865 11.1421 18.0455 11.6503 17.7759C12.4762 17.3359 13.4995 16.8509 14.3262 16.6325C14.9953 16.4559 15.8945 16.3592 16.6937 16.3092C17.922 16.2325 18.9587 15.2334 18.9587 13.9534V4.61086ZM16.757 3.63919C17.2695 3.62169 17.7087 4.04336 17.7087 4.61086V13.9525C17.7087 14.5242 17.2353 15.0234 16.6153 15.0617C15.7987 15.1134 14.7995 15.2142 14.007 15.4234C13.032 15.6817 11.9028 16.225 11.0628 16.6734C10.9228 16.7484 10.7762 16.8067 10.6253 16.8492V5.45169C11.002 5.37669 11.3687 5.24002 11.7087 5.04336C12.417 4.63336 13.2462 4.21002 13.9295 4.00502C14.7212 3.76836 15.8245 3.67169 16.757 3.63919ZM9.37533 5.47919C8.99159 5.41986 8.62041 5.29707 8.27699 5.11586C7.46283 4.68502 6.47616 4.22252 5.67449 4.01086C4.99699 3.83169 4.08533 3.73586 3.28033 3.68586C2.75199 3.65419 2.29199 4.08419 2.29199 4.66502V13.9534C2.29199 14.5242 2.76533 15.0234 3.38533 15.0617C4.20199 15.1134 5.20116 15.2142 5.99366 15.4234C6.96866 15.6817 8.09783 16.225 8.93783 16.6734C9.07783 16.7484 9.22533 16.8067 9.37533 16.8492V5.47919Z" fill="#222222"/>
</g>
<defs>
<filter id="filter0_d_2042_1811" x="1.04199" y="2.38867" width="19.917" height="17.7988" filterUnits="userSpaceOnUse" color-interpolation-filters="sRGB">
<feFlood flood-opacity="0" result="BackgroundImageFix"/>
<feColorMatrix in="SourceAlpha" type="matrix" values="0 0 0 0 0 0 0 0 0 0 0 0 0 0 0 0 0 0 127 0" result="hardAlpha"/>
<feOffset dx="2" dy="2"/>
<feComposite in2="hardAlpha" operator="out"/>
<feColorMatrix type="matrix" values="0 0 0 0 1 0 0 0 0 0.831373 0 0 0 0 0.227451 0 0 0 1 0"/>
<feBlend mode="normal" in2="BackgroundImageFix" result="effect1_dropShadow_2042_1811"/>
<feBlend mode="normal" in="SourceGraphic" in2="effect1_dropShadow_2042_1811" result="shape"/>
</filter>
</defs>
</svg>
