<svg width="20" height="21" viewBox="0 0 20 21" fill="none" xmlns="http://www.w3.org/2000/svg">
<path fill-rule="evenodd" clip-rule="evenodd" d="M17.4367 10.2715H15.1917C14.005 10.2715 13.1242 11.154 13.1242 12.1465C13.1242 13.139 14.005 14.0215 15.1908 14.0215H17.4558C17.6275 14.0107 17.7017 13.8948 17.7075 13.8248V10.4682C17.7017 10.3982 17.6275 10.2823 17.4558 10.2723L17.4367 10.2715ZM17.375 9.02148C17.43 9.02148 17.4833 9.02148 17.5333 9.02482C18.2583 9.06898 18.9008 9.61648 18.955 10.3815C18.9583 10.4315 18.9583 10.4857 18.9583 10.5357V13.7573C18.9583 13.8073 18.9583 13.8615 18.955 13.9115C18.9008 14.6765 18.2583 15.224 17.5325 15.269C17.4833 15.2715 17.43 15.2715 17.3742 15.2715H15.1925C13.405 15.2715 11.875 13.9148 11.875 12.1465C11.875 10.3782 13.405 9.02148 15.1917 9.02148H17.3608H17.375Z" fill="#222222"/>
<path d="M15.8332 12.1478C15.8332 12.3688 15.7454 12.5808 15.5891 12.737C15.4328 12.8933 15.2209 12.9811 14.9998 12.9811C14.7788 12.9811 14.5669 12.8933 14.4106 12.737C14.2543 12.5808 14.1665 12.3688 14.1665 12.1478C14.1665 11.9268 14.2543 11.7148 14.4106 11.5585C14.5669 11.4023 14.7788 11.3145 14.9998 11.3145C15.2209 11.3145 15.4328 11.4023 15.5891 11.5585C15.7454 11.7148 15.8332 11.9268 15.8332 12.1478Z" fill="#222222"/>
<path fill-rule="evenodd" clip-rule="evenodd" d="M17.3748 9.02223C17.6139 9.0132 17.8519 9.0588 18.0707 9.15557C17.9815 7.81723 17.7357 6.78557 16.9657 6.01473C16.3415 5.3914 15.5507 5.11473 14.574 4.98307L14.539 4.9789C14.5303 4.97229 14.5214 4.9659 14.5123 4.95973L11.399 2.89557C10.859 2.54313 10.228 2.35547 9.58317 2.35547C8.9383 2.35547 8.30738 2.54313 7.76734 2.89557L4.65484 4.95973C4.64551 4.96588 4.63634 4.97227 4.62734 4.9789L4.59234 4.98307C3.61567 5.11473 2.82484 5.3914 2.20067 6.01473C1.57734 6.6389 1.30067 7.42973 1.169 8.4064C1.0415 9.3564 1.0415 10.5689 1.0415 12.1006V12.1939C1.0415 13.7256 1.0415 14.9389 1.169 15.8881C1.30067 16.8647 1.57734 17.6556 2.20067 18.2797C2.82484 18.9031 3.61567 19.1797 4.59234 19.3114C5.54234 19.4389 6.75484 19.4389 8.2865 19.4389H10.8798C12.4115 19.4389 13.6248 19.4389 14.574 19.3114C15.5507 19.1797 16.3415 18.9031 16.9657 18.2797C17.7357 17.5089 17.9815 16.4772 18.0707 15.1381C17.9023 15.2131 17.7207 15.2581 17.5323 15.2697C17.4832 15.2722 17.4298 15.2722 17.374 15.2722H16.8065C16.7115 16.3906 16.4973 16.9806 16.0815 17.3956C15.729 17.7481 15.2457 17.9597 14.4073 18.0722C13.5515 18.1872 12.4223 18.1889 10.8332 18.1889H8.33317C6.744 18.1889 5.61567 18.1872 4.75817 18.0722C3.92067 17.9597 3.43734 17.7481 3.08484 17.3956C2.73234 17.0431 2.52067 16.5597 2.40817 15.7214C2.29317 14.8656 2.2915 13.7364 2.2915 12.1472C2.2915 10.5581 2.29317 9.42973 2.40817 8.57223C2.52067 7.73473 2.73234 7.2514 3.08484 6.8989C3.43734 6.5464 3.92067 6.33473 4.759 6.22223C5.61567 6.10723 6.744 6.10557 8.33317 6.10557H10.8332C12.4223 6.10557 13.5515 6.10723 14.4082 6.22223C15.2457 6.33473 15.729 6.5464 16.0815 6.8989C16.4973 7.3139 16.7115 7.90473 16.8065 9.02223H17.3607H17.3748ZM8.2865 4.85557H10.8798C11.3107 4.85557 11.7157 4.85557 12.0965 4.85807L10.7082 3.93723C10.0415 3.49557 9.12484 3.49557 8.45817 3.93723L7.069 4.85807C7.45067 4.85557 7.85567 4.85557 8.28567 4.85557" fill="#222222"/>
<path d="M5 8.18945C4.83424 8.18945 4.67527 8.2553 4.55806 8.37251C4.44085 8.48972 4.375 8.64869 4.375 8.81445C4.375 8.98021 4.44085 9.13918 4.55806 9.25639C4.67527 9.3736 4.83424 9.43945 5 9.43945H8.33333C8.49909 9.43945 8.65806 9.3736 8.77527 9.25639C8.89249 9.13918 8.95833 8.98021 8.95833 8.81445C8.95833 8.64869 8.89249 8.48972 8.77527 8.37251C8.65806 8.2553 8.49909 8.18945 8.33333 8.18945H5Z" fill="#222222"/>
<path d="M15.8332 12.1478C15.8332 12.3688 15.7454 12.5808 15.5891 12.737C15.4328 12.8933 15.2209 12.9811 14.9998 12.9811C14.7788 12.9811 14.5669 12.8933 14.4106 12.737C14.2543 12.5808 14.1665 12.3688 14.1665 12.1478C14.1665 11.9268 14.2543 11.7148 14.4106 11.5585C14.5669 11.4023 14.7788 11.3145 14.9998 11.3145C15.2209 11.3145 15.4328 11.4023 15.5891 11.5585C15.7454 11.7148 15.8332 11.9268 15.8332 12.1478Z" fill="#222222"/>
</svg>
