<svg width="20" height="21" viewBox="0 0 20 21" fill="none" xmlns="http://www.w3.org/2000/svg">
<path fill-rule="evenodd" clip-rule="evenodd" d="M17.4367 10.2715H15.1917C14.005 10.2715 13.1242 11.154 13.1242 12.1465C13.1242 13.139 14.005 14.0215 15.1908 14.0215H17.4558C17.6275 14.0107 17.7017 13.8948 17.7075 13.8248V10.4682C17.7017 10.3982 17.6275 10.2823 17.4558 10.2723L17.4367 10.2715ZM17.375 9.02148C17.43 9.02148 17.4833 9.02148 17.5333 9.02482C18.2583 9.06898 18.9008 9.61648 18.955 10.3815C18.9583 10.4315 18.9583 10.4857 18.9583 10.5357V13.7573C18.9583 13.8073 18.9583 13.8615 18.955 13.9115C18.9008 14.6765 18.2583 15.224 17.5325 15.269C17.4833 15.2715 17.43 15.2715 17.3742 15.2715H15.1925C13.405 15.2715 11.875 13.9148 11.875 12.1465C11.875 10.3782 13.405 9.02148 15.1917 9.02148H17.3608H17.375Z" fill="white"/>
<path d="M15.8327 12.1478C15.8327 12.3688 15.7449 12.5808 15.5886 12.737C15.4323 12.8933 15.2204 12.9811 14.9993 12.9811C14.7783 12.9811 14.5664 12.8933 14.4101 12.737C14.2538 12.5808 14.166 12.3688 14.166 12.1478C14.166 11.9268 14.2538 11.7148 14.4101 11.5585C14.5664 11.4023 14.7783 11.3145 14.9993 11.3145C15.2204 11.3145 15.4323 11.4023 15.5886 11.5585C15.7449 11.7148 15.8327 11.9268 15.8327 12.1478Z" fill="white"/>
<path fill-rule="evenodd" clip-rule="evenodd" d="M17.3743 9.02223C17.6134 9.0132 17.8514 9.0588 18.0702 9.15557C17.981 7.81723 17.7352 6.78557 16.9652 6.01473C16.341 5.3914 15.5502 5.11473 14.5735 4.98307L14.5385 4.9789C14.5298 4.97229 14.5209 4.9659 14.5119 4.95973L11.3985 2.89557C10.8585 2.54313 10.2275 2.35547 9.58268 2.35547C8.93782 2.35547 8.30689 2.54313 7.76685 2.89557L4.65435 4.95973C4.64502 4.96588 4.63585 4.97227 4.62685 4.9789L4.59185 4.98307C3.61518 5.11473 2.82435 5.3914 2.20018 6.01473C1.57685 6.6389 1.30018 7.42973 1.16852 8.4064C1.04102 9.3564 1.04102 10.5689 1.04102 12.1006V12.1939C1.04102 13.7256 1.04102 14.9389 1.16852 15.8881C1.30018 16.8647 1.57685 17.6556 2.20018 18.2797C2.82435 18.9031 3.61518 19.1797 4.59185 19.3114C5.54185 19.4389 6.75435 19.4389 8.28602 19.4389H10.8793C12.411 19.4389 13.6243 19.4389 14.5735 19.3114C15.5502 19.1797 16.341 18.9031 16.9652 18.2797C17.7352 17.5089 17.981 16.4772 18.0702 15.1381C17.9018 15.2131 17.7202 15.2581 17.5318 15.2697C17.4827 15.2722 17.4293 15.2722 17.3735 15.2722H16.806C16.711 16.3906 16.4969 16.9806 16.081 17.3956C15.7285 17.7481 15.2452 17.9597 14.4068 18.0722C13.551 18.1872 12.4218 18.1889 10.8327 18.1889H8.33268C6.74352 18.1889 5.61518 18.1872 4.75768 18.0722C3.92018 17.9597 3.43685 17.7481 3.08435 17.3956C2.73185 17.0431 2.52018 16.5597 2.40768 15.7214C2.29268 14.8656 2.29102 13.7364 2.29102 12.1472C2.29102 10.5581 2.29268 9.42973 2.40768 8.57223C2.52018 7.73473 2.73185 7.2514 3.08435 6.8989C3.43685 6.5464 3.92018 6.33473 4.75852 6.22223C5.61518 6.10723 6.74352 6.10557 8.33268 6.10557H10.8327C12.4218 6.10557 13.551 6.10723 14.4077 6.22223C15.2452 6.33473 15.7285 6.5464 16.081 6.8989C16.4969 7.3139 16.711 7.90473 16.806 9.02223H17.3602H17.3743ZM8.28602 4.85557H10.8793C11.3102 4.85557 11.7152 4.85557 12.096 4.85807L10.7077 3.93723C10.041 3.49557 9.12435 3.49557 8.45768 3.93723L7.06852 4.85807C7.45018 4.85557 7.85518 4.85557 8.28518 4.85557" fill="white"/>
<path d="M5 8.18945C4.83424 8.18945 4.67527 8.2553 4.55806 8.37251C4.44085 8.48972 4.375 8.64869 4.375 8.81445C4.375 8.98021 4.44085 9.13918 4.55806 9.25639C4.67527 9.3736 4.83424 9.43945 5 9.43945H8.33333C8.49909 9.43945 8.65806 9.3736 8.77527 9.25639C8.89249 9.13918 8.95833 8.98021 8.95833 8.81445C8.95833 8.64869 8.89249 8.48972 8.77527 8.37251C8.65806 8.2553 8.49909 8.18945 8.33333 8.18945H5Z" fill="white"/>
<path d="M15.8327 12.1478C15.8327 12.3688 15.7449 12.5808 15.5886 12.737C15.4323 12.8933 15.2204 12.9811 14.9993 12.9811C14.7783 12.9811 14.5664 12.8933 14.4101 12.737C14.2538 12.5808 14.166 12.3688 14.166 12.1478C14.166 11.9268 14.2538 11.7148 14.4101 11.5585C14.5664 11.4023 14.7783 11.3145 14.9993 11.3145C15.2204 11.3145 15.4323 11.4023 15.5886 11.5585C15.7449 11.7148 15.8327 11.9268 15.8327 12.1478Z" fill="white"/>
</svg>
