<svg width="20" height="21" viewBox="0 0 20 21" fill="none" xmlns="http://www.w3.org/2000/svg">
<path fill-rule="evenodd" clip-rule="evenodd" d="M9.99984 1.52148C8.95002 1.52148 7.9432 1.93852 7.20087 2.68085C6.45854 3.42318 6.0415 4.43 6.0415 5.47982C6.0415 6.52963 6.45854 7.53645 7.20087 8.27878C7.9432 9.02111 8.95002 9.43815 9.99984 9.43815C11.0497 9.43815 12.0565 9.02111 12.7988 8.27878C13.5411 7.53645 13.9582 6.52963 13.9582 5.47982C13.9582 4.43 13.5411 3.42318 12.7988 2.68085C12.0565 1.93852 11.0497 1.52148 9.99984 1.52148ZM7.2915 5.47982C7.2915 4.76152 7.57685 4.07265 8.08476 3.56474C8.59267 3.05683 9.28154 2.77148 9.99984 2.77148C10.7181 2.77148 11.407 3.05683 11.9149 3.56474C12.4228 4.07265 12.7082 4.76152 12.7082 5.47982C12.7082 6.19811 12.4228 6.88699 11.9149 7.3949C11.407 7.90281 10.7181 8.18815 9.99984 8.18815C9.28154 8.18815 8.59267 7.90281 8.08476 7.3949C7.57685 6.88699 7.2915 6.19811 7.2915 5.47982ZM9.99984 10.6882C8.29984 10.6882 6.7315 11.0798 5.56484 11.7465C4.4165 12.4032 3.5415 13.4048 3.5415 14.6465C3.5415 15.8882 4.4165 16.8898 5.56484 17.5465C6.7315 18.2132 8.30067 18.6048 9.99984 18.6048C11.6998 18.6048 13.2682 18.2132 14.4348 17.5465C15.5832 16.8898 16.4582 15.8882 16.4582 14.6465C16.4582 13.4048 15.5832 12.4032 14.4348 11.7465C13.2682 11.0798 11.699 10.6882 9.99984 10.6882ZM4.7915 14.6465C4.7915 14.0465 5.22234 13.3823 6.18484 12.8323C7.12984 12.2923 8.47734 11.9382 9.99984 11.9382C11.5223 11.9382 12.8698 12.2923 13.8148 12.8323C14.7773 13.3823 15.2082 14.0473 15.2082 14.6465C15.2082 15.2465 14.7773 15.9107 13.8148 16.4607C12.8698 17.0007 11.5223 17.3548 9.99984 17.3548C8.47734 17.3548 7.12984 17.0007 6.18484 16.4607C5.22234 15.9107 4.7915 15.2465 4.7915 14.6465Z" fill="white"/>
</svg>
