<svg width="20" height="21" viewBox="0 0 20 21" fill="none" xmlns="http://www.w3.org/2000/svg">
<path fill-rule="evenodd" clip-rule="evenodd" d="M10.0003 1.52148C8.95051 1.52148 7.94369 1.93852 7.20136 2.68085C6.45903 3.42318 6.04199 4.43 6.04199 5.47982C6.04199 6.52963 6.45903 7.53645 7.20136 8.27878C7.94369 9.02111 8.95051 9.43815 10.0003 9.43815C11.0501 9.43815 12.057 9.02111 12.7993 8.27878C13.5416 7.53645 13.9587 6.52963 13.9587 5.47982C13.9587 4.43 13.5416 3.42318 12.7993 2.68085C12.057 1.93852 11.0501 1.52148 10.0003 1.52148ZM7.29199 5.47982C7.29199 4.76152 7.57733 4.07265 8.08525 3.56474C8.59316 3.05683 9.28203 2.77148 10.0003 2.77148C10.7186 2.77148 11.4075 3.05683 11.9154 3.56474C12.4233 4.07265 12.7087 4.76152 12.7087 5.47982C12.7087 6.19811 12.4233 6.88699 11.9154 7.3949C11.4075 7.90281 10.7186 8.18815 10.0003 8.18815C9.28203 8.18815 8.59316 7.90281 8.08525 7.3949C7.57733 6.88699 7.29199 6.19811 7.29199 5.47982ZM10.0003 10.6882C8.30033 10.6882 6.73199 11.0798 5.56533 11.7465C4.41699 12.4032 3.54199 13.4048 3.54199 14.6465C3.54199 15.8882 4.41699 16.8898 5.56533 17.5465C6.73199 18.2132 8.30116 18.6048 10.0003 18.6048C11.7003 18.6048 13.2687 18.2132 14.4353 17.5465C15.5837 16.8898 16.4587 15.8882 16.4587 14.6465C16.4587 13.4048 15.5837 12.4032 14.4353 11.7465C13.2687 11.0798 11.6995 10.6882 10.0003 10.6882ZM4.79199 14.6465C4.79199 14.0465 5.22283 13.3823 6.18533 12.8323C7.13033 12.2923 8.47783 11.9382 10.0003 11.9382C11.5228 11.9382 12.8703 12.2923 13.8153 12.8323C14.7778 13.3823 15.2087 14.0473 15.2087 14.6465C15.2087 15.2465 14.7778 15.9107 13.8153 16.4607C12.8703 17.0007 11.5228 17.3548 10.0003 17.3548C8.47783 17.3548 7.13033 17.0007 6.18533 16.4607C5.22283 15.9107 4.79199 15.2465 4.79199 14.6465Z" fill="#222222"/>
</svg>
