<svg width="20" height="21" viewBox="0 0 20 21" fill="none" xmlns="http://www.w3.org/2000/svg">
<path fill-rule="evenodd" clip-rule="evenodd" d="M9.99984 2.77148C7.95547 2.77148 5.99482 3.58361 4.54923 5.0292C3.10364 6.4748 2.29151 8.43544 2.29151 10.4798C2.29151 11.714 2.58151 12.879 3.09568 13.9115C3.30234 14.3265 3.38151 14.8215 3.25151 15.309L2.75484 17.1632C2.73399 17.2408 2.73395 17.3226 2.75472 17.4003C2.77549 17.478 2.81634 17.5489 2.87317 17.6058C2.93001 17.6627 3.00082 17.7037 3.07849 17.7246C3.15616 17.7455 3.23796 17.7456 3.31568 17.7248L5.17151 17.2282C5.6405 17.1081 6.13718 17.1635 6.56818 17.384C7.63417 17.9147 8.80905 18.19 9.99984 18.1882C12.0442 18.1882 14.0049 17.376 15.4505 15.9304C16.8961 14.4848 17.7082 12.5242 17.7082 10.4798C17.7082 8.43544 16.8961 6.4748 15.4505 5.0292C14.0049 3.58361 12.0442 2.77148 9.99984 2.77148ZM1.04151 10.4798C1.04151 5.53232 5.05234 1.52148 9.99984 1.52148C14.9473 1.52148 18.9582 5.53232 18.9582 10.4798C18.9582 15.4273 14.9473 19.4382 9.99984 19.4382C8.56818 19.4382 7.21318 19.1015 6.01068 18.5032C5.8523 18.4188 5.66861 18.3951 5.49401 18.4365L3.63901 18.9323C2.36901 19.2723 1.20734 18.1107 1.54734 16.8407L2.04401 14.9857C2.08538 14.8111 2.06168 14.6274 1.97734 14.469C1.36022 13.2298 1.03983 11.8641 1.04151 10.4798ZM9.99984 6.52148C10.1656 6.52148 10.3246 6.58733 10.4418 6.70454C10.559 6.82175 10.6248 6.98072 10.6248 7.14648V7.15482C11.5323 7.38398 12.2915 8.09898 12.2915 9.09065C12.2915 9.25641 12.2257 9.41538 12.1085 9.53259C11.9912 9.6498 11.8323 9.71565 11.6665 9.71565C11.5008 9.71565 11.3418 9.6498 11.2246 9.53259C11.1074 9.41538 11.0415 9.25641 11.0415 9.09065C11.0415 8.77065 10.6865 8.32732 9.99984 8.32732C9.31318 8.32732 8.95818 8.77065 8.95818 9.09065C8.95818 9.41065 9.31318 9.85482 9.99984 9.85482C11.154 9.85482 12.2915 10.6548 12.2915 11.869C12.2915 12.8607 11.5323 13.5765 10.6248 13.8048V13.8132C10.6248 13.9789 10.559 14.1379 10.4418 14.2551C10.3246 14.3723 10.1656 14.4382 9.99984 14.4382C9.83408 14.4382 9.67511 14.3723 9.5579 14.2551C9.44069 14.1379 9.37484 13.9789 9.37484 13.8132V13.8048C8.46734 13.5765 7.70818 12.8607 7.70818 11.869C7.70818 11.7032 7.77403 11.5443 7.89124 11.427C8.00845 11.3098 8.16742 11.244 8.33318 11.244C8.49894 11.244 8.65791 11.3098 8.77512 11.427C8.89233 11.5443 8.95818 11.7032 8.95818 11.869C8.95818 12.189 9.31318 12.6323 9.99984 12.6323C10.6865 12.6323 11.0415 12.189 11.0415 11.869C11.0415 11.549 10.6865 11.1048 9.99984 11.1048C8.84568 11.1048 7.70818 10.3048 7.70818 9.09065C7.70818 8.09898 8.46734 7.38398 9.37484 7.15482V7.14648C9.37484 6.98072 9.44069 6.82175 9.5579 6.70454C9.67511 6.58733 9.83408 6.52148 9.99984 6.52148Z" fill="#222222"/>
</svg>
