<svg width="20" height="21" viewBox="0 0 20 21" fill="none" xmlns="http://www.w3.org/2000/svg">
<path fill-rule="evenodd" clip-rule="evenodd" d="M7.09328 16.8075C7.03093 16.7541 6.97972 16.6889 6.94258 16.6156C6.90544 16.5424 6.88309 16.4625 6.87682 16.3807C6.87055 16.2988 6.88048 16.2165 6.90604 16.1384C6.9316 16.0604 6.97229 15.9881 7.02578 15.9258L11.6766 10.4992L7.02578 5.0725C6.92422 4.94597 6.87584 4.78492 6.89086 4.62337C6.90589 4.46183 6.98315 4.31246 7.1063 4.20684C7.22945 4.10122 7.38885 4.04763 7.55079 4.05739C7.71274 4.06715 7.86454 4.13951 7.97411 4.25916L12.9741 10.0925C13.0712 10.2058 13.1245 10.35 13.1245 10.4992C13.1245 10.6483 13.0712 10.7926 12.9741 10.9058L7.97411 16.7392C7.86621 16.8648 7.71283 16.9425 7.54767 16.9552C7.3825 16.9679 7.21907 16.9144 7.09328 16.8067" fill="#222222"/>
</svg>
