<svg width="100" height="100" viewBox="0 0 100 100" fill="none" xmlns="http://www.w3.org/2000/svg">
<path opacity="0.2" fill-rule="evenodd" clip-rule="evenodd" d="M35.8745 71.0391C33.9189 72.079 31.722 72.5806 29.5088 72.4925C27.2956 72.4045 25.1455 71.7299 23.2787 70.5378C21.4118 69.3458 19.8953 67.6791 18.8842 65.7084C17.8731 63.7377 17.4038 61.5337 17.5244 59.322C17.645 57.1103 18.351 54.9704 19.5704 53.1213C20.7897 51.2721 22.4785 49.7802 24.4638 48.7982C26.4492 47.8161 28.6599 47.3793 30.8695 47.5323C33.0792 47.6853 35.2085 48.4228 37.0395 49.6691L62.5045 34.6191C62.5957 31.6449 63.7448 28.8008 65.7454 26.598C67.7459 24.3953 70.4667 22.9785 73.4184 22.6023C76.3701 22.2261 79.3593 22.9152 81.8484 24.5458C84.3374 26.1763 86.1632 28.6414 86.9974 31.4976C87.8316 34.3539 87.6195 37.4141 86.3993 40.128C85.179 42.8419 83.0307 45.0315 80.3405 46.3031C77.6502 47.5747 74.5946 47.8449 71.723 47.0651C68.8514 46.2854 66.3521 44.5068 64.6745 42.0491L41.7095 55.6191C42.3031 57.2003 42.5693 58.8856 42.492 60.5728C42.4146 62.26 41.9953 63.9139 41.2595 65.4341L64.5495 78.1341C66.1843 75.6459 68.6534 73.8228 71.5127 72.9929C74.3719 72.1631 77.4334 72.3811 80.1463 73.6076C82.8591 74.8341 85.0451 76.9886 86.3108 79.6834C87.5765 82.3781 87.8389 85.4362 87.0506 88.3071C86.2624 91.1781 84.4753 93.6734 82.011 95.3441C79.5467 97.0147 76.567 97.7509 73.6082 97.4202C70.6494 97.0895 67.9058 95.7136 65.8712 93.5401C63.8365 91.3666 62.6445 88.5383 62.5095 85.5641L35.8745 71.0391Z" fill="#A020F0"/>
<path fill-rule="evenodd" clip-rule="evenodd" d="M25 62.5C28.3152 62.5 31.4946 61.183 33.8388 58.8388C36.183 56.4946 37.5 53.3152 37.5 50C37.5 46.6848 36.183 43.5054 33.8388 41.1612C31.4946 38.817 28.3152 37.5 25 37.5C21.6848 37.5 18.5054 38.817 16.1612 41.1612C13.817 43.5054 12.5 46.6848 12.5 50C12.5 53.3152 13.817 56.4946 16.1612 58.8388C18.5054 61.183 21.6848 62.5 25 62.5ZM25 42.5C26.9891 42.5 28.8968 43.2902 30.3033 44.6967C31.7098 46.1032 32.5 48.0109 32.5 50C32.5 51.9891 31.7098 53.8968 30.3033 55.3033C28.8968 56.7098 26.9891 57.5 25 57.5C23.0109 57.5 21.1032 56.7098 19.6967 55.3033C18.2902 53.8968 17.5 51.9891 17.5 50C17.5 48.0109 18.2902 46.1032 19.6967 44.6967C21.1032 43.2902 23.0109 42.5 25 42.5ZM70 37.5C73.3152 37.5 76.4946 36.183 78.8388 33.8388C81.183 31.4946 82.5 28.3152 82.5 25C82.5 21.6848 81.183 18.5054 78.8388 16.1612C76.4946 13.817 73.3152 12.5 70 12.5C66.6848 12.5 63.5054 13.817 61.1612 16.1612C58.817 18.5054 57.5 21.6848 57.5 25C57.5 28.3152 58.817 31.4946 61.1612 33.8388C63.5054 36.183 66.6848 37.5 70 37.5ZM70 17.5C71.9891 17.5 73.8968 18.2902 75.3033 19.6967C76.7098 21.1032 77.5 23.0109 77.5 25C77.5 26.9891 76.7098 28.8968 75.3033 30.3033C73.8968 31.7098 71.9891 32.5 70 32.5C68.0109 32.5 66.1032 31.7098 64.6967 30.3033C63.2902 28.8968 62.5 26.9891 62.5 25C62.5 23.0109 63.2902 21.1032 64.6967 19.6967C66.1032 18.2902 68.0109 17.5 70 17.5ZM70 87.5C73.3152 87.5 76.4946 86.183 78.8388 83.8388C81.183 81.4946 82.5 78.3152 82.5 75C82.5 71.6848 81.183 68.5054 78.8388 66.1612C76.4946 63.817 73.3152 62.5 70 62.5C66.6848 62.5 63.5054 63.817 61.1612 66.1612C58.817 68.5054 57.5 71.6848 57.5 75C57.5 78.3152 58.817 81.4946 61.1612 83.8388C63.5054 86.183 66.6848 87.5 70 87.5ZM70 67.5C71.9891 67.5 73.8968 68.2902 75.3033 69.6967C76.7098 71.1032 77.5 73.0109 77.5 75C77.5 76.9891 76.7098 78.8968 75.3033 80.3033C73.8968 81.7098 71.9891 82.5 70 82.5C68.0109 82.5 66.1032 81.7098 64.6967 80.3033C63.2902 78.8968 62.5 76.9891 62.5 75C62.5 73.0109 63.2902 71.1032 64.6967 69.6967C66.1032 68.2902 68.0109 67.5 70 67.5Z" fill="#A020F0"/>
<path d="M33.7705 45.8996L31.2305 41.5996L58.7305 25.3496L61.2705 29.6496L33.7705 45.8996ZM60.0005 74.3896L62.3955 69.9996L34.8955 54.9996L32.5005 59.3896L60.0005 74.3896Z" fill="#A020F0"/>
</svg>
