<svg width="20" height="21" viewBox="0 0 20 21" fill="none" xmlns="http://www.w3.org/2000/svg">
<path fill-rule="evenodd" clip-rule="evenodd" d="M9.99984 1.52148C5.05234 1.52148 1.0415 5.53232 1.0415 10.4798C1.0415 15.4273 5.05234 19.4382 9.99984 19.4382C14.9473 19.4382 18.9582 15.4273 18.9582 10.4798C18.9582 5.53232 14.9473 1.52148 9.99984 1.52148ZM2.2915 10.4798C2.2915 8.57648 2.9815 6.83398 4.12484 5.48898L6.794 8.15732C6.30365 8.83231 6.04017 9.64551 6.0415 10.4798C6.04023 11.3141 6.3037 12.1273 6.794 12.8023L4.12484 15.4707C2.93879 14.0785 2.28867 12.3087 2.2915 10.4798ZM7.67734 7.27398L5.009 4.60482C6.40115 3.41877 8.17097 2.76865 9.99984 2.77148C11.9032 2.77148 13.6457 3.46148 14.9907 4.60482L12.3215 7.27398C11.6468 6.78374 10.8339 6.52027 9.99984 6.52148C9.16553 6.52015 8.35233 6.78363 7.67734 7.27398ZM5.009 16.3548C6.40115 17.5409 8.17097 18.191 9.99984 18.1882C11.8287 18.191 13.5985 17.5409 14.9907 16.3548L12.3215 13.6857C11.6468 14.1759 10.8339 14.4394 9.99984 14.4382C9.16553 14.4395 8.35233 14.176 7.67734 13.6857L5.009 16.3548ZM13.2057 12.8015L15.8748 15.4707C17.0609 14.0785 17.711 12.3087 17.7082 10.4798C17.711 8.65095 17.0609 6.88113 15.8748 5.48898L13.2057 8.15732C13.696 8.83234 13.9594 9.64552 13.9582 10.4798C13.9596 11.3141 13.6961 12.1265 13.2057 12.8015ZM7.2915 10.4798C7.2915 9.76152 7.57685 9.07265 8.08476 8.56474C8.59267 8.05683 9.28154 7.77148 9.99984 7.77148C10.7181 7.77148 11.407 8.05683 11.9149 8.56474C12.4228 9.07265 12.7082 9.76152 12.7082 10.4798C12.7082 11.1981 12.4228 11.887 11.9149 12.3949C11.407 12.9028 10.7181 13.1882 9.99984 13.1882C9.28154 13.1882 8.59267 12.9028 8.08476 12.3949C7.57685 11.887 7.2915 11.1981 7.2915 10.4798Z" fill="#222222"/>
</svg>
