<svg width="20" height="21" viewBox="0 0 20 21" fill="none" xmlns="http://www.w3.org/2000/svg">
<path fill-rule="evenodd" clip-rule="evenodd" d="M10.0013 1.52148C5.0538 1.52148 1.04297 5.53232 1.04297 10.4798C1.04297 15.4273 5.0538 19.4382 10.0013 19.4382C14.9488 19.4382 18.9596 15.4273 18.9596 10.4798C18.9596 5.53232 14.9488 1.52148 10.0013 1.52148ZM2.29297 10.4798C2.29297 8.57648 2.98297 6.83398 4.1263 5.48898L6.79547 8.15732C6.30511 8.83231 6.04163 9.64551 6.04297 10.4798C6.04169 11.3141 6.30517 12.1273 6.79547 12.8023L4.1263 15.4707C2.94026 14.0785 2.29014 12.3087 2.29297 10.4798ZM7.6788 7.27398L5.01047 4.60482C6.40262 3.41877 8.17243 2.76865 10.0013 2.77148C11.9046 2.77148 13.6471 3.46148 14.9921 4.60482L12.323 7.27398C11.6482 6.78374 10.8353 6.52027 10.0013 6.52148C9.167 6.52015 8.3538 6.78363 7.6788 7.27398ZM5.01047 16.3548C6.40262 17.5409 8.17243 18.191 10.0013 18.1882C11.8302 18.191 13.6 17.5409 14.9921 16.3548L12.323 13.6857C11.6482 14.1759 10.8353 14.4394 10.0013 14.4382C9.167 14.4395 8.3538 14.176 7.6788 13.6857L5.01047 16.3548ZM13.2071 12.8015L15.8763 15.4707C17.0623 14.0785 17.7125 12.3087 17.7096 10.4798C17.7125 8.65095 17.0623 6.88113 15.8763 5.48898L13.2071 8.15732C13.6974 8.83234 13.9609 9.64552 13.9596 10.4798C13.961 11.3141 13.6975 12.1265 13.2071 12.8015ZM7.29297 10.4798C7.29297 9.76152 7.57831 9.07265 8.08622 8.56474C8.59413 8.05683 9.28301 7.77148 10.0013 7.77148C10.7196 7.77148 11.4085 8.05683 11.9164 8.56474C12.4243 9.07265 12.7096 9.76152 12.7096 10.4798C12.7096 11.1981 12.4243 11.887 11.9164 12.3949C11.4085 12.9028 10.7196 13.1882 10.0013 13.1882C9.28301 13.1882 8.59413 12.9028 8.08622 12.3949C7.57831 11.887 7.29297 11.1981 7.29297 10.4798Z" fill="white"/>
</svg>
