<svg width="20" height="21" viewBox="0 0 20 21" fill="none" xmlns="http://www.w3.org/2000/svg">
<path fill-rule="evenodd" clip-rule="evenodd" d="M9.99984 1.52148C8.95002 1.52148 7.9432 1.93852 7.20087 2.68085C6.45854 3.42318 6.0415 4.43 6.0415 5.47982C6.0415 6.52963 6.45854 7.53645 7.20087 8.27878C7.9432 9.02111 8.95002 9.43815 9.99984 9.43815C11.0497 9.43815 12.0565 9.02111 12.7988 8.27878C13.5411 7.53645 13.9582 6.52963 13.9582 5.47982C13.9582 4.43 13.5411 3.42318 12.7988 2.68085C12.0565 1.93852 11.0497 1.52148 9.99984 1.52148ZM7.2915 5.47982C7.2915 4.76152 7.57685 4.07265 8.08476 3.56474C8.59267 3.05683 9.28154 2.77148 9.99984 2.77148C10.7181 2.77148 11.407 3.05683 11.9149 3.56474C12.4228 4.07265 12.7082 4.76152 12.7082 5.47982C12.7082 6.19811 12.4228 6.88699 11.9149 7.3949C11.407 7.90281 10.7181 8.18815 9.99984 8.18815C9.28154 8.18815 8.59267 7.90281 8.08476 7.3949C7.57685 6.88699 7.2915 6.19811 7.2915 5.47982Z" fill="#222222"/>
<path d="M15 3.18945C14.8342 3.18945 14.6753 3.2553 14.5581 3.37251C14.4408 3.48972 14.375 3.64869 14.375 3.81445C14.375 3.98021 14.4408 4.13918 14.5581 4.25639C14.6753 4.37361 14.8342 4.43945 15 4.43945C16.1475 4.43945 16.875 5.19445 16.875 5.89779C16.875 6.60112 16.1475 7.35612 15 7.35612C14.8342 7.35612 14.6753 7.42197 14.5581 7.53918C14.4408 7.65639 14.375 7.81536 14.375 7.98112C14.375 8.14688 14.4408 8.30585 14.5581 8.42306C14.6753 8.54027 14.8342 8.60612 15 8.60612C16.6142 8.60612 18.125 7.49529 18.125 5.89779C18.125 4.30029 16.6142 3.18945 15 3.18945ZM5.625 3.81445C5.625 3.64869 5.55915 3.48972 5.44194 3.37251C5.32473 3.2553 5.16576 3.18945 5 3.18945C3.38583 3.18945 1.875 4.30029 1.875 5.89779C1.875 7.49529 3.38583 8.60612 5 8.60612C5.16576 8.60612 5.32473 8.54027 5.44194 8.42306C5.55915 8.30585 5.625 8.14688 5.625 7.98112C5.625 7.81536 5.55915 7.65639 5.44194 7.53918C5.32473 7.42197 5.16576 7.35612 5 7.35612C3.85333 7.35612 3.125 6.60112 3.125 5.89779C3.125 5.19445 3.85333 4.43945 5 4.43945C5.16576 4.43945 5.32473 4.37361 5.44194 4.25639C5.55915 4.13918 5.625 3.98021 5.625 3.81445Z" fill="#222222"/>
<path fill-rule="evenodd" clip-rule="evenodd" d="M10 10.6895C8.51333 10.6895 7.13833 11.0895 6.1175 11.7703C5.10083 12.4486 4.375 13.4536 4.375 14.6478C4.375 15.842 5.10083 16.8478 6.1175 17.5253C7.13833 18.2053 8.51333 18.6061 10 18.6061C11.4867 18.6061 12.8617 18.2061 13.8825 17.5253C14.8992 16.847 15.625 15.842 15.625 14.6478C15.625 13.4536 14.8983 12.4478 13.8825 11.7703C12.8617 11.0903 11.4867 10.6895 10 10.6895ZM5.625 14.6478C5.625 14.0011 6.01833 13.3395 6.81083 12.8111C7.6 12.2853 8.72583 11.9395 10 11.9395C11.275 11.9395 12.4 12.2853 13.1892 12.8111C13.9817 13.3395 14.375 14.0011 14.375 14.6478C14.375 15.2945 13.9817 15.9561 13.1892 16.4845C12.4 17.0103 11.2742 17.3561 10 17.3561C8.725 17.3561 7.6 17.0103 6.81083 16.4845C6.01833 15.9561 5.625 15.2945 5.625 14.6478Z" fill="#222222"/>
<path d="M16.056 12.0136C16.0735 11.9333 16.1066 11.8572 16.1535 11.7897C16.2005 11.7222 16.2602 11.6646 16.3294 11.6203C16.3986 11.5759 16.4759 11.5457 16.5568 11.5312C16.6377 11.5168 16.7207 11.5184 16.801 11.5361C17.6018 11.7119 18.3243 12.0294 18.861 12.4686C19.3968 12.9069 19.7918 13.5102 19.7918 14.2302C19.7918 14.9511 19.3968 15.5536 18.861 15.9919C18.3243 16.4311 17.6027 16.7486 16.801 16.9244C16.7208 16.942 16.6379 16.9437 16.557 16.9293C16.4762 16.9148 16.399 16.8846 16.3298 16.8404C16.2606 16.7961 16.2008 16.7387 16.1538 16.6713C16.1069 16.6039 16.0736 16.528 16.056 16.4477C16.0384 16.3675 16.0367 16.2846 16.0512 16.2038C16.0656 16.1229 16.0958 16.0457 16.14 15.9765C16.1843 15.9073 16.2418 15.8476 16.3091 15.8006C16.3765 15.7536 16.4524 15.7204 16.5327 15.7027C17.1935 15.5586 17.721 15.3094 18.0693 15.0244C18.4177 14.7394 18.5418 14.4602 18.5418 14.2302C18.5418 14.0002 18.4177 13.7219 18.0693 13.4361C17.721 13.1511 17.1935 12.9027 16.5327 12.7577C16.4524 12.7402 16.3764 12.707 16.309 12.66C16.2416 12.613 16.1842 12.5532 16.1399 12.4841C16.0956 12.4149 16.0654 12.3376 16.051 12.2568C16.0366 12.1759 16.0383 12.093 16.056 12.0127M3.20016 11.5361C3.36217 11.5007 3.53158 11.5312 3.67114 11.6207C3.8107 11.7103 3.90897 11.8516 3.94433 12.0136C3.97969 12.1756 3.94925 12.345 3.8597 12.4846C3.77015 12.6241 3.62883 12.7224 3.46683 12.7577C2.80683 12.9019 2.27933 13.1511 1.931 13.4361C1.58266 13.7211 1.4585 14.0002 1.4585 14.2302C1.4585 14.4602 1.58266 14.7386 1.931 15.0244C2.27933 15.3094 2.80683 15.5577 3.46766 15.7027C3.62967 15.7383 3.7709 15.8368 3.86029 15.9765C3.94968 16.1162 3.97991 16.2857 3.94433 16.4477C3.90875 16.6098 3.81027 16.751 3.67055 16.8404C3.53084 16.9298 3.36133 16.96 3.19933 16.9244C2.39766 16.7486 1.676 16.4311 1.13933 15.9919C0.603496 15.5536 0.208496 14.9502 0.208496 14.2302C0.208496 13.5094 0.603496 12.9069 1.13933 12.4686C1.676 12.0294 2.3985 11.7119 3.20016 11.5361Z" fill="#222222"/>
</svg>
