<svg width="20" height="21" viewBox="0 0 20 21" fill="none" xmlns="http://www.w3.org/2000/svg">
<path fill-rule="evenodd" clip-rule="evenodd" d="M10.0013 1.52148C8.95149 1.52148 7.94467 1.93852 7.20234 2.68085C6.46001 3.42318 6.04297 4.43 6.04297 5.47982C6.04297 6.52963 6.46001 7.53645 7.20234 8.27878C7.94467 9.02111 8.95149 9.43815 10.0013 9.43815C11.0511 9.43815 12.0579 9.02111 12.8003 8.27878C13.5426 7.53645 13.9596 6.52963 13.9596 5.47982C13.9596 4.43 13.5426 3.42318 12.8003 2.68085C12.0579 1.93852 11.0511 1.52148 10.0013 1.52148ZM7.29297 5.47982C7.29297 4.76152 7.57831 4.07265 8.08622 3.56474C8.59413 3.05683 9.28301 2.77148 10.0013 2.77148C10.7196 2.77148 11.4085 3.05683 11.9164 3.56474C12.4243 4.07265 12.7096 4.76152 12.7096 5.47982C12.7096 6.19811 12.4243 6.88699 11.9164 7.3949C11.4085 7.90281 10.7196 8.18815 10.0013 8.18815C9.28301 8.18815 8.59413 7.90281 8.08622 7.3949C7.57831 6.88699 7.29297 6.19811 7.29297 5.47982Z" fill="white"/>
<path d="M15 3.18945C14.8342 3.18945 14.6753 3.2553 14.5581 3.37251C14.4408 3.48972 14.375 3.64869 14.375 3.81445C14.375 3.98021 14.4408 4.13918 14.5581 4.25639C14.6753 4.37361 14.8342 4.43945 15 4.43945C16.1475 4.43945 16.875 5.19445 16.875 5.89779C16.875 6.60112 16.1475 7.35612 15 7.35612C14.8342 7.35612 14.6753 7.42197 14.5581 7.53918C14.4408 7.65639 14.375 7.81536 14.375 7.98112C14.375 8.14688 14.4408 8.30585 14.5581 8.42306C14.6753 8.54027 14.8342 8.60612 15 8.60612C16.6142 8.60612 18.125 7.49529 18.125 5.89779C18.125 4.30029 16.6142 3.18945 15 3.18945ZM5.625 3.81445C5.625 3.64869 5.55915 3.48972 5.44194 3.37251C5.32473 3.2553 5.16576 3.18945 5 3.18945C3.38583 3.18945 1.875 4.30029 1.875 5.89779C1.875 7.49529 3.38583 8.60612 5 8.60612C5.16576 8.60612 5.32473 8.54027 5.44194 8.42306C5.55915 8.30585 5.625 8.14688 5.625 7.98112C5.625 7.81536 5.55915 7.65639 5.44194 7.53918C5.32473 7.42197 5.16576 7.35612 5 7.35612C3.85333 7.35612 3.125 6.60112 3.125 5.89779C3.125 5.19445 3.85333 4.43945 5 4.43945C5.16576 4.43945 5.32473 4.37361 5.44194 4.25639C5.55915 4.13918 5.625 3.98021 5.625 3.81445Z" fill="white"/>
<path fill-rule="evenodd" clip-rule="evenodd" d="M10 10.6895C8.51333 10.6895 7.13833 11.0895 6.1175 11.7703C5.10083 12.4486 4.375 13.4536 4.375 14.6478C4.375 15.842 5.10083 16.8478 6.1175 17.5253C7.13833 18.2053 8.51333 18.6061 10 18.6061C11.4867 18.6061 12.8617 18.2061 13.8825 17.5253C14.8992 16.847 15.625 15.842 15.625 14.6478C15.625 13.4536 14.8983 12.4478 13.8825 11.7703C12.8617 11.0903 11.4867 10.6895 10 10.6895ZM5.625 14.6478C5.625 14.0011 6.01833 13.3395 6.81083 12.8111C7.6 12.2853 8.72583 11.9395 10 11.9395C11.275 11.9395 12.4 12.2853 13.1892 12.8111C13.9817 13.3395 14.375 14.0011 14.375 14.6478C14.375 15.2945 13.9817 15.9561 13.1892 16.4845C12.4 17.0103 11.2742 17.3561 10 17.3561C8.725 17.3561 7.6 17.0103 6.81083 16.4845C6.01833 15.9561 5.625 15.2945 5.625 14.6478Z" fill="white"/>
<path d="M16.0545 12.0136C16.072 11.9333 16.1052 11.8572 16.1521 11.7897C16.199 11.7222 16.2588 11.6646 16.328 11.6203C16.3972 11.5759 16.4745 11.5457 16.5554 11.5312C16.6363 11.5168 16.7193 11.5184 16.7995 11.5361C17.6004 11.7119 18.3229 12.0294 18.8595 12.4686C19.3954 12.9069 19.7904 13.5102 19.7904 14.2302C19.7904 14.9511 19.3954 15.5536 18.8595 15.9919C18.3229 16.4311 17.6012 16.7486 16.7995 16.9244C16.7193 16.942 16.6364 16.9437 16.5556 16.9293C16.4747 16.9148 16.3975 16.8846 16.3283 16.8404C16.2591 16.7961 16.1993 16.7387 16.1524 16.6713C16.1054 16.6039 16.0722 16.528 16.0545 16.4477C16.0369 16.3675 16.0353 16.2846 16.0497 16.2038C16.0641 16.1229 16.0943 16.0457 16.1386 15.9765C16.1828 15.9073 16.2403 15.8476 16.3077 15.8006C16.375 15.7536 16.451 15.7204 16.5312 15.7027C17.192 15.5586 17.7195 15.3094 18.0679 15.0244C18.4162 14.7394 18.5404 14.4602 18.5404 14.2302C18.5404 14.0002 18.4162 13.7219 18.0679 13.4361C17.7195 13.1511 17.192 12.9027 16.5312 12.7577C16.451 12.7402 16.375 12.707 16.3076 12.66C16.2402 12.613 16.1827 12.5532 16.1384 12.4841C16.0942 12.4149 16.064 12.3376 16.0496 12.2568C16.0352 12.1759 16.0369 12.093 16.0545 12.0127M3.1987 11.5361C3.3607 11.5007 3.53012 11.5312 3.66968 11.6207C3.80923 11.7103 3.9075 11.8516 3.94286 12.0136C3.97823 12.1756 3.94779 12.345 3.85824 12.4846C3.76869 12.6241 3.62737 12.7224 3.46536 12.7577C2.80536 12.9019 2.27786 13.1511 1.92953 13.4361C1.5812 13.7211 1.45703 14.0002 1.45703 14.2302C1.45703 14.4602 1.5812 14.7386 1.92953 15.0244C2.27786 15.3094 2.80536 15.5577 3.4662 15.7027C3.6282 15.7383 3.76943 15.8368 3.85883 15.9765C3.94822 16.1162 3.97845 16.2857 3.94286 16.4477C3.90728 16.6098 3.8088 16.751 3.66909 16.8404C3.52937 16.9298 3.35987 16.96 3.19786 16.9244C2.3962 16.7486 1.67453 16.4311 1.13786 15.9919C0.602031 15.5536 0.207031 14.9502 0.207031 14.2302C0.207031 13.5094 0.602031 12.9069 1.13786 12.4686C1.67453 12.0294 2.39703 11.7119 3.1987 11.5361Z" fill="white"/>
</svg>
