<svg width="29" height="28" viewBox="0 0 29 28" fill="none" xmlns="http://www.w3.org/2000/svg">
<path fill-rule="evenodd" clip-rule="evenodd" d="M14.5002 1.45898C14.6265 1.4589 14.7514 1.48618 14.8662 1.53895C14.981 1.59171 15.083 1.66871 15.1652 1.76465L18.6652 5.84799C18.8162 6.02435 18.8909 6.25348 18.873 6.48496C18.855 6.71645 18.7459 6.93132 18.5695 7.08232C18.3931 7.23331 18.164 7.30806 17.9325 7.29012C17.701 7.27218 17.4862 7.16302 17.3352 6.98665L15.3752 4.69998V17.5007C15.3752 17.7327 15.283 17.9553 15.1189 18.1194C14.9548 18.2835 14.7322 18.3757 14.5002 18.3757C14.2681 18.3757 14.0455 18.2835 13.8814 18.1194C13.7174 17.9553 13.6252 17.7327 13.6252 17.5007V4.69882L11.6652 6.98665C11.5904 7.07398 11.4992 7.14573 11.3967 7.1978C11.2942 7.24987 11.1824 7.28124 11.0678 7.29012C10.9532 7.29901 10.8379 7.28523 10.7287 7.24957C10.6194 7.21392 10.5182 7.15708 10.4308 7.08232C10.3435 7.00755 10.2718 6.91632 10.2197 6.81382C10.1676 6.71133 10.1362 6.59958 10.1274 6.48496C10.1185 6.37035 10.1323 6.2551 10.1679 6.14581C10.2036 6.03651 10.2604 5.93531 10.3352 5.84799L13.8352 1.76465C13.9174 1.66871 14.0194 1.59171 14.1342 1.53895C14.249 1.48618 14.3738 1.4589 14.5002 1.45898ZM8.66216 9.62799C8.89423 9.62675 9.11728 9.71775 9.28225 9.88097C9.44722 10.0442 9.54059 10.2663 9.54183 10.4983C9.54307 10.7304 9.45207 10.9534 9.28885 11.1184C9.12563 11.2834 8.90356 11.3767 8.6715 11.378C7.39633 11.385 6.49216 11.4177 5.805 11.5437C5.14466 11.6662 4.76083 11.861 4.47733 12.1445C4.15416 12.4677 3.94416 12.9215 3.82866 13.7778C3.71083 14.6587 3.7085 15.8265 3.7085 17.5007V18.6673C3.7085 20.3427 3.71083 21.5105 3.82866 22.3913C3.94416 23.2477 4.15533 23.7003 4.47733 24.0247C4.8005 24.3467 5.25316 24.5567 6.11066 24.6722C6.99033 24.7912 8.15933 24.7923 9.8335 24.7923H19.1668C20.841 24.7923 22.0088 24.7912 22.8908 24.6722C23.7472 24.5567 24.1998 24.3467 24.523 24.0235C24.8462 23.7003 25.0562 23.2477 25.1717 22.3913C25.2895 21.5105 25.2918 20.3427 25.2918 18.6673V17.5007C25.2918 15.8265 25.2895 14.6587 25.1717 13.7767C25.0562 12.9215 24.845 12.4677 24.523 12.1445C24.2383 11.861 23.8557 11.6662 23.1953 11.5437C22.5082 11.4177 21.604 11.385 20.3288 11.378C20.2139 11.3774 20.1003 11.3541 19.9943 11.3096C19.8884 11.2651 19.7923 11.2001 19.7115 11.1184C19.6307 11.0367 19.5667 10.9399 19.5233 10.8335C19.4799 10.7271 19.4579 10.6132 19.4585 10.4983C19.4591 10.3834 19.4823 10.2698 19.5269 10.1638C19.5714 10.0579 19.6364 9.96178 19.7181 9.88097C19.7998 9.80015 19.8966 9.73621 20.003 9.69281C20.1094 9.6494 20.2233 9.62737 20.3382 9.62799C21.6005 9.63498 22.6517 9.66532 23.5115 9.82282C24.3958 9.98615 25.1483 10.2953 25.7608 10.9078C26.4632 11.609 26.7642 12.4945 26.9065 13.5445C27.0418 14.5548 27.0418 15.8417 27.0418 17.4365V18.7315C27.0418 20.3275 27.0418 21.6132 26.9065 22.6247C26.7642 23.6747 26.4632 24.559 25.7608 25.2613C25.0585 25.9637 24.1742 26.2647 23.1242 26.407C22.1127 26.5423 20.8258 26.5423 19.231 26.5423H9.76933C8.1745 26.5423 6.88766 26.5423 5.87616 26.407C4.82616 26.2658 3.94183 25.9637 3.2395 25.2613C2.53716 24.559 2.23616 23.6747 2.095 22.6247C1.9585 21.6132 1.9585 20.3263 1.9585 18.7315V17.4365C1.9585 15.8417 1.9585 14.5548 2.095 13.5433C2.235 12.4933 2.53833 11.609 3.2395 10.9067C3.852 10.2953 4.6045 9.98498 5.48883 9.82282C6.34866 9.66532 7.39983 9.63498 8.66216 9.62799Z" fill="#222222" fill-opacity="0.65"/>
</svg>
