<svg width="100" height="100" viewBox="0 0 100 100" fill="none" xmlns="http://www.w3.org/2000/svg">
<path opacity="0.2" fill-rule="evenodd" clip-rule="evenodd" d="M16.3906 45.6042C19.0756 42.9242 21.1406 37.7942 21.0656 34.0042C21.028 32.2148 21.3533 30.4363 22.0218 28.7761C22.6904 27.1158 23.6884 25.6082 24.9557 24.3442C26.2686 23.0283 27.8437 22.0033 29.5785 21.3357C31.3134 20.6681 33.1693 20.3729 35.0257 20.4692C38.5957 20.6492 43.1056 18.9192 45.6256 16.3892C46.8598 15.1544 48.3252 14.1748 49.9381 13.5065C51.551 12.8381 53.2798 12.4941 55.0257 12.4941C56.7715 12.4941 58.5003 12.8381 60.1132 13.5065C61.7261 14.1748 63.1915 15.1544 64.4257 16.3892C66.9507 18.9142 71.4557 20.6492 75.0257 20.4692C76.8829 20.3722 78.7397 20.6671 80.4755 21.3347C82.2113 22.0023 83.7871 23.0277 85.1007 24.3442C86.3676 25.6092 87.365 27.1178 88.0328 28.779C88.7005 30.4401 89.0246 32.2193 88.9857 34.0092C88.9107 37.7942 90.9856 42.9292 93.6607 45.6092C96.1521 48.1101 97.5485 51.4979 97.5429 55.028C97.5373 58.558 96.1301 61.9414 93.6306 64.4342C90.9906 67.0742 89.0607 71.6242 88.9907 75.3542C88.9257 78.7866 87.5311 82.0598 85.1007 84.4842C82.7716 86.8194 79.6549 88.2012 76.3607 88.3592C72.4057 88.5592 67.2257 90.8592 64.4257 93.6592C63.1915 94.8941 61.7261 95.8737 60.1132 96.542C58.5003 97.2104 56.7715 97.5543 55.0257 97.5543C53.2798 97.5543 51.551 97.2104 49.9381 96.542C48.3252 95.8737 46.8598 94.8941 45.6256 93.6592C42.8257 90.8592 37.6506 88.5592 33.6956 88.3592C30.4014 88.2012 27.2847 86.8194 24.9557 84.4842C22.5271 82.0625 21.1327 78.7932 21.0656 75.3642C20.9906 71.6242 19.0356 67.0442 16.3906 64.3992C15.1565 63.1651 14.1776 61.7001 13.5097 60.0876C12.8418 58.4752 12.498 56.747 12.498 55.0017C12.498 53.2565 12.8418 51.5283 13.5097 49.9158C14.1776 48.3034 15.1565 46.8383 16.3906 45.6042Z" fill="#A020F0"/>
<path fill-rule="evenodd" clip-rule="evenodd" d="M20.9906 20.3853C20.1998 21.1733 19.5772 22.1135 19.1603 23.1492C18.7435 24.1848 18.5412 25.2942 18.5656 26.4103C18.6156 29.1603 17.9156 32.0703 16.9006 34.5903C15.8856 37.1153 14.3706 39.7003 12.4306 41.6453C11.6607 42.4152 11.0499 43.3291 10.6332 44.335C10.2165 45.3409 10.002 46.419 10.002 47.5078C10.002 48.5966 10.2165 49.6748 10.6332 50.6807C11.0499 51.6866 11.6607 52.6005 12.4306 53.3703C15.9806 56.9253 18.4606 62.7353 18.5656 67.7653C18.6051 69.8633 19.4406 71.8678 20.9029 73.3727C22.3651 74.8777 24.3447 75.7705 26.4406 75.8703C29.1906 76.0053 32.0856 76.8403 34.6256 77.9703C37.1606 79.0953 39.7206 80.6803 41.6656 82.6253C42.4355 83.3953 43.3494 84.0061 44.3553 84.4228C45.3612 84.8395 46.4394 85.054 47.5281 85.054C48.6169 85.054 49.6951 84.8395 50.701 84.4228C51.7069 84.0061 52.6208 83.3953 53.3907 82.6253C55.3357 80.6803 57.8907 79.0953 60.4307 77.9653C62.9707 76.8403 65.8656 76.0053 68.6156 75.8703C70.7137 75.7715 72.6954 74.8777 74.1581 73.3704C75.6209 71.8631 76.4549 69.8554 76.4907 67.7553C76.5907 62.7453 79.0357 56.9603 82.5907 53.4053C83.3652 52.6355 83.9805 51.7206 84.4015 50.713C84.8224 49.7053 85.0407 48.6246 85.044 47.5326C85.0472 46.4405 84.8353 45.3586 84.4204 44.3484C84.0055 43.3383 83.3956 42.4198 82.6256 41.6453C80.6856 39.7053 79.1757 37.1203 78.1556 34.5953C77.1357 32.0753 76.4357 29.1603 76.4907 26.4103C76.5145 25.2939 76.3114 24.1842 75.8937 23.1486C75.476 22.1129 74.8524 21.1729 74.0607 20.3853C73.2426 19.5635 72.2605 18.9233 71.1785 18.5063C70.0964 18.0893 68.9387 17.905 67.7806 17.9653C62.8006 18.2153 56.9157 15.9553 53.3907 12.4303C52.6208 11.6604 51.7069 11.0496 50.701 10.6329C49.6951 10.2161 48.6169 10.0017 47.5281 10.0017C46.4394 10.0017 45.3612 10.2161 44.3553 10.6329C43.3494 11.0496 42.4355 11.6604 41.6656 12.4303C38.1406 15.9553 32.2556 18.2153 27.2756 17.9653C26.1168 17.9043 24.9581 18.0883 23.8751 18.5052C22.7922 18.9222 21.8093 19.5629 20.9906 20.3853ZM13.5656 26.5003C13.6406 30.2903 11.5756 35.4253 8.89065 38.1053C7.65654 39.3394 6.6776 40.8045 6.0097 42.4169C5.34181 44.0294 4.99805 45.7576 4.99805 47.5028C4.99805 49.2481 5.34181 50.9763 6.0097 52.5887C6.6776 54.2012 7.65654 55.6662 8.89065 56.9003C11.5406 59.5453 13.4906 64.1253 13.5656 67.8603C13.6356 71.1703 14.9306 74.4603 17.4556 76.9853C19.7847 79.3205 22.9014 80.7023 26.1956 80.8603C30.1506 81.0603 35.3306 83.3553 38.1306 86.1603C39.3647 87.3944 40.8298 88.3734 42.4422 89.0413C44.0547 89.7092 45.7829 90.0529 47.5281 90.0529C49.2734 90.0529 51.0016 89.7092 52.614 89.0413C54.2265 88.3734 55.6916 87.3944 56.9257 86.1603C59.7257 83.3553 64.9057 81.0603 68.8607 80.8603C72.1549 80.7023 75.2716 79.3205 77.6007 76.9853C80.0293 74.5601 81.422 71.287 81.4857 67.8553C81.5607 64.1203 83.4856 59.5753 86.1306 56.9353C88.6316 54.4423 90.0398 51.0578 90.0454 47.5266C90.051 43.9953 88.6536 40.6063 86.1607 38.1053C83.4807 35.4253 81.4107 30.2953 81.4907 26.5053C81.529 24.7151 81.204 22.9356 80.5355 21.2745C79.8669 19.6133 78.8685 18.1049 77.6007 16.8403C76.2871 15.5238 74.7113 14.4984 72.9755 13.8308C71.2397 13.1632 69.3829 12.8683 67.5257 12.9653C63.9557 13.1453 59.4507 11.4153 56.9257 8.88534C55.6915 7.65048 54.2261 6.6709 52.6132 6.00257C51.0003 5.33423 49.2715 4.99023 47.5257 4.99023C45.7798 4.99023 44.051 5.33423 42.4381 6.00257C40.8252 6.6709 39.3598 7.65048 38.1256 8.88534C35.6056 11.4153 31.0956 13.1453 27.5256 12.9653C25.6693 12.869 23.8134 13.1642 22.0785 13.8318C20.3437 14.4994 18.7686 15.5244 17.4556 16.8403C16.1884 18.1043 15.1904 19.6119 14.5218 21.2722C13.8533 22.9324 13.528 24.7109 13.5656 26.5003Z" fill="#A020F0"/>
<path fill-rule="evenodd" clip-rule="evenodd" d="M61.4907 32.819C61.7777 32.9786 62.0304 33.1931 62.2344 33.4503C62.4385 33.7075 62.5898 34.0024 62.6799 34.3181C62.77 34.6338 62.797 34.9642 62.7594 35.2904C62.7218 35.6165 62.6203 35.9321 62.4607 36.219L48.5757 61.219C48.4162 61.506 48.2016 61.7587 47.9444 61.9627C47.6872 62.1667 47.3923 62.3181 47.0766 62.4082C46.7609 62.4983 46.4305 62.5253 46.1044 62.4877C45.7782 62.4501 45.4627 62.3486 45.1757 62.189C44.8888 62.0295 44.6361 61.815 44.432 61.5577C44.228 61.3005 44.0766 61.0056 43.9866 60.6899C43.8965 60.3742 43.8695 60.0438 43.9071 59.7177C43.9447 59.3915 44.0462 59.076 44.2057 58.789L58.0907 33.789C58.2503 33.5021 58.4648 33.2494 58.722 33.0453C58.9792 32.8413 59.2741 32.6899 59.5898 32.5998C59.9055 32.5098 60.2359 32.4828 60.5621 32.5204C60.8882 32.558 61.2038 32.6595 61.4907 32.819Z" fill="#A020F0"/>
<path fill-rule="evenodd" clip-rule="evenodd" d="M30.5505 47.3306C30.9647 46.8141 31.5668 46.4829 32.2248 46.4098C32.8829 46.3367 33.543 46.5276 34.0605 46.9406L47.9505 58.0506C48.4683 58.465 48.8003 59.0682 48.8735 59.7274C48.9466 60.3866 48.7549 61.0478 48.3405 61.5656C47.9261 62.0835 47.3229 62.4155 46.6638 62.4886C46.0046 62.5618 45.3433 62.37 44.8255 61.9556L30.9405 50.8506C30.684 50.6455 30.4704 50.3918 30.312 50.1041C30.1536 49.8165 30.0534 49.5004 30.0172 49.1739C29.981 48.8475 30.0094 48.5172 30.1009 48.2017C30.1924 47.8863 30.3452 47.592 30.5505 47.3356" fill="#A020F0"/>
</svg>
