<svg width="20" height="20" viewBox="0 0 20 20" fill="none" xmlns="http://www.w3.org/2000/svg">
<path fill-rule="evenodd" clip-rule="evenodd" d="M10.0003 1.04102C10.1661 1.04102 10.3251 1.10686 10.4423 1.22407C10.5595 1.34128 10.6253 1.50026 10.6253 1.66602V10.8102L12.0253 9.17602C12.0787 9.11364 12.1439 9.06239 12.2171 9.0252C12.2903 8.988 12.3701 8.96559 12.452 8.95925C12.5339 8.9529 12.6162 8.96275 12.6943 8.98821C12.7723 9.01368 12.8446 9.05428 12.907 9.10768C12.9694 9.16109 13.0206 9.22625 13.0578 9.29946C13.095 9.37267 13.1174 9.45249 13.1238 9.53436C13.1301 9.61623 13.1203 9.69855 13.0948 9.77662C13.0693 9.85468 13.0287 9.92697 12.9753 9.98935L10.4753 12.906C10.4167 12.9746 10.3438 13.0297 10.2618 13.0675C10.1798 13.1053 10.0906 13.1248 10.0003 13.1248C9.91005 13.1248 9.82084 13.1053 9.73884 13.0675C9.65684 13.0297 9.584 12.9746 9.52533 12.906L7.02533 9.98935C6.97192 9.92697 6.93133 9.85468 6.90586 9.77662C6.88039 9.69855 6.87055 9.61623 6.87689 9.53436C6.88324 9.45249 6.90565 9.37267 6.94284 9.29946C6.98003 9.22625 7.03128 9.16109 7.09366 9.10768C7.15604 9.05428 7.22832 9.01368 7.30639 8.98821C7.38446 8.96275 7.46677 8.9529 7.54864 8.95925C7.63051 8.96559 7.71033 8.988 7.78354 9.0252C7.85675 9.06239 7.92192 9.11364 7.97533 9.17602L9.37533 10.8093V1.66602C9.37533 1.50026 9.44117 1.34128 9.55838 1.22407C9.67559 1.10686 9.83457 1.04102 10.0003 1.04102ZM5.83033 6.87602C5.99609 6.87513 6.15541 6.94013 6.27324 7.05672C6.39108 7.1733 6.45777 7.33192 6.45866 7.49768C6.45954 7.66344 6.39454 7.82276 6.27796 7.9406C6.16137 8.05844 6.00275 8.12513 5.83699 8.12602C4.92616 8.13102 4.28033 8.15435 3.78949 8.24435C3.31783 8.33185 3.04366 8.47102 2.84116 8.67352C2.61033 8.90435 2.46033 9.22852 2.37783 9.84018C2.29366 10.4693 2.29199 11.3035 2.29199 12.4993V13.3327C2.29199 14.5293 2.29366 15.3635 2.37783 15.9927C2.46033 16.6043 2.61116 16.9277 2.84116 17.1593C3.07199 17.3893 3.39533 17.5393 4.00783 17.6218C4.63616 17.7068 5.47116 17.7077 6.66699 17.7077H13.3337C14.5295 17.7077 15.3637 17.7068 15.9937 17.6218C16.6053 17.5393 16.9287 17.3893 17.1595 17.1585C17.3903 16.9277 17.5403 16.6043 17.6228 15.9927C17.707 15.3635 17.7087 14.5293 17.7087 13.3327V12.4993C17.7087 11.3035 17.707 10.4693 17.6228 9.83935C17.5403 9.22851 17.3895 8.90435 17.1595 8.67352C16.9562 8.47102 16.6828 8.33185 16.2112 8.24435C15.7203 8.15435 15.0745 8.13102 14.1637 8.12602C14.0816 8.12558 14.0004 8.10898 13.9247 8.07716C13.8491 8.04535 13.7804 7.99895 13.7227 7.9406C13.665 7.88225 13.6193 7.81311 13.5883 7.73711C13.5573 7.66112 13.5416 7.57976 13.542 7.49768C13.5424 7.41561 13.559 7.33442 13.5908 7.25876C13.6227 7.1831 13.6691 7.11444 13.7274 7.05672C13.7858 6.99899 13.8549 6.95332 13.9309 6.92232C14.0069 6.89131 14.0882 6.87558 14.1703 6.87602C15.072 6.88102 15.8228 6.90268 16.437 7.01518C17.0687 7.13185 17.6062 7.35268 18.0437 7.79018C18.5453 8.29102 18.7603 8.92352 18.862 9.67352C18.9587 10.3952 18.9587 11.3143 18.9587 12.4535V13.3785C18.9587 14.5185 18.9587 15.4368 18.862 16.1593C18.7603 16.9093 18.5453 17.541 18.0437 18.0427C17.542 18.5443 16.9103 18.7593 16.1603 18.861C15.4378 18.9577 14.5187 18.9577 13.3795 18.9577H6.62116C5.48199 18.9577 4.56283 18.9577 3.84033 18.861C3.09033 18.7602 2.45866 18.5443 1.95699 18.0427C1.45533 17.541 1.24033 16.9093 1.13949 16.1593C1.04199 15.4368 1.04199 14.5177 1.04199 13.3785V12.4535C1.04199 11.3143 1.04199 10.3952 1.13949 9.67268C1.23949 8.92268 1.45616 8.29102 1.95699 7.78935C2.39449 7.35268 2.93199 7.13102 3.56366 7.01518C4.17783 6.90268 4.92866 6.88102 5.83033 6.87602Z" fill="#222222"/>
</svg>
