<svg width="20" height="21" viewBox="0 0 20 21" fill="none" xmlns="http://www.w3.org/2000/svg">
<path fill-rule="evenodd" clip-rule="evenodd" d="M9.95234 1.52148H10.0473C11.9715 1.52148 13.479 1.52148 14.6557 1.67982C15.859 1.84148 16.809 2.17982 17.5548 2.92482C18.3007 3.67065 18.6382 4.62065 18.7998 5.82482C18.9582 7.00065 18.9582 8.50815 18.9582 10.4323V10.5273C18.9582 12.4515 18.9582 13.959 18.7998 15.1357C18.6382 16.339 18.2998 17.289 17.5548 18.0348C16.809 18.7807 15.859 19.1182 14.6548 19.2798C13.479 19.4382 11.9715 19.4382 10.0473 19.4382H9.95234C8.02817 19.4382 6.52067 19.4382 5.344 19.2798C4.14067 19.1182 3.19067 18.7798 2.44484 18.0348C1.699 17.289 1.3615 16.339 1.19984 15.1348C1.0415 13.959 1.0415 12.4515 1.0415 10.5273V10.4323C1.0415 8.50815 1.0415 7.00065 1.19984 5.82398C1.3615 4.62065 1.69984 3.67065 2.44484 2.92482C3.19067 2.17898 4.14067 1.84148 5.34484 1.67982C6.52067 1.52148 8.02817 1.52148 9.95234 1.52148ZM5.51067 2.91815C4.44567 3.06148 3.80317 3.33482 3.329 3.80898C2.854 4.28398 2.5815 4.92565 2.43817 5.99148C2.29317 7.07482 2.2915 8.49815 2.2915 10.4798C2.2915 12.4615 2.29317 13.8848 2.43817 14.9682C2.5815 16.034 2.85484 16.6765 3.329 17.1515C3.804 17.6257 4.44567 17.8981 5.5115 18.0415C6.59484 18.1865 8.01817 18.1882 9.99984 18.1882C11.9815 18.1882 13.4048 18.1865 14.4882 18.0415C15.554 17.8981 16.1965 17.6248 16.6715 17.1507C17.1457 16.6756 17.4182 16.034 17.5615 14.9682C17.7065 13.8848 17.7082 12.4615 17.7082 10.4798C17.7082 8.49815 17.7065 7.07482 17.5615 5.99148C17.4182 4.92565 17.1448 4.28315 16.6707 3.80815C16.1957 3.33398 15.554 3.06148 14.4882 2.91815C13.4048 2.77315 11.9815 2.77148 9.99984 2.77148C8.01817 2.77148 6.594 2.77315 5.51067 2.91815ZM8.76484 5.85982C8.82436 5.91642 8.87214 5.98421 8.90545 6.05929C8.93876 6.13438 8.95694 6.21529 8.95895 6.29741C8.96096 6.37953 8.94677 6.46123 8.91718 6.53786C8.88759 6.61449 8.84318 6.68453 8.7865 6.74398L6.40567 9.24398C6.3473 9.30525 6.27709 9.35402 6.19931 9.38735C6.12153 9.42068 6.03779 9.43786 5.95317 9.43786C5.86855 9.43786 5.78481 9.42068 5.70703 9.38735C5.62925 9.35402 5.55904 9.30525 5.50067 9.24398L4.54817 8.24398C4.48914 8.18505 4.4425 8.1149 4.41101 8.03767C4.37951 7.96043 4.36379 7.87767 4.36478 7.79427C4.36577 7.71087 4.38344 7.6285 4.41676 7.55203C4.45007 7.47556 4.49836 7.40654 4.55877 7.34902C4.61917 7.29151 4.69048 7.24666 4.76849 7.21714C4.8465 7.18761 4.92963 7.174 5.01299 7.1771C5.09634 7.1802 5.17823 7.19996 5.25383 7.2352C5.32943 7.27045 5.39721 7.32047 5.45317 7.38232L5.95317 7.90732L7.8815 5.88232C7.9958 5.76236 8.15304 5.69269 8.31869 5.68862C8.48433 5.68456 8.6448 5.7456 8.76484 5.85982ZM10.2082 7.97982C10.2082 7.81406 10.274 7.65509 10.3912 7.53788C10.5084 7.42067 10.6674 7.35482 10.8332 7.35482H14.9998C15.1656 7.35482 15.3246 7.42067 15.4418 7.53788C15.559 7.65509 15.6248 7.81406 15.6248 7.97982C15.6248 8.14558 15.559 8.30455 15.4418 8.42176C15.3246 8.53897 15.1656 8.60482 14.9998 8.60482H10.8332C10.6674 8.60482 10.5084 8.53897 10.3912 8.42176C10.274 8.30455 10.2082 8.14558 10.2082 7.97982ZM8.764 11.694C9.014 11.9323 9.024 12.3273 8.78567 12.5773L6.40484 15.0773C6.34647 15.1386 6.27626 15.1874 6.19848 15.2207C6.1207 15.254 6.03696 15.2712 5.95234 15.2712C5.86772 15.2712 5.78398 15.254 5.70619 15.2207C5.62841 15.1874 5.55821 15.1386 5.49984 15.0773L4.54734 14.0773C4.48831 14.0184 4.44167 13.9482 4.41017 13.871C4.37868 13.7938 4.36296 13.711 4.36395 13.6276C4.36494 13.5442 4.38261 13.4618 4.41592 13.3854C4.44924 13.3089 4.49752 13.2399 4.55793 13.1824C4.61834 13.1248 4.68965 13.08 4.76766 13.0505C4.84567 13.0209 4.9288 13.0073 5.01215 13.0104C5.09551 13.0135 5.1774 13.0333 5.25299 13.0685C5.32859 13.1038 5.39637 13.1538 5.45234 13.2157L5.95234 13.7407L7.88067 11.7157C7.99496 11.5957 8.15221 11.526 8.31785 11.522C8.48349 11.5179 8.64397 11.5798 8.764 11.694ZM10.2082 13.8132C10.2082 13.6474 10.274 13.4884 10.3912 13.3712C10.5084 13.254 10.6674 13.1882 10.8332 13.1882H14.9998C15.1656 13.1882 15.3246 13.254 15.4418 13.3712C15.559 13.4884 15.6248 13.6474 15.6248 13.8132C15.6248 13.9789 15.559 14.1379 15.4418 14.2551C15.3246 14.3723 15.1656 14.4382 14.9998 14.4382H10.8332C10.6674 14.4382 10.5084 14.3723 10.3912 14.2551C10.274 14.1379 10.2082 13.9789 10.2082 13.8132Z" fill="#222222"/>
</svg>
