<svg width="20" height="21" viewBox="0 0 20 21" fill="none" xmlns="http://www.w3.org/2000/svg">
<path fill-rule="evenodd" clip-rule="evenodd" d="M9.95283 1.52148H10.0478C11.972 1.52148 13.4795 1.52148 14.6562 1.67982C15.8595 1.84148 16.8095 2.17982 17.5553 2.92482C18.3012 3.67065 18.6387 4.62065 18.8003 5.82482C18.9587 7.00065 18.9587 8.50815 18.9587 10.4323V10.5273C18.9587 12.4515 18.9587 13.959 18.8003 15.1357C18.6387 16.339 18.3003 17.289 17.5553 18.0348C16.8095 18.7807 15.8595 19.1182 14.6553 19.2798C13.4795 19.4382 11.972 19.4382 10.0478 19.4382H9.95283C8.02866 19.4382 6.52116 19.4382 5.34449 19.2798C4.14116 19.1182 3.19116 18.7798 2.44533 18.0348C1.69949 17.289 1.36199 16.339 1.20033 15.1348C1.04199 13.959 1.04199 12.4515 1.04199 10.5273V10.4323C1.04199 8.50815 1.04199 7.00065 1.20033 5.82398C1.36199 4.62065 1.70033 3.67065 2.44533 2.92482C3.19116 2.17898 4.14116 1.84148 5.34533 1.67982C6.52116 1.52148 8.02866 1.52148 9.95283 1.52148ZM5.51116 2.91815C4.44616 3.06148 3.80366 3.33482 3.32949 3.80898C2.85449 4.28398 2.58199 4.92565 2.43866 5.99148C2.29366 7.07482 2.29199 8.49815 2.29199 10.4798C2.29199 12.4615 2.29366 13.8848 2.43866 14.9682C2.58199 16.034 2.85533 16.6765 3.32949 17.1515C3.80449 17.6257 4.44616 17.8981 5.51199 18.0415C6.59532 18.1865 8.01866 18.1882 10.0003 18.1882C11.982 18.1882 13.4053 18.1865 14.4887 18.0415C15.5545 17.8981 16.197 17.6248 16.672 17.1507C17.1462 16.6756 17.4187 16.034 17.562 14.9682C17.707 13.8848 17.7087 12.4615 17.7087 10.4798C17.7087 8.49815 17.707 7.07482 17.562 5.99148C17.4187 4.92565 17.1453 4.28315 16.6712 3.80815C16.1962 3.33398 15.5545 3.06148 14.4887 2.91815C13.4053 2.77315 11.982 2.77148 10.0003 2.77148C8.01866 2.77148 6.59449 2.77315 5.51116 2.91815ZM8.76533 5.85982C8.82485 5.91642 8.87263 5.98421 8.90594 6.05929C8.93924 6.13438 8.95742 6.21529 8.95944 6.29741C8.96145 6.37953 8.94725 6.46123 8.91767 6.53786C8.88808 6.61449 8.84367 6.68453 8.78699 6.74398L6.40616 9.24398C6.34779 9.30525 6.27758 9.35402 6.1998 9.38735C6.12202 9.42068 6.03828 9.43786 5.95366 9.43786C5.86904 9.43786 5.7853 9.42068 5.70752 9.38735C5.62973 9.35402 5.55953 9.30525 5.50116 9.24398L4.54866 8.24398C4.48963 8.18505 4.44299 8.1149 4.4115 8.03767C4.38 7.96043 4.36428 7.87767 4.36527 7.79427C4.36626 7.71087 4.38393 7.6285 4.41724 7.55203C4.45056 7.47556 4.49885 7.40654 4.55925 7.34902C4.61966 7.29151 4.69097 7.24666 4.76898 7.21714C4.84699 7.18761 4.93012 7.174 5.01348 7.1771C5.09683 7.1802 5.17872 7.19996 5.25432 7.2352C5.32991 7.27045 5.39769 7.32047 5.45366 7.38232L5.95366 7.90732L7.88199 5.88232C7.99628 5.76236 8.15353 5.69269 8.31917 5.68862C8.48481 5.68456 8.64529 5.7456 8.76533 5.85982ZM10.2087 7.97982C10.2087 7.81406 10.2745 7.65509 10.3917 7.53788C10.5089 7.42067 10.6679 7.35482 10.8337 7.35482H15.0003C15.1661 7.35482 15.3251 7.42067 15.4423 7.53788C15.5595 7.65509 15.6253 7.81406 15.6253 7.97982C15.6253 8.14558 15.5595 8.30455 15.4423 8.42176C15.3251 8.53897 15.1661 8.60482 15.0003 8.60482H10.8337C10.6679 8.60482 10.5089 8.53897 10.3917 8.42176C10.2745 8.30455 10.2087 8.14558 10.2087 7.97982ZM8.76449 11.694C9.01449 11.9323 9.02449 12.3273 8.78616 12.5773L6.40533 15.0773C6.34695 15.1386 6.27675 15.1874 6.19897 15.2207C6.12119 15.254 6.03745 15.2712 5.95283 15.2712C5.8682 15.2712 5.78447 15.254 5.70668 15.2207C5.6289 15.1874 5.5587 15.1386 5.50033 15.0773L4.54783 14.0773C4.4888 14.0184 4.44216 13.9482 4.41066 13.871C4.37917 13.7938 4.36345 13.711 4.36444 13.6276C4.36542 13.5442 4.3831 13.4618 4.41641 13.3854C4.44973 13.3089 4.49801 13.2399 4.55842 13.1824C4.61883 13.1248 4.69014 13.08 4.76815 13.0505C4.84616 13.0209 4.92929 13.0073 5.01264 13.0104C5.096 13.0135 5.17788 13.0333 5.25348 13.0685C5.32908 13.1038 5.39686 13.1538 5.45283 13.2157L5.95283 13.7407L7.88116 11.7157C7.99545 11.5957 8.1527 11.526 8.31834 11.522C8.48398 11.5179 8.64446 11.5798 8.76449 11.694ZM10.2087 13.8132C10.2087 13.6474 10.2745 13.4884 10.3917 13.3712C10.5089 13.254 10.6679 13.1882 10.8337 13.1882H15.0003C15.1661 13.1882 15.3251 13.254 15.4423 13.3712C15.5595 13.4884 15.6253 13.6474 15.6253 13.8132C15.6253 13.9789 15.5595 14.1379 15.4423 14.2551C15.3251 14.3723 15.1661 14.4382 15.0003 14.4382H10.8337C10.6679 14.4382 10.5089 14.3723 10.3917 14.2551C10.2745 14.1379 10.2087 13.9789 10.2087 13.8132Z" fill="white"/>
</svg>
